<svg width="240" height="324" viewBox="0 0 240 324" fill="none" xmlns="http://www.w3.org/2000/svg">
<path fill-rule="evenodd" clip-rule="evenodd" d="M170.479 181.122C168.644 180.468 166.876 179.712 165.265 178.601C160.62 175.142 157.592 169.938 154.731 165.007C150.7 157.835 147.829 150.193 145.844 142.221C144.991 138.796 144.701 134.824 142.764 131.788C138.371 125.429 125.49 126.253 118.65 127.369C114.07 128.18 113.123 133.308 112.083 137.102C111.217 140.255 110.65 143.443 110.174 146.674C109.042 147.419 107.763 148.024 106.545 148.551C93.2645 152.625 90.9305 160.177 85.8581 171.843C77.291 188.8 54.0442 195.439 50.5327 215.506C48.2702 228.755 54.704 241.219 61.3372 252.233C67.5146 264.263 76.1388 270.037 89.8731 267.195C102.755 264.304 115.135 259.468 127.791 255.731C133.92 254.224 140.04 250.302 146.488 251.669C159.773 254.654 173.424 256.058 187.039 255.67C206.155 256.444 206.152 238.089 204.19 223.875C202.816 201.755 191.663 187.551 170.479 181.122Z" fill="white"/>
<path fill-rule="evenodd" clip-rule="evenodd" d="M171.757 213.13C173.354 214.187 174.698 215.789 175.776 217.475C171.274 217.007 166.779 216.467 162.294 215.852C162.881 215.476 163.474 215.109 164.08 214.762C166.291 213.516 169.288 211.497 171.757 213.13ZM96.9502 226.445C96.1252 226.122 95.806 224.863 95.4844 224.142C94.4762 221.88 93.5562 219.579 92.5989 217.295C96.2336 216.259 99.7681 215.109 103.533 214.556C107.582 213.963 111.69 213.819 115.776 213.953C124.052 214.223 132.252 215.576 140.388 217.027C148.516 218.476 156.642 219.868 164.826 220.961C172.845 222.031 180.888 222.815 188.947 223.503C190.513 223.636 193.123 224.2 194.382 222.967C195.379 221.991 195.412 220.19 194.164 219.397C193.387 218.902 192.261 218.895 191.374 218.781C190.255 218.637 189.133 218.541 188.008 218.466C187.55 218.436 187.092 218.408 186.633 218.38C190.313 216.992 194.156 216.236 198.145 216.447C198.371 217.818 199.387 219.228 199.944 220.359C200.915 222.333 201.672 224.331 202.169 226.477C203.208 230.964 203.254 235.62 202.96 240.196C202.69 244.011 202.111 248.232 199.12 250.934C196.855 252.98 193.659 253.737 190.694 253.975C187.249 254.252 183.75 253.957 180.333 253.495C175.54 252.846 170.726 251.989 166.028 250.84C156.928 248.615 148.206 245.075 140.159 240.274C136.235 237.934 132.49 235.3 128.512 233.049C124.459 230.754 120.145 228.973 115.616 227.868C110.548 226.631 105.249 226.103 100.04 226.408C99.1355 226.461 97.8295 226.789 96.9502 226.445ZM91.0765 224.148C91.6091 225.877 92.0167 227.851 93.1535 229.304C94.2796 230.744 95.9784 231.252 97.7382 231.38C99.8602 231.534 102.007 231.435 104.134 231.514C108.495 231.676 112.797 232.385 116.967 233.685C120.852 234.897 124.459 236.787 127.934 238.883C131.147 240.822 134.266 242.904 137.48 244.837C136.624 245.229 135.778 245.653 134.928 246.023C133.145 246.798 131.35 247.545 129.548 248.274C125.993 249.711 122.423 251.114 118.817 252.416C111.546 255.043 104.155 257.338 96.6749 259.293C93.1075 260.226 89.4893 261.315 85.783 261.47C82.4965 261.607 79.4524 260.678 76.8018 258.723C71.3042 254.669 66.9303 248.817 63.3946 243.044C61.2939 239.614 59.4608 236.011 57.9445 232.285C57.1776 230.401 56.4821 228.488 55.8561 226.552C55.5624 225.643 55.284 224.729 55.0203 223.811C54.9043 223.408 54.7932 223.003 54.6832 222.597C60.3048 220.881 65.9932 219.332 71.8151 218.472C74.9234 218.013 78.0732 217.78 81.2156 217.814C82.7754 217.831 84.3344 217.915 85.8859 218.076C86.721 218.163 87.5528 218.274 88.381 218.413C88.7232 218.469 89.075 218.553 89.4278 218.615C89.9667 220.463 90.5101 222.309 91.0765 224.148ZM207.283 216.803C207.586 216.19 207.713 215.586 207.822 214.919C207.905 214.41 208.124 213.693 207.932 213.032C207.717 212.292 207.129 211.629 206.708 210.998C206.243 210.3 205.778 209.602 205.313 208.903C204.384 207.506 203.457 206.107 202.532 204.708C198.753 198.993 195 193.261 191.241 187.533C187.905 182.45 184.625 177.321 181.188 172.306C178.248 168.018 175.044 163.8 171.021 160.465C165.934 156.248 159.876 154.262 153.549 152.712C152.858 151.994 151.935 151.602 150.949 151.682C149.555 150.1 148.447 148.996 147.944 146.984C147.704 146.021 147.779 143.314 146.841 142.744C145.727 142.067 145.146 142.963 144.838 143.973C143.811 147.353 144.99 151.897 147.705 155.282C146.561 159.236 145.045 164.857 142.34 168.025C139.443 171.417 135.436 172.473 131.114 172.543C122.871 172.675 114.636 169.61 108.349 164.299C106.437 162.685 104.663 160.881 103.057 158.964C101.852 157.525 100.427 155.305 99.4852 153.627C99.4852 152.973 98.7134 152.289 106.571 151.761C114.429 151.232 115.025 140.469 115.199 139.004C115.341 137.815 115.945 135.968 115.107 134.998C114.752 134.586 114.022 134.52 113.571 134.8C112.721 135.328 112.442 136.679 112.175 137.596C111.8 138.88 110.576 146.854 108.257 147.777C107.172 148.209 105.926 148.217 104.778 148.297C103.36 148.396 101.938 148.469 100.526 148.634C100.005 148.695 99.4366 148.863 98.9226 148.868C98.5882 148.872 98.2431 148.709 97.9199 148.595C96.8289 148.209 95.7388 148.498 94.6148 148.65C84.6777 149.986 74.4458 153.035 65.9697 158.521C58.4989 163.357 53.2355 170.311 49.7625 178.442C46.2189 186.74 44.1878 195.714 42.4856 204.547C41.9154 207.507 41.4174 210.481 40.9896 213.464C40.5762 216.347 40.059 219.295 39.9352 222.207C39.8862 223.359 40.1615 224.43 40.5851 225.482C41.0621 226.667 42.1896 227.134 43.2711 227.687C45.6451 228.902 48.1495 229.844 50.7297 230.511C52.306 233.38 53.6325 236.361 54.6986 239.454C54.3031 240.238 54.2948 241.409 54.2188 242.171C54.0301 244.068 53.9494 245.975 53.9325 247.881C53.8985 251.701 54.1281 255.518 54.3082 259.332C54.4907 263.2 55.0974 278.464 55.1963 280.328C55.2732 281.776 55.1697 283.801 55.9322 285.087C57.1039 287.062 59.9957 286.996 61.3351 285.394C94.6148 292.551 157.171 290.395 182.366 286.794C185.644 286.326 184.615 286.845 185.448 286.017C186.074 285.395 186.606 284.329 186.779 283.473C187.01 282.33 186.637 281.296 185.983 280.371C185.296 279.399 185.17 277.824 184.915 276.668C184.311 273.935 184.011 261.932 183.728 260.602C183.64 260.188 183.555 259.75 183.453 259.312C188.074 259.749 192.89 259.749 197.286 258.203C199.779 257.326 202.105 255.949 203.894 253.982C206.062 251.601 207.267 248.603 207.887 245.474C208.688 241.439 208.857 237.26 208.7 233.158C208.482 228.311 207.678 223.395 205.683 218.944C206.34 218.334 206.89 217.599 207.283 216.803Z" fill="black"/>
<path fill-rule="evenodd" clip-rule="evenodd" d="M164.267 102.294C163.812 98.2964 164.4 89.9404 164.44 89.4328C164.689 86.2234 163.186 73.5502 160.345 74.7179C155.578 70.943 149.229 70.1094 143.293 69.7112C130.961 68.884 117.843 70.783 108.321 79.0848C103.612 83.3962 99.0281 89.6667 99.3966 96.1958C95.1182 102.385 89.0867 110.874 94.4173 118.109C96.2293 120.421 99.1092 121.281 101.385 123.032C105.964 126.726 108.836 132.028 113.458 135.701C125.704 146.708 146.496 149.008 158.527 136.488C167.83 127.42 166.326 113.854 164.689 102.294C163.589 94.5222 165.154 110.093 164.267 102.294Z" fill="white"/>
<path fill-rule="evenodd" clip-rule="evenodd" d="M126.82 52.7582C130.118 52.0924 133.504 51.6782 136.872 51.8029L137.131 51.813C139.665 51.9143 142.875 52.1384 145.085 53.6124C145.212 53.4848 145.417 53.4193 145.602 53.5078C148.229 54.7622 151.118 55.6691 153.884 56.5703C156.638 57.4671 159.494 58.059 162.38 58.2977C163.465 58.3875 164.395 59.5603 163.707 60.6122C163.544 60.8628 163.384 61.116 163.226 61.3698C163.491 61.3422 163.756 61.3136 164.022 61.2868C164.895 61.1989 165.767 62.1311 165.715 62.9816C165.683 63.5165 165.625 64.0451 165.54 64.5674C165.873 64.5604 166.203 64.6103 166.523 64.7453C168.14 65.4286 168.027 67.3559 167.906 68.8223C167.739 70.8572 166.978 73.0125 165.565 74.5355C166.62 75.6313 167.367 76.94 167.812 78.4943C168.135 79.6292 168.315 80.8382 168.226 82.0196L168.198 82.3733C168.088 83.6554 167.87 85.0749 166.948 85.9972C166.475 86.4728 165.892 86.6461 165.336 86.5911C165.672 89.5458 165.887 92.5174 166.09 95.4784L166.185 96.8936C166.638 103.737 166.978 110.625 166.889 117.48C166.806 123.886 165.541 130.104 161.613 135.305C158.036 140.042 152.901 143.533 147.091 144.86C143.96 145.577 140.763 145.628 137.594 145.171C136.058 144.949 134.512 144.609 133.054 144.072C131.44 143.476 130.28 142.599 129.194 141.284C128.681 140.661 128.928 139.334 129.951 139.458C131.497 139.646 132.909 139.872 134.392 140.33L134.605 140.397C136.082 140.87 137.611 141.223 139.155 141.373C142.318 141.68 145.529 141.371 148.559 140.411C153.492 138.847 157.741 135.362 160.464 130.983C163.696 125.792 164.062 119.9 164.015 113.931C163.965 107.382 163.752 100.829 163.405 94.2862L163.346 93.1958C163.162 89.829 162.984 86.4601 162.828 83.0912C162.78 82.0344 162.706 80.9692 162.572 79.9146C161.354 79.2002 160.261 78.2153 159.549 77C158.119 77.5918 156.615 78.0188 155.231 78.359C152.025 79.1478 148.697 79.3393 145.434 78.8453C144.554 79.2091 143.656 79.5289 142.744 79.804C142.498 79.9133 142.252 80.0207 142.006 80.1259C139.808 81.0664 137.579 81.8632 135.26 82.4465L134.69 82.5887C133.469 82.8897 132.143 83.1862 130.844 83.2793C130.631 83.3617 130.401 83.4314 130.149 83.4927C128.966 83.7802 127.739 83.871 126.526 83.7696C125.345 83.6703 124.491 82.4761 125.142 81.3581C125.617 80.5423 126.097 79.7286 126.581 78.917C124.897 79.6187 123.158 80.202 121.405 80.6966C119.635 81.1954 117.839 81.6159 116.041 82.0027C115.079 82.2077 114.114 82.3895 113.155 82.5945C112.468 82.7403 111.414 82.8164 110.854 83.2687C110.235 83.7654 110.06 84.9236 109.825 85.6379C109.517 86.5658 109.227 87.4978 108.963 88.4404C108.437 90.3215 108.006 92.2299 107.673 94.1575C107.339 96.0871 107.115 98.0357 106.99 99.9907C106.865 101.944 106.92 103.909 106.72 105.854C106.612 106.885 105.505 107.415 104.687 106.695C104.591 106.61 104.495 106.525 104.399 106.438L104.256 106.308C103.557 105.674 102.879 105.002 102.319 104.245C102.218 104.106 102.12 103.96 102.03 103.812C102.015 103.812 102.002 103.808 101.987 103.797L101.832 103.68C100.123 102.408 97.2689 100.749 95.6028 102.863C95.0719 103.536 94.8001 104.394 94.5745 105.221L94.1786 106.701C93.9226 107.668 93.6816 108.639 93.5406 109.628C93.2216 111.843 93.3822 114.396 94.9056 116.172C95.5141 116.882 96.3528 117.389 97.2885 117.522C97.8106 117.594 98.3261 117.505 98.8437 117.44C99.3697 117.374 99.8766 117.48 100.403 117.429C101.239 117.347 101.605 118.349 101.292 118.978C101.123 119.317 100.924 119.608 100.699 119.856C100.88 120.012 101.054 120.181 101.22 120.359C101.715 120.517 102.158 120.857 102.49 121.308C102.758 121.671 102.898 122.066 102.921 122.483C102.95 122.586 102.976 122.692 102.999 122.8L103.453 123.536C103.552 123.697 103.652 123.856 103.751 124.013C104.905 125.83 106.185 127.369 107.776 128.819C109.308 130.214 110.97 131.463 112.409 132.959L112.579 133.137C113.92 134.551 115.334 136.263 114.809 138.319C114.674 138.847 113.936 139.228 113.455 138.871C111.906 137.721 111.127 135.899 109.813 134.504C108.46 133.067 106.962 131.776 105.606 130.343C104.324 128.99 103.312 127.458 102.549 125.771C102.245 126.107 101.801 126.346 101.187 126.439C100.13 126.598 99.1456 125.978 98.6852 125.063C98.3892 125.194 98.0873 125.313 97.7829 125.406C96.1815 125.896 95.1739 124.114 95.7782 122.798C96.1012 122.092 96.5047 121.479 97.0056 120.963C95.4399 120.747 93.847 119.938 92.8181 118.928C90.2366 116.389 89.8817 112.575 90.4627 109.182C90.7711 107.384 91.3033 105.564 91.9944 103.875C92.1146 103.582 92.2437 103.286 92.385 102.994C92.3068 102.992 92.2266 102.958 92.1758 102.893C91.7089 102.254 91.1408 101.732 90.7942 101.018C90.4751 100.363 90.1204 99.6991 89.8688 99.0164C89.3514 97.6194 89.0979 96.0427 88.9289 94.5654C88.5803 91.5409 88.7153 88.5355 89.1782 85.5301C89.966 80.4112 91.8691 75.5126 94.6728 71.2141C94.5202 71.1339 94.3739 71.037 94.2375 70.9225L94.1702 70.8637L94.0608 70.7648C93.2607 70.0405 93.3298 68.683 94.0608 67.9494L94.2916 67.7179C94.584 67.4273 94.8361 67.1972 95.3083 66.8808C95.378 66.8341 95.4492 66.7901 95.5213 66.7491C95.2741 66.2922 95.1883 65.7579 95.3605 65.1684C95.9605 63.115 98.914 63.1877 100.786 64.0832C102.857 62.2341 105.154 60.6289 107.643 59.3291C113.571 56.2349 120.274 54.077 126.82 52.7582ZM96.1754 106.843C97.2825 106.481 98.7529 107.24 99.748 107.697C101.009 108.276 102.082 109.132 103.122 110.036C103.64 110.488 103.732 111.228 103.604 111.86C103.591 111.924 103.578 111.989 103.563 112.055C103.426 112.729 102.674 113.259 102.008 113.24C100.616 113.202 99.9529 112 99.1646 110.981C99.0719 111.146 98.9557 111.298 98.8118 111.412L98.7147 111.488C98.3876 111.737 98.0271 111.936 97.5949 111.917C97.2886 111.902 96.9951 111.824 96.7245 111.683C96.0484 111.325 95.7508 110.45 95.9344 109.738C96.0484 109.29 96.3104 108.939 96.6527 108.696L96.5251 108.609C96.2521 108.419 96.0032 108.219 95.8091 107.923L95.7653 107.853H95.7822C95.571 107.489 95.7085 106.995 96.1754 106.843Z" fill="black"/>
<path fill-rule="evenodd" clip-rule="evenodd" d="M152.447 123.814C151.75 124.726 150.487 125.424 149.073 125.758C147.726 126.076 146.237 126.063 144.953 125.574L144.842 125.53C143.882 125.131 142.959 124.325 142.609 123.484C142.47 123.149 142.423 122.809 142.518 122.492C142.604 122.207 142.805 121.944 143.14 121.719C143.245 121.648 143.386 121.643 143.52 121.666C143.686 121.696 143.851 121.774 143.95 121.879C144.499 122.464 145.297 123.034 146.241 123.024C146.969 123.017 147.564 122.729 148.141 122.404L148.546 122.172C148.937 121.949 149.334 121.739 149.783 121.643C150.586 121.471 151.56 121.785 152.154 122.302C152.412 122.528 152.601 122.793 152.652 123.078C152.695 123.318 152.634 123.569 152.447 123.814ZM148.271 107.866C149.866 108.836 152.297 111.099 150.581 113.504C148.56 115.624 145.652 113.193 144.218 112.093C142.889 111.241 141.396 113.433 142.629 114.428C152.986 122.099 157.19 108.12 149.078 106.726C148.184 106.572 147.853 107.566 148.271 107.866ZM130.272 92.9565L130.731 92.8308L131.198 92.7046L131.514 92.621C133.685 92.0526 136.079 91.5524 138.232 91.7966C139.017 91.8858 139.654 92.3277 139.765 93.1505C139.859 93.8448 139.41 94.7405 138.647 94.8639C136.119 95.2731 133.53 95.1404 130.991 95.5622C129.726 95.7721 128.471 96.0327 127.211 96.2675C126.252 96.4463 125.262 96.5091 124.296 96.6536L124.518 96.6845C124.596 96.695 124.576 96.8259 124.5 96.8206C124.181 96.7888 123.862 96.7838 123.543 96.8062L123.406 96.8174C123.197 96.8468 123.074 96.5978 123.26 96.4714C124.438 95.6723 125.437 94.8062 126.755 94.2172C127.895 93.7078 129.069 93.2879 130.272 92.9565ZM150.034 91.7309C151.703 90.0431 155.253 90.6917 157.238 91.4637C158.371 91.9046 159.449 92.462 160.346 93.2957L160.434 93.3778L160.568 93.5074C161.174 94.1007 161.85 94.9172 161.754 95.7725C161.739 95.903 161.668 96.052 161.521 96.0782C160.726 96.2191 159.945 95.7994 159.21 95.5468L158.724 95.3799C157.994 95.131 157.259 94.8932 156.506 94.7215C155.569 94.5085 154.614 94.3852 153.653 94.3975C152.681 94.4102 151.638 94.6845 150.712 94.2986C149.68 93.8685 149.145 92.6308 150.034 91.7309ZM133.546 105.343C133.12 105.778 132.557 106.024 131.838 105.878C131.275 105.764 130.204 105.198 129.349 104.327C128.764 103.731 128.274 102.986 128.141 102.123C128.11 101.923 128.004 101.794 127.864 101.713C127.754 101.65 127.609 101.617 127.451 101.633C127.316 101.647 127.173 101.696 127.063 101.76C126.853 101.883 126.768 102.057 126.75 102.188C126.582 103.444 127.067 104.69 127.823 105.741C128.843 107.159 130.342 108.199 131.222 108.442C132.73 108.859 134.318 108.527 135.489 107.478C136.425 106.639 136.905 105.545 137.35 104.421L137.436 104.203C137.536 103.948 137.635 103.695 137.741 103.445C137.952 102.943 137.884 102.509 137.68 102.171C137.453 101.796 137.034 101.532 136.569 101.451C136.138 101.376 135.677 101.458 135.313 101.721C135.006 101.944 134.758 102.296 134.67 102.817C134.527 103.663 134.195 104.635 133.609 105.276L133.546 105.343ZM159.389 100.442C159.038 100.259 158.763 100.204 158.373 100.321C158.158 100.386 157.945 100.51 157.778 100.676C157.613 100.842 157.494 101.047 157.448 101.275C157.334 101.838 157.026 102.365 156.587 102.708C156.213 103.001 155.739 103.157 155.215 103.069C154.648 102.975 154.109 102.611 153.737 102.183C153.634 102.064 153.549 101.931 153.467 101.796L153.418 101.715C153.235 101.413 153.057 101.132 152.804 100.91C152.709 100.825 152.564 100.767 152.425 100.767C152.368 100.767 152.31 100.776 152.255 100.793C151.692 101.359 151.583 101.788 151.602 102.214C151.621 102.661 151.797 103.113 152.081 103.535C152.748 104.524 154.015 105.335 154.869 105.519C156.04 105.771 157.202 105.469 158.134 104.815C159.093 104.142 159.804 103.097 160.026 101.92C160.079 101.636 160.056 101.33 159.948 101.064C159.843 100.805 159.659 100.583 159.389 100.442Z" fill="black"/>
<path fill-rule="evenodd" clip-rule="evenodd" d="M129.449 129.599C131.159 125.59 134.893 122.644 139.191 121.566C142.347 120.778 145.66 120.803 148.877 121.116C150.563 121.279 152.371 121.412 153.96 122.039C155.317 122.574 156.422 123.585 157.253 124.772C158.243 126.179 158.916 127.789 159.389 129.439C159.456 129.674 159.519 129.91 159.578 130.148C159.372 131.393 158.936 132.453 157.783 133.236C156.658 134 155.316 134.313 153.978 134.424C153.846 134.361 153.72 134.296 153.603 134.23C151.518 133.035 150.051 130.213 147.419 130.595C145.07 130.936 143.524 133.893 142.127 135.626C137.644 136.149 133.164 134.801 129.516 132.236C129.33 131.359 129.32 130.473 129.449 129.599ZM162.625 126.558C162.266 125.551 161.815 124.576 161.279 123.657C159.509 120.619 156.791 118.198 153.565 116.814C145.934 113.546 136.06 115.85 129.897 121.211C127.792 123.044 125.663 125.737 125.019 128.634C124.827 128.672 124.646 128.772 124.496 128.913C120.043 126.108 115.458 123.41 111.87 119.523C109.264 116.698 107.452 113.355 106.342 109.682C106.251 109.38 105.764 109.424 105.779 109.759C105.783 109.837 105.787 109.915 105.792 109.993C105.745 109.849 105.526 109.923 105.509 110.063C104.912 114.525 104.165 119.256 104.853 123.741C105.264 126.418 106.479 128.377 108.104 130.493C109.845 132.761 111.815 134.87 113.83 136.893C115.109 138.177 116.444 139.658 118.01 140.6C119.831 141.694 121.896 142.525 123.839 143.369C125.816 144.231 127.823 145.026 129.867 145.716C133.954 147.1 138.178 148.056 142.476 148.475C145.917 148.809 149.85 149.173 153.148 147.878C155.675 146.886 157.715 145.092 159.334 142.934C161.095 140.583 162.488 137.905 163.258 135.082C164.058 132.149 162.794 127.03 162.625 126.558Z" fill="black"/>
<path fill-rule="evenodd" clip-rule="evenodd" d="M167.178 109.153C164.613 111.805 160.331 112.566 156.919 111.144C148.156 107.481 152.445 96.0578 159.203 92.99C160.047 92.7795 161.175 92.2801 162.203 92.1668C162.296 92.1211 162.498 92.2532 162.744 92.1283C170.195 92.9606 171.892 104.532 167.178 109.153ZM138.915 109.832C136.039 113.649 130.69 114.827 126.32 113.052C117.687 109.651 120.749 99.5216 126.656 95.5503C139.133 90.8602 144.285 102.794 138.915 109.832ZM120.201 101.374C120.193 101.37 120.185 101.369 120.177 101.365C120.223 101.345 120.268 101.325 120.314 101.304C120.299 101.343 120.283 101.381 120.269 101.42C120.246 101.404 120.226 101.386 120.201 101.374ZM173.118 97.2481C172.413 97.2496 171.396 97.3654 170.813 97.8542C169.375 93.0031 164.067 88.5134 159.451 91.7872C155.817 92.9566 153.119 95.5501 151.586 98.9981C148.822 97.3533 144.476 98.0557 142.079 100.231C140.51 95.0418 136.646 93.2248 132.048 92.9566C127.029 92.1342 122.027 97.0103 120.466 100.922C119.168 100.774 117.229 100.361 116.008 101.162C108.084 99.0834 94.2302 97.9373 92.6193 99.0923C91.4713 99.533 90.8413 102.244 92.4448 102.39C93.8421 102.192 92.2817 100.404 93.6902 100.209C101.195 99.7433 108.481 101.255 115.906 101.89C116.569 102.782 118.711 103.08 119.854 102.722C118.054 109.357 121.939 113.872 127.761 115.224C136.775 117.296 144.617 109.229 142.26 100.838C144.991 99.4791 148.132 99.5374 151.106 100.253C146.136 118.554 175.598 117.733 170.997 98.4813C174.059 100.005 174.724 97.5556 173.118 97.2481Z" fill="black"/>
</svg>
