<svg width="240" height="324" viewBox="0 0 240 324" fill="none" xmlns="http://www.w3.org/2000/svg">
<path fill-rule="evenodd" clip-rule="evenodd" d="M114.339 135.723C119.555 131.751 132.647 129.964 138.214 133.789C143.711 137.631 144.31 143.843 146.872 149.557C149.289 148.417 153.281 150.05 153.982 152.294C154.851 153.352 154.89 156.325 155.489 157.747C181.569 161.9 185.528 182.24 188.667 205.332C192.82 228.764 202.247 252.145 198.154 276.257C198.687 277.029 199.108 277.78 199.497 278.671C200.428 280.256 199.228 282.501 197.349 282.414C194.918 282.2 192.51 281.908 190.066 281.817C183.293 281.582 176.514 281.61 169.738 281.696L168.814 281.708C134.666 282.133 100.52 282.971 66.3711 283.194C65.1322 283.195 64.5257 282.084 64.6911 280.987C65.0243 278.78 65.3334 276.571 65.656 274.363C57.5788 276.497 48.992 277.034 40.9377 274.587C40.3742 274.013 42.2505 274.324 42.5482 274.237C35.1356 269.17 37.3493 258.495 38.0059 250.807C42.0889 224.462 43.5282 195.313 59.3034 172.832C66.1279 163.658 76.1334 156.394 87.6303 154.76L87.9493 154.716C91.311 154.267 95.0576 154.123 97.9968 152.294C101.303 149.653 102.711 144.775 106.189 144.73C107.337 144.715 108.9 146.168 110.581 147.155C110.706 144.984 111.876 143.152 112.134 141.469L112.155 141.325C112.424 139.363 112.055 137.598 114.339 135.723ZM170.386 206.028C163.057 200.935 144.125 203.494 143.691 203.779C142.737 204.407 142.326 204.463 141.81 205.278C141.301 205.346 140.791 205.416 140.283 205.488C139.262 205.822 140.018 207.077 141.197 206.629C140.488 209.688 142.575 211.864 143.406 214.888C143.675 215.87 143.415 217.636 143.406 218.64C143.486 219.919 144.9 221.43 144.664 222.714C143.827 227.276 139.281 231.727 141.197 236.152C142.467 238.652 146.286 239.926 148.825 240.776C154.085 242.795 163.251 240.7 166.307 236.152C167.938 233.727 169.826 227.609 170.798 225.711L171.014 222.701C171.545 215.218 172.018 207.162 170.386 206.028Z" fill="white"/>
<path fill-rule="evenodd" clip-rule="evenodd" d="M104.912 144.288C105.418 143.84 106.167 144.403 105.845 145.009C105.123 146.37 104.382 147.659 103.412 148.862C102.824 149.591 102.194 150.281 101.556 150.963C103.194 152.381 104.599 154.141 105.925 155.79C107.621 157.9 109.225 160.099 111.129 162.029C113.007 163.933 115.084 165.263 117.594 166.151L118.101 166.327C120.624 167.213 123.319 168.409 124.741 170.798C125.021 171.269 124.457 171.851 123.982 171.557C121.512 170.027 118.609 169.719 115.92 168.708C113.323 167.731 111.058 166.228 109.058 164.31C107.06 162.395 105.383 160.216 103.634 158.083C101.904 155.974 100.042 154.172 97.9955 152.388C94.838 154.513 91.2338 155.437 87.5689 156.346L87.1689 156.445C83.4996 157.353 79.8499 158.409 76.4075 159.992C73.3725 161.387 70.3872 163.053 67.915 165.323C65.2906 167.732 63.2481 170.81 61.3786 173.819C57.1968 180.552 54.2567 187.928 51.6685 195.394C48.9765 203.159 46.7248 211.08 44.9071 219.095C43.9826 223.172 43.2317 227.278 42.6146 231.413C42.3176 233.404 42.0537 235.4 41.822 237.4C41.5746 239.535 41.5177 241.733 40.8628 243.786C40.582 244.666 39.9191 245.031 39.2555 245L39.1207 246.687C38.942 248.935 38.7754 251.184 38.7191 253.446C38.6257 257.208 38.668 260.959 38.9385 264.712L38.9768 265.224C39.1894 267.964 39.6643 271.042 41.7235 273.048C43.856 275.125 47.1356 275.779 50.0098 275.816C56.7043 275.903 63.1484 272.739 69.0723 269.963C75.1733 267.104 81.1076 263.93 86.8997 260.489C89.8494 258.736 92.7672 256.925 95.6479 255.061C97.0615 254.146 98.4651 253.216 99.8582 252.27C100.656 251.729 101.412 251.135 102.225 250.655C101.827 250.284 101.649 249.701 101.982 249.192C99.6341 247.153 98.6568 243.514 98.5425 240.57C98.4501 238.193 98.7998 235.824 99.0757 233.469C99.2149 232.282 99.3869 231.097 99.5654 229.915C99.636 229.448 99.6899 228.949 99.7723 228.456C93.4315 231.942 86.913 235.046 80.222 237.804C76.7922 239.218 73.3186 240.489 69.797 241.654L69.0832 241.889C65.7464 242.981 62.3299 244.013 58.8803 244.638C58.6959 244.672 58.5461 244.399 58.743 244.312C62.1047 242.828 65.5828 241.577 68.995 240.21L69.5557 239.982V239.982C69.4913 239.978 69.4245 239.969 69.3548 239.953C67.3537 239.469 65.3682 238.725 63.4055 238.098C61.5839 237.516 59.5374 237.151 57.8348 236.272C57.7038 236.205 57.7771 236.022 57.9047 236.014C59.8184 235.881 61.8958 236.439 63.772 236.767L64.4769 236.891C65.6577 237.099 66.8646 237.323 68.0396 237.615C68.0821 237.221 68.302 236.826 68.6149 236.594C72.0579 234.043 71.7083 228.891 72.0765 225.092L72.3496 222.272C72.8299 217.336 73.338 212.4 74.11 207.501C74.1512 207.239 74.5558 207.314 74.5575 207.561C74.5973 213.634 74.139 219.68 73.9093 225.743L73.8737 226.738C73.7467 230.479 73.6472 234.364 71.2917 237.243C71.6211 237.051 72.0664 237.051 72.3332 237.368C72.6611 237.759 72.8504 238.197 72.8445 238.627C74.973 237.734 77.0922 236.818 79.2011 235.884C85.9813 232.879 92.6194 229.516 99.0818 225.877C99.7773 225.486 100.438 225.794 100.782 226.31L100.832 226.303C100.84 226.302 100.849 226.301 100.857 226.301L100.907 226.298C100.908 226.298 100.91 226.299 100.912 226.299C101.822 225.799 103.061 226.155 103.842 226.884C103.865 226.906 103.884 226.93 103.905 226.953C104.893 226.509 105.816 225.91 106.653 225.151C108.367 223.597 109.819 221.675 111.084 219.749C113.415 216.2 115.394 212.254 118.543 209.333C121.1 206.96 124.271 205.482 127.598 204.555C127.584 204.457 127.622 204.354 127.689 204.285C127.86 204.11 127.982 204.049 128.202 204.155C128.22 204.164 128.23 204.176 128.238 204.188L128.562 203.634C128.739 203.332 128.921 203.029 128.984 202.95C129.362 202.474 129.751 202.002 130.146 201.539C130.815 200.757 131.577 199.985 132.46 199.442C134.393 198.254 136.425 198.926 138.413 199.575C139.614 199.968 140.81 200.373 142.009 200.771L142.133 200.812C143.027 201.099 144.073 201.35 144.472 202.298C144.63 202.673 144.655 203.062 144.581 203.439C153.071 201.279 162.5 202.272 170.785 204.807C171.103 204.904 171.42 205.166 171.487 205.51C172.436 210.379 172.859 215.373 172.43 220.326C172.059 224.601 171.112 228.791 169.328 232.705L169.226 232.926C167.549 236.553 164.891 241.025 160.832 242.162C158.381 242.848 155.671 242.443 153.171 242.318C150.742 242.195 148.258 242.177 145.852 241.795C143.709 241.455 141.831 240.494 140.507 238.751C139.364 237.247 138.763 235.429 138.27 233.621C138.044 233.693 137.82 233.769 137.599 233.856C136.668 234.219 135.879 234.807 135.166 235.497C133.66 236.957 132.492 238.729 130.916 240.121C129.489 241.382 127.864 242.362 126.12 243.116C122.507 244.677 118.631 245.301 114.81 246.129L114.543 246.187C111.666 246.819 108.73 247.594 106.19 249.093C106.14 249.534 105.94 249.949 105.618 250.221C106.065 250.641 106.255 251.308 105.862 251.933C104.762 253.678 102.868 254.671 101.168 255.788L101.058 255.861C99.3854 256.97 97.6984 258.057 95.9977 259.122C92.5403 261.287 89.0107 263.334 85.4312 265.29C79.6739 268.436 73.7931 271.404 67.8058 274.097C68.1651 275.865 68.0338 277.689 68.3039 279.47L68.3453 279.724C68.4607 280.384 68.3049 280.937 67.8499 281.369L67.8018 281.413L67.8026 281.407L67.7599 281.446L67.7457 281.458L67.7504 281.455C67.698 281.503 67.6439 281.547 67.5887 281.586L67.5184 281.631V281.631C67.0802 281.897 66.516 281.894 66.0674 281.659L66.0161 281.631L65.9299 281.581C65.3371 281.24 64.9283 280.395 65.1742 279.724C65.7787 278.073 66.007 276.312 66.5652 274.651L66.1224 274.849V274.849L65.5387 275.103C59.2265 277.834 52.2149 280.134 45.3372 278.272C42.2984 277.449 39.4581 275.709 37.9376 272.872C36.4414 270.081 36.2299 266.841 36.1505 263.736C36.0525 259.904 36.2578 256.013 36.7629 252.214C37.102 249.664 37.5121 247.066 38.1446 244.542C37.8193 244.255 37.5801 243.843 37.517 243.333C37.2184 240.922 37.7409 238.416 38.0608 236.018C38.3732 233.677 38.7184 231.34 39.1089 229.011C39.8971 224.306 40.8129 219.612 41.8792 214.962C43.7768 206.688 46.2827 198.56 49.2996 190.627L49.5638 189.936C52.3515 182.685 55.5794 175.588 60.074 169.218C62.2241 166.171 64.4969 163.407 67.5349 161.211C70.3811 159.154 73.5915 157.672 76.9046 156.54C80.2213 155.406 83.6303 154.647 87.0996 154.175C90.6229 153.695 94.3418 153.401 97.6285 151.955C97.2127 151.209 97.5696 150.203 98.2693 149.74C100.624 148.184 102.802 146.159 104.912 144.288ZM180.294 211.967C180.392 211.817 180.627 211.912 180.583 212.089C179.438 216.783 178.363 221.487 177.661 226.27C176.394 234.904 176.627 243.65 176.73 252.347L176.736 252.797C176.789 257.482 176.863 262.167 177.018 266.85C177.096 269.217 177.25 271.607 177.166 273.975C177.12 275.259 176.778 276.474 176.657 277.744C176.551 278.853 176.645 279.98 176.698 281.092C176.734 281.83 175.644 281.799 175.57 281.092L175.475 280.177C175.352 279.019 175.199 277.868 174.82 276.759C174.364 275.426 174.145 274.117 173.987 272.718C173.744 270.573 173.637 268.407 173.543 266.247L173.479 264.754C173.088 255.728 173.102 246.66 173.734 237.644L173.781 237C174.407 228.478 175.493 219.269 180.294 211.967ZM155.881 158.253C155.582 158.13 155.686 157.678 156.018 157.756L156.62 157.9C161.034 158.958 165.369 160.104 169.489 162.072C173.612 164.042 177.102 166.982 179.876 170.597C185.267 177.625 187.508 186.165 189.277 194.698C191.242 204.179 193.032 213.695 195.015 223.174L195.383 224.939C197.217 233.767 198.95 242.6 200.226 251.533L200.318 252.181C201.605 261.366 202.379 270.87 200.974 280.08C200.697 281.902 197.666 281.448 197.784 279.648C198.127 274.444 198.372 269.267 198.135 264.051C197.898 258.834 197.409 253.641 196.68 248.469C196.066 244.118 195.151 239.82 194.342 235.503L194.215 234.821C193.537 231.149 192.839 227.481 192.142 223.812L191.1 218.32C189.538 210.096 187.946 201.864 186.147 193.691L186.041 193.211C184.28 185.348 181.685 177.112 176.404 170.868C171.045 164.531 163.374 161.34 155.881 158.253ZM136.409 241.651C136.538 241.364 136.988 241.396 137.127 241.651C137.67 242.654 137.73 243.933 137.833 245.065L137.844 245.181C137.974 246.562 138.09 247.947 138.161 249.333C138.295 251.962 138.359 254.587 138.351 257.219C138.342 259.917 138.288 262.612 138.143 265.305L138.103 266.027C137.971 268.368 137.748 270.979 136.636 273.025C136.232 273.769 135.133 273.551 134.899 272.798C134.132 270.335 134.526 267.414 134.722 264.891L134.875 262.922C135.026 260.953 135.171 258.983 135.285 257.012C135.442 254.315 135.571 251.616 135.696 248.917C135.736 248.041 135.78 247.164 135.826 246.288L135.897 244.974C135.957 243.874 135.952 242.668 136.409 241.651ZM50.1803 245.143L50.5198 244.815C51.562 243.794 52.879 242.223 54.4197 242.321C55.0341 242.359 55.4255 242.87 55.2982 243.474C55.026 244.767 53.7079 245.438 52.7591 246.227C51.7197 247.091 50.7401 248.015 49.7623 248.948C48.8949 249.775 48.0607 250.625 47.2465 251.502L46.9421 251.832C46.6502 252.151 44.572 254.031 44.7967 254.519L44.8089 254.541C44.8715 254.635 44.7673 254.763 44.6636 254.73C43.7661 254.447 43.8221 253.677 44.1614 252.898C44.8134 251.4 45.9551 250.014 46.952 248.734C47.9463 247.458 49.0225 246.27 50.1803 245.143V245.143ZM139.661 207.575C138.967 205.934 136.41 205.968 134.959 206.066C131.304 206.313 127.349 207.238 124.097 208.947C120.726 210.719 118.455 213.558 116.423 216.697L116.328 216.845C114.347 219.925 112.439 223.571 109.338 225.688C107.758 226.767 105.914 227.752 103.997 228.179C103.866 228.41 103.652 228.594 103.373 228.66L103.243 228.69C102.697 228.811 101.849 228.944 101.117 228.864C101.121 229.223 101.118 229.578 101.127 229.918C101.152 230.891 101.163 231.869 101.163 232.843C101.164 234.883 101.054 236.928 101.139 238.968C101.215 240.773 101.47 242.659 102.336 244.272C102.971 245.455 103.81 246.239 104.822 246.986C107.312 245.468 110.127 244.543 112.985 243.847C116.441 243.006 119.979 242.444 123.357 241.303C124.982 240.754 126.545 240.035 127.961 239.059C129.464 238.022 130.611 236.62 131.792 235.248L131.977 235.035C133.182 233.652 134.497 232.329 136.201 231.579C137.668 230.933 139.601 230.818 140.883 229.819C141.554 229.296 141.61 228.538 141.681 227.761C140.859 227.878 139.99 227.69 139.171 227.594L138.747 227.544C137.973 227.452 137.217 227.351 136.454 227.154C136.313 227.117 136.313 226.904 136.454 226.867C137.355 226.635 138.248 226.535 139.171 226.427L139.388 226.4C140.223 226.291 141.102 226.125 141.921 226.309C142.068 225.749 142.28 225.215 142.578 224.68C142.996 223.928 143.788 223.076 143.894 222.198C143.926 221.935 143.865 221.626 143.742 221.394L143.699 221.315C143.647 221.222 143.586 221.128 143.496 221.07C143.486 221.081 143.465 221.095 143.419 221.109C142.788 221.308 142.238 220.999 141.946 220.523C140.706 220.677 139.354 220.625 138.191 220.677L137.016 220.733C135.76 220.791 134.447 220.816 133.267 220.562C133.102 220.527 133.053 220.253 133.218 220.182C134.668 219.561 136.428 219.363 137.981 219.125C138.849 218.992 139.723 218.89 140.593 218.773C141.172 218.695 141.787 218.566 142.387 218.535C143.892 216.66 143.081 213.704 140.987 212.897C140.224 213.233 139.538 213.037 138.704 212.966C137.872 212.894 137.038 212.846 136.203 212.85C134.529 212.857 132.755 213.297 131.098 213.108C130.828 213.077 130.578 212.718 130.846 212.499C132.115 211.463 133.933 211.125 135.544 210.905L135.877 210.86C136.417 210.789 137.074 210.686 137.755 210.624C137.909 210.324 138.186 210.097 138.601 210.04C138.724 210.023 138.848 210.013 138.972 210.003L138.97 209.99V209.99C139.982 209.942 139.938 208.231 139.661 207.575ZM70.3505 239.578C70.3326 239.606 70.313 239.632 70.2922 239.658L70.2601 239.695L70.4265 239.627L70.3505 239.578V239.578ZM157.327 203.908C153.066 203.45 148.799 203.547 144.525 203.67C144.183 204.788 142.993 205.741 141.84 205.777C142.743 207.152 142.836 209.013 142.203 210.471C143.548 211.006 144.706 211.968 145.409 213.337C146.384 215.236 146.256 217.349 145.293 219.103C146.115 219.848 146.6 221.058 146.552 222.198C146.497 223.469 145.74 224.555 145.111 225.607C144.431 226.746 144.408 227.748 144.199 229.023C143.893 230.889 142.635 232.02 141.017 232.727L141.103 233.065C141.52 234.69 142.039 236.405 143.232 237.593C144.766 239.122 147.146 239.107 149.173 239.204L149.271 239.209C151.127 239.302 152.982 239.411 154.838 239.516L156.23 239.594C158.366 239.711 160.417 239.725 162.161 238.312C165.009 236.006 166.961 232.189 168.196 228.811C170.789 221.719 170.82 213.936 169.63 206.549C165.638 205.262 161.496 204.356 157.327 203.908ZM121.89 215.674L121.921 215.676C122.798 215.777 123.401 216.487 123.616 217.33C123.928 218.556 123.775 219.664 124.525 220.77C125.297 221.907 125.771 222.818 125.883 224.223C125.929 224.802 125.908 225.378 126.037 225.944L126.13 226.341C126.229 226.764 126.31 227.171 126.261 227.625C126.216 228.039 126.015 228.362 125.599 228.494C124.247 228.927 123.202 227.93 122.853 226.669C122.551 225.58 122.954 224.282 122.528 223.259C122.292 222.692 121.857 222.217 121.611 221.646C121.367 221.081 121.245 220.49 121.206 219.875C121.132 218.711 122.16 217.314 121.586 216.26C121.464 216.035 121.603 215.667 121.89 215.674ZM103.921 203.67C104.837 203.484 105.876 203.057 106.779 203.412C107.244 203.594 107.473 204.161 107.081 204.554C106.4 205.237 105.41 205.276 104.492 205.437L104.412 205.451C103.327 205.652 102.24 205.842 101.152 206.023C99.1043 206.362 97.0521 206.662 94.9926 206.917C92.8774 207.179 90.7563 207.412 88.6322 207.587L87.8099 207.655C86.0157 207.798 84.1487 207.907 82.3882 207.632C82.1323 207.592 82.1735 207.219 82.3882 207.154C84.3169 206.57 86.4325 206.413 88.4264 206.166C90.5463 205.903 92.6626 205.625 94.7733 205.295C96.8807 204.966 98.9854 204.613 101.082 204.222C102.03 204.046 102.976 203.862 103.921 203.67ZM136.975 201.795C136.171 201.51 135.286 201.088 134.415 201.23C132.913 201.473 131.576 202.937 130.387 203.901L130.984 203.785C134.039 203.198 138.084 202.565 140.649 204.508C140.655 204.497 140.66 204.486 140.668 204.474C140.875 204.16 141.115 203.915 141.376 203.646C141.401 203.622 141.426 203.598 141.449 203.573L141.591 203.422L141.268 203.31C140.576 203.066 139.756 202.75 139.627 202.704L139.618 202.701C138.735 202.402 137.852 202.106 136.975 201.795ZM111.876 137.74C111.75 136.123 114.266 136.136 114.391 137.74C114.663 141.242 113.875 144.711 112.179 147.781C112.167 147.804 112.153 147.824 112.14 147.845C113.201 148.397 114.273 148.926 115.37 149.4C116.772 150.006 118.201 150.557 119.656 151.025C120.972 151.449 122.593 151.616 123.699 152.497C126.032 154.355 125.155 158.212 124.707 160.711L124.637 161.106C124.413 162.392 124.251 163.712 124.794 164.946C125.372 166.265 126.543 167.243 127.587 168.187L127.798 168.378C128.723 169.221 129.781 170.246 130.459 171.389C131.079 170.107 131.923 169.06 132.816 167.882C133.453 167.04 132.999 166.763 132.542 165.941C132.101 165.151 131.886 164.307 132.024 163.405C132.278 161.739 133.609 160.535 134.934 159.631C136.499 158.563 138.246 157.773 139.864 156.779C143.188 154.739 146.425 152.406 149.341 149.815C149.422 149.744 149.561 149.837 149.497 149.935C147.193 153.441 144.492 156.47 141.171 159.041C139.825 160.084 138.411 160.949 136.987 161.858L136.578 162.121C136.006 162.491 135.293 162.986 135.035 163.617C134.775 164.251 135.329 164.73 135.628 165.256C136.576 166.924 136.119 168.481 134.995 169.896L134.942 169.961C133.826 171.338 132.979 172.618 132.575 174.377C131.705 178.155 132.916 182.091 134.184 185.638L134.234 185.778C134.92 187.69 135.65 189.587 136.246 191.53L136.41 192.067C136.95 193.854 137.392 195.617 136.786 197.455C136.58 198.08 135.728 198.227 135.374 197.639C134.126 195.565 133.814 193.069 133.032 190.788C132.269 188.566 131.394 186.383 130.657 184.152C129.708 181.278 129.073 178.186 129.418 175.172C129.408 175.154 129.397 175.138 129.388 175.119L129.147 174.591C128.488 173.16 127.852 171.91 126.655 170.77C125.406 169.58 124.05 168.527 123.067 167.087C120.933 163.959 122.253 160.479 122.511 157.058L122.54 156.639C122.587 155.929 122.613 154.964 122.149 154.472C121.627 153.919 120.404 153.778 119.712 153.533C117.923 152.899 116.161 152.162 114.482 151.276C112.884 150.432 111.336 149.501 109.895 148.409L109.164 147.859C108.012 146.99 106.816 146.039 106.044 144.855C105.955 144.719 106.106 144.499 106.268 144.564C107.557 145.088 108.736 145.92 109.942 146.645C109.961 146.601 109.983 146.556 110.007 146.511C111.5 143.809 112.114 140.814 111.876 137.74ZM153.069 156.258C153.583 154.848 155.925 154.957 155.831 156.632C155.76 157.918 155.214 159.08 154.714 160.248L154.661 160.373C154.146 161.59 153.55 162.733 152.838 163.848C151.477 165.981 149.882 167.96 148.179 169.828C146.635 171.521 144.609 172.556 142.274 172.384C141.29 172.312 140.297 172.062 139.435 171.57C138.41 170.986 137.298 169.232 135.992 169.657C135.866 169.698 135.748 169.512 135.857 169.425C137.365 168.21 139.077 170.094 140.521 170.548C142.697 171.231 144.93 170.475 146.33 168.716C147.792 166.878 149.138 164.821 150.367 162.821C150.991 161.805 151.561 160.751 152.052 159.664C152.549 158.568 152.662 157.376 153.069 156.258ZM149.562 147.583C149.499 147.389 149.74 147.203 149.911 147.315C150.902 147.96 151.761 148.813 152.675 149.56C153.69 150.39 154.711 151.202 155.749 152.002C157.261 153.169 155.507 155.316 154.176 154.042C152.354 152.299 150.358 150.02 149.562 147.583ZM144.121 140.761C144.523 139.208 146.905 139.848 146.558 141.383L146.546 141.43C145.889 143.966 146.825 146.547 148.824 148.191L148.897 148.25C150.161 149.263 148.37 151.032 147.118 150.03C144.386 147.842 143.249 144.125 144.121 140.761Z" fill="black"/>
<path fill-rule="evenodd" clip-rule="evenodd" d="M164.267 102.294C163.812 98.2964 164.4 89.9404 164.44 89.4328C164.689 86.2234 163.186 73.5502 160.344 74.7179C155.578 70.943 149.229 70.1094 143.292 69.7112C130.961 68.884 117.843 70.783 108.321 79.0848C103.612 83.3962 99.028 89.6667 99.3965 96.1958C95.1181 102.385 89.0866 110.874 94.4172 118.109C96.2292 120.421 99.1091 121.281 101.385 123.032C105.964 126.726 108.836 132.028 113.458 135.701C125.703 146.708 146.496 149.008 158.527 136.488C167.83 127.42 166.326 113.854 164.689 102.294C163.589 94.5222 165.154 110.093 164.267 102.294Z" fill="white"/>
<path fill-rule="evenodd" clip-rule="evenodd" d="M126.82 52.7582C130.118 52.0924 133.504 51.6782 136.872 51.8029L137.132 51.813C139.665 51.9143 142.875 52.1384 145.085 53.6124C145.212 53.4848 145.417 53.4193 145.602 53.5078C148.229 54.7622 151.118 55.6691 153.884 56.5703C156.638 57.4671 159.494 58.059 162.38 58.2977C163.465 58.3875 164.395 59.5603 163.707 60.6122C163.544 60.8628 163.384 61.116 163.226 61.3698C163.491 61.3422 163.756 61.3136 164.022 61.2868C164.895 61.1989 165.767 62.1311 165.715 62.9816C165.683 63.5165 165.625 64.0451 165.54 64.5674C165.873 64.5604 166.203 64.6103 166.523 64.7453C168.14 65.4286 168.027 67.3559 167.906 68.8223C167.739 70.8572 166.978 73.0125 165.565 74.5355C166.62 75.6313 167.367 76.94 167.812 78.4943C168.135 79.6292 168.315 80.8382 168.226 82.0196L168.198 82.3733C168.088 83.6554 167.87 85.0749 166.948 85.9972C166.475 86.4728 165.892 86.6461 165.336 86.5911C165.672 89.5458 165.887 92.5174 166.09 95.4784L166.185 96.8936C166.638 103.737 166.978 110.625 166.889 117.48C166.806 123.886 165.541 130.104 161.613 135.305C158.036 140.042 152.901 143.533 147.091 144.86C143.96 145.577 140.763 145.628 137.594 145.171C136.058 144.949 134.512 144.609 133.054 144.072C131.44 143.476 130.28 142.599 129.194 141.284C128.681 140.661 128.928 139.334 129.951 139.458C131.497 139.646 132.91 139.872 134.392 140.33L134.605 140.397C136.082 140.87 137.611 141.223 139.155 141.373C142.318 141.68 145.529 141.371 148.559 140.411C153.492 138.847 157.741 135.362 160.464 130.983C163.696 125.792 164.062 119.9 164.015 113.931C163.965 107.382 163.752 100.829 163.405 94.2862L163.346 93.1958C163.162 89.829 162.984 86.4601 162.828 83.0912C162.78 82.0344 162.706 80.9692 162.572 79.9146C161.354 79.2002 160.261 78.2153 159.549 77C158.119 77.5918 156.615 78.0188 155.231 78.359C152.025 79.1478 148.697 79.3393 145.434 78.8453C144.554 79.2091 143.656 79.5289 142.744 79.804C142.498 79.9133 142.252 80.0207 142.006 80.1259C139.808 81.0664 137.579 81.8632 135.26 82.4465L134.69 82.5887C133.469 82.8897 132.143 83.1862 130.844 83.2793C130.631 83.3617 130.401 83.4314 130.149 83.4927C128.966 83.7802 127.739 83.871 126.526 83.7696C125.345 83.6703 124.491 82.4761 125.142 81.3581C125.617 80.5423 126.097 79.7286 126.581 78.917C124.897 79.6187 123.158 80.202 121.405 80.6966C119.635 81.1953 117.839 81.6159 116.041 82.0027C115.079 82.2077 114.114 82.3895 113.155 82.5945C112.468 82.7403 111.414 82.8164 110.854 83.2687C110.235 83.7654 110.06 84.9236 109.825 85.6379C109.517 86.5658 109.227 87.4978 108.963 88.4404C108.437 90.3215 108.006 92.2299 107.673 94.1575C107.339 96.0871 107.115 98.0357 106.99 99.9907C106.866 101.944 106.92 103.909 106.72 105.854C106.612 106.885 105.505 107.415 104.687 106.695C104.591 106.61 104.495 106.525 104.399 106.438L104.256 106.308C103.557 105.674 102.879 105.002 102.319 104.245C102.218 104.106 102.12 103.96 102.03 103.812C102.015 103.812 102.002 103.808 101.987 103.797L101.832 103.68C100.124 102.408 97.2689 100.749 95.6028 102.863C95.0719 103.536 94.8001 104.394 94.5745 105.221L94.1787 106.701C93.9226 107.668 93.6816 108.639 93.5407 109.628C93.2216 111.843 93.3822 114.396 94.9057 116.172C95.5141 116.882 96.3528 117.389 97.2885 117.522C97.8106 117.594 98.3261 117.505 98.8437 117.44C99.3697 117.374 99.8766 117.48 100.403 117.429C101.239 117.347 101.605 118.349 101.292 118.978C101.123 119.317 100.924 119.608 100.699 119.856C100.88 120.012 101.054 120.181 101.22 120.359C101.715 120.517 102.158 120.857 102.49 121.308C102.758 121.671 102.898 122.066 102.921 122.483C102.951 122.586 102.976 122.692 102.999 122.8L103.453 123.536C103.552 123.697 103.652 123.856 103.751 124.013C104.905 125.83 106.185 127.369 107.776 128.819C109.308 130.214 110.97 131.463 112.409 132.959L112.579 133.137C113.92 134.551 115.334 136.263 114.809 138.319C114.674 138.847 113.936 139.228 113.455 138.871C111.906 137.721 111.127 135.899 109.813 134.504C108.46 133.067 106.962 131.776 105.606 130.343C104.324 128.99 103.312 127.458 102.549 125.771C102.245 126.107 101.801 126.346 101.187 126.439C100.13 126.598 99.1456 125.978 98.6852 125.063C98.3892 125.194 98.0873 125.313 97.7829 125.406C96.1815 125.896 95.174 124.114 95.7782 122.798C96.1012 122.092 96.5047 121.479 97.0057 120.963C95.4399 120.747 93.847 119.938 92.8181 118.928C90.2366 116.389 89.8817 112.575 90.4627 109.182C90.7711 107.384 91.3033 105.564 91.9944 103.875C92.1146 103.582 92.2437 103.286 92.385 102.994C92.3068 102.992 92.2266 102.958 92.1759 102.893C91.709 102.254 91.1409 101.732 90.7942 101.018C90.4752 100.363 90.1204 99.6991 89.8688 99.0164C89.3514 97.6194 89.0979 96.0427 88.9289 94.5654C88.5803 91.5409 88.7153 88.5355 89.1782 85.5301C89.966 80.4112 91.8691 75.5126 94.6728 71.2141C94.5202 71.1339 94.3739 71.037 94.2376 70.9225L94.1702 70.8637L94.0608 70.7648C93.2607 70.0405 93.3298 68.683 94.0608 67.9494L94.2917 67.7179C94.584 67.4273 94.8361 67.1972 95.3083 66.8808C95.378 66.8341 95.4492 66.7901 95.5213 66.7491C95.2741 66.2922 95.1883 65.7579 95.3605 65.1684C95.9605 63.115 98.914 63.1877 100.786 64.0832C102.857 62.2341 105.154 60.6289 107.643 59.3291C113.571 56.2349 120.274 54.077 126.82 52.7582ZM96.1754 106.843C97.2825 106.481 98.7529 107.24 99.748 107.697C101.009 108.276 102.082 109.132 103.122 110.036C103.64 110.488 103.732 111.228 103.604 111.86C103.591 111.924 103.578 111.989 103.563 112.055C103.426 112.729 102.674 113.259 102.008 113.24C100.616 113.202 99.9529 112 99.1647 110.981C99.0719 111.146 98.9557 111.298 98.8118 111.412L98.7147 111.488C98.3876 111.737 98.0271 111.936 97.5949 111.917C97.2886 111.902 96.9952 111.824 96.7245 111.683C96.0485 111.325 95.7508 110.45 95.9344 109.738C96.0485 109.29 96.3104 108.939 96.6527 108.696L96.5251 108.609C96.2521 108.419 96.0032 108.219 95.8091 107.923L95.7654 107.853H95.7823C95.571 107.489 95.7085 106.995 96.1754 106.843Z" fill="black"/>
<path fill-rule="evenodd" clip-rule="evenodd" d="M143.152 128.274C141.732 127.695 140.465 126.728 139.538 125.493C139.216 125.063 139.133 124.61 139.2 124.195C139.276 123.729 139.552 123.306 139.928 123.023C140.305 122.739 140.777 122.598 141.233 122.67C141.63 122.732 142.024 122.949 142.337 123.399L142.402 123.489C142.953 124.235 143.67 124.846 144.488 125.241C145.276 125.621 146.158 125.798 147.07 125.695C148.808 125.499 150.005 124.559 151.278 123.282C151.436 123.121 151.594 122.955 151.752 122.786C151.852 122.633 151.991 122.534 152.146 122.483C152.317 122.425 152.511 122.429 152.689 122.491C152.86 122.55 153.013 122.664 153.116 122.815C153.213 122.958 153.269 123.135 153.251 123.339C153.134 124.661 152.443 125.842 151.461 126.769C150.37 127.799 148.924 128.511 147.563 128.761C146.064 129.036 144.536 128.839 143.152 128.274V128.274ZM148.271 107.866C149.866 108.836 152.297 111.098 150.581 113.503C148.56 115.624 145.652 113.193 144.219 112.093C142.89 111.241 141.396 113.433 142.629 114.428C152.987 122.099 157.19 108.12 149.078 106.726C148.184 106.572 147.853 107.566 148.271 107.866ZM129.711 98.9429C129.887 96.7541 133.219 96.257 133.551 98.423C133.847 100.363 133.498 102.145 132.624 103.892C131.79 105.561 129.692 104.783 129.533 103.263C129.32 101.226 129.601 100.304 129.711 98.9429ZM155.076 97.9739C155.541 97.3652 156.212 96.9497 157.015 97.1845C159.526 97.9185 158.786 101.485 157.904 103.22C157.425 104.163 155.876 104.402 155.176 103.572C154.036 102.219 153.489 99.5157 154.94 98.1825C154.979 98.1136 155.023 98.044 155.076 97.9739ZM132.589 89.3654L132.986 89.2959C134.213 89.0836 135.738 88.8796 136.606 89.8665C137.067 90.3898 137.225 91.3624 136.606 91.8633C135.518 92.7446 134.314 92.4031 133.01 92.4777C131.935 92.5394 130.902 92.7174 129.867 93.0135C127.595 93.6629 125.744 94.8486 123.804 96.1505C123.55 96.3213 123.29 95.9956 123.411 95.7574C124.531 93.563 126.701 91.7604 128.875 90.6616C130.036 90.0751 131.305 89.5885 132.589 89.3654ZM152.787 88.3823L153.091 88.4445C156.395 89.1353 160.687 90.5153 162.251 93.7615C162.311 94.2205 162.248 94.3189 162.197 94.3832L162.18 94.4046C162.137 94.4595 162.104 94.5351 161.905 94.5976C161.85 94.5844 161.794 94.5705 161.737 94.5557C161.02 94.3677 160.453 94.1087 159.904 93.84L159.308 93.5465C158.617 93.2076 157.92 92.881 157.181 92.6399C155.605 92.1255 153.983 91.7631 152.337 91.5696C151.98 91.5277 151.636 91.4072 151.365 91.2006C151.108 91.0046 150.911 90.7332 150.821 90.3724C150.705 89.9056 150.739 89.5521 150.989 89.1309C151.177 88.8146 151.447 88.5953 151.756 88.4694C152.071 88.3411 152.43 88.3108 152.787 88.3823Z" fill="black"/>
<path fill-rule="evenodd" clip-rule="evenodd" d="M167.179 109.153C164.614 111.805 160.332 112.566 156.919 111.144C148.156 107.481 152.445 96.0578 159.203 92.99C160.047 92.7795 161.175 92.2801 162.203 92.1668C162.296 92.1211 162.499 92.2532 162.744 92.1283C170.196 92.9606 171.892 104.532 167.179 109.153M138.916 109.832C136.039 113.649 130.69 114.827 126.321 113.052C117.688 109.651 120.75 99.5216 126.656 95.5503C139.133 90.8602 144.285 102.794 138.916 109.832M120.202 101.374C120.194 101.37 120.185 101.369 120.177 101.365C120.223 101.345 120.269 101.325 120.314 101.304C120.299 101.343 120.283 101.381 120.269 101.42C120.246 101.404 120.227 101.386 120.202 101.374M173.118 97.2481C172.413 97.2496 171.396 97.3654 170.813 97.8542C169.375 93.0031 164.067 88.5134 159.452 91.7872C155.817 92.9566 153.12 95.5501 151.587 98.9981C148.823 97.3533 144.476 98.0557 142.08 100.231C140.51 95.0418 136.647 93.2248 132.048 92.9566C127.03 92.1342 122.027 97.0103 120.466 100.922C119.168 100.774 117.229 100.361 116.008 101.162C108.084 99.0834 94.2304 97.9373 92.6195 99.0923C91.4715 99.533 90.8415 102.244 92.445 102.39C93.8423 102.192 92.2819 100.404 93.6904 100.209C101.195 99.7433 108.481 101.255 115.906 101.89C116.569 102.782 118.711 103.08 119.854 102.722C118.054 109.357 121.939 113.872 127.761 115.224C136.775 117.296 144.618 109.229 142.26 100.838C144.991 99.4791 148.132 99.5374 151.107 100.253C146.136 118.554 175.599 117.733 170.997 98.4813C174.059 100.005 174.724 97.5556 173.118 97.2481" fill="black"/>
</svg>
