<svg width="313" height="400" viewBox="0 0 313 400" fill="none" xmlns="http://www.w3.org/2000/svg">
<path fill-rule="evenodd" clip-rule="evenodd" d="M305.895 221.388C302.074 221.754 298.253 222.12 294.431 222.485C276.13 223.849 257.836 226.696 239.676 228.405C239.223 227.687 238.338 227.805 237.801 228.304C235.989 228.149 233.958 226.799 232.316 228.204C232.263 228.196 232.21 228.188 232.156 228.183C229.233 222.713 227.213 216.879 225.252 211.037C224 207.445 222.316 203.969 219.205 201.557C213.894 197.963 201.727 190.674 195.491 190.981C195.388 189.892 194.867 188.77 194.013 188.045C195.896 184.914 188.366 182.872 187.834 183.235C188.175 172.775 183.129 163.691 172.002 161.608C162.033 159.582 147.855 159.242 142.493 169.4C141.904 169.335 135.88 169.304 135.297 169.368C134.391 168.249 124.439 178.854 128.518 182.545C92.0504 198.275 71.315 196.398 61.2214 240.617C59.8569 244.771 59.7575 249.316 58.3166 253.378C53.1903 265.049 49.0323 277.477 47.9975 290.177C45.4982 290.801 45.2108 295.098 48.1057 295.72C49.2115 295.957 50.1362 296.282 50.9425 296.897C50.3122 307.305 52.8937 331.079 54.5203 331.005C57.8368 341.297 72.6305 344.202 83.1039 340.585C81.2984 343.897 83.1039 345.979 83.1039 347.749C120.79 349.139 161.996 348.339 199.672 350.245C204.491 350.178 209.56 351.399 214.313 350.697C217.212 350.019 217.217 345.575 214.277 345.025L227.125 342.304C226.838 342.198 232.421 338.577 236.641 331.811C240.569 324.241 237.896 315.104 239.676 306.87C253.576 305.762 267.707 305.288 281.455 302.993C283.33 308.461 291.444 301.921 294.024 299.29C294.021 299.286 294.017 299.282 294.014 299.278C295.263 298.945 296.264 297.804 296.297 296.454C297.172 295.234 297.356 293.515 296.517 292.336C300.364 270.688 306.23 248.584 308.351 226.732C309.1 226.57 309.806 226.25 310.404 225.756L310.356 225.709C311.37 224.607 311.567 222.705 309.877 221.768C308.513 221.012 307.375 221.247 305.895 221.388Z" fill="white"/>
<path fill-rule="evenodd" clip-rule="evenodd" d="M143.188 167.041C144.324 164.259 148.162 165.34 147.734 168.263C147.478 170.014 146.494 171.863 145.611 173.398C144.892 174.647 144.071 175.866 142.959 176.802C144.939 178.603 146.995 180.339 149.102 181.987C151.402 183.785 153.82 185.442 156.32 186.966C158.512 188.302 160.803 189.485 162.869 191.01C164.79 192.427 166.54 194.131 167.431 196.356C168.38 198.725 167.967 201.172 167.269 203.54L167.189 203.807C166.475 206.153 165.239 208.981 166.953 211.191C167.825 212.316 169.093 213.113 170.187 214.012C171.16 214.812 172.074 215.681 172.911 216.615C174.738 218.651 176.223 220.941 177.161 223.494L177.244 223.726C178.048 225.985 178.635 228.753 177.549 230.971C177.238 231.607 176.233 231.401 176.059 230.781C175.664 229.379 175.685 227.91 175.354 226.487C175.01 225.008 174.438 223.603 173.69 222.275C172.242 219.704 170.282 217.509 167.967 215.653L167.274 215.103C165.467 213.658 163.808 212.124 163.441 209.732C163.049 207.173 164.1 204.734 164.777 202.312C165.248 200.624 165.402 199.006 164.893 197.48C164.27 198.47 163.422 199.41 162.75 200.248C161.413 201.919 160.063 203.579 158.717 205.242C157.336 206.947 155.99 208.679 154.708 210.457C154.135 211.252 153.567 212.051 153.002 212.852C152.577 213.454 151.984 214.055 151.52 214.668C151.633 214.997 151.624 215.375 151.42 215.644C148.962 218.882 145.465 212.125 144.553 210.419C142.696 206.942 141.314 203.249 139.45 199.774C137.52 196.171 135.321 192.664 132.871 189.375C131.388 187.385 129.727 185.516 128.371 183.464C125.177 186.288 120.973 188.181 117.112 189.898C112.87 191.784 108.463 193.325 104.113 194.961L102.828 195.448C95.3342 198.299 87.6568 201.432 81.4277 206.498C74.1079 212.45 69.7775 220.747 66.5536 229.338C62.8425 239.228 59.7722 249.386 56.9102 259.537C55.4456 264.73 54.0559 269.948 52.7495 275.181C51.5982 279.793 50.6439 284.45 49.3113 289.013C52.0141 288.92 55.0966 289.94 57.4042 290.235C67.9208 291.577 78.2959 293.717 88.2249 297.421C89.4513 297.879 89.8061 299.073 89.5391 300.041C90.2464 299.846 90.9531 299.649 91.6604 299.455C90.8855 298.298 91.2553 296.228 91.3163 294.945L91.32 294.857C91.3826 293.147 91.5729 291.435 91.6962 289.728C91.9312 286.475 92.237 283.245 92.6436 280.01L92.7474 279.202C93.2082 275.682 93.5489 272.142 94.0517 268.629L94.1111 268.227C93.87 267.328 93.5893 266.44 93.2947 265.556C92.5095 263.201 91.4013 260.984 90.4302 258.704C90.3157 258.435 90.708 258.281 90.8913 258.442C92.536 259.885 93.8424 261.715 94.892 263.629C94.9102 263.539 94.9262 263.448 94.9452 263.358L95.065 262.783C95.3603 261.381 95.7196 259.907 96.6015 258.77C96.6954 258.649 96.8811 258.624 96.9699 258.77C97.814 260.162 97.9084 261.926 98.0382 263.51C98.1851 265.303 98.2036 267.118 98.1777 268.916C98.1271 272.429 97.8731 275.951 97.6708 279.459C97.4723 282.905 97.0826 286.308 96.5803 289.72L96.4848 290.36C96.2392 291.984 96.0382 293.629 95.7143 295.242L95.6228 295.681C95.4497 296.481 95.3432 297.609 94.9985 298.546C103.866 296.134 112.748 293.778 121.646 291.462C128.078 289.789 134.516 288.14 140.951 286.481C141.291 285.885 141.714 285.327 142.241 284.829C143.98 283.187 146.284 282.455 148.397 283.719C148.569 283.822 148.584 284.084 148.397 284.184C147.992 284.399 147.587 284.621 147.188 284.851L151.053 283.831C153.941 283.068 156.864 282.114 159.82 281.582C165.265 278.962 171.121 277.066 176.857 275.191L177.533 274.968C180.47 273.992 183.508 272.899 186.542 272.358C188.763 271.962 191.371 272.44 192.264 274.659C193.395 275.386 194.459 276.24 195.486 277.079C196.228 277.686 196.94 278.332 197.663 278.96L197.797 279.074C198.388 279.575 198.857 279.91 199.002 280.706C199.077 281.118 198.809 281.674 198.288 281.62C196.696 281.453 195.401 279.653 194.321 278.579C193.486 277.748 192.645 276.889 191.884 275.976C191.44 276.212 190.831 276.169 190.549 275.647C189.083 272.942 185.069 274.817 182.848 275.458L179.666 276.377C178.075 276.836 176.485 277.298 174.898 277.769C170.534 279.06 166.193 280.506 161.79 281.693C162.184 282.115 162.13 282.866 161.382 283.151C157.935 284.47 154.155 285.152 150.574 286.056C148.314 286.628 146.055 287.203 143.796 287.782C143.409 288.393 143.131 289.085 143.013 289.891C142.582 292.852 143.414 296.269 144.223 299.134L144.345 299.561C145.011 301.864 145.99 304.687 148.028 306.142C148.525 306.496 149.159 306.743 149.797 306.799C153.786 304.797 157.775 302.795 161.767 300.797C162.506 300.427 163.189 300.928 163.355 301.524C164.762 301.299 166.167 300.944 167.445 300.521C169.594 299.809 171.272 298.452 173.287 297.513C177.185 295.698 181.165 297.928 184.655 299.623L185.46 300.009C187.025 300.749 190.281 302.172 191.032 300.147C191.758 298.188 189.462 296.094 187.979 295.212C186.211 294.161 184.152 293.598 182.154 293.13C181.014 292.862 179.859 292.644 178.697 292.484C177.38 292.303 176.019 292.331 174.75 291.914C174.119 291.707 174.022 290.731 174.75 290.57C176.703 290.136 179.034 290.609 181.072 291.092L182.137 291.348C184.19 291.839 186.264 292.456 188.134 293.436C189.494 294.149 190.929 295.232 191.867 296.557C192.681 295.82 193.695 295.844 194.75 296.118L195.323 296.273C196.27 296.529 197.037 296.705 197.957 296.528C198.08 295.875 198.205 295.221 198.339 294.568C199.651 288.146 201.09 281.748 202.677 275.384C205.416 264.407 208.585 253.551 212.158 242.806L212.516 241.732C213.34 239.275 214.003 236.597 215.332 234.339C216.588 232.204 218.601 230.975 220.993 230.323C223.707 229.584 226.559 229.198 229.327 228.698C229.945 228.587 230.564 228.482 231.182 228.372C230.66 227.453 230.27 226.409 229.919 225.608L229.857 225.469C229.102 223.791 228.425 222.084 227.77 220.367L227.28 219.076C226.099 215.968 224.879 212.912 223.217 210.005C221.468 206.946 219.147 204.445 216.255 202.375C210.357 198.154 203.249 196.001 197.529 191.491C197.295 191.306 197.595 190.99 197.833 191.107C201.695 192.999 205.865 194.286 209.882 195.826L210.675 196.131C213.85 197.358 217.075 198.694 219.823 200.682C222.887 202.897 225.3 205.649 227.114 208.921C228.902 212.147 230.045 215.757 231.306 219.203L231.644 220.121C232.152 221.497 232.678 222.87 233.28 224.209C233.758 225.273 234.65 226.487 235.055 227.702C236.164 227.514 237.273 227.326 238.384 227.145C262.433 223.23 286.75 220.93 311.122 220.257C312.075 220.231 312.569 221.118 312.428 221.929C310.089 235.414 308.011 248.945 305.73 262.44C304.735 268.33 303.719 274.215 302.68 280.098C302.154 283.078 301.545 286.047 301.047 289.032C300.644 291.442 300.352 293.871 299.661 296.226C299.041 298.337 298.09 300.373 296.528 301.984C294.845 303.72 292.494 304.56 290.129 304.957C284.123 305.965 277.964 306.377 271.91 307.048L239.677 310.623C240.148 314.798 240.184 318.907 239.967 323.13L239.844 325.436C239.744 327.29 239.623 329.147 239.35 330.982C239.008 333.285 237.927 335.234 236.337 336.953C234.876 338.533 233.101 339.88 231.375 341.171C229.583 342.512 227.731 343.806 225.624 344.635L225.351 344.74C223.503 345.444 220.035 346.534 217.509 346.135C217.839 347.749 218.478 349.483 217.912 351.08C217.649 351.821 216.655 352.191 216.046 351.56C214.839 350.31 214.745 348.659 214.459 347.028C214.162 345.331 213.905 343.628 213.678 341.921C213.237 338.62 212.894 335.288 212.79 331.96C212.682 328.541 212.724 325.118 212.912 321.703C213.01 319.949 213.13 318.196 213.358 316.454C213.456 315.711 213.555 314.967 213.669 314.226C213.711 313.955 213.757 313.686 213.806 313.418L210.913 313.736C206.477 314.219 202.039 314.655 197.571 314.723C197.042 314.731 196.635 314.496 196.369 314.154C196.086 314.604 195.593 314.926 194.886 314.923C188.647 314.9 182.837 312.911 177.163 310.567C174.303 309.385 171.487 308.106 168.623 306.934C165.949 305.84 163.091 305.06 160.482 303.828L153.626 307.334C153.575 307.506 153.511 307.669 153.442 307.806C152.996 308.694 152.116 309.176 151.217 309.539C150.354 309.888 149.461 309.997 148.59 309.909C143.39 312.565 138.19 315.22 132.985 317.868L127.78 320.513C117.408 325.779 107.078 331.13 96.6413 336.272L95.873 336.649C92.2681 338.411 88.3973 340.198 84.3968 341.531C84.3256 342.518 84.3705 343.479 84.4554 344.524L84.4758 344.751C84.5951 345.986 84.8508 347.534 83.8348 348.413C83.3063 348.87 82.3622 348.872 82.0028 348.182C81.3506 346.932 81.9361 344.961 82.1427 343.603C82.216 343.12 82.3054 342.624 82.4376 342.142C77.8514 343.473 73.1263 344.119 68.4592 343.371C63.9153 342.644 60.396 339.853 57.5589 336.439C54.5646 332.837 52.4369 328.638 51.2953 324.137C49.9961 319.016 49.9112 313.727 49.9417 308.481C49.9741 302.895 50.1861 297.281 50.8829 291.732C50.1194 291.557 49.2727 291.406 48.5012 291.458C48.1191 292.054 47.3778 292.305 46.708 292.228C45.2514 293.794 48.946 295.395 50.1267 295.796C50.5366 295.935 50.4927 296.584 50.0199 296.565L49.722 296.551C47.8977 296.456 46.0128 296.152 44.9402 294.499C44.0806 293.174 44.3389 291.605 45.3635 290.524C46.0403 284.285 47.6583 278.209 49.1641 272.123C50.6418 266.149 52.2852 260.213 54.027 254.308L54.8079 251.665C57.5504 242.405 60.417 233.07 64.2 224.178C66.0891 219.738 68.2652 215.38 71.215 211.509C73.9647 207.9 77.211 204.812 80.9425 202.174C87.8989 197.257 96.0616 194.286 104.082 191.455L104.441 191.328C108.597 189.862 112.743 188.379 116.852 186.791C120.486 185.386 123.967 183.605 127.583 182.18C127.466 181.972 127.353 181.761 127.243 181.549L127.177 181.604C127.165 181.613 127.153 181.621 127.141 181.629C126.777 181.875 126.242 181.754 125.942 181.478C125.096 180.7 125.383 179.835 125.947 179.028L126.021 178.925C126.712 177.981 127.328 176.984 127.966 176.006L128.365 175.394C129.436 173.76 130.561 172.116 131.988 170.765C132.649 170.14 133.372 169.671 134.139 169.323C134.073 169.187 134.648 168.911 134.811 169.05C137.24 168.183 140.035 168.365 142.683 168.604M238.118 310.796L234.741 311.17C231.025 311.583 227.308 311.981 223.591 312.376L215.517 313.232C215.496 313.68 215.44 314.119 215.43 314.458C215.377 316.206 215.338 317.954 215.301 319.702C215.226 323.205 215.308 326.713 215.544 330.21C215.774 333.598 216.076 336.987 216.545 340.352L216.641 341.025L216.697 341.379C217.08 341.415 217.456 341.592 217.769 341.957C218.452 342.752 220.925 341.979 221.89 341.644C223.479 341.093 224.974 340.162 226.354 339.228C227.702 338.317 228.916 337.254 230.082 336.134L231.036 335.214C231.985 334.294 232.935 333.315 233.517 332.158C234.305 330.589 234.407 328.664 234.639 326.955C234.923 324.853 235.262 322.752 235.621 320.661M140.079 288.737L139.729 288.827C127.004 292.123 114.298 295.518 101.534 298.669C95.2174 300.229 88.8709 301.675 82.5465 303.205L81.5226 303.454C76.5334 304.684 71.4843 306.164 67.6637 309.692C67.5226 309.822 67.3179 309.622 67.4506 309.484C71.5683 305.21 77.4246 303.401 83.0475 301.833C84.0869 301.543 85.1276 301.26 86.1672 300.971C78.5201 298.313 70.7524 296.001 62.8053 294.351C60.7589 293.927 58.6887 293.615 56.6439 293.189C55.2179 292.891 53.8252 292.461 52.4142 292.104L51.3044 291.832L51.2896 295.252C51.2712 300.096 51.28 304.936 51.5335 309.78L51.5814 310.677C51.8772 316.067 52.3388 321.569 54.3005 326.651C55.8946 330.781 58.4355 334.672 61.7584 337.68C63.4398 339.202 65.2474 340.387 67.4819 340.972C69.5567 341.515 71.7305 341.579 73.8633 341.434C84.0936 340.738 93.2002 335.319 102.087 330.833C116.622 323.495 131.16 316.16 145.71 308.851C145.316 308.588 144.946 308.286 144.609 307.947C142.658 305.982 141.629 303.292 140.953 300.688C140.233 297.915 139.803 294.943 139.753 292.081M158.593 311.683C158.721 311.616 158.87 311.7 158.876 311.842C158.921 312.925 158.307 313.994 157.848 314.97L157.799 315.074C157.242 316.283 156.632 317.476 156 318.651C154.739 320.996 153.427 323.317 152.059 325.605C149.307 330.208 146.248 334.618 142.634 338.625C141.817 339.531 140.474 338.37 140.998 337.395C143.525 332.696 146.47 328.259 149.501 323.86C151.019 321.658 152.535 319.454 154.068 317.262C154.707 316.347 155.355 315.435 156.02 314.538L156.421 314.001M309.51 222.948C296.741 223.324 283.987 224.136 271.278 225.409C259.459 226.592 247.683 228.168 235.974 230.131C233.528 230.541 231.086 230.968 228.646 231.412L227.183 231.68C224.743 232.131 221.762 232.317 219.589 233.588C217.299 234.928 216.68 237.728 215.918 240.038C215.022 242.753 214.149 245.477 213.299 248.207C209.925 259.047 206.843 269.98 204.094 280.986C202.729 286.449 201.518 291.943 200.242 297.425C199.108 302.297 197.858 307.113 196.551 311.936C196.712 311.814 196.909 311.721 197.148 311.671C203.637 310.325 210.26 309.74 216.846 308.997L217.483 308.924C224.296 308.143 231.109 307.368 237.926 306.62L283.06 301.671C285.722 301.38 288.574 301.34 291.164 300.643C295.569 299.459 296.601 294.658 297.34 290.834L297.362 290.719C299.59 279.167 301.363 267.514 303.441 255.933M197.601 298.507C195.849 298.395 193.451 296.83 192.121 296.942C192.819 298.084 193.134 299.386 192.732 300.777C191.612 304.647 186.55 302.644 184.112 301.462C182.112 300.492 180.182 299.306 177.969 298.851C175.461 298.337 173.762 299.31 171.644 300.43C169.904 301.351 168.009 302.011 166.06 302.354C165.024 302.536 164.04 302.555 163.058 302.484C162.998 302.531 162.932 302.575 162.856 302.613L162.336 302.879C164.686 302.984 167.079 303.691 169.266 304.339C171.532 305.009 173.757 305.818 175.97 306.644L178.147 307.46C183.516 309.465 189.075 311.369 194.886 311.352C195.304 311.351 195.646 311.464 195.915 311.648M187.797 286.381C189.528 286.175 191.126 286.396 192.51 287.495C194.178 288.82 195.299 291.017 197.697 291.161C198.396 291.203 198.558 292.162 197.864 292.362C196.078 292.878 194.633 291.936 193.417 290.713L192.599 289.88C191.397 288.667 190.288 287.729 188.249 287.801C186.065 287.879 183.877 288.371 181.707 288.621C179.249 288.905 176.791 289.146 174.325 289.355C174.21 289.364 174.191 289.189 174.298 289.163L177.06 288.492M186.126 279.48L186.412 279.453C188.926 279.215 191.225 279.205 193.47 280.524L193.9 280.778C195.924 281.977 198.127 283.391 199.393 285.333C199.6 285.651 199.258 286.025 198.912 285.944C196.479 285.374 194.7 283.634 192.654 282.332C190.358 280.87 187.987 281.111 185.369 281.338C182.834 281.558 180.3 281.86 177.791 282.272C175.432 282.659 173.066 283.269 170.684 283.464L170.685 283.459C170.412 283.459 170.257 283.06 170.535 282.925C172.952 281.748 175.752 281.191 178.382 280.653M262.491 255.255C262.248 254.122 263.678 253.596 264.341 254.495L264.482 254.685C265.913 256.597 267.983 258.996 267.878 261.428C269.136 261.455 270.441 262.2 270.931 263.307C271.158 263.82 271.234 264.427 271.184 265.055C272.328 265.142 273.575 265.874 274.275 266.587C275.434 267.768 275.525 269.438 274.694 270.819C272.881 273.829 268.921 274.924 265.577 275.168L265.458 275.177C262.005 275.41 257.029 275.347 254.661 272.458C252.377 269.671 254.902 267.416 257.49 266.19C256.816 265.591 256.467 264.73 256.795 263.823C257.372 262.229 259.406 261.613 260.555 260.504C261.956 259.153 262.882 257.299 262.513 255.361M264.389 257.705C264.009 259.319 263.073 260.795 261.77 261.964C261.272 262.411 260.727 262.809 260.147 263.151L260.078 263.191C259.564 263.472 258.301 263.999 258.398 264.63C258.498 265.279 260.556 266.294 261.117 266.295C261.245 266.295 261.317 266.489 261.187 266.546C260.17 266.983 259.282 267.171 258.288 266.708C257.624 267.37 256.978 268.054 256.339 268.732C255.209 269.932 255.596 271.199 256.931 272.092C259.077 273.528 262.339 273.493 264.842 273.389C267.362 273.284 270.055 272.736 272.024 271.099L272.109 271.026C273.179 270.099 274.156 268.527 272.518 267.634C271.876 267.284 271.183 267.304 270.574 267.134C270.004 268.224 269.08 269.096 267.951 269.264C267.04 269.4 266.412 268.283 267.241 267.749L267.427 267.636C268.469 266.987 269.358 265.989 269.334 264.689C269.318 263.787 268.025 262.647 267.183 263.495L267.145 263.535C266.44 264.31 265.199 263.334 265.663 262.476L265.685 262.437M100.048 212.831C100.044 212.637 100.324 212.565 100.422 212.733C102.057 215.538 102.912 218.978 103.784 222.069C104.696 225.307 105.433 228.578 106.095 231.873C107.435 238.545 108.149 245.179 108.198 251.979C108.204 252.95 106.582 253.208 106.424 252.213C105.37 245.599 104.361 238.977 103.299 232.364C102.765 229.038 102.143 225.725 101.548 222.409M116.24 217.718C116.119 217.331 116.697 217.202 116.845 217.556C120.127 225.412 121.239 234.315 119.131 242.604C118.809 243.871 116.904 243.322 117.148 242.07M158.58 210.737C158.563 210.448 158.949 210.402 159.094 210.602C160.649 212.738 161.295 215.6 164.023 216.704C165.386 217.255 166.919 217.159 168.123 218.091C168.927 218.713 169.544 219.697 168.94 220.64C168.746 220.945 168.2 221.097 167.936 220.766C167.55 220.284 167.346 219.706 166.821 219.344C166.082 218.834 165.085 218.803 164.237 218.563C163.141 218.253 162.174 217.71 161.382 216.904M184.564 175.099C184.724 175.02 184.878 175.07 184.98 175.206C185.127 175.398 185.109 175.585 184.93 175.718C185.169 176.195 185.452 177.39 185.492 177.564C185.656 178.27 185.83 178.971 186.013 179.672C186.38 181.086 186.702 182.51 187.07 183.924C187.461 185.423 187.925 186.906 188.443 188.367C188.476 188.462 188.513 188.558 188.551 188.656L188.61 188.804L188.625 188.782C188.73 188.62 188.949 188.733 188.923 188.904C188.899 189.06 188.866 189.215 188.839 189.372L188.893 189.511C189.232 190.399 189.463 191.334 188.843 192.118C188.61 192.411 188.355 192.585 188.036 192.636C187.526 194.277 186.885 195.888 186.199 197.435L185.998 197.887C184.989 200.144 183.913 202.371 182.307 204.293C180.553 206.39 178.14 207.823 176.613 210.122C175.902 211.191 175.407 212.315 175.006 213.523L174.855 213.981C174.57 214.835 174.241 215.663 173.42 216.164C173.157 216.324 172.765 216.273 172.553 216.055C170.868 214.317 172.632 211.072 173.648 209.389C175.061 207.049 177.105 205.552 179.152 203.787C181.358 201.884 182.765 199.338 184.127 196.83C184.961 195.294 185.766 193.725 186.613 192.181C185.728 191.418 185.444 189.903 185.144 188.849L185.117 188.755C184.621 187.068 184.227 185.337 183.978 183.598C183.739 181.926 183.639 180.279 183.702 178.598L183.72 178.17M187.856 183.055C187.66 182.794 187.984 182.498 188.253 182.552C189.884 182.881 191.48 183.844 192.945 184.623L193.101 184.706C194.27 185.321 195.447 186.074 196.06 187.268C196.728 188.566 196.673 190.061 196.582 191.471L196.573 191.603C196.462 193.295 196.444 195.053 196.077 196.714C195.889 197.564 195.099 197.803 194.424 197.602C193.621 200.076 191.364 201.898 189.716 203.85C187.614 206.338 188.009 209.697 188.229 212.694C188.318 213.907 186.77 214.252 185.973 213.605L184.136 212.117C183.83 211.869 183.524 211.62 183.219 211.37C182.958 211.156 182.7 210.94 182.443 210.722L182.06 210.392C181.89 210.244 181.141 209.427 180.921 209.393C180.391 209.311 179.129 210.675 178.698 211.103L178.643 211.156C177.831 211.933 177.097 212.769 176.413 213.655C176.287 213.818 176.041 213.683 176.131 213.495C176.744 212.215 177.456 210.992 178.302 209.847L178.473 209.619C179.036 208.879 179.791 207.574 180.784 207.355C181.997 207.089 183.209 208.275 184.091 208.933L184.147 208.974C184.567 209.281 184.982 209.594 185.396 209.909C185.353 207.678 185.642 205.423 186.823 203.5C187.656 202.144 188.904 201.14 189.972 199.975C191.161 198.677 191.782 197.082 192.859 195.731C192.997 195.557 193.188 195.464 193.395 195.434C193.436 194.347 193.601 193.25 193.727 192.176L193.764 191.854C193.892 190.686 194.195 189.26 193.609 188.167C193.055 187.134 191.784 186.405 190.843 185.704L190.075 185.123M134.893 170.709C134.402 170.986 133.942 171.33 133.526 171.761C132.214 173.118 131.276 174.806 130.364 176.43C129.873 177.305 129.399 178.189 128.904 179.061C128.688 179.441 128.467 179.817 128.243 180.192C128.139 180.364 127.831 180.708 127.679 180.919C127.848 181.151 128.023 181.379 128.202 181.604C128.27 181.69 132.975 186.687 134.615 188.643C137.126 191.639 139.371 194.803 141.29 198.19C143.169 201.507 144.6 205.018 146.341 208.399C147.212 210.092 148.185 211.772 149.425 213.237C149.473 213.294 149.524 213.348 149.573 213.405C150.046 212.158 151.259 210.823 151.855 210.056L151.91 209.984C153.262 208.208 154.688 206.485 156.146 204.792C157.478 203.246 158.843 201.733 160.242 200.246L160.768 199.689C161.742 198.663 162.98 197.127 164.406 196.394C164.253 196.128 164.077 195.866 163.873 195.606C162.537 193.904 160.648 192.668 158.784 191.553L157.575 190.836C153.018 188.128 148.532 185.295 144.576 181.777C142.483 179.916 140.419 177.966 138.66 175.795L138.038 175.027M142.496 169.368C140.362 169.543 138.058 169.501 136.086 170.179C137.839 171.795 139.505 173.54 141.217 175.183C141.369 174.072 141.681 172.974 141.945 171.89" fill="black"/>
<path fill-rule="evenodd" clip-rule="evenodd" d="M206.284 97.0866C196.87 72.936 179.899 55.2539 151.288 66.3599C150.468 65.8151 149.397 65.669 148.371 66.307C132.785 75.8488 121.562 91.1466 116.699 108.397C113.739 108.945 110.862 109.903 108.293 111.472C102.71 114.883 98.9536 120.311 95.4325 125.597C94.3736 127.187 95.3541 129.818 97.344 130.179C98.2084 130.336 99.065 130.429 99.9168 130.454C99.7094 131.188 99.4364 131.897 99.0888 132.547C97.8302 134.902 100.208 137.402 102.436 136.758C102.684 136.886 102.943 136.991 103.211 137.069C103.241 138.403 103.944 140.189 105.336 140.458C107.586 140.929 110.576 139.25 110.045 136.796C110.725 136.913 111.402 136.927 112.062 136.847C112.136 138.124 112.113 139.458 112.294 140.636C112.885 146.191 118.577 149.922 124.006 148.232C124.338 149.963 124.729 152.395 126.478 153.334C128.522 158.925 132.051 165.305 137.832 167.852C137.317 169.138 137.596 170.702 139.146 171.562C149.728 177.444 162.428 179.435 174.391 177.248C179.172 176.97 183.831 175.917 188.302 173.673C191.562 172.036 194.56 169.958 197.486 167.815C200.413 165.672 203.544 163.585 205.88 160.802C208.418 157.78 209.6 154.224 210.366 150.44C213.88 133.26 212.666 116.392 206.284 100.028C198.384 79.7705 214.181 117.345 206.284 97.0866Z" fill="white"/>
<path fill-rule="evenodd" clip-rule="evenodd" d="M160.769 61.6537C165.587 61.3221 170.493 62.114 175.082 63.5306C182.4 65.7891 189.12 69.775 194.642 74.9641C200.333 80.3118 204.541 86.9051 207.1 94.1873C210.186 102.97 210.648 112.347 211.517 121.514C211.956 126.146 212.679 130.708 213.43 135.295L213.549 136.019C214.284 140.488 214.697 145.008 213.682 149.47C211.996 156.886 206.94 163.181 200.939 167.833C188.611 177.389 169.42 183.214 155.067 174.421C152.846 173.061 154.95 169.582 157.118 171C158.644 171.998 160.26 172.873 161.993 173.477C169.235 176 177.189 175.101 184.346 172.754C191.4 170.441 198.168 166.532 203.372 161.317C208.839 155.839 211.868 149.072 211.43 141.373C211.169 136.792 210.099 132.295 209.505 127.752C208.979 123.727 208.663 119.681 208.3 115.64L208.166 114.187C207.395 105.955 206.288 97.4964 202.446 90.0237C199.215 83.737 194.483 78.144 188.794 73.8246C182.838 69.3025 175.723 66.1398 168.259 64.9602C159.481 63.5731 151.078 66.0955 143.755 70.7911C137.261 74.9555 131.678 80.5205 127.397 86.8349C125.321 89.8966 123.552 93.1663 122.025 96.5195C120.586 99.6788 119.593 102.99 118.436 106.246C119.388 106.219 120.356 106.254 121.34 106.36C126.382 106.905 131.081 109.453 134.072 113.471C137.727 118.381 136.739 124.408 138.167 129.992C138.277 130.425 138.089 130.85 137.709 131.089C135.544 132.453 132.647 132.499 130.552 130.963C128.733 129.63 127.88 127.22 128.616 125.114C128.712 124.839 129.122 124.888 129.133 125.182C129.272 128.766 132.682 131.526 136.024 129.82C134.591 125.005 135.345 119.628 132.413 115.279C127.222 107.581 116.48 107.263 108.936 111.603C104.965 113.886 101.822 117.319 99.4819 121.159L98.8077 122.274C97.9106 123.764 96.9606 125.449 96.7745 127.089C96.6672 128.036 97.0255 128.925 98.1393 128.448C99.0403 128.063 99.738 127.163 100.273 126.389C101.186 125.069 103.284 126.209 102.53 127.615L102.504 127.66C101.407 129.556 100.731 131.645 100.607 133.821L100.576 134.424C100.555 134.863 100.54 135.487 100.635 135.51C100.75 135.537 101.544 134.644 101.676 134.52C102.313 133.924 102.969 133.436 103.855 133.277C105.021 133.069 106.196 134.475 105.185 135.397L105.143 135.434C104.24 136.199 104.28 137.725 105.277 138.441C106.685 139.451 108.418 137.802 108.622 136.445L108.629 136.395C108.81 134.928 110.899 134.876 111.012 136.395C111.259 139.69 107.235 142.452 104.173 140.79C102.962 140.133 102.193 138.93 101.952 137.64C101.565 137.839 101.148 137.977 100.708 138.015C99.2726 138.139 98.2525 137.156 98.0205 135.835C97.7502 134.297 97.9105 132.65 98.3261 131.053C97.5468 131.236 96.7271 131.166 95.9032 130.702C93.4104 129.3 94.1263 126.18 95.0675 124.074C99.0855 115.084 107.41 106.927 117.724 106.279C117.78 104.693 118.001 103.193 118.361 101.605C121.889 86.0699 133.317 71.6845 148.194 64.961C152.17 63.1642 156.386 61.9556 160.769 61.6537ZM121.754 123.711L121.895 123.68C123.503 123.343 127.733 122.946 127.223 125.583C127.199 125.707 127.014 125.692 126.981 125.583C126.482 123.925 123.089 125.251 122.099 125.65C120.734 126.2 119.387 127.012 118.272 127.955C115.831 130.021 114.195 132.931 113.946 136.093C113.699 139.229 114.632 142.616 116.953 144.885C118.09 145.997 119.542 146.751 121.172 146.807C122.638 146.857 124.256 145.744 125.608 146.396C125.875 146.524 126.086 146.877 126.062 147.167C126.016 147.716 125.764 148.144 125.389 148.475C127.653 152.497 129.505 156.754 132.392 160.411C133.841 162.246 135.483 163.945 137.342 165.391C138.225 166.078 139.186 166.682 140.177 167.213C141.338 167.835 142.342 168.224 143.171 169.278C143.877 170.177 143.17 171.915 142.006 172.07C139.263 172.435 136.598 170.273 134.584 168.653C132.573 167.035 130.834 165.039 129.397 162.921C126.638 158.854 124.751 154.056 123.996 149.202C123.12 149.473 122.134 149.555 121.392 149.557C119.417 149.561 117.532 148.869 115.98 147.699C110.3 143.415 109.669 134.62 113.677 129.074C115.596 126.42 118.51 124.459 121.754 123.711ZM121.79 133.912C123.107 133.799 124.423 134.002 125.661 134.44L126.171 134.62C127.249 135.005 128.397 135.456 129.175 136.244C130.365 137.449 129.18 139.536 127.486 139.074C125.612 138.564 124.09 137.025 122.217 136.38C120.543 135.803 118.646 135.885 117.161 136.878C116.964 137.009 116.706 136.751 116.835 136.56C117.971 134.873 119.765 134.085 121.79 133.912Z" fill="black"/>
<path fill-rule="evenodd" clip-rule="evenodd" d="M165.991 151.674C169.268 147.961 174.787 147.702 179.359 148.631C182.293 149.226 185.15 150.219 188.13 150.587C189.522 150.759 190.929 150.81 192.331 150.785C193.708 150.76 195.087 150.49 196.459 150.54C196.67 150.548 196.75 150.818 196.567 150.927C194.684 152.055 192.148 152.417 189.924 152.637C189.931 152.798 189.941 152.954 189.964 153.087C190.025 153.441 190.08 153.793 190.125 154.149C190.226 154.953 190.339 155.754 190.451 156.557C190.673 158.136 190.743 159.765 191.134 161.316L191.202 161.574C191.292 161.9 191.313 162.195 191.283 162.46L191.373 162.42L191.659 162.285L191.846 162.199C192.53 161.89 193.182 161.665 193.985 161.74C194.597 161.797 195.111 162.203 195.114 162.84C195.13 165.699 191.179 166.618 188.919 167.165L188.256 167.324C185.379 168.008 182.442 168.608 179.484 168.752C174.736 168.981 169.401 167.705 166.295 163.95C163.397 160.446 162.866 155.214 165.991 151.674ZM187.552 163.684C187.054 159.38 181.63 159.143 180.069 161.873C179.377 158.068 169.134 161.544 169.935 162.3C172.971 165.166 177.578 165.425 181.538 164.894C183.555 164.624 185.573 164.185 187.552 163.684ZM181.532 152.404L180.169 152.213L179.632 152.14C176.251 151.699 172.449 151.471 169.67 153.584C168.655 154.356 168.084 155.362 167.871 156.442C170.501 156.062 173.14 155.772 175.788 155.531L176.51 155.466C178.166 155.321 179.822 155.167 181.477 155.006L182.653 154.89L183.829 154.771C184.242 154.729 187.031 154.59 187.555 154.683C187.611 154.224 187.684 153.23 187.802 152.783C185.821 152.849 183.849 152.705 181.88 152.45L181.532 152.404ZM187.809 133.168C189.83 134.366 192.909 137.159 190.735 140.128C188.176 142.746 184.492 139.744 182.677 138.386C180.993 137.334 179.102 140.04 180.664 141.269C193.783 150.739 199.107 133.481 188.832 131.76C187.7 131.57 187.28 132.798 187.809 133.168ZM191.426 138.214L191.523 138.162L191.556 138.143C191.613 138.107 191.576 138.111 191.447 138.154L191.35 138.188V138.255C191.375 138.24 191.402 138.229 191.426 138.214ZM165.545 127.573L165.545 127.514C165.549 125.85 166.543 122.051 168.999 122.051C170.534 122.051 171.466 124.637 171.627 127.302L171.633 127.411C171.704 129.068 171.238 132.69 168.999 132.69C166.737 132.69 165.569 129.259 165.545 127.573V127.573ZM201.714 127.051L201.714 126.992C201.71 125.329 200.716 121.53 198.26 121.53C196.763 121.53 195.84 123.987 195.646 126.581L195.632 126.78C195.535 128.381 195.971 132.168 198.26 132.168C200.522 132.168 201.691 128.737 201.714 127.051V127.051ZM166.947 110.707C168.952 110.41 171.607 110.974 172.542 112.962C172.958 113.848 172.465 114.827 171.415 114.876C168.878 114.995 166.602 114.444 164.375 116.053C163.417 116.745 162.611 117.704 161.935 118.66L161.679 119.024L161.467 119.324C161.008 119.982 160.573 120.697 160.641 121.491C160.661 121.726 160.415 121.949 160.181 121.94C158.721 121.881 158.564 120.097 158.756 119.026C159.113 117.037 160.1 115.17 161.468 113.666C162.905 112.087 164.803 111.025 166.947 110.707ZM194.561 113.121C195.944 112.254 197.712 111.921 199.331 112.049C202.525 112.3 207.882 114.946 207.177 118.749C206.959 119.922 205.286 120.541 204.3 119.89C203.24 119.191 202.982 118.104 202.193 117.189C201.564 116.459 200.766 115.931 199.912 115.481C199.07 115.037 198.096 114.768 197.141 114.669L196.982 114.655C196.407 114.607 193.502 114.62 193.929 115.677C194.012 115.884 193.696 116.048 193.551 115.891C192.661 114.931 193.669 113.68 194.561 113.121Z" fill="black"/>
<path fill-rule="evenodd" clip-rule="evenodd" d="M210.374 135.504C208.572 137.864 205.232 138.615 202.151 138.356C195.506 137.732 193.415 130.374 193.197 124.655C197.653 125.877 192.82 117.221 208.052 116.269C213.421 115.833 211.941 118.995 214.313 121.305C214.264 126.153 213.437 131.422 210.374 135.504M178.724 129.932C174.801 147.846 153.318 143.585 151.061 127.437C153.145 126.003 152.596 122.462 155.185 121.179C159.288 118.623 164.417 118.732 169.076 118.792C175.032 119.191 176.729 121.597 179.788 124.221C179.641 125.974 179.216 128.052 178.724 129.932M218.884 113.302C218.664 113.266 218.443 113.233 218.223 113.201C218.051 113.106 217.849 113.033 217.614 112.989C217.077 112.856 216.544 112.766 216.012 112.718C208.377 111.043 190.713 113.421 189.984 119.774C187.553 120.566 185.449 119.857 182.631 119.928C180.485 111.185 143.4 112.419 141.616 117.69C141.61 117.688 141.603 117.687 141.596 117.684C139.882 117.167 137.356 117.292 135.394 117.21C131.206 117.124 127.013 117.488 122.915 118.35C115.241 119.539 104.769 120.931 110.105 130.274C110.106 130.276 110.107 130.278 110.109 130.279L110.109 130.278C111.029 131.198 112.59 130.457 112.648 129.213C110.854 124.787 114.907 124.255 118.025 122.983C125.783 120.265 133.683 119.888 141.707 120.729C142.311 121.422 143.227 122.027 144.195 122.343C149.56 123.211 146.733 127.092 150.124 127.656C149.501 141.183 166.344 148.567 176.104 139.675C180 135.96 180.929 130.457 181.833 125.497C182.31 125.393 182.614 125.138 182.791 124.801C183.94 123.683 184.662 122.65 186.934 122.343C189.205 122.036 190.954 122.652 191.191 122.841C191.25 122.958 191.314 123.075 191.389 123.193C191.493 123.368 191.634 123.507 191.794 123.617C189.551 137.087 200.276 145.606 211.103 138.62C215.808 134.305 216.802 127.699 216.998 121.802C217.636 121.427 218.04 120.7 217.819 119.785C217.515 118.525 218.228 117.434 219.364 116.886C220.841 116.174 220.579 113.576 218.884 113.302" fill="black"/>
</svg>
