<svg width="222" height="442" viewBox="0 0 222 442" fill="none" xmlns="http://www.w3.org/2000/svg">
<path fill-rule="evenodd" clip-rule="evenodd" d="M48.3542 206.551C48.3768 208.094 48.5311 211.638 48.9175 213.132C44.6131 206.215 38.1634 198.656 37.1826 190.184C37.4883 190.1 38.8446 189.975 39.0814 189.797C41.3084 190.834 40.887 187.642 41.2162 186.165C42.105 183.04 43.9723 179.965 44.7837 176.819C46.9164 175.894 42.6335 175.502 42.0113 175.484C44.5982 172.596 45.7881 168.627 47.6301 165.259C50.3365 159.534 52.7605 153.682 54.9248 147.738C55.3979 151.462 55.4828 155.227 55.1945 158.972C54.3045 175.012 48.2938 190.436 48.3542 206.551ZM197.744 178.057C196.405 178.283 194.173 178.496 192.837 178.606C194.591 177.558 199.775 175.56 196.508 173.765C195.501 173.397 194.42 173.923 193.404 174.086C189.185 174.782 183.976 174.745 179.708 174.394C181.264 173.114 183.312 171.27 184.83 169.945C185.637 169.241 186.42 168.974 185.512 167.923C183.912 166.429 181.051 167.53 179.201 168.186C174.098 171.052 168.337 174.161 162.86 176.366C162.803 175.597 162.838 174.602 162.098 174.086C159.928 173.06 158.33 173.36 156.021 173.087C153.33 172.683 150.938 172.223 148.272 171.509C146.529 170.176 145.466 166.245 142.679 166.685C145.147 160.456 141.384 153.957 139.971 147.993C138.207 141.889 137.28 135.55 137.255 129.204C137.237 119.043 131.367 111.247 122.885 106.033C119.541 103.769 117.295 98.2622 113.155 97.1592C112.628 95.1338 112.597 94.2441 112.134 92.2032C111.902 91.617 111.73 88.436 111.146 88.5442C110.502 85.3933 107.222 84.1296 104.383 83.4696C100.692 82.7027 95.5411 81.7738 92.2231 83.9377C91.2621 84.7394 90.8399 86.0818 90.7694 87.281C90.4007 88.8779 89.6339 90.5322 88.74 91.9178C87.2145 91.401 88.0778 90.4381 86.569 90.2139C72.7923 88.1666 57.5 98.2994 48.5613 108.184C32.3586 124.865 19.4148 147.637 21.5336 171.412C20.9637 171.327 18.4381 170.93 18.4745 171.73C18.5982 175.209 19.2367 178.111 19.4129 181.588C19.2377 186.193 24.0102 186.748 27.4578 187.884C27.2455 201.246 32.0874 214.611 39.6657 225.594C41.5068 227.755 44.2695 235.255 47.6301 232.268C48.0261 231.803 44.9548 228.586 44.4084 227.792C42.5426 225.437 37.6004 213.777 41.0933 211.449C41.8698 213.966 49.3887 226.068 50.729 219.199C52.5091 220.235 55.4507 220.941 57.5788 220.834C61.5793 223.007 65.4721 225.353 69.3139 227.792C71.1034 231.315 73.7283 234.699 75.9274 238.082C60.7083 273.327 45.8534 331.336 26.2684 364.532C24.5607 366.7 33.9548 370.384 35.614 371.18C32.4409 376.345 32.0437 382.331 29.6296 387.894C29.1698 387.819 28.706 387.917 28.2912 388.14C25.3134 390.162 24.1896 397.4 24.0198 400.968C24.1573 402.56 23.5687 404.968 24.8534 406.14C24.6738 406.335 24.5398 406.573 24.4444 406.816C23.5403 407.522 23.6517 409.081 24.135 410.048C25.8354 413.586 38.2642 413.258 42.2975 414.015C56.5845 415.228 68.5758 415.419 82.8609 414.093C84.6143 413.725 83.2883 410.982 82.4225 410.238C82.8224 409.994 83.0781 409.549 82.9031 408.977C79.6556 399.665 67.9182 400.295 60.8159 395.323C62.6834 394.24 61.478 394.585 60.3047 395.006C59.0594 394.222 57.8481 393.339 56.7259 392.364C57.5878 391.83 57.1627 391.478 56.2304 391.924C54.7609 390.743 53.6164 388.917 51.7444 388.344C49.9109 387.894 49.9109 387.108 49.9109 386.612C51.0021 382.213 52.194 377.702 52.8066 373.241C53.4601 374.207 59.0983 366.465 60.3047 364.532C64.9922 357.089 64.9795 349.754 68.2599 341.66C74.9959 324.033 88.7944 287.089 97.2093 270.231C116.898 302.397 107.308 345.902 119.454 380.202C119.994 381.233 121.009 385.097 122.415 383.983C122.961 384.111 123.542 384.18 124.063 384.254C123.912 388.003 123.632 391.743 123.011 395.453C122.432 395.607 121.94 395.911 121.685 396.444C120.71 395.726 118.844 406.314 118.684 407.393C118.682 408.784 117.486 411.882 118.578 412.709C117.004 413.354 116.747 415.741 117.854 416.969C121.141 421.398 137.164 420.181 143.075 420.923C150.551 420.738 181.822 423.544 183.993 416.434C184.425 414.811 183.685 412.762 182.18 412.137C182.783 410.728 181.34 409.367 180.458 408.378C175.255 402.952 167.255 402.097 160.328 399.736C160.586 399.471 151.286 394.693 149.27 393.512C149.403 391.908 146.078 393.516 146.068 393.512C144.483 390.703 143.36 386.332 142.297 383.301C144.259 382.691 148.986 382.15 149.862 380.202C152.677 379.255 149.853 375.161 149.27 373.241C132.765 331.837 148.424 279.612 124.063 240.534C128.528 237.97 133.651 232.359 129.24 227.651C128.357 226.52 126.198 222.997 126.234 223.612C125.413 220.257 123.582 214.479 123.011 211.087C120.915 198.634 122.289 186.971 124.063 174.394C126.526 183.858 135.014 191.742 143.649 196.066C147.019 197.46 151.469 200.338 155.169 199.43C158.509 198.439 164.573 191.567 165.288 188.266C175.023 189.426 185.13 188.495 194.433 185.427C195.627 184.974 197.04 185.012 196.671 183.313C196.303 181.871 193.677 182.239 192.548 182.506C194.274 181.547 198.754 181.296 198.72 178.789C198.662 178.266 198.277 177.967 197.744 178.057Z" fill="white"/>
<path fill-rule="evenodd" clip-rule="evenodd" d="M90.8032 85.1495C90.9513 85.2097 91.0524 85.4355 91.1123 85.7747C91.2771 85.8263 91.4184 85.9484 91.4608 86.1323C91.5858 86.673 91.4398 87.2368 91.3272 87.7757L91.3144 87.8378C91.2078 88.3596 91.0776 88.8781 90.9184 89.3866L90.8951 89.5154C90.5076 91.617 89.7605 93.6151 88.8832 93.2757L89.086 93.6458C92.5283 99.9097 102.361 116.729 110.038 114.331C114.509 112.535 114.445 106.695 114.118 102.63C110.799 104.672 110.178 89.0443 110.858 87.3174C111.4 86.9178 111.662 90.5126 111.863 91.0082C112.303 92.9801 112.842 94.9266 113.349 96.8821C114.419 97.0945 115.431 97.5223 116.326 98.1354C116.369 98.16 116.413 98.1823 116.455 98.2078C116.992 98.5355 117.411 98.9535 117.785 99.4164C118.207 99.8901 118.568 100.409 118.909 100.942C119.659 101.796 120.373 102.682 121.112 103.545C121.462 103.954 121.821 104.351 122.188 104.739L122.471 104.977C122.518 105.016 122.565 105.056 122.613 105.095C131.095 110.404 136.966 118.349 136.983 128.696C137.008 135.161 137.935 141.618 139.699 147.835C141.112 153.91 145.679 160.119 143.21 166.463C145.998 166.016 146.257 169.609 148 170.967L148.548 171.115C150.997 171.776 153.243 172.327 155.748 172.711C158.058 172.989 160.727 172.684 162.897 173.728C163.637 174.254 163.372 175.204 163.43 175.988C168.906 173.741 173.825 170.638 178.928 167.719L179.099 167.658C180.987 166.985 184.357 165.975 185.908 167.451C186.816 168.522 185.9 169.478 185.093 170.195C183.574 171.544 181.964 172.782 180.408 174.086C184.6 174.437 188.805 174.157 192.95 173.475L193.176 173.438C194.192 173.272 195.39 172.875 196.397 173.251C199.664 175.079 195.884 177.214 194.13 178.282C195.466 178.17 196.801 178.003 198.14 177.773C198.672 177.682 199.057 177.986 199.116 178.518C199.15 181.073 195.794 181.21 194.069 182.187L194.207 182.155C195.335 181.893 196.957 181.662 197.311 183.072C197.68 184.803 195.353 185.503 194.159 185.964C184.856 189.089 174.749 190.038 165.015 188.856C164.301 192.218 158.236 199.219 154.897 200.227C151.197 201.152 146.747 198.221 143.377 196.801C134.742 192.397 126.741 185.132 124.279 175.492C122.209 190.438 123.046 205.506 126.152 220.212C126.655 221.358 127.186 222.487 127.783 223.587C127.963 223.616 128.116 223.737 128.151 223.981C128.17 224.115 128.197 224.246 128.227 224.374C128.821 225.387 129.473 226.36 130.078 227.367C130.203 227.575 130.326 227.791 130.439 228.012C134.466 232.774 129.558 238.911 125.168 241.479C149.528 281.283 133.795 331.445 150.299 373.618L150.336 373.739C150.962 375.744 152.87 379.873 150.111 380.818C149.235 382.802 144.82 383.036 142.858 383.657C143.921 386.744 145.103 389.797 146.688 392.658L146.717 392.671C147.349 392.205 148.703 391.724 149.262 392.232C149.398 392.249 149.534 392.287 149.666 392.353C150.533 392.785 151.229 393.61 152.058 394.13C152.506 394.41 152.971 394.666 153.451 394.889C153.898 395.096 154.372 395.233 154.736 395.575C154.851 395.682 154.88 395.819 154.852 395.946C155.14 396.096 155.427 396.246 155.713 396.396L155.869 396.299C158.4 394.717 160.436 393.861 156.753 396.899C158.073 397.51 159.426 398.046 160.788 398.547C161.822 398.048 162.926 397.684 164.065 397.634C164.269 397.888 162.705 398.869 162.447 399.139C169.373 401.544 176.992 403.427 182.195 408.954L182.252 409.019C183.138 410.021 184.506 411.378 183.917 412.783C185.422 413.419 186.162 415.506 185.73 417.16C183.559 424.401 150.278 421.543 142.803 421.733C136.892 420.976 120.87 422.216 117.582 417.704C116.476 416.454 116.733 414.023 118.307 413.365C117.214 412.523 118.41 409.368 118.413 407.951L118.438 407.787C118.605 406.729 119.331 402.588 120.084 399.694C120.099 399.467 120.129 399.233 120.166 398.998L120.189 398.848C120.339 397.926 120.569 396.988 121.163 396.246C121.59 395.714 122.181 395.385 122.822 395.266C122.994 394.164 123.135 393.06 123.256 391.954C123.342 390.653 123.374 389.35 123.36 388.047C123.352 387.389 123.335 386.731 123.303 386.074C123.279 385.59 123.307 385.015 123.184 384.521C123.103 384.605 122.986 384.65 122.856 384.605C122.58 384.51 122.325 384.335 122.072 384.191C122.062 384.186 122.054 384.18 122.046 384.174C120.691 385.056 119.71 381.28 119.183 380.255C107.037 345.317 116.627 305.108 96.9386 272.344C94.2205 278.194 91.8848 283.56 89.2687 289.451C81.0982 307.847 71.0118 340.251 64.2476 359.73C62.4072 363.712 60.244 367.56 57.6726 371.116C56.8505 372.05 56.2989 373.426 55.1089 373.928L55.0048 373.944C54.6872 374.539 54.2463 375.041 53.5907 375.024C53.4299 375.02 53.2658 375.001 53.1002 374.973C52.5191 379.026 51.7885 383.105 50.8172 387.094L50.9482 387.039C51.584 386.775 52.2526 386.551 52.9051 386.609C54.4886 387.011 53.9023 388.4 52.6506 388.858C54.2086 389.343 55.2629 390.712 56.4198 391.852C57.3976 391.323 58.4935 391.049 59.6646 391.165C59.8439 391.182 59.9806 391.261 60.0757 391.369C60.1428 391.369 60.2081 391.373 60.27 391.383L60.1425 391.46C60.3505 391.811 60.202 392.345 59.6646 392.348C59.2428 392.35 58.8366 392.389 58.4438 392.462C58.1711 392.622 57.8997 392.783 57.6321 392.952C58.5349 393.751 59.4962 394.489 60.486 395.163C61.0088 394.895 61.5616 394.671 62.1366 394.491C62.8789 394.258 63.203 395.442 62.4573 395.656C62.299 395.702 62.1423 395.752 61.9865 395.807L61.8336 395.899C61.7978 395.921 61.7606 395.943 61.7217 395.966C68.8239 401.031 80.8289 400.389 84.0764 409.874C84.1839 410.232 84.1285 410.54 83.9775 410.783C84.6813 411.431 85.006 412.595 84.8475 413.488L84.861 413.563C84.9818 414.286 84.8081 414.92 84.034 415.085C78.8691 415.567 73.7167 415.874 68.5293 415.969L68.1106 415.972C60.6785 416.022 24.5286 415.751 22.8979 410.965C22.4631 410.079 22.3291 408.704 22.9654 407.913C23.0392 407.488 23.1846 407.101 23.4431 406.798C22.3961 405.737 22.9111 403.063 22.783 401.717C23.0128 397.221 23.9222 392.4 26.6619 388.722C26.7067 388.663 26.7608 388.628 26.8167 388.61C27.2951 388.128 27.9238 387.823 28.6426 387.782C28.665 387.726 28.6878 387.67 28.7096 387.614C29.2685 386.293 29.7993 384.947 30.3266 383.594C30.7179 382.058 31.1261 380.525 31.535 379.001C31.9436 377.478 32.3434 375.953 32.7344 374.425C33.0459 373.208 33.3137 371.836 33.8527 370.672C33.8381 370.622 33.8241 370.573 33.808 370.523L33.2471 370.295C29.5733 368.798 23.7523 366.271 25.0313 364.603C38.6602 336.199 52.0009 295.762 64.508 266.315C64.7034 265.738 64.91 265.164 65.1369 264.595C65.6892 263.211 66.2488 261.828 66.8162 260.45L67.1576 259.623L72.6064 246.474C73.1768 245.097 73.8198 243.728 74.2693 242.306C74.7024 240.936 74.8187 239.573 73.9959 238.327C73.2596 237.211 72.2221 236.288 71.392 235.24C70.7643 234.448 70.1524 233.601 69.604 232.712C69.106 232.053 68.6898 231.299 68.3185 230.692C67.7233 229.719 66.9665 228.641 66.5346 227.516C65.9775 227.164 65.4194 226.813 64.8592 226.467C63.8918 225.923 62.9399 225.353 62.0133 224.737C60.8431 224.039 59.6654 223.354 58.4785 222.683C58.0501 222.47 57.6214 222.258 57.1921 222.046C55.9061 222.158 52.3535 220.568 51.1432 219.492C51.0049 219.464 50.8673 219.433 50.7305 219.398C50.6758 220.085 50.452 220.707 49.9306 221.169C46.4627 222.895 42.0427 215.078 40.8246 212.47C38.4038 214.842 44.18 226.575 46.0458 228.973L46.1454 229.122C46.6444 229.872 47.1676 230.714 47.8755 231.268L47.9469 231.323C48.4322 231.683 48.5222 232.245 48.1264 232.718C44.7657 235.761 41.238 229.079 39.397 226.878C31.8191 215.69 26.9771 202.077 27.1894 188.467C23.7421 187.31 18.9697 186.745 19.1448 182.054C18.9686 178.513 18.3301 175.01 18.2061 171.466C18.1701 170.651 20.6957 171.055 21.2657 171.141C20.4261 162.999 21.6947 154.732 23.9572 146.907C29.8971 126.884 54.3574 90.7953 78.4327 89.4924C78.4117 89.4531 78.4216 89.4 78.4756 89.3859C79.5653 89.1022 80.7695 89.1475 81.8893 89.1833C83.0548 89.2203 84.2395 89.2284 85.3988 89.3604C86.6004 89.4971 87.8727 89.9401 88.6798 90.8166L88.9594 90.3106C89.284 89.7199 89.5967 89.1233 89.8329 88.4715C89.9525 88.1421 90.0462 87.8007 90.1317 87.4557C90.2283 86.9636 90.2526 86.4514 90.4848 86.0044C90.491 85.9927 90.4986 85.983 90.5053 85.9722C90.5888 85.6905 90.6844 85.4147 90.8032 85.1495ZM120.352 413.348C120.008 413.699 119.411 413.852 118.883 413.684C117.127 418.687 126.652 418.373 129.709 418.654C132.969 419.003 192.349 422.1 182.307 414.765C170.526 419.268 131.12 419.765 120.352 413.348ZM149.27 393.512C148.477 394.332 147.282 394.696 146.431 395.479C144.028 397.518 142.094 400.387 138.772 400.927C134.407 401.744 130.473 399.584 126.569 397.873C126.083 397.85 125.576 397.644 125.077 397.491C125.06 397.527 125.042 397.564 125.022 397.597C124.998 397.588 124.972 397.58 124.943 397.575C124.899 397.568 124.858 397.563 124.816 397.557C124.716 397.476 124.61 397.409 124.501 397.352C124.435 397.342 124.369 397.334 124.304 397.33C123.499 397.281 122.626 397.468 122.109 398.137C122.065 398.194 122.025 398.254 121.986 398.315C121.736 399.204 121.704 400.28 121.825 401.032C121.864 401.278 121.762 401.52 121.589 401.659C121.435 405.381 121.017 409.118 120.725 412.791C122.185 413.317 123.7 413.718 125.217 413.971C135.682 415.261 146.258 415.861 156.803 415.537C163.08 415.309 169.349 414.747 175.561 413.811C177.569 413.622 179.625 412.843 181.632 413.157C181.717 412.995 181.85 412.857 182.036 412.763C176.892 405.699 168.099 403.789 160.434 400.692C159.168 401.504 158.389 403.194 156.979 403.697C156.431 403.78 155.67 403.456 155.75 402.76C155.978 401.334 157.514 400.684 158.548 399.856C157.438 399.336 156.35 398.772 155.288 398.143C154.245 399.086 153.01 399.804 152.033 400.809C152.589 402.169 150.274 402.051 150.248 400.604C150.408 399.004 152.937 398.326 154.066 397.393C152.302 396.317 150.727 394.959 149.27 393.512ZM24.9935 407.497C24.932 407.619 24.8316 407.73 24.683 407.816C24.4257 407.965 24.5493 408.754 24.5623 409.02L24.563 409.04C24.5771 409.517 24.6069 409.994 24.6481 410.469C25.0823 410.862 25.6375 411.16 26.2544 411.34C45.0409 414.346 64.1878 414.59 83.1556 413.499C83.0683 412.993 82.6997 412.577 82.3734 412.155C70.3822 413.177 58.1027 412.108 46.0915 411.112C39.0696 410.186 31.7123 409.803 24.9935 407.497ZM52.3444 388.999C49.2482 390.068 46.3672 391.551 43.6229 393.327C42.603 393.993 41.6297 394.755 40.4574 395.137C36.3982 396.362 30.3123 390.477 30.2147 390.411C28.8051 389.46 27.3103 390.347 26.5433 391.666C26.4724 391.788 25.2968 398.534 25.3323 401.839C25.1213 402.962 25.6842 404.798 25.3847 406.023C25.6201 406.307 25.9558 406.441 26.1819 406.738C26.2638 406.846 26.2406 406.967 26.1698 407.059C37.1315 407.964 48.0293 409.68 59.0431 410.043C66.581 410.442 74.1332 410.35 81.6723 410.259C79.9571 405.209 74.1147 403.875 69.6521 402.213C66.2804 400.998 63.1762 399.188 60.4447 396.862C59.2602 397.696 58.3261 398.865 57.4869 400.038C57.1057 400.516 56.3226 400.876 55.9143 400.215C55.4938 399.529 56.3147 398.662 57.3284 397.902C57.8615 397.11 58.5338 396.436 59.308 395.88C58.4521 395.115 57.6279 394.318 56.8559 393.471C55.2548 394.559 54.0786 396.123 52.9269 397.642C52.3735 398.247 51.3383 397.447 51.7924 396.764C52.1562 396.294 52.5658 395.86 53.0042 395.454C53.6652 394.203 54.6168 393.049 55.7713 392.249L55.6833 392.137C54.7189 390.896 53.8852 389.407 52.3444 388.999ZM25.0644 406.705C25.0378 406.738 25.01 406.769 24.9802 406.8C25.0068 406.854 25.0271 406.911 25.0421 406.969L25.3234 406.992C25.2257 406.91 25.1397 406.811 25.0644 406.705ZM141.829 383.862C136.085 384.949 130.153 385.367 124.356 384.469C125.027 388.223 125.448 392.001 125.227 395.813C133.895 398.322 137.496 402.505 144.707 394.144C144.359 393.613 144.158 392.959 143.924 392.329C142.927 389.596 142.104 386.768 141.829 383.862ZM36.3438 371.549C36.2619 371.731 36.1142 371.88 35.9014 371.946C35.8255 372.282 35.7471 372.618 35.6635 372.953C35.5228 374.683 34.8718 376.398 34.1985 377.993C34.1523 378.103 34.1068 378.214 34.0611 378.324C33.617 379.651 33.1515 380.975 32.6922 382.301C32.3443 383.679 32.0378 385.067 31.7175 386.451C31.6558 387.39 31.5228 388.321 31.3184 389.241C31.3089 389.284 31.2962 389.324 31.2821 389.361C31.6031 389.505 31.9129 389.671 32.2051 389.839C40.9984 396.463 39.4798 392.035 47.9226 388.326C47.8741 387.97 48.052 387.648 48.1971 387.279L48.2159 387.231C48.2247 387.208 48.2334 387.184 48.2423 387.161C48.2283 387.02 48.2365 386.869 48.2736 386.709C49.1288 383.202 50.3195 379.756 51.4339 376.324C51.6123 375.807 51.8188 375.303 52.0298 374.798C46.6766 374.729 41.3815 373.3 36.3438 371.549ZM69.5424 229.439C118.112 290.164 107.471 297.325 117.929 367.333C118.945 372.782 121.01 377.955 122.376 383.301L122.564 383.283C122.751 383.265 122.929 383.253 123.061 383.296L123.066 383.298L123.604 383.291C129.888 383.205 136.199 382.875 142.337 381.439C144.507 381.056 146.622 380.054 148.794 379.844C148.803 379.561 148.937 379.297 149.119 379.145C132.367 339.416 144.039 294.032 129.505 253.628C128.125 249.585 126.483 245.632 124.784 241.714C106.104 252.912 85.2274 240.231 69.5424 229.439ZM34.0279 373.253C33.9243 373.711 33.8115 374.163 33.7087 374.6L33.5571 375.251C33.7727 374.593 33.9428 373.925 34.0279 373.253ZM76.0605 240.192C76.0928 241.196 75.8511 242.209 75.5239 243.153C74.4751 246.178 73.1318 249.126 71.9291 252.093C71.113 254.107 70.3042 256.123 69.4868 258.137C57.3792 290.568 42.517 334.039 27.8537 364.774C33.3785 367.98 39.4362 370.248 45.7031 371.477C47.1584 371.965 51.3199 371.987 52.7928 372.76L53.1282 372.43C53.1862 371.047 54.7506 370.06 55.3768 368.847C58.2039 364.854 60.4575 360.487 62.5018 356.049L62.8359 355.075C68.2707 339.207 75.3635 317.362 82.836 298.895L83.0673 298.325C86.164 290.709 88.1995 283.688 91.937 277.927C92.1407 277.617 92.3468 277.306 92.5542 276.996C92.707 276.688 92.8613 276.381 93.0181 276.074C93.6881 274.764 94.4107 273.483 95.0926 272.179C95.3832 271.623 95.6715 270.996 95.8241 270.354C89.8873 259.898 82.8126 250.124 76.0605 240.192ZM84.9521 90.3481C83.089 90.8026 81.1797 90.9882 79.3058 91.3652C66.3912 92.9093 56.4899 102.091 47.961 111.208C31.8046 128.221 22.4046 149.155 23.0984 172.816C28.868 173.869 34.5782 175.412 40.4566 175.749C39.6023 174.451 41.033 172.829 41.5255 171.586C50.0281 155.116 56.5932 136.935 61.9243 119.595L61.7795 120.352C60.1055 129.055 58.1557 137.72 55.1795 146.08C56.0416 145.23 70.2037 133.938 69.0968 137.672C64.77 141.062 59.8829 143.749 55.3492 146.86C60.7398 164.914 52.9466 183.206 51.4659 201.267C51.0939 205.283 51.1262 209.327 50.6262 213.327C50.436 213.78 50.6363 214.7 50.3563 215.13C50.5636 216.192 50.9997 217.16 51.8996 217.989C52.2784 218.338 52.692 218.64 53.1267 218.909C54.2121 219.074 55.3023 219.493 56.1862 219.881C58.1531 220.744 59.8842 222.017 61.6423 223.234L61.6893 223.266C64.524 224.726 67.3559 226.385 70.1981 228.115L70.325 228.181C71.3822 228.738 72.4632 229.24 73.3844 230.011C73.4263 230.046 73.4543 230.086 73.4727 230.129L75.1991 231.198C89.0273 239.753 103.285 248.215 119.498 242.107C124.053 240.268 130.675 236.541 129.825 230.778C129.657 230.225 129.402 229.706 129.114 229.201C129.034 229.092 128.951 228.985 128.868 228.88C128.24 228.084 127.537 227.354 126.991 226.494C126.769 226.144 126.57 225.784 126.396 225.414C126.273 225.376 126.164 225.289 126.095 225.138C125.315 223.432 124.55 221.723 123.838 219.986C115.208 189.822 125.684 157.411 128.647 126.987C128.853 125.245 129.155 123.485 129.154 121.73C129.154 121.648 129.273 121.65 129.28 121.73C130.325 129.495 129.532 137.333 128.538 145.063C127.266 154.734 125.594 164.364 124.446 174.052C127.499 183.817 136.05 190.874 145.03 195.105C146.557 195.833 148.119 196.481 149.712 197.052L149.819 197.089C151.569 197.703 153.544 198.652 155.233 197.408C158.473 195.204 160.76 191.84 162.86 188.6C162.01 188.508 161.16 188.428 160.309 188.369C158.219 190.766 155.658 192.801 152.955 194.463C151.854 195.096 150.603 194.829 150.094 193.59C149.613 192.421 150.202 191.056 150.628 189.929L150.689 189.764C152.846 183.934 156.591 178.59 161.647 174.938C157.832 174.174 153.87 174.197 150.21 172.686C150.41 172.896 150.148 173.131 150.021 173.309C150.066 173.655 149.816 173.908 149.508 174C146.522 177.911 144.259 182.543 143.787 187.504C143.912 189.193 142.404 191.145 140.952 189.371C139.816 184.432 144.284 176.715 148.213 173.668C144.273 170.957 145.421 167.045 142.948 167.027C142.309 168.257 141.475 169.435 140.424 170.348C139.949 170.735 139.372 171.027 138.862 171.371C138.326 171.732 137.767 170.937 138.192 170.501L138.304 170.366C139.917 168.431 141.833 166.53 142.166 163.913C142.648 160.69 141.203 157.425 140.095 154.482C137.972 148.838 136.564 142.966 135.878 136.974C135.101 131.605 136.046 126.035 134.212 120.84C133.848 119.393 133.324 118.075 132.682 116.852C132.666 116.839 132.651 116.826 132.637 116.81C131.875 115.926 131.265 114.942 130.554 114.016C129.811 113.047 129.005 112.125 128.151 111.252C126.724 109.794 125.148 108.578 123.505 107.406C123.475 107.395 123.444 107.381 123.414 107.363C123.106 107.181 122.81 106.959 122.525 106.716L122.497 106.697C121.542 106.031 120.568 105.309 119.822 104.405C119.09 103.518 118.57 102.484 117.972 101.507C117.156 100.508 116.377 99.438 115.392 98.6059C114.835 98.287 114.255 97.9866 113.758 97.5879C113.677 97.5537 113.594 97.5214 113.51 97.4908C113.722 98.3568 114.043 99.1536 114.331 100.033C114.75 99.8563 115.322 100.052 115.393 100.699L115.419 100.94C115.839 104.897 116.051 109.685 113.73 113.111C108.619 120.541 100.984 114.198 97.1226 108.973C93.6574 104.807 90.7443 100.172 88.593 95.1913L88.5574 95.1255C88.1568 94.3632 87.2886 92.0389 87.0433 90.922C86.4229 90.5946 85.6682 90.4359 84.9521 90.3481ZM68.5873 228.823C68.5717 228.843 68.5541 228.86 68.5348 228.875C69.2598 229.907 69.9505 230.974 70.6623 232.01C70.0787 231.054 69.5301 230.09 69.0443 229.116C68.8923 229.018 68.7395 228.921 68.5873 228.823ZM28.0149 188.724C30.7855 203.801 34.7449 219.665 45.7773 230.938C42.3437 226.09 39.6737 220.431 38.8968 214.503C38.8647 212.912 39.4426 211.232 41.1987 210.996C41.4985 210.956 41.7261 211.225 41.8332 211.464L41.8435 211.488C42.5343 213.141 43.4326 214.713 44.4962 216.154L44.6005 216.29C45.4032 217.33 48.81 221.571 49.2853 219.544C48.9374 209.296 38.3715 205.071 36.6411 190.957C33.6805 190.643 30.8711 189.516 28.0149 188.724ZM50.729 218.632C50.7404 218.792 50.7459 218.952 50.7435 219.109C50.9004 219.044 51.0617 218.991 51.2267 218.951C51.0592 218.847 50.8936 218.74 50.729 218.632ZM50.5723 217.527C50.6304 217.822 50.6794 218.119 50.7096 218.413C51.0111 218.509 51.3094 218.614 51.6061 218.724C51.4263 218.562 51.2551 218.39 51.0947 218.208C50.9078 217.995 50.7325 217.766 50.5723 217.527ZM54.6555 147.575C52.4914 153.629 50.0674 159.59 47.361 165.421C45.5438 168.833 44.3314 172.809 41.8168 175.77C41.7923 175.794 41.7676 175.816 41.7424 175.836L41.7841 175.838C42.5334 175.871 46.6047 176.273 44.5149 177.196C43.7034 180.401 42.6403 183.533 41.7514 186.716L41.7316 186.809C41.4064 188.349 40.9951 191.451 38.8127 190.415C38.5759 190.597 38.2916 190.724 37.9859 190.81C38.9669 199.439 44.4119 205.056 48.7163 212.102C47.7541 208.383 48.0353 204.501 48.3703 200.704L48.4533 199.77C50.2318 182.363 56.7585 165.246 54.6555 147.575ZM72.731 202.906C69.2229 198.522 51.9684 155.127 64.162 181.418C68.4958 190.57 72.063 200.368 79.2127 207.784C79.7071 208.317 79.0558 209.252 78.4133 208.822C76.1055 207.278 74.2377 205.229 72.731 202.906ZM60.243 150.456C60.2285 150.386 60.3185 150.347 60.358 150.407C65.0461 159.684 68.3935 169.653 73.6906 178.649C76.8881 184.219 80.725 189.411 85.1187 194.093C85.4488 194.445 84.9521 194.931 84.5946 194.619C72.0521 183.021 65.9542 166.162 60.243 150.456ZM152.686 188.648L152.678 188.649L152.563 188.948C152.524 189.049 152.484 189.15 152.444 189.253C152.463 189.244 152.482 189.237 152.502 189.229C152.543 189.187 152.584 189.145 152.625 189.101C152.616 188.948 152.635 188.795 152.686 188.648ZM21.3154 171.505C20.6786 171.756 19.8962 171.803 19.1922 171.864C19.9804 175.586 20.6607 179.336 21.3741 183.067C21.7039 184.212 22.4793 184.614 23.5525 184.978L24.415 185.254C28.4416 186.547 32.4909 187.875 36.6429 188.668C36.9347 188.478 37.3494 188.487 37.5432 188.792C37.7451 188.811 37.9524 188.823 38.1573 188.842C39.2667 184.736 41.165 180.757 43.7052 177.352C36.6051 177.581 29.4537 175.704 22.6992 173.606C22.4257 173.739 22.0655 173.656 21.9501 173.341L21.8461 173.311C20.7121 172.974 19.2086 172.146 21.5916 172.566C21.4477 172.23 21.3678 171.869 21.3154 171.505ZM184.576 168.467C179.869 167.687 176.273 171.509 172.256 173.263C169.851 174.297 163.443 177.504 161.113 176.437C157.919 179.519 155.222 183.119 153.336 187.159C153.85 187.128 154.364 187.105 154.879 187.089C155.81 186.789 156.804 186.774 157.771 187.062C167.456 187.169 177.148 189.055 186.794 186.665L187.016 186.623C188.997 186.247 195.763 184.813 196.148 183.409C196.047 182.798 194.228 183.443 193.878 183.513C191.098 184.062 188.273 184.323 185.456 184.598C184.672 184.674 184.682 183.453 185.456 183.375C188.847 183.037 192.06 181.761 195.171 180.434C195.502 180.287 196.378 179.982 196.985 179.587C194.11 180.077 191.147 180.162 188.238 180.058C187.237 179.928 187.166 178.404 188.238 178.434C190.202 178.651 192.078 177.68 193.681 176.654L194.03 176.427C196.703 174.681 196.516 174.606 193.139 175.255C188.176 176.16 183.154 176.127 178.142 175.781C177.427 175.769 176.933 174.804 177.525 174.288C179.833 172.291 182.306 170.51 184.576 168.467ZM161.827 175.74L161.772 175.792C161.657 175.903 161.563 176.001 161.51 176.053L161.489 176.074C161.418 176.141 161.349 176.21 161.279 176.277C161.586 176.381 161.926 176.386 162.276 176.332C162.065 176.2 161.908 175.983 161.827 175.74ZM73.4083 159.77L73.3969 159.755L73.4233 159.784C76.4507 163.067 79.5192 168.391 82.0273 172.59C82.3579 176.032 74.9422 161.753 73.4083 159.77ZM149.589 172.458C149.619 172.494 149.647 172.532 149.674 172.57L149.715 172.628L149.78 172.588C149.804 172.574 149.829 172.565 149.855 172.558C149.766 172.526 149.678 172.491 149.589 172.458ZM135.738 161.25C138.462 161.678 132.892 165.07 132.157 165.556C131.686 165.735 127.21 169.439 127.481 168.237C129.577 165.541 132.469 162.398 135.738 161.25ZM29.1815 154.142C30.189 152.516 35.6721 154.656 37.4053 154.913C38.3796 155.171 39.3433 155.476 40.328 155.692C41.0975 155.972 44.6855 155.701 43.3687 157.225C41.9947 157.965 40.2008 157.393 38.7937 157C35.994 156.234 33.1847 155.34 30.3178 154.914C30.2318 154.871 30.2266 154.9 30.3019 155.002C30.9186 156.375 32.2156 157.664 33.6764 158.107C33.7773 158.136 33.7349 158.291 33.6327 158.264L33.5346 158.244C31.8916 157.876 28.3419 156.133 29.1815 154.142Z" fill="black"/>
<path fill-rule="evenodd" clip-rule="evenodd" d="M129.407 73.4321C127.142 63.1455 126.701 51.8488 120.725 42.867C118.114 39.2046 113.918 34.429 109.016 35.9341C109.218 33.7655 109.409 31.5959 109.585 29.425C109.686 28.1832 110.15 26.5287 109.101 25.5739C107.37 24.1728 104.504 26.3168 103.166 27.5146C100.267 30.2967 99.1221 32.9987 95.3034 34.8567C93.7727 33.7635 92.2809 32.6164 90.7273 31.5527C89.1442 30.4688 86.8797 28.7082 85.2368 30.7091C83.8445 32.4051 84.7339 35.0785 85.286 36.9445C85.5684 37.8989 85.849 38.9406 86.2414 39.9221C86.2745 40.6681 86.3321 41.4129 86.4167 42.1554C83.588 42.6599 80.6767 43.0843 77.9741 44.0743C76.5002 44.8743 76.6302 46.6913 77.6758 47.779C79.2405 49.2975 81.2205 50.4851 83.3821 51.2822C82.9896 52.6435 82.0487 53.7979 80.8656 54.5527C80.4688 54.8048 80.2462 55.1745 80.1657 55.569C79.5593 55.871 78.91 56.0888 78.2241 56.2303C77.3783 56.4053 76.8895 57.4058 77.1076 58.2011C77.7219 60.1337 79.8867 59.0291 81.293 58.8926C81.3354 60.2423 81.3573 61.6486 81.9688 62.8988C78.7004 63.7584 75.869 66.8927 76.6247 70.4241C77.3111 73.8 80.9473 74.8316 83.8256 75.5988C84.0436 75.7274 84.0429 75.8538 84.1122 76.1725C84.5872 78.361 84.1873 80.7687 83.4385 82.8464C83.2344 83.4128 83.5344 84.1215 83.9877 84.4612C86.3317 85.957 87.1089 81.402 89.7809 84.3012C89.5815 84.2713 89.0854 84.0227 89.1109 84.3829C92.5775 90.4798 102.813 90.8545 109.084 91.0042C109.837 91.3711 110.704 91.163 111.564 90.9288C112.386 90.8842 113.206 90.8226 114.025 90.7389C115.519 90.4687 118.147 90.789 118.241 88.68C122.099 87.1544 125.417 84.5189 127.68 81.027C129.358 78.7098 130.021 76.2571 129.407 73.4321Z" fill="white"/>
<path fill-rule="evenodd" clip-rule="evenodd" d="M106.004 24.8032L106.23 24.7046C107.006 24.3676 107.855 24.0444 108.705 24.2287C109.684 24.4409 110.25 25.285 110.493 26.2052C110.773 27.2698 110.899 28.4029 110.976 29.4986C111.055 30.6333 111.025 31.7656 110.939 32.8986C110.868 33.8462 110.721 34.9442 110.369 35.8626C110.384 35.8492 110.402 35.8393 110.424 35.837C111.809 35.6947 113.085 35.7776 114.408 36.2247C115.64 36.6412 116.835 37.2256 117.907 37.9638C120.223 39.5583 122.016 41.9664 123.264 44.4595C125.801 49.5246 126.336 55.2544 127.046 60.7935L127.068 60.9613C127.45 63.9232 127.959 66.8404 128.774 69.7135L128.914 70.2033C129.662 72.8318 130.109 75.3888 129.512 78.1101C128.359 83.3722 124.293 87.3441 119.589 89.6369C117.188 90.8075 114.589 91.6712 111.965 92.1692C109.273 92.6801 106.359 92.7657 103.905 91.3701C102.688 90.6781 103.76 88.9109 104.989 89.5109C107.527 90.7491 110.404 90.3414 113.038 89.6606C115.658 88.9836 118.228 88.0357 120.55 86.6278C124.534 84.2119 127.887 80.041 127.997 75.1974C128.058 72.4719 126.896 69.8695 126.336 67.2382C125.842 64.9194 125.536 62.5667 125.246 60.2143L125.032 58.4669C124.41 53.4556 123.631 48.2967 121.063 43.8677C118.796 39.9581 114.892 36.8494 110.398 36.0225C110.371 36.0176 110.354 36.0046 110.343 35.9881C110.205 36.7298 109.39 37.4215 108.868 37.8483C108.128 38.4535 107.232 38.892 106.257 38.8724C104.377 38.8347 102.763 37.3738 101.475 36.1504C101.33 36.0127 101.487 35.8203 101.652 35.8453C103.148 36.0708 104.43 37.2883 105.962 37.2702C106.751 37.2608 107.355 36.8366 107.87 36.2727C108.063 36.0618 108.232 35.8073 108.415 35.5733C108.46 34.9588 108.634 34.3561 108.711 33.7444C108.784 33.1736 108.846 32.594 108.883 32.0189C108.958 30.8454 108.934 29.6631 108.805 28.494C108.749 27.9921 108.679 27.4857 108.569 26.9915L108.518 26.7687C108.45 26.4626 108.406 26.1836 108.037 26.2151C107.216 26.2846 106.298 26.7865 105.58 27.1653C102.797 28.6342 100.774 30.9054 99.28 33.5737C99.3738 33.6207 99.4634 33.6826 99.5471 33.7632C99.7156 33.9253 99.802 34.2108 99.7248 34.4368C99.4266 35.3104 98.3666 35.3359 97.6208 35.678C96.8082 36.0505 96.0449 36.5295 95.322 37.0541C93.8991 38.0866 92.5918 39.2996 91.3487 40.5405C89.3909 42.4944 87.5729 44.5738 85.8172 46.7073L85.4436 47.5436C85.0707 48.3798 84.7059 49.2189 84.4041 50.0899C83.9128 51.5063 83.5012 52.9542 83.1848 54.4199C82.8664 55.8951 82.6588 57.4042 82.5802 58.9115C82.5099 60.2564 82.688 61.6004 82.6805 62.9376C82.7998 63.1612 82.8429 63.4133 82.7868 63.6702C83.1623 63.7767 83.526 63.9391 83.8676 64.1631C83.9508 64.2179 83.898 64.3485 83.7998 64.3243C83.3667 64.2174 82.9334 64.1936 82.5091 64.235C82.284 64.5133 81.9195 64.6904 81.5658 64.6826L81.4149 64.6793C81.3044 64.6768 81.1947 64.6591 81.0889 64.6289C80.492 64.9046 79.9428 65.3015 79.4779 65.7757C78.3601 66.9162 77.8203 68.4104 77.8997 70.0066C77.9782 71.5811 78.815 73.0012 80.2009 73.7575C80.8191 74.0948 81.506 74.2723 82.2088 74.2853C82.8849 74.2976 83.7722 74.0917 84.3277 74.5331C84.3901 74.5828 84.4313 74.6489 84.4566 74.722C84.4953 74.558 84.5365 74.3944 84.5813 74.2315C84.6157 74.107 84.8224 74.0925 84.8478 74.2315L84.8804 74.4127C85.3458 77.0424 85.5095 79.7497 87.3587 81.8544C88.2237 82.8389 89.2664 83.7268 90.3361 84.4805L90.5131 84.6043C90.9701 84.9204 91.4638 85.2275 92.0087 85.3419C92.6142 85.4691 93.1147 85.4342 93.6715 85.7677C93.9332 85.9245 94.0939 86.2708 93.9976 86.5711C93.3799 88.4986 90.9456 87.6328 89.7184 86.8707C89.036 86.447 88.372 85.935 87.755 85.3711C87.217 85.6996 86.578 85.9114 86.0289 85.9937C85.1821 86.1208 84.283 85.9443 83.608 85.3962C82.8939 84.8165 82.6496 83.9731 82.7708 83.0777C82.8312 82.6321 82.9465 82.1975 83.0708 81.766L83.1736 81.4135C83.3234 80.9002 83.4405 80.3703 83.7426 79.9221C83.8951 79.6961 84.257 79.7175 84.3354 79.9999C84.5149 80.6463 84.4372 81.3759 84.3908 82.0493L84.3807 82.2036C84.3503 82.7101 84.135 83.4869 84.578 83.8621C85.1116 84.3139 85.6957 84.1076 86.2639 83.7963C86.206 83.7255 86.1488 83.6544 86.0926 83.583C84.254 81.241 83.7967 78.3255 84.3003 75.4757C83.8258 76.0995 82.5889 76.2345 81.9325 76.186C80.9019 76.11 79.8879 75.796 79.0101 75.244C77.1716 74.0882 76.1375 72.0611 76.0936 69.9048C76.0507 67.811 76.9854 65.6934 78.7091 64.4742C79.1645 64.1521 79.671 63.9018 80.1998 63.7371C79.9428 62.7142 79.9156 61.5842 79.9713 60.4784C79.3548 60.5625 78.6872 60.4533 78.1297 60.2632L78.0432 60.2329C77.184 59.9244 76.0928 59.3046 75.932 58.3371C75.7339 57.1471 77.1992 56.4632 78.0493 55.9879C78.447 55.7657 78.8536 55.5578 79.2757 55.3862L79.4029 55.3359C79.7672 55.1954 80.1962 54.9334 80.5661 55.1421C80.5925 55.157 80.5989 55.1853 80.595 55.2131C80.5219 55.7295 79.6773 56.169 79.3018 56.4947C79.0134 56.7446 78.7347 57.0062 78.4672 57.2787C78.2938 57.4555 78.033 57.9021 77.8105 58.0274C77.9139 58.0815 78.0377 58.2147 78.124 58.2659C78.3671 58.4095 78.6234 58.5107 78.8978 58.5763C79.3056 58.674 79.714 58.6321 80.1224 58.6229C80.2881 56.9943 80.5891 55.4013 81.0737 53.8368C81.8865 51.2119 83.2187 48.4467 85.1193 46.3715C86.5129 43.755 88.3128 41.365 90.3685 39.2278C91.6871 37.8572 93.0798 36.5273 94.6246 35.4136C95.3095 34.92 96.0297 34.4752 96.7942 34.1168L97.0483 34C97.4727 33.8032 97.9888 33.5478 98.4811 33.4747C98.7995 32.2084 99.3667 30.9974 100.055 29.8997C101.003 28.3873 102.251 27.1117 103.712 26.0924C104.432 25.5893 105.2 25.1567 106.004 24.8032ZM80.6715 68.9055C81.8968 68.0808 83.3994 67.758 84.8637 67.8799C85.59 67.9402 86.3084 68.1109 86.9891 68.3718L87.2697 68.4828C87.9198 68.7439 88.6176 69.0661 88.6409 69.8541C88.6502 70.1653 88.4203 70.4131 88.1429 70.5098C87.4663 70.7455 86.9181 70.181 86.3594 69.8807C85.7953 69.5772 85.1957 69.3771 84.5781 69.215C84.5188 69.1994 84.4595 69.1853 84.4002 69.1712C84.4324 69.2358 84.4506 69.3073 84.4443 69.3842C84.4291 69.5685 84.3756 69.7055 84.3236 69.8782C84.3079 69.9306 84.2697 70.2504 84.2306 70.2898C84.2433 70.3986 84.2447 70.5015 84.248 70.6111C84.2574 70.9346 84.2176 71.208 84.0528 71.4944C83.6421 72.208 82.4683 72.2738 82.0753 71.4944C81.6822 70.7152 81.9894 69.9526 82.5867 69.3923C82.7495 69.2397 82.9666 69.0843 83.2024 68.9771C82.3743 68.9014 81.5368 68.9372 80.7094 69.0463C80.6287 69.057 80.6164 68.9428 80.6715 68.9055ZM80.7448 42.7634C82.4253 42.4771 84.1803 42.42 85.8763 42.5894C85.9688 42.5988 86.0034 42.7398 85.8998 42.7625C83.3207 43.3299 80.6472 43.5217 78.3462 44.9432L78.2402 45.0097C78.0194 45.1504 77.4939 45.4162 77.3845 45.6666C77.2555 45.9621 77.605 46.3419 77.7676 46.5552C78.133 47.0341 78.587 47.4522 79.0882 47.7849C79.6177 48.1362 80.187 48.4074 80.7993 48.5786C81.0901 48.66 81.3918 48.7014 81.6792 48.794C82.0065 48.8993 82.1121 49.0673 82.36 49.2869C82.6457 49.5397 82.5498 50.0248 82.2417 50.2063L82.1552 50.2566C81.7503 50.4888 81.5253 50.5572 81.011 50.4664C80.6087 50.3952 80.2245 50.2543 79.848 50.0977C79.1561 49.8098 78.5246 49.4328 77.942 48.9634L77.8549 48.8923C76.8145 48.0304 75.0515 46.145 76.2128 44.7724C77.2377 43.5612 79.2517 43.0178 80.7448 42.7634ZM84.8836 29.7042C86.4953 27.8014 88.7717 29.1006 90.3868 30.2383C92.1274 31.4643 93.6378 32.9104 94.8589 34.6575C94.9365 34.7686 94.7864 34.9037 94.6784 34.8384C93.3244 34.0204 91.9563 33.2373 90.5676 32.4791C89.9973 32.1678 89.4264 31.864 88.8429 31.5795L88.5311 31.4292C88.0437 31.1881 87.344 30.7482 86.8243 31.035C85.7037 31.654 86.3954 33.6814 86.6263 34.6633L86.6473 34.756L87.3515 37.9873L87.6724 39.442C87.7864 39.5347 87.8813 39.6587 87.9484 39.8185C88.1301 40.2506 87.9818 40.8343 87.5422 41.061C86.2449 41.7301 85.8056 40.4233 85.5613 39.4412C85.3628 38.6435 85.1622 37.8462 84.9611 37.049L84.6286 35.7317C84.1193 33.7374 83.3962 31.46 84.8836 29.7042Z" fill="black"/>
<path fill-rule="evenodd" clip-rule="evenodd" d="M104.958 74.2008C107.255 73.9214 109.482 74.6262 111.728 74.9815C112.914 75.169 114.101 75.309 115.301 75.361C115.542 75.3716 115.784 75.3778 116.025 75.3827C116.048 75.1697 116.167 74.974 116.425 74.8568C116.953 74.6167 117.376 74.5085 117.956 74.5316C118.487 74.5526 119.02 74.6073 119.543 74.7033C120.493 74.8778 121.447 75.2738 122.142 75.9618C123.75 77.5537 123.505 80.1108 122.263 81.8447C119.696 85.4276 115.011 85.5939 110.999 85.5472L110.629 85.5423C106.976 85.49 101.75 86.0359 100.09 81.8705C99.4797 80.3388 99.5645 78.5634 100.312 77.0943C101.203 75.342 103.079 74.4294 104.958 74.2008ZM116.369 80.1664L116.336 80.1678C114.652 80.2328 112.968 80.2786 111.283 80.3084C111.333 80.7421 111.385 81.176 111.444 81.6088C111.49 81.9494 111.539 82.2895 111.591 82.6293C111.613 82.7732 111.693 82.9965 111.67 83.139L111.662 83.1954C111.748 83.2346 111.827 83.2977 111.885 83.3894C111.906 83.4211 111.92 83.4531 111.935 83.485C113.243 83.4953 114.651 83.4698 115.985 83.2315L115.988 83.2025C116.012 83.0317 116.083 82.9168 116.177 82.8379C116.271 82.2934 116.262 81.7132 116.298 81.1729C116.321 80.8373 116.345 80.5019 116.369 80.1664ZM109.996 80.3314C108.782 80.3521 107.567 80.3681 106.354 80.3532L105.803 80.3447C105.919 80.9703 106.046 81.5938 106.151 82.2236C106.261 82.88 105.684 83.2972 105.185 83.2803C105.241 83.2896 105.297 83.2991 105.353 83.307C106.912 83.5279 108.531 83.4693 110.113 83.4676C110.028 82.9697 110.062 82.408 110.049 81.9924L110.047 81.9281C110.023 81.3956 110.006 80.8635 109.996 80.3314ZM101.75 80.2166C101.792 80.5419 101.874 80.8603 101.997 81.1567C102.515 82.409 103.703 82.9934 104.96 83.2395C104.742 83.1641 104.569 82.9827 104.525 82.6721C104.416 81.8998 104.377 81.1147 104.374 80.3305C103.498 80.3223 102.616 80.3036 101.75 80.2166ZM120.938 79.9493C120.314 80.0967 119.589 80.0291 118.977 80.057C118.404 80.0831 117.83 80.1058 117.257 80.1291C117.284 80.5213 117.31 80.9134 117.339 81.3054C117.376 81.8121 117.379 82.3475 117.476 82.852C118.63 82.4573 119.664 81.8245 120.439 80.8125C120.633 80.5604 120.806 80.2645 120.938 79.9493ZM104.695 76.2555C103.656 76.5019 102.674 77.0223 102.146 77.9744C101.832 78.5394 101.694 79.2091 101.721 79.869C102.598 79.7666 103.491 79.7278 104.379 79.6957C104.382 79.5353 104.386 79.3752 104.391 79.2154L104.405 78.8058C104.429 78.0246 104.441 77.0437 104.695 76.2555ZM110.068 76.3508L109.611 76.2993C108.342 76.1544 107.073 76.0022 105.804 76.0894C105.62 76.1021 105.433 76.1222 105.246 76.1496C105.471 76.9611 105.452 77.9142 105.546 78.7176C105.582 79.0282 105.628 79.3362 105.678 79.6431L105.899 79.6328C107.261 79.5588 108.624 79.5133 109.988 79.4591C109.988 79.2025 109.989 78.9458 109.993 78.6891L109.998 78.4322C110.014 77.7764 109.971 77.0376 110.068 76.3508ZM116.443 76.2467C115.114 76.4617 113.74 76.5075 112.434 76.5091C111.912 76.5098 111.39 76.4776 110.869 76.4313C110.903 76.7094 110.921 76.9907 110.947 77.2649C110.998 77.819 111.057 78.3723 111.121 78.9251L111.178 79.4087C112.853 79.3326 114.529 79.2503 116.204 79.1651L116.441 79.1523L116.507 78.2228C116.552 77.603 116.602 76.9833 116.672 76.3663L116.619 76.3473C116.557 76.3219 116.499 76.2868 116.443 76.2467ZM117.021 76.4774C117.094 77.3538 117.135 78.2338 117.188 79.1117L118.293 79.0525C118.477 79.0425 118.661 79.0322 118.845 79.0216C119.561 78.9802 120.48 78.7631 121.188 78.9657C121.242 78.321 121.058 77.693 120.478 77.26C119.458 76.4993 118.161 76.7702 117.021 76.4774ZM113.247 68.6428C114.892 67.6989 119.018 66.7342 119.28 69.7004C119.4 71.0653 118.387 72.1963 117.205 72.7009L117.161 72.7196C116.052 73.1765 114.086 73.6925 113.126 72.7017C112.328 71.8771 113.387 70.3985 114.38 71.0741C114.89 71.4211 115.963 71.1654 116.532 71.0003L116.568 70.9898C117.182 70.8089 118.001 70.2299 117.747 69.4721C117.522 68.8016 116.566 68.6791 115.967 68.6574C115.073 68.6253 114.203 68.8333 113.317 68.901C113.177 68.9117 113.134 68.7081 113.247 68.6428ZM120.06 63.8733C122.292 63.7685 123.681 66.211 123.167 68.2123C123.079 68.5576 122.693 68.8966 122.321 68.8578L122.227 68.8491C122.18 68.8445 122.132 68.8385 122.088 68.8264C121.735 68.7283 121.418 68.36 121.444 67.9783L121.451 67.8671C121.503 66.9217 121.4 65.8325 120.279 65.6036C119.328 65.4093 118.798 66.3265 118.786 67.1708C118.784 67.3207 118.616 67.4253 118.484 67.3447C117.797 66.9255 117.678 66.0916 117.94 65.3735C118.273 64.4636 119.106 63.918 120.06 63.8733ZM103.496 64.3971C105.12 63.854 106.872 64.7218 107.659 66.161C107.935 66.241 108.21 66.4542 108.172 66.7805C108.117 67.2501 108.033 67.5461 107.709 67.9021C107.2 68.4591 106.249 68.1743 106.038 67.4887L106.029 67.4577C105.789 66.5714 104.815 65.9866 103.929 66.2969C102.893 66.6592 102.923 67.7557 102.196 68.3945C102.111 68.4696 102.008 68.4815 101.906 68.432C101.134 68.0582 101.273 66.9332 101.548 66.2894C101.909 65.4445 102.61 64.693 103.496 64.3971ZM101.283 59.4537C102.6 58.1077 106.032 56.8052 106.932 59.2908C107.104 59.7642 106.739 60.4026 106.247 60.5008C105.442 60.6614 104.727 60.311 103.927 60.3738C103.279 60.425 102.604 60.6419 102.086 61.044C100.652 62.1577 100.336 64.0413 99.3369 65.4588C99.2883 65.5278 99.1938 65.4988 99.1848 65.4174C98.9573 63.3538 99.8418 60.9278 101.283 59.4537ZM118.45 58.1287C119.323 57.8195 120.312 57.8459 121.19 58.1202C122.075 58.3966 122.887 58.9215 123.512 59.6072C123.796 59.9186 124.059 60.2621 124.27 60.6278C124.382 60.8216 124.499 61.222 124.626 61.4604C125.314 61.8585 125.609 62.7658 124.992 63.4112L124.965 63.4395L124.882 63.5214C124.551 63.8499 124.052 63.9923 123.6 63.8611C122.588 63.5678 122.465 62.7693 122.115 61.9219C121.884 61.3621 121.488 60.8668 121.007 60.5029C119.872 59.6434 118.01 59.3695 116.643 59.7746C116.57 59.7962 116.485 59.7033 116.536 59.6358C116.795 59.2995 116.945 59.0235 117.292 58.7522C117.644 58.4769 118.028 58.278 118.45 58.1287Z" fill="black"/>
<path fill-rule="evenodd" clip-rule="evenodd" d="M122.71 58.5573C125.855 58.5573 127.65 59.2352 128.308 59.288L128.328 59.2894C128.601 59.3069 128.847 59.3299 129.104 59.4297C130.051 59.7951 130.206 60.7904 129.653 61.4176C129.614 62.7155 129.785 64.232 129.492 65.5341C129.132 71.0233 126.556 71.9496 125.092 72.2877C124.357 72.4575 123.485 72.5251 122.705 72.3459C121.373 72.2961 120.056 71.8782 118.929 71.1505C117.36 70.1362 116.194 68.5772 115.816 66.7271C115.637 65.8451 115.553 64.9272 115.651 64.0308L115.665 63.9073C115.155 63.6628 114.564 63.6165 113.955 63.5949C113.664 63.5846 113.377 63.5752 113.098 63.5877C112.826 63.6181 112.557 63.6587 112.287 63.714C111.992 63.8032 111.713 63.9503 111.456 64.1833L111.439 64.5234C111.39 65.3731 111.279 66.2252 111.107 67.0588C110.854 68.2887 110.446 69.4634 109.578 70.3358C109.285 70.7754 108.921 71.1679 108.48 71.5077C106.877 72.7445 104.699 73.1986 102.701 73.0276C98.6434 72.6806 96.2981 69.4526 95.7576 68.0728L95.7253 67.9892C95.3348 66.9635 95.0237 65.6326 93.7899 65.4122L93.5275 65.3649C92.9646 65.259 92.4451 65.1116 92.115 64.5611C91.9703 64.3208 91.8958 64.052 91.8776 63.7779C91.685 63.7928 91.4927 63.8069 91.301 63.8207C89.7721 64.1447 80.602 64.4195 79.8701 64.4195C79.8701 64.4195 78.4631 65.013 77.8691 64.5531C77.4573 64.2334 77.3219 63.8072 77.5485 63.3244C77.8905 62.598 79.4683 62.1611 80.1689 62.0227C80.1689 62.0227 91.4748 62.1168 92.2885 61.9622C92.792 61.4419 93.6926 61.5131 94.4451 61.4308C95.0681 60.9857 95.9396 60.6875 96.628 60.4879C96.7683 60.4346 96.9072 60.3831 97.0423 60.3346C98.3043 59.8841 99.6161 59.6456 100.948 59.5175C102.321 59.3866 103.699 59.4458 105.064 59.6333C105.639 59.7115 106.209 59.8127 106.775 59.945C107.789 60.0788 108.796 60.2994 109.81 60.561L110.013 60.6139C111.08 60.8944 112.178 61.137 113.283 60.9468C114.182 60.793 115.048 60.446 115.877 60.0708L115.985 60.0217C117.809 59.187 120.658 58.5573 122.71 58.5573ZM106.666 61.609C105.993 61.4606 105.705 62.5006 106.38 62.6493C106.858 62.7546 107.264 62.9963 107.537 63.4056L107.566 63.4501C107.934 64.0359 108.862 63.4951 108.493 62.9055C108.076 62.242 107.43 61.7773 106.666 61.609ZM126.377 60.9642C126.14 60.7967 125.781 60.9211 125.643 61.1578C125.491 61.4184 125.591 61.7086 125.813 61.8791L125.835 61.8957C126.039 62.0397 126.238 62.2977 126.263 62.5621L126.265 62.5952C126.292 63.2872 127.365 63.2907 127.338 62.5952C127.312 61.9149 126.919 61.3464 126.377 60.9642Z" fill="black"/>
</svg>
