<svg width="233" height="462" viewBox="0 0 233 462" fill="none" xmlns="http://www.w3.org/2000/svg">
<path fill-rule="evenodd" clip-rule="evenodd" d="M177.996 160.616C181.767 165.022 181.434 166.248 179.424 170.696C174.985 181.018 168.619 191.511 161.393 201.083C161.87 179.609 162.28 158.018 162.986 136.349C167.283 144.722 171.858 152.284 177.996 160.616M178.707 426.016C181.081 425.787 197.789 426.404 193.318 421.538C194.698 418.545 190.842 416.019 188.466 413.743C186.243 411.624 184.052 409.27 181.769 406.547C179.643 404.022 177.247 401.037 175.697 397.554C175.354 397.008 175.006 396.626 174.661 396.417L174.462 396.297L174.338 396.1C173.031 394.016 171.951 391.862 170.763 389.738C173.669 388.69 176.309 387.637 179.6 386.181C174.956 358.863 167.995 332.247 163.495 304.847C160.755 281.005 159.285 256.938 153.016 233.456L152.214 233.518L151.767 231.979C152.426 231.962 153.76 231.918 154.42 231.892L154.265 232.679C157.254 232.334 160.182 231.483 163.087 230.762C164.57 230.559 166.056 229.5 165.522 227.735C165.351 225.174 164.82 222.676 164.571 220.116C165.516 219.471 166.492 218.735 167.426 217.981C169.896 219.145 172.882 222.902 175.583 221.946C181.896 213.482 187.194 203.308 191.989 195.179C203.569 176.382 207.244 164.632 195.301 145.032C184.975 128.612 173.837 102.515 153.137 98.3938C150.813 97.9604 148.378 97.9422 146.145 96.8845C146.03 95.368 145.271 94.4967 144.716 94.4844C143.367 94.1886 141.886 93.7127 140.569 93.7006C140.105 93.5069 139.538 93.6661 139.092 93.7535C137.764 91.092 137.883 87.6942 136.428 85.1992C136.375 83.3088 135.799 81.2202 129.966 80.8401C125.996 80.5091 120.372 80.1902 117.199 81.9231C114.978 83.7089 114.955 87.7095 115.233 90.5284C115.539 92.5986 115.403 95.0063 113.779 97.4378C109.154 96.0113 105.928 99.0265 103.032 104.651C90.9097 106.3 88.2958 107.236 83.5925 119.23C81.3495 124.432 79.0141 129.988 77.2656 135.683C74.924 142.644 74.7183 149.93 72.4418 156.94C66.2591 172.39 59.9718 182.361 57.9919 200.348C57.0256 208.289 57.5808 212.228 58.4993 213.42C61.1123 212.666 64.4831 212.088 67.2271 211.766L64.2907 213.997C66.7789 225.267 59.6125 257.404 79.0432 254.935C79.2158 254.516 78.899 252.209 78.8155 251.252C79.3468 251.289 80.3292 251.324 80.8523 251.258C81.7789 253.929 83.1701 256.328 84.0483 259.045C84.4826 260.701 85.0315 262.367 85.568 263.977C97.8047 305.142 100.228 344.772 94.7673 386.099L95.0141 386.188L95.1141 386.366L95.264 386.422C95.6495 386.936 96.1957 386.958 97.0671 386.96C102.419 387.147 107.122 387.389 111.483 387.51C111.021 389.824 111.317 392.259 111.521 394.612C108.983 394.434 106.654 395.463 104.334 396.699C99.9008 398.872 95.4857 401.156 91.1932 403.652C86.9317 406.376 80.0399 408.705 83.4614 413.601L82.4722 413.989C82.439 414.002 82.4177 414.014 82.4052 414.021C82.2883 414.437 83.6284 416.159 84.0255 416.14C93.3969 416.577 101.389 414.391 113.377 412.101C116.121 411.106 129.945 409.415 130.003 406.804C129.959 405.99 129.117 406.046 128.529 405.944C130.29 397.061 124.337 396.343 123.485 388.283C124.663 388.507 125.938 388.699 127.145 388.368C128.204 371.167 126.502 353.558 128.384 336.188L130.298 335.977C136.729 354.877 143.398 374.216 148.519 393.849C148.617 394.276 149.095 393.984 149.314 393.828C152.661 393.749 156.01 393.392 159.292 392.829C159.371 394.76 159.454 396.727 159.535 398.656L159.03 398.927C158.703 399.381 158.841 401.504 158.9 402.418C158.959 403.353 159.009 404.029 158.926 404.663C157.87 406.742 161.48 411.247 163.389 413.752C167.549 419.13 170.995 427.094 178.707 426.016" fill="white"/>
<path fill-rule="evenodd" clip-rule="evenodd" d="M137.411 85.4147C136.278 84.6485 137.891 91.2973 137.894 91.9371L137.923 92.0763C138.205 93.4306 138.702 95.0062 139.847 95.8748C139.319 100.185 138.662 104.481 137.853 108.746L137.378 108.809C130.321 109.742 123.218 111.025 116.043 110.356C112.177 110.387 109.618 107.748 108.059 104.475C108.165 104.088 108.27 103.704 108.379 103.318C113.288 100.318 117.006 94.2312 114.794 88.485C114.699 88.2394 114.407 88.2225 114.256 88.3503C114.231 88.3525 114.209 88.3724 114.211 88.3994L114.283 89.5205C114.438 91.9667 114.507 94.5019 113.179 96.7045C107.837 95.4893 104.516 99.9326 102.282 104.138L100.678 104.375C94.5399 105.284 88.6203 106.361 85.5892 112.635L85.174 113.516C80.939 122.531 76.9921 131.801 74.6819 141.509C73.5189 146.674 73.0979 151.996 71.3917 157.033C67.8491 166.386 62.857 175.176 60.1502 184.859C58.4706 188.353 53.7439 214.653 58.4071 214.853C60.084 214.352 61.7919 213.947 63.5181 213.659C63.252 213.861 63.1548 214.205 63.2055 214.556C63.8081 218.772 63.8532 223.042 63.8504 227.293C63.532 237.588 63.8175 259.737 79.3579 256.182C80.4923 255.766 79.7557 253.951 79.8013 252.682C79.89 252.687 79.9801 252.685 80.0702 252.68C80.9623 255.081 82.2133 257.298 82.9974 259.739C83.6619 261.837 84.1266 264.093 85.0529 266.102C94.8649 300.916 98.9154 337.533 95.0792 373.566C94.8638 375.724 94.6216 377.879 94.351 380.029C94.3851 381.374 92.7879 387.004 94.2217 387.383C94.2775 387.491 94.4709 387.616 94.5864 387.655C95.4571 388.592 96.9046 388.245 98.0542 388.369C102.116 388.55 106.178 388.716 110.242 388.851C109.998 390.571 110.195 392.318 110.339 394.035C107.375 394.06 104.652 395.86 102.03 397.082C98.1373 398.998 94.3078 401.046 90.5509 403.218C87.0823 405.64 79.333 407.978 81.9991 413.47C80.0112 414.275 82.7738 417.641 84.2843 417.679C94.1168 417.63 103.887 415.404 113.496 413.451C118.955 412.011 124.912 411.464 129.963 408.982C131.397 408.335 131.097 405.756 129.52 405.516C130.691 396.916 125.937 397.034 124.6 389.872C125.378 389.999 126.238 389.927 127.018 389.769C128.824 391.436 128.161 378.315 128.406 377.033C128.455 363.579 127.816 350.096 129.252 336.688L131.693 343.859C137.385 360.598 142.991 377.379 147.453 394.492C147.72 395.525 148.807 395.648 149.502 395.198C152.432 395.112 155.35 394.837 158.241 394.371C158.297 395.739 158.355 397.108 158.413 398.477C157.166 399.147 158.01 403.371 157.851 404.8C156.501 407.902 161.971 413.873 163.77 416.432C166.977 420.902 170.161 427.157 176.363 427.365L176.552 427.369C181.181 427.482 185.851 427.212 190.436 426.552L190.93 426.472C192.254 426.253 193.736 425.943 194.5 424.764C195.145 423.77 195.066 422.487 194.284 421.727C195.317 417.984 191.293 415.717 189.046 413.438C184.847 409.396 181.031 404.95 177.731 400.149L177.542 399.701C176.93 398.261 176.199 396.662 175.061 395.973C173.975 394.252 173.047 392.441 172.066 390.662C174.744 389.681 177.381 388.584 179.988 387.43C180.507 387.2 180.672 386.526 180.582 386.025L180.575 385.991C175.484 359.608 169.381 333.413 164.634 306.969C161.602 282.598 160.359 257.917 153.985 234.082C157.077 233.761 160.155 232.874 163.19 232.116C165.623 231.599 166.853 230.366 166.373 227.794C166.208 225.508 165.75 223.259 165.502 220.983C166.15 220.53 166.782 220.055 167.397 219.566C168.538 220.415 169.714 221.215 170.924 221.962C173.82 224.044 176.055 224.368 177.844 220.956C183.025 212.787 188.022 204.498 192.738 196.052C197.112 187.95 202.533 179.864 203.643 170.536C205.256 153.747 185.519 126.881 175.632 113.237C170.18 106.665 163.539 99.9014 154.904 97.9904C152.248 97.5974 149.447 97.5439 146.915 96.5823C146.709 95.3537 146.131 94.2225 144.826 93.9218C143.452 93.6186 141.98 93.1502 140.596 93.1161C140.283 93.0281 139.914 92.9725 139.584 93.0333C138.637 90.579 138.498 87.8136 137.411 85.4147ZM190.313 423.667C190.077 423.784 189.832 423.885 189.581 423.975C189.273 424.017 188.966 424.056 188.659 424.091C189.215 423.966 189.767 423.826 190.313 423.667ZM159.585 399.808C164.121 401.452 165.368 393.736 174.289 396.858C177.775 403.319 182.289 409.188 187.448 414.405C189.282 416.68 194.709 419.264 191.784 422.6L191.336 422.682C186.257 423.604 181.101 424.337 175.925 423.92C172.014 422.843 169.08 419.714 166.71 416.558C164.995 413.524 162.988 410.668 160.94 407.852C159.814 406.452 159.7 404.669 159.705 402.947C159.667 401.899 159.628 400.854 159.585 399.808ZM108.632 396.02C110.558 395.315 112.534 395.979 114.285 396.843C117.278 398.18 123.759 399.781 126.528 397.65C127.885 399.892 128.34 402.383 127.968 404.968L127.964 405.128C127.932 406.172 127.786 407.013 126.515 407.087L122.907 407.993C110.733 411.043 98.4396 413.993 85.9091 414.842C82.5646 412.757 82.4708 410.017 86.0258 408.108L86.9352 407.552C93.9144 403.29 101.057 399.101 108.632 396.02ZM82.1484 413.748C82.1822 413.805 82.2146 413.863 82.2483 413.919C82.1963 413.944 82.1484 413.981 82.1033 414.02C82.1033 413.926 82.1174 413.834 82.1484 413.748ZM171.39 390.906C171.343 391.854 171.809 392.924 172.138 393.774C172.33 394.277 172.529 394.994 172.836 395.57C165.208 393.323 162.888 399.905 160.138 398.536L160.054 398.492V398.491C160.616 397.211 160.004 395.409 159.626 394.132C163.631 393.409 167.564 392.284 171.39 390.906ZM111.122 388.881L113.321 388.948C116.741 389.052 120.162 389.142 123.585 389.137C123.227 391.593 123.928 395.644 125.52 397.552C125.522 397.553 125.525 397.553 125.527 397.555C121.021 398.236 116.754 396.175 112.741 394.442C112.572 392.561 111.832 390.64 111.122 388.881ZM125.835 396.361L126.246 397.128V397.128C126.187 397.194 126.119 397.254 126.048 397.306C126.089 396.987 125.976 396.672 125.835 396.361ZM171.881 390.731C171.957 391.06 172.046 391.391 172.14 391.72C171.997 391.396 171.833 391.086 171.635 390.819L171.881 390.731V390.731ZM123.822 389.139L124.062 389.141V389.141L124.064 389.279V389.279C124.007 389.373 123.998 389.488 124.068 389.581C124.076 390.005 124.095 390.43 124.127 390.856L124.047 390.365C123.979 389.956 123.907 389.547 123.822 389.139ZM126.881 388.998L126.868 389.212V389.212C126.56 389.2 126.249 389.213 125.942 389.198C125.78 389.189 125.614 389.161 125.446 389.132C125.929 389.116 126.411 389.078 126.881 388.998ZM72.0842 213.055C72.2363 213.233 72.4024 213.341 72.5714 213.396C72.5699 217.449 73.3894 221.435 75.635 224.944C76.569 226.181 77.0969 227.589 77.5484 229.056C79.9232 235.771 80.3642 242.985 79.4986 250.016C77.165 246.599 76.2377 242.521 75.5858 238.499C75.5506 238.297 75.2155 238.3 75.1789 238.499C74.3903 242.804 75.7459 247.031 77.3669 251.009C78.3792 251.732 78.1381 253.624 78.2596 254.738C61.0555 257.241 67.0382 224.264 64.8345 214.108C64.7937 213.829 64.5558 213.625 64.2854 213.539C66.8658 213.146 69.4807 213.117 72.0842 213.055ZM153.102 233.314C153.081 233.422 153.062 233.53 153.048 233.638L152.955 233.319V233.319C153.003 233.318 153.052 233.316 153.102 233.314ZM141.475 93.828L141.776 93.9068C144.955 94.7253 145.984 94.6129 146.163 98.4451C146.945 103.646 149.829 108.182 151.126 113.211C151.645 114.987 151.096 118.259 148.637 117.779C147.84 117.534 147.219 118.607 147.822 119.176C149.603 120.857 151.332 122.591 153.071 124.314C146.088 147.842 137.018 170.759 125.969 192.684C125.531 193.554 126.844 194.32 127.279 193.449C138.264 171.454 147.399 148.544 154.49 125.01L154.704 124.297C155.017 123.43 151.013 120.325 150.284 119.312C157.596 115.795 147.388 103.478 147.111 97.5468C149.203 98.4651 151.576 98.1357 153.786 98.5054C158.027 99.2481 161.749 101.694 165.057 104.334C178.496 116.181 187.084 132.583 195.675 148.042C201.526 158.129 204.346 170.46 198.475 181.19C191.663 194.947 183.761 208.207 175.405 221.079C174.488 222.271 173.076 220.901 172.109 220.401C166.553 217.068 161.734 212.532 158.028 207.229C167.012 196.224 174.838 184.197 180.373 171.093L180.449 170.941C181.691 168.45 182.672 165.435 180.601 163.089C173.245 153.683 166.703 143.698 160.547 133.479C160.484 133.377 160.342 133.467 160.388 133.573C161.02 135.002 161.686 136.42 162.38 137.825C160.978 158.602 161.215 179.785 160.609 200.693C158.974 202.853 157.292 204.977 155.57 207.068C149.984 203.225 143.413 200.718 136.665 199.942L136.229 199.898C133.362 199.604 128.628 199.049 128.252 202.764C128.717 207.334 138.178 204.765 141.203 207.357C136.244 209.352 130.562 209.914 126.01 212.922C124.549 213.772 121.687 216.482 124.483 217.519C125.704 217.624 126.964 217.15 128.183 217.046C126.811 217.508 125.549 218.29 124.745 219.516C124.167 220.356 123.744 222.101 125.127 222.461C128.279 222.55 131.418 221.524 134.522 221.013L134.246 221.125C131.983 222.05 128.465 223.712 131.513 226.162C134.565 227.739 138.259 225.056 141.299 224.34C149.486 222.438 155.542 227.65 163.935 222.007C164.173 223.893 164.531 225.766 164.674 227.662L164.692 227.769C164.983 229.5 164.734 230.125 162.865 230.456C160.611 231.135 158.25 231.348 155.908 231.475C144.636 232.069 133.29 231.647 122.095 230.206C120.485 229.774 116.7 230.181 116.027 228.412C117.289 182.862 136.3 140.002 141.535 95.0437C141.621 94.6113 141.627 94.1705 141.475 93.828ZM109.698 97.7208C110.597 97.7576 111.434 97.9522 112.328 98.0423C111.833 99.094 109.219 100.582 109.457 101.104C109.269 101.25 109.077 101.39 108.883 101.526C109.153 100.578 109.426 99.63 109.7 98.6808C99.768 122.844 98.4036 151.434 97.084 177.794C96.6492 191.085 96.4128 204.417 97.056 217.7C97.4136 221.228 98.3598 224.794 98.1021 228.357C92.2731 229.195 86.3596 229.267 80.5067 228.646C80.3336 228.193 80.1378 227.746 79.9159 227.308C71.1544 216.639 75.8007 203.268 80.0195 191.711C82.5705 191.819 85.1367 191.657 87.6903 191.689C86.9011 194.128 86.6978 196.708 86.2778 199.23C85.9919 201.027 85.6272 202.81 85.208 204.58L85.0809 205.112C84.925 205.747 84.7346 206.429 84.9573 207.057C85.1826 207.695 85.9599 207.954 86.4752 207.457C87.4042 206.399 87.3045 204.822 87.6043 203.511L87.6597 203.098C88.171 199.331 88.8444 195.424 87.9098 191.687C88.8271 191.491 91.3351 192.213 91.4666 190.981C91.4279 188.947 92.9056 184.539 91.2608 183.199C90.2822 182.453 88.5999 182.689 87.4522 182.643C86.1259 182.589 84.801 182.54 83.4761 182.549C94.1236 156.847 91.1626 148.935 90.0821 123.356L90.0499 122.576C90.0527 122.407 89.781 122.365 89.7513 122.535C88.1234 133.012 90.2935 143.62 89.2654 154.131C87.4395 174.101 74.7709 191.247 72.653 211.121C68.0853 210.591 63.4639 211.241 59.0365 212.386C58.9436 211.578 58.8718 210.768 58.8212 209.958C57.9807 195.124 63.1917 180.717 69.2719 167.412C72.9157 160.35 75.1682 152.813 76.1109 144.932C77.9414 134.667 82.0488 124.997 86.1431 115.461C88.7314 108.332 94.3264 106.65 101.264 105.822C98.9244 109.697 96.5984 113.58 94.2765 117.466C93.7587 118.641 95.3466 119.48 96.0394 120.203C87.5161 124.846 92.4929 139.183 92.3166 147.217C92.9494 154.599 93.188 162.023 94.3034 169.354C94.3851 169.862 95.1651 169.713 95.1723 169.237C95.0695 158.253 93.7581 147.313 93.1827 136.347L93.1127 135.547C92.6641 130.355 92.2249 122.865 98.4752 121.44C99.3186 121.302 99.3834 120.05 98.7061 119.674C97.805 119.173 97.0152 118.561 96.3085 117.832C98.6963 113.83 101.08 109.825 103.442 105.805L103.553 105.619C105.232 102.775 106.79 99.4653 109.698 97.7208ZM129.98 202.485C130.67 200.457 137.361 201.778 139.147 201.999C145.734 203.241 152.363 206.152 157.379 210.636C157.689 210.913 158.055 210.909 158.344 210.759C160.591 213.626 163.185 216.224 166.031 218.507C165.51 218.917 164.975 219.315 164.425 219.695C164.161 219.723 163.923 219.86 163.816 220.104C155.987 225.771 150.227 221.35 142.093 222.371C139.056 222.983 136.259 224.912 133.13 224.993C130.833 224.472 132.855 223.513 133.928 223.142C136.357 221.984 138.833 220.928 141.314 219.887L143.3 219.055C144.275 218.646 143.94 217.174 142.85 217.431C140.943 217.88 139.029 218.307 137.114 218.727C133.432 219.477 129.662 220.439 125.941 220.804C126.768 218.508 135.544 216.027 138.096 215.115C139.059 214.66 141.808 214.746 141.494 213.254C141.241 211.866 138.316 213.456 137.341 213.569C133.36 214.578 129.297 215.189 125.241 215.804C129.598 211.438 136.351 211.061 141.915 209.016L142.068 208.981C143.058 208.751 144.413 208.318 143.609 207.194C140.75 202.985 129.501 205.114 129.98 202.485ZM138.212 179.043C136.183 177.38 135.096 180.796 135.225 182.384C135.129 183.703 135.026 185.021 134.94 186.339C135.067 187.369 133.967 191.127 135.437 191.161C141.867 190.835 148.285 190.917 154.717 190.531C154.725 191.826 154.788 193.121 154.722 194.418C154.757 196.04 154.193 197.66 154.523 199.264C154.724 200.001 155.728 200.101 156.119 199.472C157.294 196.711 156.486 193.15 155.655 190.358C158.804 189.777 159.238 186.82 158.408 184.181L158.417 184.038C158.463 183.224 158.46 182.351 158.096 181.694C157.123 180.55 155.106 181.293 153.766 181.207C149.66 180.784 145.477 180.667 141.418 179.913C140.368 179.642 139.296 179.094 138.212 179.043ZM163.742 140.498C166.939 146.595 170.618 152.395 174.534 158.043C175.373 159.249 176.235 160.44 177.11 161.622L177.218 161.76C178.984 164.01 180.856 165.859 179.186 168.834C174.854 179.343 169.055 189.211 162.335 198.37C162.761 179.079 163.137 159.783 163.742 140.498ZM83.3578 182.857C91.391 184.539 91.5414 181.39 90.2006 190.302C86.9787 190.324 83.7588 190.251 80.5362 190.303C81.4571 187.814 82.4117 185.337 83.3578 182.857ZM137.28 180.34C141.476 181.797 145.931 181.589 150.313 181.768C150.304 182.709 154.787 181.836 155.647 181.965L155.947 181.939C156.663 181.88 157.584 181.857 157.592 182.741C157.364 184.265 158.223 185.935 157.69 187.432C156.972 189.45 153.9 189.242 152.205 189.281C149.41 189.344 146.615 189.412 143.82 189.485C141.31 189.551 138.791 189.676 136.279 189.694C136.505 187.908 136.566 186.078 136.703 184.294C136.875 183.011 136.627 181.49 137.28 180.34ZM119.638 186.827C119.634 186.85 119.63 186.872 119.624 186.896C119.592 186.888 119.558 186.88 119.524 186.873L119.472 186.862V186.861C119.527 186.851 119.584 186.84 119.638 186.827ZM107.471 106.641C109.285 109.747 112.293 111.743 115.916 111.772C122.274 112.137 128.717 111.717 134.914 110.213C135.825 109.986 136.913 109.788 137.751 109.291C132.967 135.181 125.233 160.402 119.779 186.142C115.83 186.49 111.892 186.453 107.934 186.267C104.879 186.221 101.794 186.549 98.7596 186.096L98.8542 182.9C99.6198 157.319 100.685 131.43 107.471 106.641Z" fill="black"/>
<path fill-rule="evenodd" clip-rule="evenodd" d="M141.161 28.9919C132.289 28.5089 124.429 26.0234 118.183 31.5861C118.183 31.5861 108.08 24.0634 106.394 26.9285C105.265 28.8484 106.831 31.4256 106.411 33.7946C103.672 38.4498 103.827 46.3292 103.672 48.1758C103.282 52.8299 100.824 70.3436 100.824 74.5025C100.824 76.6254 102.579 82.1852 103.672 85.2793C106.106 92.166 110.751 95.6757 118.368 95.6757C125.985 95.6757 138.418 89.3279 142.405 83.692C142.755 83.198 145.015 84.639 147.378 82.1394C149.939 79.4315 151.36 74.2665 151.36 71.1877C151.36 67.2807 153.892 64.5713 153.597 59.5703C152.94 48.4016 150.655 29.5086 141.161 28.9919Z" fill="white"/>
<path fill-rule="evenodd" clip-rule="evenodd" d="M142.153 16.0067C142.037 15.9997 141.92 16.0053 141.803 16.0167C141.675 16.0223 141.547 16.0348 141.419 16.0602C140.767 16.185 140.186 16.529 139.735 17.0133C139.722 17.0259 139.713 17.0401 139.701 17.0526C139.49 17.2112 139.294 17.3911 139.118 17.5818C139.087 17.5524 139.058 17.523 139.026 17.4935C138.933 17.412 138.835 17.3348 138.734 17.2619C138.31 16.8992 137.812 16.6356 137.277 16.4855L137.204 16.4658C137.19 16.4616 137.175 16.4588 137.161 16.456C136.781 16.3298 136.381 16.2652 135.979 16.2664C135.497 16.251 135.014 16.3298 134.564 16.5149C134.03 16.7355 133.565 17.0835 133.175 17.502C132.919 17.7097 132.695 17.9384 132.459 18.1898C131.97 18.7105 131.584 19.3198 131.341 19.9909C131.307 20.085 131.277 20.1817 131.251 20.2786C130.655 20.2099 130.057 20.1608 129.458 20.1368C128.787 20.0962 128.115 20.0821 127.442 20.1047C125.588 20.1649 123.774 20.4907 122.019 21.0873C121.667 21.1911 121.324 21.323 120.995 21.4859C120.478 21.6908 119.99 21.952 119.529 22.2678L119.137 22.4997C118.94 22.6165 118.743 22.7347 118.552 22.856C118.097 23.1468 117.667 23.4723 117.258 23.8233C116.827 24.1701 116.421 24.5478 116.033 24.9435C115.928 25.0506 115.827 25.1591 115.727 25.2684C114.834 25.7486 114.041 26.3635 113.302 27.0968C112.715 26.7605 112.108 26.4556 111.481 26.1845C110.835 25.9051 110.014 25.6174 109.337 25.428C108.729 25.2581 108.128 25.1416 107.518 25.0558C107.241 25.0081 106.962 24.9702 106.682 24.9379L106.693 24.9422V24.9422C106.496 24.9211 106.3 24.9028 106.101 24.886L106.107 24.8846V24.8846C106.023 24.8777 105.937 24.8705 105.852 24.8649L105.647 24.8482V24.8482C105.585 24.8426 105.495 24.987 105.489 25.0376L105.482 25.0895V25.0895C105.436 25.1416 105.393 25.1991 105.364 25.2342C105.327 25.2313 105.29 25.2286 105.254 25.2271C105.144 25.2174 105.017 25.4124 104.953 25.4868L104.894 25.5554C104.827 25.6354 104.761 25.7275 104.75 25.8279C104.678 26.4107 104.61 26.9945 104.548 27.5785C104.525 28.0207 104.548 28.4587 104.622 28.8925C104.677 29.3136 104.733 29.7348 104.789 30.1545C104.879 30.4495 104.968 30.7443 105.057 31.0389C105.092 31.1514 105.131 31.2621 105.169 31.373C105.395 32.1137 105.659 32.8347 105.973 33.5334C105.744 33.7864 105.53 34.0486 105.331 34.3194C105.283 34.3681 105.235 34.4165 105.191 34.4671C105.178 34.4476 105.16 34.4293 105.14 34.4194C105.072 34.3899 105.023 34.425 104.981 34.4827C104.537 34.9051 104.215 35.398 104.015 35.9608L103.89 36.2543C103.87 36.3034 103.849 36.3525 103.829 36.4016C103.67 36.8285 103.547 37.2665 103.446 37.7099C103.355 38.0589 103.29 38.4127 103.248 38.7702C102.944 39.7884 102.704 40.8301 102.477 41.8577C102.441 42.0194 102.458 42.1637 102.51 42.2867L102.377 42.4156V42.4156L102.151 42.6406C101.77 43.019 101.382 43.4168 101.099 43.8671C100.806 44.3346 100.591 44.8344 100.351 45.3301L100.3 45.4353V45.4353L100.194 45.6465C100.08 45.877 100.026 46.0044 99.9247 46.2831C99.7572 46.7479 99.6671 47.2153 99.6248 47.7081C99.5629 48.4254 99.5713 49.2073 99.8867 49.8741C99.8881 49.8797 99.8909 49.8841 99.8937 49.8881C100.037 50.5326 100.392 51.1305 100.931 51.5124C101.047 51.6206 101.171 51.7175 101.303 51.7945C101.621 51.9805 101.912 51.9971 102.259 51.9111L102.303 51.8998C102.346 51.8886 102.386 51.8788 102.424 51.8704C102.368 51.9167 102.339 51.9716 102.424 52.0107C102.506 52.05 102.579 52.0725 102.648 52.0809C102.618 52.1188 102.615 52.1595 102.677 52.1932C102.812 52.2648 102.922 52.2874 103.035 52.2676L103.011 52.4628C102.827 53.9396 102.661 54.2317 102.517 55.8181C102.421 57.4421 102.269 59.0622 102.059 60.6753L101.987 61.2614C101.755 63.1192 101.495 64.9906 101.096 66.8183C100.895 67.6171 100.722 68.4215 100.575 69.2315C100.368 69.8478 100.223 70.4781 100.143 71.1211C100.026 71.7752 99.9458 72.435 99.8994 73.1005C99.7374 73.526 99.6586 73.9582 99.6628 74.399C99.6417 74.9914 99.6614 75.5826 99.7248 76.1708C99.76 76.7827 99.8445 77.3892 99.9782 77.99C100.098 78.8142 100.316 79.6101 100.629 80.3823C100.879 81.2441 101.186 82.0893 101.535 82.916C102.077 84.1963 102.732 85.3854 103.477 86.5576C104.175 87.6568 104.924 88.7152 105.78 89.6995C106.887 90.9712 108.149 92.1364 109.531 93.119C110.32 93.7004 111.152 94.2225 112.022 94.669C113.086 95.2164 114.168 95.7091 115.321 96.0418C116.04 96.2496 116.773 96.3928 117.513 96.5024C118.968 96.7171 120.474 96.6848 121.937 96.4335C122.88 96.3071 123.808 96.0881 124.685 95.7751C125.406 95.5169 126.093 95.2206 126.78 94.8865C127.134 94.7166 127.475 94.5201 127.801 94.2997C128.35 93.9445 128.864 93.5431 129.343 93.0994C129.499 92.966 129.651 92.8299 129.8 92.6867C129.872 92.6235 129.833 92.5294 129.75 92.5071L129.724 92.5042V92.5042C129.757 92.4747 129.791 92.4452 129.823 92.4143C129.83 92.4087 129.836 92.4018 129.841 92.3947C129.857 92.3806 129.874 92.3667 129.888 92.3527C129.943 92.3048 129.888 92.1981 129.84 92.1729C129.822 92.163 129.798 92.1618 129.771 92.1644C129.777 92.1588 129.781 92.1546 129.786 92.1505C129.792 92.1462 129.793 92.135 129.792 92.1237L129.813 92.107V92.107C129.885 92.0437 129.848 91.9512 129.764 91.9272C129.723 91.9147 129.655 91.9211 129.584 91.9365L129.557 91.9426L129.605 91.8977C129.689 91.8247 129.663 91.7433 129.558 91.7182C129.481 91.7227 129.404 91.7334 129.328 91.7518L129.271 91.7672C129.243 91.7742 129.216 91.7826 129.188 91.7912C129.236 91.7475 129.284 91.7055 129.33 91.6619C129.377 91.6213 129.327 91.5046 129.285 91.4809C129.227 91.4486 129.115 91.4934 129.063 91.5313C128.935 91.5455 128.766 91.6015 128.704 91.6549C128.533 91.8177 128.357 91.9735 128.179 92.1251C128.07 92.1588 127.967 92.2038 127.888 92.2711C127.686 92.4649 127.475 92.6475 127.259 92.8242L127.095 92.9368C127.068 92.9553 127.04 92.9735 127.013 92.9913C126.703 93.1724 126.393 93.3521 126.085 93.5332C124.954 93.915 123.824 94.297 122.694 94.6774L122.545 94.7222V94.7222L121.448 94.857V94.857C120.728 94.9328 120.005 94.9287 119.284 94.8458C118.744 94.8529 118.207 94.7994 117.679 94.6899C116.782 94.5383 115.902 94.3153 115.046 94.0035C114.061 93.6455 113.122 93.1739 112.205 92.6658C111.876 92.4817 111.552 92.2866 111.234 92.0804C111.131 92.0074 111.028 91.9328 110.925 91.857C110.248 91.3502 109.6 90.8097 108.977 90.2384C108.684 89.9703 108.402 89.691 108.13 89.4019C108.091 89.3596 108.053 89.319 108.015 89.2768C107.754 88.9932 107.502 88.6999 107.262 88.3966L107.032 88.1384V88.1384C106.106 86.9887 105.282 85.7519 104.541 84.4785C103.806 83.2164 103.201 81.8884 102.72 80.5141C102.565 80.0241 102.429 79.5273 102.317 79.0248C102.108 78.421 101.972 77.802 101.909 77.1703C101.887 77.0466 101.871 76.9231 101.854 76.7995L101.844 76.6048C101.843 76.5723 101.841 76.5398 101.841 76.5075C101.813 76.3112 101.789 76.1145 101.771 75.9179C101.759 75.7201 101.752 75.5221 101.751 75.3241L101.766 74.1098V74.1098C101.771 74.0719 101.775 74.0327 101.778 73.9933L101.809 73.7253C101.876 73.172 101.928 72.6175 101.996 72.0646C101.996 72.0616 101.996 72.0574 101.997 72.0532C102.023 71.8468 102.049 71.6391 102.08 71.4313C102.096 71.3078 102.116 71.1842 102.134 71.0607L102.169 70.8446V70.8446C102.234 70.4688 102.314 70.096 102.41 69.7266L102.452 69.5684L102.697 68.3401L102.973 67.1314C103.152 66.3214 103.301 65.5057 103.419 64.6831C103.633 63.3721 103.816 62.0593 103.975 60.7411C103.984 60.678 103.992 60.6134 103.999 60.5502C104.161 59.3276 104.278 58.1005 104.354 56.8694C104.457 55.6566 104.516 54.4408 104.532 53.2238C104.533 53.1689 104.496 53.1241 104.453 53.0987L104.457 52.8647C104.462 52.6577 104.466 52.906 104.467 52.67L104.47 52.0209C104.47 51.9668 104.469 51.9292 104.468 51.9265C105.221 51.9784 105.726 51.9359 106.453 51.8977L106.576 51.8914C107.242 51.8607 107.904 51.7877 108.561 51.678C108.564 51.7119 108.587 51.7356 108.625 51.7426C108.692 51.7454 108.756 51.7454 108.82 51.747L108.796 51.8381V51.8381C108.795 51.8845 108.816 51.9139 108.861 51.9265L109.049 51.9349C109.3 51.9454 109.551 51.9504 109.8 51.9167C110.024 51.8873 110.242 51.8353 110.459 51.7735C110.593 51.751 110.729 51.7203 110.869 51.6808C111.227 51.5784 111.581 51.4408 111.94 51.3314C112.306 51.2541 112.678 51.2289 113.067 51.3215C113.478 51.4183 113.826 51.5938 114.256 51.4871C114.342 51.4662 114.425 51.4339 114.508 51.4001L114.585 51.3947C114.598 51.3936 114.612 51.3922 114.625 51.3902C115.074 51.3258 115.474 51.0422 115.902 50.8905C116.052 50.8542 116.2 50.8634 116.345 50.9236L116.381 50.9398L116.523 51.045C116.581 51.1123 116.637 51.1803 116.693 51.2485L116.777 51.3509C116.93 51.5405 117.094 51.7103 117.292 51.8339C117.531 52.0543 117.816 52.1834 118.155 52.1918C118.348 52.1974 118.54 52.1567 118.725 52.0979C119.427 52.3141 120.177 52.3576 120.877 52.147C121.154 52.1048 121.426 52.0305 121.686 51.9139C121.809 51.8591 121.931 51.7945 122.05 51.7229C122.544 51.9309 123.011 52.2073 123.489 52.4461L123.596 52.4999C124.084 52.7421 124.623 52.9783 125.175 52.943C125.871 52.898 126.554 52.8054 127.235 52.6888C127.241 52.6888 127.248 52.6874 127.253 52.686L127.347 52.6704V52.6704L127.688 52.6108V52.6108L127.963 52.5598V52.5598L128.104 52.6134C129.232 53.0392 130.469 53.3713 131.603 53.0734C132.097 53.0132 132.56 52.8474 132.978 52.5652C132.992 52.5554 133.006 52.5456 133.021 52.5344C133.087 52.5007 133.149 52.4629 133.204 52.4222L133.215 52.413V52.413L133.226 52.4038L133.232 52.401C133.85 52.1176 134.205 51.5138 134.143 50.8373C134.181 50.6223 134.179 50.4118 134.137 50.1873C134.338 50.4244 134.544 50.659 134.752 50.8919C135.515 51.807 136.261 52.7403 136.952 53.712L137.111 53.9369C137.491 54.4716 137.844 55.0249 138.171 55.5947C138.502 56.1576 138.841 56.7151 139.192 57.2654C139.647 57.7677 140.088 58.282 140.513 58.8089L140.694 59.0355L141.305 59.8371C141.737 60.3482 142.096 60.9069 142.379 61.5133C142.612 61.9444 142.826 62.3838 143.019 62.8344C143.08 62.9704 143.14 63.108 143.197 63.2456C143.396 63.7832 143.563 64.3309 143.694 64.8965C143.8 65.3058 143.875 65.7209 143.92 66.1417L143.934 66.2822C143.951 66.4477 143.963 66.6134 143.97 66.779C143.929 66.803 143.896 66.8267 143.87 66.8506L143.768 66.8872V66.8872L143.684 66.9118C143.555 66.9519 143.331 67.0348 143.385 67.137L143.656 67.6537V67.6537C143.628 67.6832 143.616 67.714 143.634 67.7478C143.815 68.0944 143.998 68.4411 144.182 68.788C144.187 68.8007 144.197 68.8104 144.207 68.8175C144.051 68.889 143.899 68.9676 143.753 69.0532C143.47 69.2218 143.262 69.4168 143.069 69.6442C142.866 69.7651 142.675 69.8971 142.495 70.0485C142.272 70.2816 142.078 70.5372 141.913 70.8136C141.761 71.0747 141.637 71.3471 141.542 71.632C141.499 71.7823 141.48 71.9381 141.481 72.0967C141.651 73.2957 143.027 72.4743 143.054 72.3691C143.242 71.6447 143.459 71.1872 143.946 70.6481L143.959 70.6395V70.6395C144.241 70.516 144.519 70.3939 144.811 70.2984C144.855 70.3068 144.9 70.3126 144.945 70.3195C144.894 70.3912 144.919 70.4614 145.022 70.4739C145.466 70.5611 145.913 70.5848 146.364 70.5469L147.048 70.4502V70.4502C147.332 70.5587 147.603 70.698 147.859 70.864L147.944 70.9203L147.959 70.9315C148.619 71.4608 149.129 72.1641 149.478 72.9306C149.509 72.9989 149.539 73.0679 149.567 73.1374L149.609 73.2422L149.612 73.2479C150.068 75.0351 149.661 76.9975 148.828 78.6189C148.373 79.3447 147.899 80.0564 147.403 80.7541L146.921 81.3818V81.3818C146.637 81.6485 146.358 81.9221 146.087 82.2029C146.044 82.2451 145.999 82.2871 145.954 82.3278C145.811 82.4219 145.664 82.5048 145.515 82.575C145.457 82.5945 145.398 82.6128 145.339 82.6284C145.052 82.7658 144.75 82.839 144.434 82.8474C144.015 82.875 143.609 82.826 143.217 82.7018L143.138 82.676L143.08 82.6549C142.866 82.5187 142.668 82.3489 142.479 82.1495C142.437 82.106 142.358 82.106 142.268 82.1299C142.219 82.0793 142.17 82.026 142.123 81.9684C142.091 81.9333 142.04 81.9321 142.001 81.9586C141.867 81.9433 141.505 82.1483 141.599 82.2562C141.615 82.2815 141.634 82.304 141.651 82.3278C141.588 82.3601 141.525 82.3966 141.468 82.4346C141.173 82.5164 140.736 82.8106 140.771 82.8991L140.776 82.9062C140.844 83.0352 140.933 83.1435 141.043 83.2294L141.08 83.2572L141.163 83.3147C141.046 83.3878 140.947 83.4719 140.997 83.5309C141.019 83.5744 141.043 83.6167 141.071 83.6546C140.832 83.9494 140.594 84.2469 140.357 84.5445C140.121 85.0556 139.828 85.5328 139.479 85.975C139.187 86.4551 138.837 86.8862 138.427 87.2707C138.393 87.3045 138.358 87.3368 138.324 87.3691C138.023 87.5914 137.707 87.7997 137.378 87.9998L137.236 88.0851C137.161 88.1298 137.036 88.186 137.095 88.2941C137.102 88.3081 137.111 88.3195 137.121 88.3278C136.914 88.4627 136.7 88.5903 136.479 88.7084L136.458 88.7212C136.374 88.7744 136.261 88.8709 136.38 88.9497C136.481 89.0171 136.75 88.8346 136.877 88.7503C136.901 88.7503 136.929 88.7435 136.957 88.735C136.915 88.7574 136.873 88.7817 136.831 88.8054L136.767 88.8403C136.718 88.8697 136.476 89.0297 136.645 89.0972C136.728 89.1041 136.804 89.083 136.874 89.0353C136.957 88.9946 137.039 88.9512 137.119 88.9062C137.091 88.9497 137.091 88.9932 137.161 89.0214C137.185 89.0227 137.209 89.0214 137.233 89.0186C137.067 89.1239 136.897 89.222 136.721 89.3147L136.692 89.3324C136.618 89.3805 136.499 89.4719 136.586 89.5507C136.683 89.6376 136.95 89.4522 137.019 89.4103L137.225 89.288V89.288C137.24 89.295 137.257 89.2978 137.275 89.2994C137.213 89.3373 137.156 89.378 137.092 89.4143L137.006 89.4612C136.898 89.5207 136.746 89.6184 136.801 89.7162C136.856 89.8129 137.02 89.7333 137.126 89.6706L137.241 89.6001C137.246 89.5971 137.251 89.5941 137.256 89.5912L137.26 89.6081C137.261 89.6109 137.262 89.6137 137.264 89.6165C137.317 89.7081 137.45 89.6481 137.541 89.5952L137.615 89.5507C137.74 89.4757 137.863 89.4014 137.986 89.3266L138.169 89.2137H138.172C138.807 88.8332 139.394 88.4543 139.948 87.9657C140.279 87.6736 140.587 87.3648 140.88 87.0349C141.468 86.3737 141.906 85.6171 142.329 84.845C142.336 84.8322 142.326 84.8 142.309 84.7649C142.355 84.6695 142.4 84.5725 142.445 84.4729C142.879 84.5937 143.363 84.6288 143.81 84.5994C144.049 84.5838 144.286 84.5417 144.521 84.4785C145.271 84.3746 145.995 84.0335 146.62 83.625C146.66 83.5997 146.695 83.5716 146.731 83.5465C146.989 83.4017 147.234 83.2334 147.466 83.041C147.92 82.6675 148.352 82.252 148.745 81.8182C149.029 81.4814 149.298 81.1318 149.55 80.7696C149.806 80.4116 150.065 80.0538 150.325 79.6956C151.044 78.5726 151.504 77.2797 151.683 75.9586C151.77 75.4717 151.816 74.9788 151.806 74.4874C151.799 74.1323 151.759 73.7729 151.69 73.415C151.731 73.3756 151.772 73.3364 151.813 73.2957C151.835 73.3349 151.858 73.3631 151.872 73.3489L152.195 73.0268C152.423 72.7967 152.577 72.6274 152.841 72.2553C153.26 71.6615 153.573 71.0087 153.805 70.321C153.973 69.8297 154.084 69.2708 154.127 68.7305C154.142 68.6405 154.156 68.5492 154.167 68.4566C154.257 67.7252 154.174 67.0247 154.063 66.3031C154.056 66.2555 154.032 66.226 153.999 66.2105C153.991 66.1533 153.981 66.0946 153.972 66.0361C154.905 65.0517 155.576 63.8654 155.521 62.4326C155.504 61.9811 155.411 61.5361 155.233 61.1206L155.212 61.0737V61.0737C155.99 60.9544 156.608 60.4091 157.072 59.7333C157.113 59.7009 157.153 59.6682 157.191 59.6356C158.021 58.9292 158.596 57.929 158.99 56.8725C159.272 56.259 159.458 55.6034 159.538 54.9234C159.543 54.8748 159.547 54.8267 159.551 54.7784C159.744 53.7032 159.793 52.6172 159.704 51.5473C159.897 50.8851 160.054 50.2113 160.162 49.5217C160.213 49.1934 160.248 48.8648 160.275 48.5363L160.277 48.5181L160.282 48.459L160.294 48.3117C160.295 48.2873 160.297 48.263 160.299 48.2386C160.537 45.2316 159.862 42.2724 158.747 39.4872C158.65 39.2367 158.55 38.9869 158.446 38.739L158.336 38.4801V38.4801C157.217 36.6804 155.536 35.2247 154.113 33.6874C153.621 33.157 154.416 32.3608 154.909 32.8933C155.855 33.9147 156.869 34.893 157.786 35.9429C157.947 35.9547 158.109 35.9591 158.271 35.9511C158.553 35.9369 158.826 35.8921 159.091 35.8204C159.751 35.7235 160.352 35.4582 160.898 35.0679C161.629 34.7283 162.253 34.0881 162.315 33.2528C162.322 33.1685 162.32 33.0857 162.315 33.003C162.382 32.5944 162.322 32.1664 162.15 31.7717C162.121 31.6636 162.082 31.5569 162.035 31.4517C161.895 31.1386 161.666 30.8383 161.386 30.6346C161.379 30.6304 161.373 30.6278 161.367 30.6234C161.338 30.5927 161.31 30.5616 161.277 30.5337C161.229 30.49 161.179 30.4495 161.125 30.4116C161.315 30.0998 161.487 29.7798 161.633 29.4386C161.792 29.068 161.874 28.6919 161.919 28.2945C161.937 28.1372 161.945 27.9814 161.947 27.8257C161.956 27.754 161.961 27.681 161.967 27.608C162.002 27.0521 161.937 26.4752 161.729 25.9557C161.714 25.9165 161.694 25.8771 161.676 25.8363C161.636 25.7184 161.593 25.6006 161.539 25.4854C161.331 25.0432 161.035 24.6684 160.67 24.3609C160.473 24.163 160.252 23.9875 160.011 23.8387C159.869 23.7503 159.707 23.6716 159.537 23.6071C159.233 23.447 158.843 23.301 158.526 23.2899C158.488 23.2884 158.454 23.2927 158.418 23.2927C158.388 22.4868 158.284 21.6094 157.964 20.8794C157.778 20.3503 157.5 19.88 157.08 19.5416C156.837 19.2883 156.537 19.0827 156.163 18.9483L156.096 18.9253L156.07 18.9183C155.734 18.7554 155.371 18.6909 154.998 18.6924C154.563 18.6698 154.119 18.7514 153.74 18.9506C153.661 18.9927 153.577 19.0446 153.497 19.1008C153.436 18.98 153.369 18.8579 153.291 18.7359C153.019 18.302 152.691 17.9244 152.311 17.5804C152.266 17.5397 152.217 17.5032 152.169 17.4641C151.985 17.297 151.789 17.1426 151.586 17.0022C151.148 16.6988 150.668 16.473 150.164 16.3268C149.582 16.1124 148.968 16.0129 148.354 16.0338L148.227 16.0392V16.0392C148.198 16.0418 148.17 16.0432 148.144 16.0446C147.534 16.0841 146.933 16.2329 146.358 16.4574C145.763 16.6919 145.259 17.047 144.79 17.4541C144.68 17.3026 144.555 17.1593 144.401 17.0245C144.358 16.9868 144.311 16.9529 144.267 16.9178C144.234 16.8841 144.198 16.8518 144.162 16.8196C143.994 16.6722 143.817 16.5444 143.623 16.4307C143.404 16.3031 143.169 16.2146 142.926 16.1599C142.678 16.0755 142.417 16.0236 142.153 16.0067ZM145.046 73.8796C145.021 73.8782 143.717 74.3658 143.067 74.681L143.035 74.6966C142.286 75.0672 141.926 75.334 141.253 75.8099C141.208 75.8422 141.161 75.8913 141.161 75.939C141.161 76.6322 141.33 77.4797 141.915 77.1042C141.999 77.0499 142.084 76.9969 142.17 76.9447L142.299 76.867L142.303 76.8684C142.302 76.8684 142.3 76.867 142.299 76.8655C143.572 76.092 144.916 75.4856 146.336 75.0518C146.433 75.0167 145.713 73.9329 145.515 73.9933C145.629 73.9484 145.065 73.8807 145.046 73.8796ZM131.673 43.2642C132.519 43.3544 133.365 43.4433 134.212 43.5302C134.751 43.592 135.292 43.6467 135.832 43.693C136.645 43.7536 137.457 43.7632 138.267 43.6523C138.554 43.6132 138.835 43.5569 139.114 43.4881C139.304 43.6271 139.501 43.7576 139.703 43.8827L141.939 45.5882V45.5882C143.438 46.7634 144.905 48.0084 146.226 49.3828C148.532 51.7839 150.411 54.5929 151.592 57.7045C151.699 57.7676 151.782 57.8775 151.81 58.0461C152.018 59.3215 152.629 60.4847 152.849 61.7548C153.066 63.0059 152.777 64.0695 151.989 65.0611C151.821 65.273 151.476 65.2618 151.265 65.1187C151.216 65.215 151.003 65.2109 150.928 64.7856C150.578 64.4072 150.278 64.0107 150.075 63.5196C149.925 63.158 150.177 62.9073 150.482 62.858C150.355 62.4031 150.212 61.9524 150.051 61.5064C149.575 60.181 148.97 58.9149 148.208 57.7273C147.538 56.6827 146.762 55.773 145.929 54.8605C145.919 54.8479 145.902 54.8438 145.884 54.841L145.711 54.6499V54.6499C145.687 54.6233 145.637 54.6261 145.582 54.6401C145.53 54.5854 145.48 54.5292 145.426 54.4745C145.374 54.4183 145.316 54.4351 145.284 54.4801C145.195 54.4604 145.033 54.5559 144.984 54.5869C144.9 54.6429 144.873 54.7061 144.945 54.7861C144.957 54.8003 144.97 54.8143 144.983 54.8268C144.886 54.8677 144.79 54.9223 144.715 54.9758C144.455 55.0332 144.089 55.2746 144.152 55.3464C144.286 55.4852 144.415 55.6271 144.543 55.7716C144.431 55.8503 144.358 55.9274 144.387 55.9612C144.936 56.5381 145.443 57.1489 145.908 57.7959C146.261 58.2788 146.581 58.7814 146.867 59.305C147.292 60.0462 147.652 60.8085 147.972 61.5919C148.017 61.7113 148.06 61.8305 148.103 61.9498C148.57 63.254 148.919 64.6073 149.067 65.9858L149.073 66.0788C149.101 66.5754 149.112 67.9051 149.163 68.2221C148.852 68.3752 148.528 68.5057 148.191 68.6126C148.128 68.6308 148.063 68.6476 147.999 68.6631C147.962 68.6476 147.924 68.6349 147.886 68.6236C147.576 68.4987 147.252 68.4089 146.921 68.3653C146.698 68.336 146.477 68.3258 146.255 68.3321L146.16 68.3359C146.061 68.3387 145.964 68.3457 145.865 68.3556C145.871 68.2994 145.874 68.2447 145.878 68.1885C145.906 68.1702 145.927 68.1451 145.929 68.1112C145.995 67.4795 145.996 66.8478 145.933 66.2161C145.891 65.8862 145.842 65.5577 145.788 65.2293C145.733 64.9596 145.67 64.6945 145.601 64.429C145.418 63.6851 145.174 62.9592 144.878 62.249C144.037 60.2231 142.83 58.3967 141.616 56.5802C140.731 55.2537 139.893 53.8975 138.976 52.5933C138.196 51.4829 137.377 50.3893 136.502 49.3505C135.629 48.3132 134.707 47.3149 133.712 46.3913C133.551 46.2438 133.389 46.1006 133.225 45.959C132.281 45.1167 131.256 44.4244 130.189 43.7451C130.148 43.7185 130.075 43.7479 130.014 43.7983L129.842 43.6928C129.813 43.6753 129.785 43.658 129.755 43.6411C129.729 43.6244 129.699 43.6523 129.684 43.6762C129.61 43.6383 129.537 43.6019 129.464 43.5653C129.411 43.5223 129.356 43.4816 129.302 43.4392C130.093 43.3995 130.884 43.3405 131.673 43.2642ZM121.747 33.9056C122.386 33.7779 123.028 33.7596 123.673 33.855C123.943 33.8945 124.212 33.9419 124.479 33.9993C123.873 34.5258 123.386 35.1995 123.07 35.9748C122.729 36.8129 124.091 37.1741 124.428 36.3481C124.753 35.5513 125.367 34.94 126.11 34.5736C126.271 34.6631 126.426 34.7599 126.575 34.8672C126.769 35.0244 126.952 35.1943 127.124 35.381C127.498 35.7868 127.842 36.3286 128.067 36.8648C128.155 37.1568 128.219 37.4572 128.26 37.7661C128.269 37.8363 128.277 37.9079 128.284 37.9795C128.423 39.4323 128.006 40.8458 127.29 42.0966L127.261 42.097V42.097C126.622 41.7511 125.952 41.4597 125.263 41.2223C124.711 40.8518 124.138 40.5092 123.548 40.1989C122.294 39.5392 120.969 39.0307 119.604 38.6829L119.446 38.6435C119.125 38.5616 118.8 38.4894 118.475 38.4263L118.279 38.3895H118.276L118.297 38.1802V38.1802C118.407 37.359 118.73 36.5967 119.146 35.8921C119.459 35.3601 119.931 34.8154 120.454 34.3802L120.457 34.3786C120.695 34.2439 120.945 34.1324 121.202 34.0403L121.299 34.0066L121.747 33.9056ZM138.91 32.6577C140.239 32.5326 141.568 32.5452 142.897 32.6533C143.766 32.7391 144.629 32.8583 145.488 33.0099C146.07 33.1096 146.64 33.25 147.2 33.4242L146.88 34.0705C146.344 35.1468 145.795 36.216 145.149 37.2326C144.815 37.7563 144.453 38.2548 144.059 38.7333C143.793 39.0759 143.5 39.3933 143.179 39.6851C143.095 39.7877 143.004 39.8846 142.913 39.9785C142.62 40.2284 142.305 40.4474 141.96 40.6285C141.683 40.8294 141.394 41.0049 141.093 41.1587L140.98 41.2154L139.924 41.6196C139.867 41.6355 139.811 41.6514 139.753 41.6665L139.668 41.6885L139.507 41.7221L139.387 41.6569C139.366 41.6461 139.346 41.6355 139.325 41.6252C139.292 41.6071 139.268 41.6422 139.261 41.6673C139.258 41.6773 139.262 41.6912 139.269 41.7052L139.115 41.6223V41.6223C138.851 41.7294 138.57 41.815 138.269 41.8714C138.132 41.8968 137.996 41.9164 137.859 41.9331L137.841 41.9453C137.838 41.9474 137.835 41.9497 137.832 41.9524H137.682V41.9524C136.629 42.0537 135.562 41.9199 134.511 41.7316C133.024 41.5825 131.537 41.4181 130.051 41.2644C130.023 41.2618 130.012 41.2742 130.012 41.294L129.92 41.2856V41.2856C129.788 41.2714 129.633 41.4918 129.733 41.572C129.653 41.6196 129.575 41.6885 129.517 41.7419L129.484 41.7389C129.688 41.3402 129.846 40.9233 129.958 40.4896L130.102 39.7623V39.7623C130.141 39.4914 130.164 39.2023 130.168 38.9172C130.178 38.7867 130.185 38.6647 130.185 38.5578C130.185 38.4568 130.183 38.3557 130.179 38.2548C130.459 38.1395 130.744 38.0386 131.034 37.9528C131.858 37.8519 132.68 37.7506 133.503 37.651C133.998 37.6692 134.492 37.7043 134.985 37.7591C135.544 37.8082 136.101 37.8714 136.657 37.9472C136.709 37.9528 136.802 37.8826 136.859 37.8012L137.097 37.8336V37.8336C137.221 37.849 137.35 37.6018 137.187 37.5513C137.128 37.5279 137.068 37.5057 137.009 37.4844L136.921 37.453L136.971 37.4586C136.988 37.4602 137.009 37.4558 137.033 37.4476C137.164 37.4643 137.295 37.4811 137.425 37.4965C137.589 37.517 137.552 37.301 137.436 37.2502L137.381 37.2298C137.478 37.1693 137.564 37.0037 137.444 36.9496L137.427 36.9434C137.371 36.9211 137.316 36.9027 137.26 36.8817C137.264 36.8636 137.264 36.8466 137.259 36.8313L137.491 36.8606V36.8606C137.512 36.8634 137.411 36.7156 137.363 36.6864L137.354 36.6823L137.243 36.6486C137.226 36.6009 137.136 36.4956 137.105 36.4859C136.697 36.358 136.317 36.2431 135.92 36.1545C135.9 36.1306 135.877 36.1124 135.852 36.1068C135.604 36.0478 135.354 36.0015 135.103 35.9623C135.086 35.9369 135.069 35.9188 135.049 35.9172C134.428 35.8386 133.806 35.8204 133.181 35.8626C133.061 35.8737 132.942 35.8865 132.822 35.9018C132.592 35.9272 132.363 35.9595 132.135 36.003C131.564 36.1008 131.006 36.2494 130.462 36.4498L130.337 36.497C130.2 36.5477 130.065 36.6009 129.931 36.6586C129.864 36.4185 129.779 36.1826 129.679 35.9511C129.664 35.906 129.647 35.8626 129.629 35.8191L129.765 35.7376V35.7376C129.795 35.7937 129.855 35.8372 129.895 35.8135C130.873 35.1551 131.908 34.6061 132.999 34.1681C133.61 33.8985 134.236 33.6699 134.876 33.4788C135.196 33.3765 135.518 33.2838 135.842 33.1954C136.004 33.1615 136.166 33.1278 136.331 33.0998C137.177 32.8723 138.037 32.7251 138.91 32.6577ZM106.666 34.886C106.784 35.0907 106.908 35.2934 107.039 35.4933C107.676 36.4646 108.439 37.3761 109.304 38.1708C109.079 38.1702 108.853 38.1788 108.631 38.1996C108.248 38.2357 107.872 38.2991 107.506 38.388C107.476 38.3643 107.443 38.3523 107.417 38.3711L107.321 38.437V38.437C106.536 38.6482 105.799 38.9804 105.131 39.4254L105.143 39.3375C105.145 39.3229 105.147 39.3082 105.15 39.2936C105.138 39.1209 105.136 38.9481 105.141 38.7768C105.279 37.7647 105.624 36.8325 106.018 35.8893C106.026 35.8711 106.021 35.8473 106.009 35.8232C106.208 35.4992 106.426 35.1858 106.666 34.886ZM106.484 26.9285C106.779 26.9819 107.07 27.0507 107.36 27.1363C107.905 27.2179 108.433 27.361 108.943 27.5645C109.645 27.8129 110.327 28.1021 111.005 28.4083C112.323 29.0034 113.56 29.756 114.684 30.6628C114.756 30.7175 114.825 30.7738 114.894 30.8299C115.146 31.0474 115.391 31.2748 115.624 31.5148C115.867 31.7788 116.112 32.0428 116.356 32.308C116.654 32.6198 116.998 32.9018 117.268 33.2387C117.323 33.3075 117.371 33.3833 117.415 33.4593L117.255 33.5139V33.5139C117.122 33.5588 117.144 33.8087 117.277 33.7722C117.322 33.7596 117.364 33.7441 117.406 33.7274C117.388 33.7513 117.375 33.7751 117.372 33.7961C117.364 33.8634 117.416 33.9562 117.499 33.9324C117.537 33.9224 117.575 33.9084 117.613 33.8929C117.624 33.9364 117.633 33.98 117.633 34.0221C117.626 34.0249 117.619 34.0277 117.61 34.0292C117.517 34.0615 117.343 34.206 117.317 34.3044C117.298 34.3802 117.362 34.4615 117.446 34.439C117.507 34.4222 117.568 34.3969 117.627 34.3688C117.588 34.4069 117.557 34.4476 117.554 34.4827C117.548 34.5472 117.605 34.6384 117.682 34.6174C117.826 34.578 117.941 34.5178 118.037 34.442C118.062 34.4755 118.099 34.5022 118.128 34.4939L118.183 34.4771V34.4771C118.168 34.491 118.155 34.5057 118.141 34.5201L118.121 34.5415C117.733 34.9598 117.393 35.4231 117.122 35.9216C117.109 35.9074 117.094 35.8948 117.074 35.8793C116.947 35.7726 116.816 35.6688 116.685 35.5678L116.646 35.5333V35.5333L116.605 35.4989L116.899 35.5958L116.893 35.5882C116.872 35.5616 116.807 35.4731 116.777 35.4436L116.77 35.4371C116.366 35.0765 115.925 34.7703 115.449 34.5206C115.141 34.3211 114.817 34.1526 114.478 34.0136C113.668 33.6388 112.843 33.354 111.995 33.0901C111.869 33.0494 111.742 33.0058 111.615 32.9664C111.579 32.9538 111.571 32.9692 111.577 32.9945L111.511 32.9748V32.9748C111.393 32.9369 111.191 33.1447 111.272 33.2415C111.223 33.2809 111.176 33.3246 111.134 33.3658L111.104 33.396L111.07 33.3861C110.97 33.3552 110.8 33.5116 110.692 33.6223L110.613 33.7062C110.552 33.7708 110.434 33.9041 110.579 33.9562L110.76 34.0179V34.0179C110.755 34.0544 110.77 34.0852 110.827 34.1063C110.89 34.1274 110.952 34.1498 111.014 34.1724C110.976 34.2051 110.939 34.2391 110.903 34.2735L110.849 34.3253C110.785 34.3902 110.634 34.5332 110.768 34.5963L110.784 34.6033L110.958 34.665C110.935 34.7156 110.941 34.7634 111.017 34.7914C112.028 35.1339 113.015 35.5355 113.979 35.9918C114.701 36.3903 115.465 36.6881 116.268 36.8831C116.335 36.9043 116.478 36.8046 116.537 36.7049L116.657 36.7401C116.677 36.746 116.697 36.7516 116.718 36.7567L116.737 36.7611V36.7611C116.587 37.1612 116.475 37.5948 116.413 38.0146C116.406 38.0525 116.401 38.0919 116.397 38.1298C116.239 38.117 116.083 38.1058 115.925 38.0975C114.834 38.0398 113.73 38.0749 112.636 38.2041C112.194 37.9416 111.769 37.6538 111.362 37.3423C111.238 37.2467 111.115 37.1484 110.994 37.0487C110.268 36.4198 109.61 35.7138 109.027 34.9514C108.488 34.2453 108.019 33.4872 107.625 32.6928C107.276 31.9472 106.987 31.1723 106.769 30.3721C106.569 29.6407 106.5 28.929 106.449 28.1723C106.432 28.0488 106.421 27.9254 106.411 27.8017L106.412 27.7488V27.7488L106.414 27.7231C106.428 27.4579 106.455 27.1924 106.484 26.9285ZM116.801 36.33C116.833 36.3412 116.867 36.3524 116.901 36.3623C116.881 36.4058 116.863 36.448 116.844 36.4914L116.842 36.4905V36.4905L116.709 36.3861V36.3861C116.737 36.3735 116.77 36.354 116.801 36.33ZM106.682 24.9379C106.428 24.8439 106.237 24.8256 106.107 24.8846C106.299 24.8986 106.49 24.9169 106.682 24.9379Z" fill="black"/>
<path fill-rule="evenodd" clip-rule="evenodd" d="M115.092 85.2021C116.039 84.8171 116.883 84.1749 117.501 83.3546C117.715 83.0694 117.771 82.7683 117.726 82.4928C117.675 82.1831 117.491 81.9024 117.241 81.7142C116.989 81.5253 116.675 81.4321 116.371 81.4796C116.107 81.5209 115.844 81.6651 115.636 81.9642L115.592 82.024C115.225 82.5191 114.747 82.9254 114.202 83.1872C113.677 83.4396 113.089 83.5574 112.481 83.4889C111.323 83.3585 110.525 82.7341 109.677 81.8863C109.572 81.7792 109.466 81.6688 109.361 81.5566C109.294 81.455 109.201 81.3896 109.098 81.3553C108.984 81.3172 108.855 81.3194 108.737 81.3606C108.623 81.4003 108.52 81.4755 108.452 81.5757C108.387 81.6709 108.35 81.7885 108.362 81.9238C108.44 82.8025 108.901 83.5867 109.555 84.2024C110.282 84.8863 111.245 85.3594 112.152 85.5253C113.152 85.7081 114.17 85.5771 115.092 85.2021V85.2021ZM111.681 71.6468C110.618 72.2912 108.998 73.7937 110.142 75.3912C111.488 76.7997 113.426 75.1847 114.382 74.4543C115.267 73.8883 116.262 75.3441 115.441 76.0051C108.538 81.1003 105.737 71.8153 111.143 70.8892C111.738 70.7871 111.96 71.4475 111.681 71.6468ZM124.05 65.7197C123.933 64.2659 121.712 63.9357 121.491 65.3744C121.293 66.6631 121.526 67.847 122.108 69.0072C122.665 70.1157 124.063 69.5985 124.169 68.5892C124.31 67.2362 124.123 66.6241 124.05 65.7197ZM107.146 65.0761C106.836 64.6718 106.389 64.3958 105.853 64.5518C104.18 65.0393 104.673 67.408 105.261 68.561C105.58 69.1871 106.612 69.3458 107.079 68.7946C107.839 67.8955 108.203 66.1002 107.237 65.2146C107.21 65.1689 107.181 65.1227 107.146 65.0761ZM122.132 59.3582L121.868 59.312C121.05 59.171 120.033 59.0355 119.455 59.691C119.148 60.0386 119.042 60.6846 119.455 61.0173C120.18 61.6027 120.982 61.3759 121.851 61.4254C122.568 61.4664 123.256 61.5846 123.946 61.7813C125.46 62.2127 126.694 63.0003 127.987 63.865C128.156 63.9784 128.329 63.7621 128.248 63.6039C127.502 62.1463 126.056 60.949 124.607 60.2191C123.834 59.8296 122.987 59.5064 122.132 59.3582ZM108.671 58.7052L108.469 58.7465C106.267 59.2054 103.406 60.122 102.364 62.2782C102.324 62.5831 102.366 62.6484 102.4 62.6911L102.412 62.7053C102.44 62.7418 102.462 62.792 102.595 62.8335C102.631 62.8248 102.669 62.8155 102.706 62.8057C103.184 62.6808 103.562 62.5088 103.928 62.3303L104.325 62.1353C104.786 61.9102 105.25 61.6933 105.743 61.5332C106.793 61.1915 107.874 60.9508 108.971 60.8222C109.209 60.7944 109.438 60.7144 109.619 60.5772C109.79 60.447 109.921 60.2667 109.981 60.0271C110.059 59.717 110.036 59.4822 109.869 59.2024C109.744 58.9923 109.564 58.8467 109.358 58.7631C109.148 58.6778 108.909 58.6577 108.671 58.7052Z" fill="black"/>
</svg>
