<svg width="256" height="364" viewBox="0 0 256 364" fill="none" xmlns="http://www.w3.org/2000/svg">
<path fill-rule="evenodd" clip-rule="evenodd" d="M57.1435 300.88C60.1332 300.337 61.2096 303.792 61.3383 305.976C62.5435 305.441 63.7986 304.833 64.8886 304.134C66.6808 302.994 68.6165 301.026 70.7334 301.079L70.8301 300.544C70.9382 299.607 72.8569 300.231 73.3747 300.561C74.2045 300.408 75.1156 299.579 75.6718 298.82C73.4325 297.997 72.4507 297.965 72.8046 295.107C72.8051 294.665 72.9156 294.253 72.7932 293.86C75.4675 282.02 75.9899 270.176 76.3262 258.109L74.9528 257.834C70.6034 269.924 66.4704 282.611 62.7624 295.537C62.6704 296.118 62.3367 296.124 62.012 295.81C60.8868 295.87 59.7992 295.821 58.6529 295.657L58.6686 295.604C58.3241 295.607 57.9812 295.589 57.6653 295.568C57.3951 297.302 57.0826 299.089 57.1435 300.88ZM58.9467 294.283C58.8709 294.246 58.0073 293.867 57.9097 293.824L57.8885 294.037C58.2599 294.18 58.6336 294.319 59.0108 294.445L59.0455 294.328L58.9467 294.283ZM95.8406 320.176C97.2981 320.525 98.8423 320.966 100.275 321.381L99.7131 320.031C102.945 311.473 105.415 302.434 107.213 293.599C108.486 287.847 109.807 281.899 111.572 276.199C113.801 267.248 118.611 258.037 128.775 257.271C128.775 257.271 128.946 256.979 128.946 256.979L129.146 256.793C129.642 250.516 130.313 244.26 130.963 238.252C125.524 239.737 120.84 239.254 115.641 239.214C113.956 238.982 111.714 239.468 110.37 238.705C110.37 238.704 109.482 237.808 109.482 237.808C103.579 261.007 102.043 284.915 99.9346 308.408C99.8628 308.942 99.4546 309.122 99.0254 308.901C98.5297 309.441 97.4978 309.233 96.7915 309.312C97.3844 312.833 96.6866 317.03 94.9657 319.962L95.8406 320.176ZM109.695 318.196C113.332 315.153 117.641 313.644 122.141 313.815C123.72 311.487 125.952 308.696 128.459 307.645C129.634 303.74 129.49 299.457 129.241 295.779C128.66 292.022 129.961 291.584 133.042 291.858C131.717 290.268 131.836 289.884 132.104 287.797C131.225 287.933 128.564 289.662 128.199 288.44C127.757 286.058 127.457 283.989 127.281 282.114C127.188 280.512 128.328 278.827 128.187 277.197C128.606 273.004 128.177 268.312 130.119 264.449C122.25 265.496 120.332 274.032 118.296 280.322C114.106 293.277 111.178 306.504 108.059 319.563L109.695 318.196ZM133.934 288.54C134.121 288.956 134.148 289.354 134.213 289.759C137.915 289.084 137.256 294.49 137.602 297.448C138.298 297.218 138.788 297.146 139.516 297.289C139.622 296.314 138.984 295.881 141.221 295.774C151.648 295.967 155.613 306.809 159.2 315.104C160.866 319.093 163.231 319.715 166.745 319.645C169.103 319.69 171.514 320.325 173.922 320.249C165.165 303.089 161.979 278.443 165.535 257.065H165.532C165.749 255.711 166.006 254.302 166.271 252.939C158.764 253.017 150.031 253.197 142.802 252.887C141.85 253.756 140.676 254.144 139.478 254.153C139.473 255.102 139.37 256.145 139.28 257.091C146.036 256.924 153.532 257.028 160.376 257.127C153.532 257.225 146.001 257.346 139.27 257.153C139.281 258.966 139.098 260.614 137.477 261.491C136.858 266.078 137.658 270.87 137.098 276.205C136.649 279.833 137.018 286.78 133.686 287.934L133.934 288.54ZM181.502 316.43L181.762 316.884C182.314 316.697 182.653 316.738 183.19 317.153C187.099 319.254 192.718 317.304 196.992 317.165C196.18 314.511 196.148 310.279 199.851 310.226C198.623 298.594 199.45 287.055 199.261 275.432C192.518 274.155 192.745 273.465 199.294 272.27C199.335 265.769 199.384 259.191 199.38 252.63C199.381 249.472 199.41 246.392 199.7 243.338C199.09 242.084 199.226 240.8 198.911 239.475C197.583 238.736 195.28 239.597 194.454 238.322C190.876 238.269 187.233 238.236 183.62 238.045C183.292 238.055 183.17 237.752 183.028 237.532C182.399 237.367 181.338 237.744 180.815 237.477C180.815 237.477 180.108 236.57 180.108 236.57C177.165 242.542 174.882 249.58 173.534 256.705C177.786 256.751 182.653 256.738 187.04 256.717C182.768 257.031 178.158 257.22 173.434 257.286C169.768 275.405 172.393 300.826 181.502 316.43ZM187.384 325.023C196.242 336.114 210.706 339.81 222.585 330.895C254.28 306.932 252.858 225.711 211.23 214.476C212.36 218.722 216.28 236.347 209.194 236.849L209.216 236.792L208.855 236.594C207.367 237.106 205.273 236.395 204.786 238.449C204.767 238.453 203.986 238.521 203.94 238.525C204.446 241.078 204.299 243.724 204.451 246.316C205.049 246.089 205.794 245.955 206.442 246.008C208.886 245.895 208.824 243.241 208.729 241.395C208.638 240.491 208.913 239.457 208.868 238.609C208.844 238.021 208.883 237.561 209.108 237.074C209.86 239.463 210.57 242.595 210.124 245.027C209.467 247.298 206.558 248.383 204.452 247.27C204.544 255.445 204.57 263.557 204.616 271.66C205.999 270.938 207.261 271.396 208.691 271.781C210.497 272.159 212.638 271.624 214.449 272.058C214.657 271.169 215.5 270.081 216.388 270.799C217.517 270.809 218.138 271.85 218.699 274.126C219.048 275.931 218.844 278.338 217.119 279.205C216.145 279.727 215.171 279.356 214.691 278.288C214.418 278.396 213.984 278.727 213.675 278.621C210.794 277.926 207.688 277.224 204.641 276.569C204.483 288.016 204.993 299.379 204.042 310.857C208.389 311.222 216.672 310.065 218.566 313.866C220.306 314.613 221.556 316.327 221.551 318.054C221.608 320.852 218.483 321.793 216.04 321.824C206.156 322.569 196.364 323.896 186.404 323.877L187.384 325.023ZM169.469 237.752C163.182 238.606 156.868 238.6 150.568 238.878C152.624 252.755 149.75 244.693 143.358 252.493C150.661 252.484 159.48 252.397 166.347 252.567C167.415 247.338 168.855 242.345 170.646 237.577L169.469 237.752ZM120.796 167.334C118.025 171.182 114.382 174.542 110.296 176.84C113.826 177.099 117.42 177.336 120.9 177.821C121.289 174.489 121.682 171.156 122.076 167.825L120.796 167.334ZM0.730392 312.952C1.05859 309.676 4.78799 308.468 7.51562 309.371C9.0468 305.327 14.2819 305.818 17.6506 304.035C24.4135 300.78 31.3345 294.414 39.1624 296.919C39.8639 295.003 40.6499 293.163 41.4955 291.557C41.1646 291.724 40.7399 291.706 40.4414 291.411L40.439 291.413C40.1479 291.082 39.8657 290.711 39.8279 290.302C38.8121 289.169 38.3865 287.377 38.1247 286.042C39.3649 281.826 40.8706 277.788 42.2119 273.616C47.417 257.711 51.079 242.934 55.0064 227.722C59.374 216.411 60.5461 186.732 76.3655 186.675C76.4166 185.884 76.444 184.973 76.6974 184.254C77.1495 184.87 77.3372 185.78 77.3988 186.562C84.1697 186.455 90.0222 187.706 94.4884 189.633C103.041 189.255 110.537 189.762 120.376 190.918C119.184 188.874 119.98 186.571 120.093 184.317C105.828 184.988 91.3283 183.68 77.1303 182.899C74.8395 182.7 72.4081 182.825 70.1967 182.253C67.7977 181.695 65.5199 178.709 67.9665 176.436C69.6219 175.414 71.6793 175.967 73.4937 175.877C82.6887 175.876 92.0982 176.056 100.95 176.378C90.051 170.867 84.5525 159.357 78.0347 149.541C74.7244 144.178 72.2524 139.665 70.2524 135.334C69.9099 134.613 69.8141 133.833 70.0197 133.436C70.0965 133.04 71.3323 132.996 71.6667 132.898C62.6029 118.817 48.6824 125.017 41.2392 116.858C42.6497 116.922 44.0588 116.988 45.468 117.055L45.7925 115.711C43.1324 114.52 40.6128 112.671 37.8596 109.887C37.8609 109.881 37.8632 109.875 37.866 109.869C42.4304 111.288 46.6851 112.321 50.8715 113.027L51.3763 111.744C47.6143 109.309 44.268 105.997 41.6974 102.165C46.4924 104.271 51.0029 107.263 55.979 109.18L56.7278 108.014C53.891 105.318 47.5326 101.276 49.3413 97.502C56.4098 100.883 62.8591 105.26 69.667 109.08C69.673 105.98 67.4794 101.106 68.811 98.5212C70.2168 96.797 70.8805 98.264 71.5905 99.6434C71.5905 99.6434 74.547 104.583 75.2708 105.792C77.9851 110.594 81.7985 115.34 81.7108 121.017C84.0706 119.89 85.9259 123.98 87.4592 126.213C91.7685 133.492 106.352 144.92 109.572 146.477C122.684 134.668 120.73 114.67 134.667 103.516C139.137 98.9836 142.441 98.4584 147.71 96.7925C148.963 96.4935 150.38 95.4383 151.501 96.4507C153.164 95.0799 154.783 90.6535 155.469 88.7624C155.893 86.933 156.601 82.4302 157.592 81.5859C158.584 80.7416 174.725 80.038 176.141 80.4602C177.557 80.8823 176.991 84.2594 176.991 84.2594L178.481 90.3827L178.609 90.347C178.633 90.3559 178.832 90.5088 178.857 90.526C179.918 90.5182 180.938 90.0197 181.957 90.0203C183.031 90.0429 183.9 90.7711 184.724 91.3946C186.195 92.5002 187.717 93.6435 189.505 94.3336C210.25 100.92 212.991 110.833 219.197 129.88C224.305 130.024 228.605 129.39 233.05 129.143C234.615 129.341 234.106 132.362 234.059 134.088C234.206 138.335 231.012 137.897 227.844 137.859C225.749 137.884 223.64 138.092 221.567 137.847C223.8 148.09 228.29 164.104 223.376 173.661C219.397 181.149 216.02 182.571 212.8 182.789C211.975 189.957 212.797 196.376 212.647 203.308C260.121 216.023 262.306 289.83 241.086 325.767C224.047 355.132 192.001 353.523 176.117 324.297C172.276 326.379 164.66 326.235 159.589 325.779C155.598 325.546 154.288 323.864 152.862 320.181C151.269 316.599 149.755 313.065 148.134 309.485C146.586 305.698 143.493 301.346 137.913 301.516C137.939 303.748 138.356 306.262 136.837 308.034C142.497 309.946 139.095 318.857 137.45 323.019C145.223 333.558 142.604 352.029 131.731 359.673C113.772 371.654 96.4371 348.995 101.683 331.635C100.823 332.039 99.2271 332.598 98.5403 331.716C98.2606 331.511 98.6471 330.598 98.7159 330.301C86.6714 329.598 74.8551 328.19 62.9124 327.076C63.3182 338.102 52.3159 348.968 41.2761 348.724C26.8696 349.388 18.2377 330.52 22.5956 318.303C17.086 318.15 11.4938 317.69 5.74956 316.916C2.60863 316.605 0.607056 315.865 0.730392 312.952Z" fill="white"/>
<path fill-rule="evenodd" clip-rule="evenodd" d="M177.503 84.8226C177.844 84.9338 177.806 84.2063 177.329 84.2796C176.933 84.3409 176.786 84.8695 176.714 85.205L176.703 85.259C176.042 88.3384 176.804 91.5914 178.358 94.2942C178.748 94.9263 179.153 95.7938 179.926 95.9631C179.559 98.5677 179.056 101.151 178.433 103.706C176.212 104.48 174.12 105.627 171.903 106.421C167.636 107.929 163.069 108.332 158.579 108.653C155.49 108.82 152.313 108.685 149.379 107.632C148.138 107.296 147.086 106.194 145.784 106.197C146.657 103.826 147.624 101.49 148.698 99.1967C152.035 99.1957 154.556 95.977 155.548 93.1164C155.909 91.9767 156.014 90.782 156.243 89.6141L156.328 89.1779C156.403 88.7893 156.471 88.3983 156.501 88.0043C156.511 87.858 156.293 86.5733 156.344 86.3903C156.349 86.4437 156.419 86.4013 156.451 86.3986C156.539 86.2906 156.462 86.0737 156.288 86.082C156.007 86.0737 155.866 86.683 155.803 86.8491C154.449 89.6107 153.933 93.005 151.516 95.0784C150.31 94.3217 148.824 95.3126 147.597 95.6164L147.242 95.728C141.508 97.5235 138.855 97.9586 134.25 102.519C126.383 108.619 124.065 116.404 120.968 125.372L120.785 125.859C117.808 133.755 115.405 138.653 109.481 145.121C107.331 144.124 93.9744 133.507 89.3892 127.269L89.2529 127.082C87.9323 125.294 84.926 119.036 82.4649 119.631C82.2439 114.13 78.5625 109.576 75.9659 104.942L72.2803 98.7844C71.9249 98.1904 71.5851 97.3716 71.081 96.8888C70.2244 96.0686 68.8013 96.8228 68.2887 97.6545C66.8786 100.016 68.6533 104.529 68.9147 107.288C62.5954 103.65 56.4441 99.6708 49.913 96.412C49.3636 96.1488 48.6783 96.35 48.5039 96.9819C47.4003 101.518 53.4185 105.314 56.3243 108.028C51.5705 106.129 47.1111 103.426 42.5103 101.163L42.2033 101.013C41.5789 100.691 40.7336 101.376 41.1754 102.035C43.7793 105.923 47.1449 109.293 51.0712 111.834C46.6904 111.095 42.3803 110.012 38.1255 108.688C37.433 108.473 36.9389 109.386 37.4303 109.875L37.662 110.108C39.988 112.429 42.5547 114.497 45.5831 115.853C44.1686 115.785 42.754 115.719 41.3381 115.656C40.6359 115.625 40.4023 116.481 40.8014 116.944C42.3747 118.763 44.4915 119.944 46.751 120.719C56.2058 123.246 64.1434 123.03 70.5217 131.903C68.9257 132.188 69.1586 133.958 69.6623 135.068L69.6934 135.135C71.9709 140.067 74.6661 144.799 77.5202 149.422C83.6327 158.447 88.6535 169.295 98.329 175.083C92.0817 174.872 85.8314 174.75 79.5794 174.699C77.8474 174.685 76.1154 174.677 74.3834 174.674L73.0844 174.674C71.3671 174.674 69.1002 174.315 67.6191 175.376C64.7735 177.651 66.9935 181.845 70.1451 182.444C72.1305 182.975 74.2759 182.895 76.3129 183.049C75.9246 183.795 75.8289 184.713 75.7791 185.512C68.6223 185.955 64.4447 191.536 62.4933 197.917C58.5803 210.136 55.5829 222.627 52.3383 235.033L51.9707 236.472C48.8398 248.702 45.548 260.896 41.62 272.899C40.2833 277.056 38.757 281.157 37.5266 285.346C37.4168 285.718 37.4981 286.059 37.6857 286.33C37.9179 287.966 38.9688 290.711 40.7377 291.145C40.0122 292.563 39.3597 294.099 38.8051 295.575C30.8249 293.465 24.123 299.697 17.4148 302.906C14.0367 304.664 9.11157 304.172 7.21169 308.051C4.14864 307.289 0.417099 308.984 0.106598 312.389C-0.163849 315.895 2.83664 316.909 5.7802 317.119C11.0738 317.834 16.398 318.302 21.7376 318.477C18.7218 328.584 23.7202 343.299 34.0275 347.455C47.5857 353.142 63.3358 341.501 63.6828 327.349C75.0697 328.421 86.4582 329.757 97.8703 330.45C97.3979 332.066 99.5524 332.736 100.79 332.262C97.7735 345.881 106.68 363.172 121.507 363.117C140.613 362.989 148.336 336.564 138.329 322.424L138.424 322.179C140.016 318.088 143.011 309.672 137.952 307.249C139.02 305.627 138.752 303.587 138.717 301.754C143.403 301.965 145.825 305.314 147.566 309.268C149.171 312.809 150.7 316.383 152.283 319.934C153.773 323.784 155.244 325.726 159.628 325.982L160.078 326.015C164.971 326.368 171.475 326.659 175.89 324.704C186.369 343.761 208.356 355.065 227.386 341.404C266.451 314.599 265.012 214.146 213.431 202.248C213.41 200.334 213.382 198.42 213.348 196.504C213.459 195.285 213.435 194.067 213.324 192.83L213.3 192.325C213.159 189.203 213.126 186.048 213.513 182.945C219.772 182.44 223.564 174.478 224.195 173.273C229.02 164.065 224.557 147.027 222.549 138.125C224.497 138.279 226.278 138.043 228.182 138.065L228.842 138.076C232.381 138.131 234.758 137.984 234.848 133.596C234.843 131.814 235.64 128.51 233.283 127.957C232.218 127.745 230.961 128.12 229.895 128.225C226.529 128.496 223.159 128.701 219.782 128.68C216.853 120.335 214.56 111.404 208.982 104.338C204.243 98.3603 196.664 96.0061 189.85 93.1812C188.001 92.4693 186.439 91.2362 184.846 90.0444L184.736 89.9595C183.945 89.3552 183.085 88.8452 182.057 88.8178C181.058 88.7912 180.129 89.2415 179.151 89.3072C178.979 89.1796 178.755 89.0995 178.56 89.1537C178.04 87.7219 177.655 86.234 177.465 84.7257L177.481 84.6562C177.51 84.5413 177.521 84.5704 177.513 84.7452C177.467 84.7452 177.461 84.8087 177.503 84.8226ZM121.508 315.415C123.66 315.415 125.726 315.869 127.647 316.699C128.093 319.163 126.055 322.619 125.37 325.101C125.342 326.126 125.155 327.171 124.913 328.185C124.743 331.144 123.483 333.857 122.899 336.657C122.791 337.189 121.972 336.964 122.08 336.433C122.592 333.921 123.276 331.451 123.865 328.957C123.589 329.123 123.12 328.899 123.222 328.49C123.44 327.608 123.44 326.716 123.405 325.821C108.832 327.651 109.685 351.738 124.551 352.07C134.199 352.31 139.576 339.159 134.122 331.284C135.017 329.371 135.987 327.491 136.904 325.573C144.716 338.566 136.535 360.708 121.508 360.302C97.2744 359.622 97.2635 316.101 121.508 315.415ZM34.0151 318.246C31.1386 323.578 31.4456 330.742 35.0938 335.657C39.2204 341.244 48.2261 340.59 52.2691 335.229C53.8671 333.317 55.0983 330.977 55.1703 328.449C55.176 327.892 54.8134 326.905 55.302 326.468L58.4265 326.8C59.9889 326.966 61.5513 327.13 63.1136 327.29C58.5862 339.32 47.4595 350.214 33.8745 344.189C25.4555 339.572 22.3361 328.542 23.5641 319.542C23.6334 319.111 23.4764 318.758 23.2215 318.52C26.8194 318.603 30.4322 318.621 34.0151 318.246ZM181.599 226.945C205.611 189.183 237.242 213.632 245.338 248.29C251.419 272.154 249.261 301.287 236.565 322.411C221.656 347.566 196.494 347.537 181.599 322.411C170.327 303.659 167.362 278.585 171.095 256.497C171.093 256.695 171.163 256.893 171.307 257.052C166.919 283.567 171.856 316.375 193.003 332.486C208.613 343.941 226.867 334.575 235.63 318.882C252.591 290.429 251.285 238.257 223.462 216.87C215.52 211.241 206.193 210.172 197.591 214.196C197.503 213.665 197.172 214.251 197.043 214.461C182.242 222.274 174.927 239.055 171.545 255.759C171.341 255.872 171.204 256.044 171.139 256.236C171.602 253.536 172.166 250.882 172.826 248.29C174.895 240.275 177.847 233.094 181.599 226.945ZM127.197 338.084C128.478 337.271 127.868 339.709 127.424 340.162C127.104 340.61 126.47 340.231 126.69 339.736C126.963 339.339 126.477 338.131 127.197 338.084ZM212.303 214.984C248.225 225.018 250.577 290.963 233.199 317.436C225.2 331.695 208.947 340.673 194.637 330.188C192.292 328.541 190.076 326.493 188.005 324.069C197.205 323.994 206.388 322.768 215.569 322.079L215.777 322.06C217.167 321.94 218.593 321.875 219.874 321.278C223.758 319.387 222.699 314.531 219.171 312.837C217.238 309.05 208.703 309.894 204.885 309.693C205.742 298.805 205.297 287.853 205.421 276.941C208.151 277.532 210.872 278.151 213.589 278.805C213.912 278.884 214.239 278.838 214.515 278.701C215.178 279.742 216.479 279.859 217.521 279.333C219.629 278.273 219.87 275.517 219.472 273.48L219.431 273.304C219.083 271.865 218.388 269.721 216.693 269.61C215.624 268.948 214.461 269.729 214.071 270.769C212.281 270.472 210.658 270.941 208.912 270.592C207.756 270.359 206.589 269.771 205.399 270.177C205.358 262.702 205.332 255.227 205.252 247.753C207.496 248.5 210.234 246.955 210.885 244.724C211.325 243.24 210.936 241.537 210.729 240.047L210.69 239.768C210.557 238.834 210.391 237.857 210.072 236.951C215.124 236.258 214.09 225.732 213.707 222.013C213.236 219.574 212.943 217.455 212.303 214.984ZM128.88 257.423C131.124 257.402 132.727 259.817 131.432 261.74C128.825 264.666 125.058 262.028 121.019 269.916C114.317 285.702 111.225 302.778 107.054 319.345C104.956 321.513 103.682 324.27 102.142 326.845C101.574 327.814 101.4 329.18 100.368 329.793C100.168 329.886 100.008 329.901 99.8511 329.877C101.993 328.697 101.544 322.868 101.103 320.748L101.122 320.749C101.316 320.762 102.028 320.916 101.702 320.582L101.355 320.471L101.008 320.361L100.984 320.275C107.01 306.365 108.32 290.835 112.638 276.35L113.023 275.064C114.515 270.113 116.238 264.935 120.013 261.259C120.157 261.251 120.305 261.198 120.44 261.085L120.575 260.967C122.804 259.05 125.542 257.503 128.591 257.782C128.713 257.791 128.733 257.605 128.62 257.576C128.548 257.557 128.477 257.543 128.405 257.527C128.564 257.495 128.722 257.46 128.88 257.423ZM139.597 296.734C140.24 296.988 140.894 296.81 141.621 296.826C142.381 296.845 143.12 296.97 143.851 297.177C155.853 300.629 154.083 318.563 162.823 320.644C165.007 321.066 167.206 320.74 169.397 320.448C170.795 320.498 172.079 320.455 173.417 320.168C174.045 321.423 174.704 322.647 175.389 323.843C173.796 323.596 172.174 323.66 170.565 323.632C166.78 323.691 162.996 323.537 159.238 323.068C157.9 322.918 156.665 322.547 155.873 321.394C154.086 318.391 152.863 315.053 151.256 311.949L151.045 311.475C148.744 306.331 145.701 300.158 139.229 300.143C139.192 299.772 138.901 299.473 138.569 299.382C138.533 298.847 138.496 298.312 138.456 297.776C138.83 297.419 139.106 296.959 139.597 296.734ZM219.482 314.24C220.183 315.411 220.11 317.465 218.855 318.277C218.004 318.758 216.791 318.704 215.848 318.772L214.223 318.891C213.682 318.93 213.141 318.971 212.6 319.013L211.788 319.077C204.046 319.691 196.312 320.361 188.58 321.06L188.545 321.047C188.437 321.009 188.268 320.955 188.268 320.955L188.148 320.9C187.976 320.818 188.184 320.892 188.205 320.902L188.206 320.903C187.344 320.351 186.415 320.983 186.211 321.82C185.438 320.79 184.689 319.705 183.964 318.562C184.983 318.859 186.065 318.903 187.118 318.837C187.843 319.655 189.144 319.355 190.112 319.336C196.952 318.793 203.773 318.008 210.592 317.248C212.323 317.047 214.056 316.844 215.788 316.642L216.179 316.606C217.71 316.462 219.551 316.17 219.482 314.24ZM70.5869 300.911C71.3047 301.688 72.6796 301.899 73.5957 302.352C74.6534 302.877 75.6628 303.513 76.5693 304.268C80.6735 308.048 84.851 314.061 91.2763 311.404C92.6263 310.885 93.8846 310.058 94.7285 308.872C95.104 309.057 95.5392 308.704 95.9197 308.656C95.5905 310.419 95.4519 312.094 94.952 313.816C94.7354 314.57 94.4904 315.318 94.1889 316.042C93.8783 316.784 93.3183 317.535 93.3393 318.365C88.4712 317.332 83.5499 316.667 78.6151 316.066C76.7623 315.999 73.6328 315.01 72.0991 315.95C70.2817 317.074 71.0969 319.155 70.1281 319.928C68.649 320.646 66.738 320.104 65.137 320.061C58.1624 319.472 51.1232 319.081 44.1601 318.5C39.9782 317.738 42.7142 316.462 40.9133 315.441C40.9201 309.049 48.6496 309.723 53.1837 309.158C54.5509 309.701 55.9332 310.202 57.3322 310.658C58.0223 310.883 58.4989 309.965 58.021 309.482L57.0493 308.501C57.7123 308.352 58.371 308.184 59.0228 307.992C59.9403 308.406 60.9046 308.714 61.8031 309.172L61.9707 309.259C62.5837 309.588 63.3061 308.919 62.9393 308.297C62.6552 307.815 62.43 307.321 62.2549 306.806C63.1131 306.42 63.9462 305.98 64.7388 305.477L64.8967 305.376L67.4711 306.805C67.9751 307.085 68.7333 306.613 68.5111 306.011C68.2473 305.18 67.4675 304.828 66.8743 304.271C66.9407 304.129 66.9798 303.94 66.9478 303.796C68.1066 302.788 69.1177 301.501 70.5869 300.911ZM36.2791 320.175L36.3612 320.188C36.3556 320.198 36.3513 320.206 36.3457 320.214L36.3103 320.21L36.3443 320.216C36.3216 320.249 36.2904 320.275 36.2508 320.285C36.2588 320.26 36.266 320.236 36.2717 320.212L36.2791 320.175ZM130.233 238.681L130.025 240.604C129.476 245.731 128.953 250.833 128.543 255.966C128.489 256.016 128.445 256.075 128.408 256.138L127.189 256.357C125.063 256.743 123.301 257.143 121.373 258.594C114.949 262.011 112.796 269.533 110.826 275.987C106.507 290.138 105.021 305.082 99.1828 318.766C99.0115 319.162 99.0214 319.515 99.1403 319.801C98.1293 319.511 97.1127 319.242 96.0904 318.993C97.4642 316.364 98.0571 312.426 97.6744 309.486L97.824 309.482C98.301 309.47 98.877 309.468 99.2581 309.175C100.01 309.385 100.647 308.673 100.719 307.996L100.722 307.964C102.802 284.781 104.313 261.362 109.947 238.699C110.679 239.438 112.003 239.268 112.988 239.311L113.04 239.314C113.928 239.356 114.817 239.39 115.707 239.418L116.092 239.423C120.789 239.49 125.628 239.828 130.233 238.681ZM164.785 257.277C161.54 277.565 164.411 301.918 172.856 319.023C170.814 318.981 168.827 318.436 166.789 318.443C163.162 318.502 161.392 317.765 159.934 314.331C156.431 306.392 152.932 296.195 143.052 294.687L142.59 294.643C141.21 294.515 138.89 294.374 138.889 296C138.711 295.98 138.506 295.999 138.323 296.048C138.293 295.668 138.264 295.288 138.232 294.91L138.207 294.161C138.12 291.797 137.866 288.525 134.902 288.551C134.863 288.291 134.776 288.032 134.671 287.776C137.655 286.312 137.551 278.794 137.886 275.766C138.159 271.457 138.137 267.133 138.038 262.819C138.027 262.391 137.945 261.821 138.112 261.472C139.651 260.47 139.988 259.163 140.039 257.374C148.277 257.582 156.541 257.361 164.785 257.277ZM128.97 264.974C128.25 266.589 128.201 268.453 127.993 270.192C127.82 272.262 127.698 274.332 127.576 276.404L127.55 276.879C127.508 277.603 127.448 278.306 127.183 278.998L127.121 279.16C126.809 279.991 126.571 280.763 126.657 281.68C126.858 283.824 127.198 285.994 127.592 288.111C128.142 289.905 130.192 288.761 131.358 288.343L131.346 288.462C131.268 289.237 131.27 290.012 131.705 290.61C128.486 290.506 128.256 292.809 128.621 295.378L128.643 295.717C128.867 299.337 128.942 303.131 127.95 306.633C126.277 307.35 125.062 308.699 123.898 310.035C123.212 310.827 122.356 311.669 121.816 312.605C117.274 312.524 112.944 314.129 109.321 317.158L109.749 315.352C112.551 303.511 115.295 291.639 119.047 280.052C120.945 274.57 122.427 266.568 128.97 264.974ZM198.75 255.697C198.74 260.852 198.704 266.004 198.671 271.159C197.115 271.377 195.613 271.824 194.164 272.469C193.245 272.877 193.667 274.115 194.418 274.398C195.785 274.913 197.215 275.21 198.644 275.507C198.791 286.71 198.044 297.968 199.161 309.13C195.804 309.63 195.559 313.394 196.195 316.037C192.477 316.363 188.73 317.296 185.002 316.643C183.903 316.583 183.204 315.352 182.198 315.582C173.416 300.265 170.551 276.4 174.105 257.481C182.336 257.349 190.598 256.845 198.75 255.697ZM201.002 276.001C201.78 276.164 202.558 276.329 203.336 276.493C203.452 287.565 202.983 298.685 203.862 309.73C203.533 309.713 203.601 309.929 203.882 309.948C203.899 310.137 203.917 310.325 203.935 310.514C203.988 311.074 204.758 311.072 204.81 310.514C204.822 310.4 204.832 310.287 204.842 310.173C206.325 310.497 207.832 310.726 209.327 310.975C211.53 311.516 216.825 311.164 217.221 314.014L215.508 314.163C209.727 314.665 204.649 315.138 198.917 315.74C198.631 313.989 197.269 311.404 199.417 310.293C199.727 310.585 200.325 310.455 200.376 309.899C201.561 298.646 200.837 287.297 201.002 276.001ZM30.6716 298.805C37.5186 296.083 41.0788 299.256 46.5643 302.74C49.3978 304.333 53.2628 305.026 56.1147 303.174C57.4245 303.25 58.0366 301.819 57.9284 300.678C57.9299 300.599 57.9314 300.522 57.9314 300.444C59.5264 301.399 58.5388 304.049 58.8785 305.614C55.6236 306.63 52.236 306.878 48.8553 307.121C44.4747 307.218 39.192 309.359 38.6776 314.224L38.6635 314.372L38.3279 314.362C38.3279 313.87 38.0157 313.363 37.3952 313.314L37.3552 313.311C28.3051 312.744 19.16 312.774 10.1554 311.86C9.07346 311.555 8.68706 310.846 8.97733 309.793C9.67523 307.259 13.2492 307.135 15.3546 306.545C17.8911 305.835 20.168 304.591 22.401 303.256C23.3529 303.521 24.3151 303.744 25.2858 303.931C25.7567 304.022 26.373 303.609 26.1567 303.066L25.9994 302.669C25.8406 302.275 25.6463 301.825 25.3993 301.444C26.1265 301.012 26.8594 300.592 27.6052 300.199C28.8692 300.643 30.0666 301.226 31.2037 301.947C31.8909 302.382 32.5932 301.423 32.0798 300.861L32.0616 300.842C31.4682 300.236 31.0078 299.555 30.6716 298.805ZM76.1401 299.638C82.2429 302.603 88.717 304.814 94.9595 307.494L94.8336 307.54C94.6149 307.623 94.3656 307.733 94.2851 307.93C91.9373 309.779 88.6357 310.532 85.8489 309.219C81.8289 307.075 79.8344 302.458 75.7224 300.372C75.8909 300.14 76.0325 299.892 76.1401 299.638ZM134.157 291.455C134.359 291.422 134.952 291.163 135.11 291.231C135.515 292.236 135.527 293.424 135.639 294.496C136.015 298.678 136.789 302.813 137.217 306.982C135.097 306.402 132.917 306.058 130.735 306.011C130.913 304.718 131.056 303.433 131.132 302.133C131.272 299.602 131.169 297.051 130.788 294.544L130.761 294.408C130.348 292.227 130.677 292.129 132.744 291.361C133.189 291.512 133.685 291.537 134.157 291.455ZM87.5708 192.811C91.1045 189.455 96.3729 189.863 100.907 189.845C110.575 189.842 120.222 190.717 129.757 192.268C130.027 192.739 130.785 192.846 131.151 192.496C133.777 192.932 136.393 193.41 139.004 193.921C138.282 198.46 137.706 203.025 137.062 207.576L137.02 207.856C136.736 209.831 136.597 212.042 137.948 213.672C137.986 218.714 138.18 223.774 138.198 228.824C137.455 228.12 136.254 228.2 135.297 228.026C133.337 227.578 131.471 227.255 129.483 227.145C127.483 226.841 125.482 226.537 123.48 226.234C123.171 226.187 122.924 226.319 122.769 226.517C120.208 226.217 117.657 225.705 115.086 225.54L115.238 225.085C115.998 222.802 116.693 220.324 115.6 218.054C115.34 217.522 114.493 217.553 114.224 218.054C113.282 219.811 113.242 221.813 112.88 223.733C112.672 224.834 112.242 226.005 112.042 227.166C110.98 228.913 110.45 230.961 109.758 232.875C102.202 256.578 101.293 281.675 98.4479 306.213C94.0345 304.393 89.5659 302.687 85.1367 300.907C81.9546 299.361 74.7345 298.149 75.0901 293.683C75.0735 293.316 75.095 292.953 75.1371 292.592C75.0504 292.449 74.9289 292.329 74.7865 292.238C76.2478 286.524 76.8666 280.623 77.2403 274.751C78.2117 258.61 78.6916 242.439 79.1869 226.278L79.2102 225.594C79.5843 214.384 79.7048 201.638 87.5708 192.811ZM75.7006 257.572C75.1217 268.341 75.378 279.262 72.7887 289.806L72.7093 290.126C72.459 291.137 71.7938 292.562 72.2163 293.62C72.2316 294.913 71.7733 296.928 72.8914 297.842C73.3693 298.189 73.9844 298.404 74.5608 298.622C74.2811 298.946 73.8898 299.169 73.5035 299.302L73.4389 299.271C72.367 298.771 70.4837 298.432 70.2145 299.921C68.1869 300.08 66.2258 302.009 64.5904 303.04C63.7536 303.568 62.8871 304.032 61.9965 304.439C61.7137 302.3 60.4547 299.589 57.9328 299.657C57.9328 298.363 58.1544 297.087 58.3492 295.811C59.5216 295.997 60.6926 296.075 61.8781 296.024C62.6649 296.589 63.4442 295.967 63.5466 295.121C67.1806 282.555 71.2419 269.938 75.7006 257.572ZM42.737 290.293C47.5774 291.803 52.8905 291.836 57.5377 293.916C56.1429 295.905 55.6059 298.308 55.2652 300.669C54.9466 300.917 54.7328 301.308 54.7158 301.732C54.7072 301.88 54.7209 302.03 54.7654 302.171C49.5944 303.246 45.802 298.889 41.6426 296.687C42.2097 294.627 42.4818 292.423 42.737 290.293ZM55.251 300.861L55.2495 300.89C55.2567 301.129 55.0684 301.053 55.251 300.861ZM58.5997 294.362C58.6787 294.397 58.757 294.435 58.836 294.47C58.7543 294.458 58.6726 294.447 58.591 294.433C58.5939 294.41 58.5973 294.386 58.5997 294.362ZM70.6251 190.033C76.2684 186.239 87.5241 188.012 94.2115 188.458C80.9998 189.453 78.8132 207.491 77.764 217.872C76.9203 229.023 76.6066 240.214 75.9897 251.381C70.7285 265.349 66.4589 279.676 61.9597 293.901C58.3052 291.865 54.3094 290.57 50.1721 289.899L49.5754 289.813C46.11 289.309 42.587 288.679 39.7325 286.529C49.9529 261.721 54.231 234.94 62.0017 209.34C64.2836 202.934 65.0373 194.53 70.6251 190.033ZM40.4306 289.271C40.6247 289.386 40.8245 289.493 41.0281 289.594C40.9208 289.57 40.8067 289.566 40.6917 289.582C40.6032 289.482 40.5083 289.367 40.4306 289.271ZM133.228 235.692C134.162 234.139 136.224 232.731 138.052 233.406C135.298 235.078 135.896 239.912 135.693 242.739L135.698 242.898C135.765 245.566 135.537 251.196 137.013 253.098C136.91 254.325 136.908 255.596 136.783 256.83C136.744 257.282 136.834 258.126 136.566 258.526C133.612 260.171 135.044 264.117 134.868 266.856C135.002 272.099 134.633 277.333 134.48 282.571C134.49 283.925 134.622 285.369 134.169 286.665C133.588 285.433 131.934 285.516 131.575 286.764C131.285 286.386 130.703 286.356 130.204 286.423C130.029 284.762 129.758 283.101 129.7 281.438C129.672 280.611 130.162 279.929 130.342 279.139C130.703 276.138 130.292 273.072 130.255 270.054L130.246 269.964C130.13 268.716 130.04 265.627 129.331 264.87C133.918 264.051 135.37 258.309 130.892 256.188C130.954 255.908 130.895 255.612 130.701 255.4C131.082 250.858 131.576 246.321 132.008 241.781C132.194 239.736 132.186 237.527 133.228 235.692ZM216.43 274.398C216.084 273.931 216.832 273.427 217.136 273.922C217.45 274.451 217.633 275.098 217.505 275.707C217.434 276.044 216.878 276.138 216.729 275.807C216.6 275.536 216.555 275.245 216.491 274.954C216.319 274.822 216.317 274.573 216.43 274.398ZM213.818 271.655C213.804 271.736 213.792 271.817 213.78 271.899C213.653 271.852 213.521 271.815 213.385 271.781C213.53 271.741 213.674 271.699 213.818 271.655ZM202.692 238.219C203.041 238.436 203.453 238.572 203.884 238.636C203.096 249.367 203.543 260.173 203.353 270.931C202.577 271.108 201.767 270.96 200.979 271.021C200.786 261.632 201.147 252.25 200.541 242.868C201.07 241.525 201.408 239.895 201.016 238.465C201.582 238.41 202.143 238.33 202.692 238.219ZM143.126 253.101C150.111 253.373 157.144 253.253 164.14 253.167C164.581 253.154 165.036 253.152 165.496 253.149C165.316 254.087 165.148 255.033 164.992 255.983C156.712 255.888 148.413 255.694 140.138 255.872L140.173 255.487C140.208 255.099 140.24 254.702 140.25 254.307C141.278 254.229 142.283 253.791 143.126 253.101ZM180.336 237.408C180.845 238.061 181.959 237.642 182.697 237.704C182.885 238.004 183.208 238.225 183.664 238.249C187.174 238.434 190.691 238.471 194.207 238.522C195.232 239.704 197.055 239.022 198.375 239.501C198.537 240.318 198.545 241.167 198.732 241.987C198.811 242.322 198.929 242.639 199.06 242.95C198.774 246.055 198.753 249.203 198.753 252.317C197.016 251.813 195.136 251.898 193.341 251.784C189.449 251.685 185.556 251.724 181.663 251.716C179.943 251.685 177.998 251.789 176.321 251.767C175.891 251.613 175.283 251.858 175.195 252.351C174.873 253.608 176.305 253.701 177.16 253.639C178.193 253.616 179.225 253.594 180.256 253.572C184.478 253.468 188.701 253.391 192.92 253.202C194.854 253.044 196.887 253.095 198.753 252.518L198.752 254.864C198.752 255.097 198.751 255.312 198.75 255.492C190.66 255.46 182.566 255.583 174.474 255.51C175.715 249.245 177.746 242.855 180.336 237.408ZM75.8555 254.207C75.8884 254.619 75.7411 254.965 75.5468 255.32C75.6505 254.949 75.7547 254.578 75.8555 254.207ZM169.656 237.949C168.104 242.201 166.834 246.69 165.856 251.352C158.891 251.201 151.938 251.275 144.974 251.287C147.54 248.29 150.263 249.113 151.541 247.208C152.467 245.731 151.693 240.892 151.451 239.049C156.874 238.821 162.321 238.794 167.719 238.182C168.331 238.102 168.996 238.047 169.656 237.949ZM207.999 236.329C208.128 236.436 208.268 236.532 208.417 236.614C208.044 237.586 208.426 238.566 208.097 239.556C208.083 240.726 208.143 241.904 208.084 243.016C208.089 244.075 207.427 244.739 206.473 244.807C206.127 244.827 205.67 244.747 205.198 244.886C205.105 242.814 205.186 240.708 204.844 238.66C205.063 238.64 205.278 238.603 205.483 238.551C205.515 237.576 206.473 236.636 207.457 237.134C207.654 236.874 207.833 236.6 207.999 236.329ZM144.59 235.593C144.886 235.628 145.174 235.694 145.451 235.806C145.386 238.451 141.543 236.594 141.018 239.84C140.931 240.604 141.025 241.373 141.051 242.14C141.063 242.532 141.373 243.147 140.944 243.376C140.723 243.696 140.117 243.633 140.17 243.174C140.18 243.09 140.187 243.004 140.193 242.917C140.004 242.584 139.889 242.234 139.827 241.873C139.599 241.756 139.667 241.455 139.768 241.243C139.827 240.784 139.635 239.974 140.141 239.729C140.193 236.677 141.332 236.192 144.184 235.944C144.377 235.923 144.5 236.018 144.555 236.151C144.631 235.987 144.628 235.792 144.59 235.593ZM147.117 195.424C149.158 196.07 151.437 196.204 153.556 196.607C167.24 198.512 180.388 204.123 194.343 203.972C194.82 203.95 195.267 203.879 195.686 203.765C195.685 203.982 195.655 204.204 195.608 204.42C195.346 204.642 195.184 204.992 195.133 205.347C184.658 210.626 176.752 221.353 171.793 232.645C165.648 231.814 159.509 230.871 153.352 230.107L152.234 229.963L149.999 229.678C148.91 229.541 147.697 229.198 146.615 229.427C146.121 224.517 146.12 219.729 145.748 214.789C146.836 213.923 146.579 212.076 146.623 210.8C146.871 205.677 146.893 200.546 147.117 195.424ZM140.056 215.064C140.427 215.162 140.809 215.197 141.168 215.145C142.124 215.609 143.539 215.369 144.598 215.26C144.475 216.4 144.369 217.543 144.324 218.688C144.145 223.154 144.216 227.713 144.62 232.177C143.169 232.278 141.718 232.455 140.27 232.572C140.256 226.747 139.983 220.897 140.056 215.064ZM195.334 218.694C194.18 223.475 188.95 230.79 183.693 231.227C186.893 226.08 190.572 222.023 194.637 219.168C194.869 219.005 195.1 218.848 195.334 218.694ZM148.383 182.598C148.55 182.602 148.717 182.603 148.884 182.6C147.879 184.054 148.058 186.318 149.274 187.597C145.029 190.212 145.163 196.061 145.02 200.45C144.851 204.697 144.624 208.934 144.446 213.176C144.446 213.099 144.191 213.207 144.1 213.223C143.526 213.297 142.944 213.322 142.364 213.297C141.488 212.95 140.333 212.943 139.729 212.103C139.013 211.148 139.177 209.722 139.3 208.617C139.599 205.944 140.002 203.28 140.342 200.612C141.278 194.911 141.16 183.822 148.383 182.598ZM149.965 188.211C153.374 190.338 157.858 189.509 161.708 189.745C164.522 189.785 167.337 189.798 170.151 189.788C179.632 189.735 189.107 189.359 198.579 188.971L198.558 189.362C198.384 192.492 198.061 195.625 197.145 198.632C196.624 200.692 195.846 201.456 193.666 201.273C182.017 201.102 170.964 196.971 159.61 194.896C155.551 194.224 151.425 193.65 147.351 193.174L147.396 192.921C147.722 191.12 148.25 189.086 149.965 188.211ZM147.487 97.3294C147.326 97.631 147.232 97.9024 147.304 98.1834C133.66 127.232 137.263 160.272 130.06 190.908C129.918 190.991 129.838 191.122 129.764 191.26C127.435 190.796 125.088 190.393 122.734 190.044C123.003 189.354 122.588 188.729 122.114 188.28C122.107 188.211 122.012 187.994 122.006 187.994C122.894 177.128 124.186 166.264 125.298 155.409C125.993 147.844 127.259 140.21 126.916 132.606C126.904 132.518 126.788 132.544 126.762 132.606C124.925 139.177 123.863 149.151 122.027 162.414C108.774 177.871 100.966 180.576 88.2206 162.661L87.5663 161.704C81.6093 152.98 75.7973 144.088 71.2764 134.533C76.9317 134.352 79.9846 128.442 82.4013 124.107C82.8099 123.888 83.0825 123.556 83.3061 123.11C85.2208 125.484 86.7364 128.412 88.6754 130.823C93.4885 137.114 104.545 144.914 104.787 145.164L104.833 145.206C105.56 145.867 107.749 148.366 108.426 148.298C111.375 151.017 117.931 138.356 118.72 135.971C120.642 131.324 122.193 129.896 123.861 125.157L124.148 124.303C126.446 117.456 128.755 110.242 134.506 105.456L134.731 105.218C138.412 101.343 141.991 98.3209 147.487 97.3294ZM77.1681 183.102C78.802 183.201 80.4374 183.298 82.0714 183.396L83.5832 183.485C95.5109 184.195 107.464 185.073 119.415 184.555C119.302 186.226 118.715 187.958 119.363 189.583C111.117 188.624 102.817 188.033 94.5358 188.43C89.6144 186.118 83.6415 185.392 78.1082 185.363C78.0149 184.594 77.6942 183.725 77.1681 183.102ZM161.047 169.972C169.073 166.407 176.923 170.036 179.747 178.656C179.549 178.818 179.413 179.103 179.379 179.391C178.636 180.378 177.273 180.347 176.156 180.487C173.911 180.782 171.733 181.503 169.748 182.594C168.652 183.189 167.71 184.05 166.579 184.57L165.97 185.138C164.954 186.084 163.912 186.994 162.565 187.494C161.171 187.566 162.972 184.863 163.265 184.338L163.374 184.163C163.962 183.236 164.717 182.18 163.913 181.127C162.448 181.825 161.268 182.833 160.09 183.957L159.877 184.163C158.73 185.278 157.412 186.678 155.765 186.861C155.487 186.891 155.285 186.566 155.355 186.326C156.094 183.889 158.255 182.185 160.266 180.722C160.249 180.028 159.764 179.496 159.128 179.345C156.306 180.962 154.335 183.523 151.575 185.182C151.277 185.357 150.965 185.125 150.936 184.817C150.953 182.66 153.163 181.007 154.687 179.73C155.004 179.486 155.328 179.25 155.658 179.022C155.583 178.59 155.186 178.212 154.689 178.142C153.784 178.398 148.356 182.59 148.341 180.653L148.351 180.6C148.496 179.918 149.283 178.439 150.043 178.622C152.856 175.166 156.895 171.572 161.047 169.972ZM182.15 90.7426C184.986 92.3624 187.707 94.1161 190.546 95.7196C194.166 97.7825 198.054 99.3838 201.532 101.693C212.122 109.456 215.192 125.82 219.044 137.755L219.589 140.072C221.797 149.47 225.111 164.44 221.112 172.099L221.084 172.16C220.584 173.213 218.209 177.486 216.986 178.245C213.401 180.47 205.903 181.226 199.387 180.791C193.184 180.504 187.076 179.323 181.022 178.082C180.883 176.008 179.863 174.274 178.789 172.585L178.678 172.41L178.554 172.227C177.035 170.008 175.322 168.21 172.813 167.23C181.195 164.735 194.994 167.947 204.337 161.413C205.083 160.892 204.432 159.786 203.623 160.198C203.136 160.446 202.641 160.673 202.14 160.884C202.581 159.301 201.431 158.359 200.745 156.985L200.717 156.93C194.817 145.088 190.175 131.777 186.059 119.711C187.257 128.152 189.189 136.512 191.93 144.587C189.418 146.504 187.322 148.922 185.058 151.114C182.633 153.673 179.691 155.849 177.84 158.889C177.436 159.597 178.231 160.312 178.92 159.963C180.546 159.141 181.895 157.838 183.143 156.542L183.649 155.992C186.745 152.63 189.798 149.169 192.161 145.249C193.736 149.79 195.681 153.555 197.761 157.837L198.027 158.387C198.487 159.334 198.916 160.39 199.673 161.09C199.172 162.089 197.89 162.32 196.901 162.612C188.866 164.855 180.335 162.981 172.268 165.023L171.736 165.16C171.204 165.297 170.667 165.464 170.35 165.946C163.314 166.202 156.462 169.069 150.977 173.488L150.836 173.6C148.525 175.44 146.157 177.869 145.743 180.913C145.665 181.488 145.878 182.299 146.568 182.429C145.233 182.594 144.028 183.277 143.038 184.223C152.476 151.653 180.124 125.721 182.15 90.7426ZM152.269 183.332C152.139 183.529 152.02 183.735 151.933 183.949C151.976 183.92 152.017 183.888 152.059 183.858C152.047 183.752 152.127 183.633 152.203 183.547L152.202 183.546C152.239 183.503 152.273 183.458 152.308 183.414C152.292 183.388 152.28 183.36 152.269 183.332ZM121.454 167.243C121.088 170.339 120.723 173.434 120.361 176.53C117.78 176.191 115.181 175.988 112.583 175.797L112.727 175.708C114.04 174.891 115.252 173.936 116.388 172.891C117.637 171.743 118.827 170.501 119.924 169.208C120.461 168.574 120.97 167.918 121.454 167.243ZM182.953 134.076C182.553 137.623 180.33 140.63 178.265 143.422C177.725 144.153 178.954 144.854 179.488 144.132L179.703 143.841C181.873 140.892 183.949 137.796 184.369 134.076C184.471 133.176 183.054 133.186 182.953 134.076ZM50.1042 98.828C56.5051 102.825 63.203 106.329 69.7501 110.081C70.5515 110.533 71.3628 109.79 71.2127 108.964C70.8786 107.131 70.5471 105.298 70.2213 103.465L69.9697 102.044C69.8751 101.531 69.4834 99.6803 69.8575 98.9856C71.4806 101.718 73.1583 104.42 74.844 107.116L76.6837 110.056C78.6534 113.205 80.858 116.4 81.641 120.067C81.1632 120.518 80.9169 121.173 80.858 121.816C80.3076 122.036 79.9312 122.646 80.0819 123.29C77.7244 126.094 76.1145 130.123 72.3426 131.302C68.0647 125.177 61.0338 121.593 53.6822 120.702L52.3774 120.475C49.19 119.915 45.8682 119.23 43.329 117.259C45.8493 117.38 48.3697 117.495 50.8914 117.603C51.7353 117.64 51.9137 116.317 51.0909 116.141C47.4281 115.358 43.707 113.69 40.7789 111.225C45.6653 112.939 50.7923 113.956 55.9604 114.356C57.0236 114.368 57.2087 112.84 56.2068 112.542C51.6519 110.676 47.5687 107.708 44.4368 103.941L44.3371 103.821L50.8999 107.261C53.6369 108.696 56.565 110.469 59.7607 110.465C60.6894 110.464 60.8962 109.308 60.2066 108.829L59.3078 108.164C56.2772 105.918 50.5374 101.541 50.1042 98.828Z" fill="black"/>
<path fill-rule="evenodd" clip-rule="evenodd" d="M169.191 36.1437C148.209 35.1181 138.74 49.8025 138.128 56.3613C137.703 60.9142 140.409 66.1618 140.409 70.2302C140.409 72.3068 137.851 76.7651 139.042 79.7918C141.693 86.5286 147.305 94.0051 154.456 94.0051C161.608 94.0051 170.915 95.9709 178.817 84.7246C179.558 83.6694 188.936 77.672 189.848 71.9731C192.117 57.7777 184.163 36.8756 169.191 36.1437Z" fill="white"/>
<path fill-rule="evenodd" clip-rule="evenodd" d="M170.18 27.0051C169.43 26.152 168.163 25.8107 167.038 25.8768C165.403 25.9731 163.981 26.9762 162.355 27.0505C160.649 27.1289 159.003 26.5414 157.294 26.8138C156.246 26.9817 155.207 27.4647 154.536 28.2792C152.21 27.6174 149.685 28.4939 148.204 30.4079C146.377 30.1258 144.389 31.3286 143.83 33.0787C141.508 33.153 139.317 35.0065 139.058 37.3292C138.13 37.5728 137.325 38.2086 136.83 39.0492C136.256 40.0234 136.16 41.1407 136.264 42.2388C135.172 42.7933 134.617 43.9849 134.471 45.2453C133.473 45.9856 133.04 47.3162 133.244 48.5725C132.479 49.0004 132.085 49.9967 132.089 50.8856C132.093 51.7153 132.315 52.4502 132.003 53.2509C131.726 53.9641 131.626 54.5584 131.779 55.3054L131.794 55.3782C131.821 55.5 131.844 55.6168 131.864 55.732C131.658 55.9122 131.483 56.1382 131.351 56.401C130.873 57.3614 130.944 58.4569 131.309 59.4309C131.149 60.0512 131.17 60.7065 131.406 61.3027C130.963 61.9363 130.731 62.7135 130.799 63.5198C130.876 64.4226 131.29 65.231 131.919 65.8288C131.752 67.0619 132.256 68.3943 133.168 69.2626C133.039 70.0008 133.151 70.7745 133.557 71.4744C133.847 71.9732 134.236 72.3447 134.686 72.6036C134.671 73.0155 134.727 73.4367 134.865 73.8587C135.057 74.4443 135.381 74.9839 135.808 75.4184C135.553 77.0363 136.528 78.8316 138.243 79.2855C138.387 79.3236 138.525 79.3411 138.656 79.3438C138.827 80.9 139.199 82.4345 139.775 83.8918C141.239 87.6027 143.903 90.8474 147.376 92.8714C149.094 93.8718 151.024 94.557 152.994 94.8432C154.411 95.0497 155.775 94.9987 157.198 94.8584C158.984 94.6809 160.778 94.4153 162.514 93.9585L162.793 93.8847C163.513 93.6931 164.272 93.472 164.895 93.0861C165.593 92.654 165.955 91.9881 166.116 91.2037C166.205 90.7672 165.927 90.2977 165.446 90.2886L165.415 90.2887C165.31 90.2909 165.206 90.2869 165.1 90.2803L165.021 90.2749H165.017C165.011 90.2736 165.008 90.2736 165.003 90.2736C164.956 90.2667 164.91 90.2529 164.865 90.246C164.336 90.1575 163.873 90.2453 163.376 90.4095L163.314 90.4304C162.478 90.7166 161.649 90.9822 160.785 91.179C159.892 91.3812 158.988 91.5422 158.081 91.6688L157.991 91.6798L157.964 91.684L157.95 91.6853C157.947 91.6853 157.944 91.6853 157.941 91.6867L157.674 91.7197C157.464 91.7445 157.253 91.7665 157.043 91.7885C156.655 91.8271 156.268 91.8573 155.88 91.8793C149.19 92.2536 143.571 87.0179 141.875 80.7406C141.26 78.4688 141.22 76.2026 141.401 73.9349C141.46 73.7698 141.494 73.5868 141.493 73.3859C141.493 73.2813 141.487 73.1781 141.48 73.0736C141.706 70.8802 142.098 68.6855 142.343 66.4839C142.629 63.9121 142.789 61.3254 142.73 58.737C142.701 57.4587 142.564 56.1928 142.384 54.927L142.319 54.4722C143.133 54.3144 143.889 53.9311 144.491 53.3761C145.797 54.126 147.488 54.1925 148.778 53.4006C150.223 54.3015 152.242 54.3832 153.698 53.5024C154.577 54.1266 155.686 54.3959 156.773 54.1589C157.263 54.0524 157.749 53.8219 158.166 53.5028C158.464 53.555 158.765 53.5752 159.065 53.5597L159.127 53.5941C159.817 53.956 160.583 54.1941 161.37 54.1676C161.953 54.148 162.554 54.0337 163.11 53.8174C163.704 54.1738 164.354 54.4171 165.05 54.5043C166.065 54.6316 167.161 54.4083 168.006 53.8356C169.55 54.7096 171.449 54.8442 173.115 54.2569C173.456 54.8314 173.928 55.3267 174.481 55.7086C174.382 56.0611 174.351 56.437 174.385 56.7985C174.441 57.3935 174.591 57.927 174.836 58.4061C174.577 58.9411 174.499 59.598 174.644 60.2574C174.851 61.1977 175.401 62.0157 176.114 62.6528C176.177 64.1535 177.005 65.5606 178.352 66.3423C178.42 66.3818 178.488 66.414 178.556 66.443C178.615 66.5239 178.687 66.5951 178.768 66.6551C179.625 67.442 180.981 67.3794 182.055 66.9348C182.076 66.9358 182.096 66.9376 182.117 66.938C182.501 66.9476 182.762 66.799 182.918 66.5802C183.074 66.5886 183.229 66.605 183.385 66.6339C183.956 66.7398 184.582 66.9435 185.098 67.2078C186.438 67.8929 187.058 69.1038 187.244 70.5596C187.446 72.1475 186.986 73.7657 185.75 74.8403C185.149 75.3632 184.381 75.6907 183.6 75.8283C182.738 75.981 181.816 75.6054 181.179 76.3416C181.052 76.4874 180.964 76.6911 181.034 76.8878C181.25 77.5015 181.605 77.7368 182.162 77.8221C181.357 78.7702 180.532 79.6866 179.619 80.5384C178.63 81.4617 177.609 82.356 176.717 83.3743C175.774 84.4517 174.923 85.5938 174.332 86.901C173.994 87.6523 173.723 88.427 173.431 89.1961L173.378 89.3302C173.053 90.1474 172.619 90.9352 173.121 91.7885C173.32 92.1243 173.771 92.449 174.187 92.3953C175.356 92.2467 175.748 91.461 176.108 90.4373C176.379 89.664 176.587 88.8687 176.879 88.1022C176.934 87.9604 176.993 87.8199 177.056 87.6802C177.73 87.8671 178.472 87.7187 179.074 87.3365C179.717 87.6198 180.429 87.7611 181.117 87.7491C182.039 87.733 182.881 87.4786 183.604 87.0197C183.662 87.0046 183.72 86.99 183.777 86.9736C184.878 87.3928 186.168 87.3179 187.164 86.6386C187.81 86.1987 188.251 85.6115 188.502 84.9578C189.336 84.942 190.161 84.6481 190.759 84.06C191.308 83.52 191.628 82.8233 191.724 82.0994C192.442 81.9581 193.115 81.6131 193.642 81.0321C194.083 80.5467 194.351 79.9286 194.442 79.2869C195.316 79.0389 196.105 78.4715 196.535 77.6803C196.936 76.9437 196.994 76.1446 196.798 75.4178L196.849 75.3452C197.749 74.8767 198.437 74.1097 198.507 73.0141C198.527 72.7022 198.493 72.3901 198.408 72.0948C198.439 71.7647 198.419 71.4347 198.332 71.1155C199.543 69.9445 199.982 68.0635 199.325 66.5087C200.508 65.2427 200.821 63.2407 199.953 61.7382C200.549 61.0225 200.854 60.1103 200.803 59.136C200.74 57.9198 200.179 56.8574 199.508 55.8736C200.006 55.3259 200.272 54.5622 200.252 53.8247C200.225 52.7555 199.653 51.835 198.937 51.0727C199.561 49.1903 198.864 47.1483 197.331 45.9567C197.641 45.449 197.756 44.8201 197.655 44.1831C197.478 43.0699 196.638 42.3117 195.731 41.7118C195.921 41.0982 195.871 40.4362 195.569 39.8019C195.166 38.9556 194.406 38.419 193.613 37.9649C193.408 36.088 191.298 34.485 189.529 35.4537C189.968 34.0571 188.704 32.549 187.25 32.3894C186.539 30.2456 184.085 28.8943 181.878 29.4268C180.75 27.894 178.65 27.3038 176.867 27.9614C174.906 26.4684 172.474 26.2469 170.18 27.0051ZM184.144 69.0984C182.767 69.0241 181.734 70.1414 181.008 71.1637C180.328 72.1228 182.075 73.1355 182.584 72.0788C182.767 71.7018 182.974 71.3027 183.253 70.9725C183.299 71.0375 183.341 71.1048 183.382 71.1739L183.423 71.2435C183.453 71.2945 183.485 71.3467 183.512 71.4004C183.509 71.41 183.55 71.5366 183.552 71.5421C183.665 71.8848 183.913 72.1049 184.251 72.2233C184.687 72.3746 185.099 72.0485 185.239 71.666C185.462 71.055 184.944 70.5225 184.406 70.2803C184.935 70.195 185.455 70.3739 185.837 70.7785C185.89 70.8349 185.978 70.7895 185.981 70.7193C186.025 69.7602 185.016 69.1451 184.144 69.0984Z" fill="black"/>
<path fill-rule="evenodd" clip-rule="evenodd" d="M161.307 76.0209C158.934 75.7346 156.634 76.4568 154.314 76.8208C153.089 77.0128 151.863 77.1563 150.623 77.2096C150.374 77.2204 150.125 77.2267 149.875 77.2318C149.852 77.0135 149.729 76.8131 149.463 76.693C148.917 76.447 148.48 76.3361 147.88 76.3598C147.332 76.3813 146.781 76.4374 146.241 76.5357C145.26 76.7145 144.274 77.1202 143.557 77.8251C141.896 79.4561 142.149 82.0758 143.432 83.8523C146.083 87.5231 150.922 87.6935 155.067 87.6456L155.449 87.6406C159.223 87.587 164.622 88.1463 166.336 83.8788C166.966 82.3095 166.879 80.4905 166.107 78.9854C165.186 77.1901 163.248 76.2551 161.307 76.0209ZM149.52 82.1329L149.554 82.1342C151.293 82.2009 153.033 82.2478 154.774 82.2783C154.722 82.7227 154.669 83.1672 154.608 83.6106C154.56 83.9595 154.509 84.308 154.456 84.6561C154.433 84.8035 154.351 85.0324 154.374 85.1784L154.382 85.2361C154.293 85.2763 154.212 85.341 154.152 85.4349C154.131 85.4674 154.115 85.5002 154.1 85.5328C152.749 85.5434 151.294 85.5173 149.916 85.2731L149.914 85.2434C149.889 85.0684 149.816 84.9506 149.718 84.8699C149.621 84.312 149.63 83.7175 149.593 83.164C149.569 82.8202 149.544 82.4766 149.52 82.1329ZM156.103 82.3019C157.357 82.3231 158.612 82.3395 159.866 82.3242L160.435 82.3155C160.315 82.9565 160.184 83.5952 160.075 84.2404C159.962 84.9129 160.557 85.3404 161.073 85.3232C161.015 85.3326 160.957 85.3424 160.899 85.3504C159.289 85.5768 157.617 85.5168 155.983 85.515C156.071 85.0049 156.035 84.4294 156.048 84.0037L156.051 83.9377C156.076 83.3922 156.093 82.8471 156.103 82.3019ZM164.621 82.1843C164.578 82.5176 164.493 82.8438 164.366 83.1474C163.831 84.4305 162.604 85.0292 161.306 85.2813C161.531 85.204 161.71 85.0182 161.755 84.7C161.867 83.9088 161.908 83.1044 161.911 82.301C162.816 82.2926 163.727 82.2734 164.621 82.1843ZM144.801 81.9104C145.445 82.0614 146.194 81.9922 146.826 82.0207C147.418 82.0475 148.01 82.0708 148.603 82.0946C148.575 82.4965 148.547 82.8982 148.518 83.2998C148.48 83.8188 148.476 84.3674 148.376 84.8843C147.184 84.48 146.116 83.8316 145.315 82.7948C145.116 82.5365 144.937 82.2334 144.801 81.9104ZM161.579 78.126C162.652 78.3784 163.667 78.9116 164.212 79.8871C164.536 80.466 164.679 81.152 164.651 81.8281C163.745 81.7232 162.823 81.6834 161.905 81.6505C161.902 81.4863 161.898 81.3222 161.893 81.1585L161.879 80.7389C161.854 79.9385 161.842 78.9335 161.579 78.126ZM156.028 78.2236L156.5 78.1709C157.812 78.0224 159.122 77.8665 160.434 77.9559C160.624 77.9689 160.816 77.9894 161.01 78.0176C160.778 78.849 160.797 79.8254 160.7 80.6484C160.663 80.9667 160.616 81.2823 160.563 81.5967L160.336 81.5861C158.929 81.5103 157.52 81.4637 156.112 81.4081C156.112 81.1453 156.11 80.8823 156.106 80.6193L156.101 80.3561C156.085 79.6842 156.129 78.9272 156.028 78.2236ZM149.443 78.117C150.817 78.3373 152.236 78.3842 153.585 78.3858C154.124 78.3865 154.663 78.3536 155.201 78.3062C155.166 78.5911 155.148 78.8793 155.121 79.1602C155.068 79.7279 155.007 80.2947 154.941 80.8611L154.882 81.3566C153.152 81.2786 151.421 81.1943 149.69 81.1069L149.446 81.0939L149.377 80.1416C149.331 79.5066 149.28 78.8717 149.207 78.2395L149.261 78.2201C149.325 78.194 149.386 78.1581 149.443 78.117ZM148.847 78.3533C148.771 79.2512 148.729 80.1528 148.673 81.0522L147.533 80.9916C147.342 80.9813 147.152 80.9708 146.962 80.9599C146.223 80.9176 145.273 80.6951 144.542 80.9026C144.486 80.2422 144.676 79.5988 145.276 79.1551C146.329 78.3758 147.669 78.6533 148.847 78.3533ZM152.744 70.3266C151.046 69.3596 146.783 68.3712 146.513 71.4101C146.389 72.8085 147.435 73.9672 148.656 74.4843L148.702 74.5033C149.848 74.9715 151.878 75.5001 152.87 74.485C153.695 73.6402 152.6 72.1253 151.575 72.8175C151.048 73.173 149.939 72.911 149.351 72.7419L149.314 72.7312C148.68 72.5458 147.834 71.9526 148.096 71.1762C148.329 70.4893 149.316 70.3638 149.935 70.3415C150.859 70.3086 151.757 70.5217 152.672 70.5911C152.817 70.6021 152.862 70.3935 152.744 70.3266ZM145.707 65.4401C143.401 65.3328 141.967 67.8351 142.497 69.8855C142.589 70.2393 142.987 70.5866 143.371 70.5468L143.468 70.538C143.517 70.5333 143.567 70.5271 143.612 70.5146C143.977 70.4142 144.304 70.0369 144.278 69.6458L144.271 69.5319C144.217 68.5633 144.323 67.4473 145.481 67.2128C146.463 67.0138 147.011 67.9535 147.023 68.8184C147.025 68.972 147.199 69.0792 147.335 68.9966C148.045 68.5672 148.168 67.7128 147.897 66.9771C147.553 66.0448 146.693 65.4859 145.707 65.4401ZM162.818 65.9768C161.14 65.4203 159.33 66.3094 158.517 67.7839C158.232 67.8659 157.948 68.0843 157.987 68.4186C158.044 68.8997 158.131 69.2029 158.466 69.5677C158.991 70.1384 159.974 69.8466 160.192 69.1441L160.201 69.1124C160.449 68.2044 161.455 67.6053 162.371 67.9231C163.441 68.2944 163.41 69.4177 164.16 70.0722C164.249 70.1491 164.354 70.1613 164.46 70.1106C165.257 69.7276 165.114 68.5751 164.83 67.9154C164.457 67.0498 163.733 66.2799 162.818 65.9768ZM165.103 60.9121C163.744 59.5331 160.198 58.1986 159.268 60.7452C159.091 61.2302 159.468 61.8842 159.976 61.9848C160.808 62.1494 161.546 61.7904 162.372 61.8548C163.042 61.9072 163.739 62.1294 164.274 62.5414C165.756 63.6824 166.082 65.6122 167.114 67.0645C167.164 67.1352 167.262 67.1055 167.271 67.0221C167.506 64.9079 166.592 62.4224 165.103 60.9121ZM147.371 59.5545C146.468 59.2378 145.446 59.2649 144.539 59.5459C143.626 59.8291 142.787 60.3668 142.141 61.0694C141.848 61.3883 141.576 61.7403 141.359 62.115C141.243 62.3136 141.122 62.7237 140.99 62.968C140.279 63.3759 139.976 64.3054 140.612 64.9667L140.641 64.9957L140.726 65.0796C141.068 65.4162 141.584 65.562 142.051 65.4276C143.095 65.1271 143.222 64.309 143.584 63.4408C143.823 62.8673 144.232 62.3598 144.729 61.987C145.902 61.1064 147.825 60.8258 149.237 61.2408C149.312 61.263 149.401 61.1678 149.347 61.0987C149.079 60.7541 148.925 60.4714 148.567 60.1934C148.203 59.9113 147.806 59.7076 147.371 59.5545Z" fill="black"/>
</svg>
