<svg width="235" height="348" viewBox="0 0 235 348" fill="none" xmlns="http://www.w3.org/2000/svg">
<path fill-rule="evenodd" clip-rule="evenodd" d="M79 346C116.555 346 147 315.555 147 278C147 240.445 116.555 210 79 210C41.4446 210 11 240.445 11 278C11 315.555 41.4446 346 79 346Z" fill="white" stroke="#22252B" stroke-width="3"/>
<path fill-rule="evenodd" clip-rule="evenodd" d="M232.406 186.816C231.349 186.513 230.028 186.435 228.872 186.38C224.784 186.14 220.616 188.085 216.607 188.962C214.853 189.395 212.995 189.905 211.117 190.285C209.451 190.511 207.727 190.681 205.995 190.788C204.594 190.83 202.965 190.723 202.487 192.193C199.672 192.738 197.18 192.965 194.497 192.502C194.748 191.648 194.891 190.756 194.631 189.836C194.763 189.618 194.941 189.324 195.036 189.125H194.714C190.004 187.243 184.911 185.957 180.177 184.007C173.997 181.784 164.896 177.487 157.756 174.554C158.24 171.907 158.419 169.218 158.214 166.604L158.501 166.372C158.595 165.859 158.742 165.244 159.007 164.778C159.344 163.886 159.352 162.668 159.486 161.66C159.765 159.687 159.951 156.717 159.443 154.375C159.221 151.199 157.077 148.75 154.765 146.786C151.926 143.983 149.083 141.248 146.312 138.336C130.973 122.724 129.759 103.061 105.747 97.0844L105.735 96.9916C105.546 96.7808 105.469 96.6137 105.253 96.9467C104.46 96.6434 103.472 96.6688 102.808 96.156C101.629 95.0825 100.793 93.8433 100.246 92.3726C99.8246 89.5927 100.123 85.3081 97.6832 83.5294C94.9738 81.909 80.578 80.7553 79.3364 84.2981C78.5662 85.0203 78.2158 85.9379 77.9751 87.0613C77.173 88.5761 76.6669 90.2557 75.8589 91.7937C74.1411 95.2434 73.0276 94.4789 69.9948 95.2672C69.6655 94.5347 68.6662 94.6823 67.9378 94.7887C59.118 96.0262 48.3647 99.4033 44.5884 107.68L44.9098 107.639C38.3914 119.866 42.6187 135.416 43.7846 148.373C44.7276 159.891 43.6491 171.463 41.0863 182.207C37.9406 193.604 37.7601 206.352 44.0014 216.669C44.6357 217.85 45.4081 219.519 46.7748 218.778C47.5237 219.343 48.365 219.734 49.527 220.074C49.8474 220.306 50.1791 220.695 50.5145 220.862C50.5302 220.884 51.0702 220.574 51.0985 220.565C52.119 222.019 108.145 226.878 113.959 227.632C119.082 228.249 125.85 229.823 130.024 226.134C133.474 225.15 137.084 222.588 139.84 220.045C141.513 244.267 142.438 293.874 143.931 294.22C144.584 294.441 145.466 294.705 146.205 294.917C146.21 296.657 146.34 298.634 146.203 300.345C145.973 302.278 145.393 304.559 145.13 306.59C144.001 306.515 143.669 307.646 143.537 308.414C142.562 314.76 142.591 319.876 142.661 326.851C154.124 333.592 167.558 337.299 180.456 341.655C181.691 342.582 184.368 341.58 185.795 341.329C190.747 340.356 196.374 337.476 195.124 332.196C194.209 328.221 190.366 325.933 187.131 323.595C183.592 321.035 179.861 318.477 176.606 315.429C173.995 312.973 172.045 311.067 169.867 308.296C168.901 307.007 167.871 304.889 166.572 303.939C167.945 302.314 165.171 303.837 164.121 303.931C163.503 301.028 162.738 298.241 161.821 295.457L162.713 295.497C165.64 292.768 167.281 279.666 167.485 275.779C168.952 250.441 168.917 221.236 163.031 199.897C167.502 202.645 172.404 204.941 176.851 207.66C179.654 209.299 182.499 211.576 185.641 212.371C185.846 212.958 186.595 213.187 187.004 212.612C187.567 212.681 188.292 212.448 188.354 212.192C188.929 211.017 189.762 209.752 189.662 208.475C189.662 208.475 188.89 206.688 188.89 206.688C190.619 207.39 192.5 208.866 194.346 209.002C198.074 221.432 205.42 214.469 212.489 209.631C216.756 206.655 221.422 203.368 225.912 200.195C229.721 197.17 237.158 194.299 233.512 188.306" fill="white"/>
<path fill-rule="evenodd" clip-rule="evenodd" d="M72.1612 94.5079C75.7621 93.6342 76.3773 85.0143 78.5517 86.2418C79.8085 87.3333 77.7526 89.3925 77.3888 90.6244L77.2291 90.9373C76.4914 92.3722 75.6572 93.8023 74.2033 94.6296C73.2688 95.612 70.4754 94.6474 70.8862 96.2121C72.3204 100.928 79.9322 104.193 84.4183 105.661C91.391 108.277 102.671 107.392 104.309 98.6249C100.485 97.9257 97.6571 91.0347 100.014 88.1657C100.095 90.9526 100.857 93.8287 103.048 95.7169L103.169 95.8277C103.554 96.179 104.053 96.5984 104.551 96.5203C105.036 95.8455 105.978 96.2294 106.256 96.9416C128.032 100.7 132.883 124.153 146.596 137.958C149.336 140.837 152.199 143.595 155.026 146.387C157.913 148.674 159.956 151.863 160.099 155.607C160.357 157.69 160.229 159.774 159.953 161.86L159.934 162.048C159.806 163.341 159.73 164.729 159.114 165.877C159.007 166.266 159.05 166.757 158.713 167.032C158.861 169.411 158.72 171.834 158.317 174.206L159.368 174.674C170.929 179.816 182.624 184.663 194.679 188.517C195.71 188.33 195.626 189.526 195.127 190.07C195.258 190.71 195.273 191.375 195.118 192.007C197.326 192.324 199.568 192.061 201.747 191.659C202.436 190.143 204.268 190.224 205.684 190.181C207.443 190.071 209.2 189.9 210.946 189.656C215.25 188.696 219.476 187.433 223.738 186.323C226.59 185.522 229.666 185.56 232.527 186.297C233.013 186.841 233.462 187.422 233.84 188.039C236.456 192.088 233.879 195.799 230.228 197.926C224.371 202.071 218.512 206.212 212.629 210.319L212.201 210.624C205.202 215.626 197.327 221.959 193.589 209.783C192.332 209.635 191.231 208.793 190.06 208.297C190.375 209.758 189.435 211.234 188.787 212.486C188.508 213.2 187.744 213.435 187.04 213.428C186.437 214.019 185.304 213.787 184.91 213.086C181.71 212.171 179.066 210.036 176.234 208.377C172.207 205.934 167.982 203.852 163.897 201.513C170.683 229.569 169.023 258.794 167.218 287.353L167.205 287.611C166.981 291.781 166.023 293.753 162.56 296.309C163.163 298.147 163.703 299.992 164.115 301.882C164.26 302.321 164.929 301.908 164.934 302.51C166.165 302.223 168.665 302.53 167.793 304.23C170.263 306.3 171.936 309.104 174.101 311.464C177.915 316.029 182.901 319.426 187.789 322.774C199.026 328.491 199.67 338.399 186.523 341.784L186.391 341.815C184.58 342.25 182.4 343.244 180.645 342.407C178.019 341.902 175.414 340.88 172.845 340.102C162.502 336.685 152.385 332.683 142.583 328.084C142.228 327.917 142.027 327.535 142.017 327.153C142.127 323.997 141.268 306.705 144.545 306.332C145.277 302.8 145.392 299.153 145.259 295.547C144.196 295.213 143.121 294.891 142.02 294.682C140.951 294.346 139.28 294.271 138.564 293.406C138.306 293.313 138.118 293.083 138.156 292.721C138.735 287.302 139.174 281.869 139.494 276.429C140.591 258.184 140.219 239.883 138.97 221.658C136.396 223.88 133.463 225.826 130.198 226.861C128.396 228.664 125.506 229.051 123.046 229.269C119.882 229.465 116.775 228.834 113.652 228.442C108.351 227.775 103.086 228.365 97.8232 229.019L96.0246 229.243C83.1395 230.654 69.2144 230.946 57.2052 225.447C54.9441 225.647 52.137 223.207 50.7265 221.577C50.1036 221.961 49.4917 221.21 48.9953 220.816C48.1762 220.567 47.247 220.211 46.5036 219.689C44.6177 220.306 43.6005 217.861 42.8841 216.532C31.5145 197.091 44.1764 177.74 43.2241 157.125C43.8008 140.962 36.4176 124.124 43.5533 108.623C44.9969 102.063 53.4396 97.5298 59.7946 95.8627C61.8424 95.525 69.595 92.7263 70.4487 95.0798C70.8527 94.5501 71.5425 94.5104 72.1612 94.5079ZM166.472 304.987C165.407 305.101 164.368 305.167 163.315 305.36C159.471 305.99 155.804 307.475 152.501 309.54C151.431 310.206 150.476 311.045 149.248 311.417C146.725 312.331 144.246 310.06 144.431 307.605C143.728 313.775 143.848 320.124 144.213 326.326C154.081 330.783 164.17 334.757 174.442 338.21C176.755 339.178 179.494 339.488 181.618 340.796C185.241 340.568 188.887 339.298 191.93 337.313C196.977 333.816 193.626 328.27 189.442 325.83C180.232 321.68 172.393 313.282 166.472 304.987ZM146.293 295.862C146.101 297.691 147.493 300.54 147.296 304.186C147.145 305.324 146.79 306.517 146.913 307.66C147.48 311.899 152.077 306.512 153.977 305.921C156.674 304.44 159.604 303.432 162.616 302.881C162.598 301.903 161.95 301.513 161.865 300.547C161.743 299.123 161.749 297.756 161.684 296.319C157.767 298.098 150.449 296.84 146.293 295.862ZM167.401 304.711C167.333 304.756 167.261 304.795 167.187 304.829C167.731 305.488 168.203 306.218 168.848 306.785L168.573 306.358C168.206 305.79 167.829 305.223 167.401 304.711ZM45.7302 153.04C45.5328 153.841 45.1733 154.594 44.6348 155.235C47.4159 177.749 33.1075 196.518 46.2627 217.452C46.429 217.529 46.5807 217.625 46.7268 217.745C46.8041 217.694 46.8815 217.64 46.9574 217.586C53.1234 206.691 61.9007 197.294 68.8943 186.869C70.2366 184.252 72.4463 181.618 73.2924 178.595C59.2381 173.054 53.6241 164.969 45.7302 153.04ZM230.688 187.19C230.092 187.403 229.429 187.227 228.793 187.216C226.536 187.168 224.329 187.756 222.17 188.35C215.889 190.066 209.575 191.584 203.14 192.6C203.01 192.734 202.886 192.871 202.773 193.016C202.885 193.204 202.902 193.44 202.74 193.674C201.769 195.526 202.554 197.793 201.849 199.774C200.827 203.787 198.109 208.312 194.053 209.736C195.406 211.023 196.375 212.68 197.769 213.922C201.193 216.265 204.965 212.772 207.761 210.899C213.083 207.145 218.42 203.416 223.772 199.703C226.169 197.719 231.473 195.218 232.62 192.59C233.355 190.575 232.018 188.611 230.688 187.19ZM194.005 192.306C191.713 196.971 190.391 201.932 189.067 206.941C190.444 207.319 191.711 207.911 193.064 208.309C194.969 208.737 197.659 205.061 198.615 203.602C199.6 201.97 200.289 200.176 200.609 198.297C200.879 196.457 200.591 194.546 201.393 192.842C198.911 193.095 196.393 193.148 194.005 192.306ZM57.7908 182.679C59.9424 182.077 55.0478 186.937 54.7659 187.456C51.5834 191.208 48.6675 195.171 45.7739 199.145L44.8967 200.352C44.8124 200.474 44.2315 201.331 44.6516 201.222C44.69 201.212 44.708 201.263 44.6774 201.284C42.0014 201.756 56.5005 183.009 57.7908 182.679ZM110.244 180.385C110.419 179.862 109.592 179.638 109.418 180.158L108.87 181.807C106.8 188.039 104.743 194.279 102.269 200.365C102.062 200.875 102.89 201.098 103.095 200.593C105.786 193.97 107.985 187.165 110.244 180.385ZM134.304 178.203C133.55 181.778 131.643 185.001 130.488 188.419C132.658 187.941 134.33 185.921 135.595 184.184L135.633 184.126C136.23 183.209 136.924 181.776 138.28 182.423C140.337 183.617 138.863 187.85 138.825 189.856C138.564 192.606 137.668 195.179 137.058 197.85C138.627 196.78 139.077 194.67 139.842 193.025L142.784 185.976C144.948 183.017 143.943 191.879 143.831 192.716C143.655 194.553 142.88 196.401 143.184 198.251C144.404 196.94 145.173 195.293 145.818 193.622C146.714 191.298 147.532 188.943 148.384 186.604C148.678 185.854 149.795 186.117 149.634 186.943C149.579 189.598 149.535 192.253 149.492 194.909L149.461 196.9C149.455 197.278 149.268 198.38 149.921 198.076C153.351 194.481 154.231 187.293 153.784 182.463C147.042 182.626 140.162 181.753 134.304 178.203ZM194.306 191.614C194.279 191.702 194.247 191.79 194.215 191.878C194.234 191.882 194.255 191.886 194.275 191.891C194.287 191.798 194.298 191.706 194.306 191.614ZM44.6577 191.614C43.9098 191.063 56.481 174.946 55.6666 179.598C52.1594 183.742 48.0695 187.373 44.6577 191.614ZM155.679 156C143.922 153.243 133.569 163.545 121.763 161.988C121.9 165.678 122.089 169.393 122.015 173.084C137.694 174.376 135.91 181.039 153.959 180.368C156.291 178.808 157.249 169.248 157.052 166.362C157.203 162.95 154.262 161.418 151.333 160.82C150.274 161.458 148.375 159.554 149.947 158.884C152.016 158.263 153.951 157.286 155.679 156ZM68.9465 95.5241C64.7639 95.9357 60.6212 97.0741 56.7771 98.833C42.5671 102.929 40.5181 119.539 42.2268 132.126C42.9348 141.698 45.6685 151.059 51.4159 158.843C66.7173 182.144 92.0607 178.455 116.066 175.373C116.932 174.772 118.398 175.198 119.232 174.404C119.145 174.374 119.066 174.333 118.999 174.282C119.4 173.969 119.71 173.422 119.802 172.84L119.975 172.857C120.145 169.243 120.009 165.7 120.064 162.115C112.176 159.955 103.716 158.851 95.7223 156.699C94.8136 157.332 93.7659 156.604 92.8783 156.26C90.5773 155.282 88.2559 154.354 85.9174 153.47L85.3324 153.25C83.808 152.68 82.2847 152.094 80.7745 151.485L80.2089 151.255C79.3438 150.901 77.1592 149.594 76.2155 150.41L76.2917 150.574C76.8512 151.793 78.7789 156.304 76.4092 155.412C74.485 154.063 73.4873 144.654 71.5814 144.571C70.926 146.323 70.4564 148.141 70.349 150.013C70.3104 150.435 69.7558 150.79 69.4225 150.396C67.162 147.424 70.5766 144.186 70.6677 141.048C70.8831 137.4 69.2666 133.986 68.4613 130.494L68.4117 130.253C67.9395 127.988 67.2047 125.241 67.3997 123.209L67.8686 124.973C68.3392 126.737 68.8211 128.503 69.3741 130.243C70.7463 134.589 73.2241 139.066 71.8472 143.717C74.6093 143.808 75.0764 148.162 76.1139 150.15C77.7926 147.975 89.6054 153.191 92.3009 154.028L92.8208 153.439C101.263 143.879 107.357 137.41 120.442 144.972C118.182 137.69 117.963 129.956 117.578 122.395C117.71 120.956 116.877 117.162 118.051 116.377C118.255 116.406 118.453 116.468 118.64 116.55L118.64 117.295C118.646 118.739 118.713 121.133 119.32 121.677L119.598 124.535C120.326 131.969 121.153 139.397 123.375 146.56C128.712 149.539 133.58 153.27 138.161 157.294L138.683 157.104C144.342 155.035 151.152 152.382 156.939 154.965C156.842 153.507 156.278 152.111 155.492 150.878C154.181 150.553 153.323 149.173 152.385 148.254C149.411 145.063 146.358 141.945 143.452 138.69C131.052 125.369 125.777 103.496 106.305 98.3291C105.018 109.093 91.2282 110.811 82.9184 107.127L82.603 107.006C77.4373 105.015 71.5997 102.01 69.7855 96.5358L69.7101 96.3773C69.5236 95.9912 69.3011 95.5976 68.9465 95.5241ZM72.0113 156.779C72.0264 156.762 72.0557 156.785 72.0428 156.803C69.6217 159.837 67.6517 163.975 70.0578 167.599C70.5025 168.415 69.4631 169.199 68.7977 168.577C65.4582 164.79 69.1634 159.656 72.0113 156.779ZM156.242 157.464C154.911 158.414 153.484 159.202 151.971 159.824C151.976 159.998 151.891 160.184 151.814 160.32C153.805 160.478 155.878 160.992 157.276 162.442C157.343 161.911 157.41 161.38 157.461 160.848C157.589 159.48 157.355 158.256 156.242 157.464ZM64.696 144.052L64.7114 143.979C64.7222 143.896 64.8484 143.891 64.8446 143.979C64.7984 145.064 64.0082 145.835 63.3389 146.608C62.3457 147.753 61.3524 148.899 60.3588 150.044C58.6976 152.04 56.2503 154.047 56.8006 156.938C56.811 157.965 55.5221 158.185 54.9992 157.43C52.9195 153.469 59.4659 150.1 61.6725 147.544C62.7087 146.438 64.3416 145.624 64.696 144.052ZM95.8657 155.943C95.8968 155.993 95.9189 156.046 95.9307 156.101C96.2794 156.138 96.6265 156.178 96.9737 156.22L95.8657 155.943ZM43.7947 146.68C43.8568 147.094 43.915 147.509 43.9706 147.924L44.0255 148.339L44.0341 148.303C44.0625 148.195 44.1161 148.102 44.1862 148.027L44.2101 148.002C44.0658 147.564 43.9274 147.123 43.7947 146.68ZM139.369 142.396C140.203 142.307 136.424 145.021 136.215 145.357C135.91 145.622 135.554 145.152 135.879 144.923C137.053 144.095 138.211 143.246 139.369 142.396ZM132.015 134.412C132.596 134.175 132.99 135.14 132.44 135.409C130.434 136.389 128.314 137.082 126.466 138.371C126.385 138.427 126.283 138.296 126.36 138.235L126.582 138.06C128.284 136.71 129.984 135.243 132.015 134.412ZM44.4871 122.208C45.0475 124.844 48.0799 125.71 50.4333 126.412L51.1686 126.691C53.2468 127.486 55.3997 128.379 56.8948 130.058C57.4808 131.951 53.2994 128.653 52.7156 128.486C49.8603 126.718 44.701 126.417 44.4871 122.208ZM106.391 97.5979C106.407 97.732 106.414 97.8688 106.418 98.0057C106.594 98.0057 106.769 98.0071 106.945 98.0127C106.74 97.8928 106.552 97.756 106.391 97.5979Z" fill="black"/>
<path fill-rule="evenodd" clip-rule="evenodd" d="M113.024 61.5085C112.095 50.1956 109.265 40.176 95.9681 39.7487C89.9676 39.8023 83.8423 41.0752 78.3243 43.4303C64.9124 50.1452 60.657 74.6814 72.4733 84.5583C72.403 84.5982 72.3861 84.7135 72.4691 84.7692C74.9103 86.4092 77.6238 87.7585 80.3415 88.8923C87.5807 91.9484 96.1027 93.2758 103.486 89.9608C114.752 85.1736 114.921 71.853 113.024 61.5085Z" fill="white"/>
<path fill-rule="evenodd" clip-rule="evenodd" d="M135.201 56.2356C135.664 55.8191 136.009 55.2729 136.184 54.6605C136.344 54.1021 136.355 53.4924 136.185 52.9353C136.004 52.3377 135.613 51.8618 135.701 51.2399C135.71 51.1791 135.722 51.1155 135.741 51.052C136.08 49.8812 136.913 49.0362 136.615 47.7382C136.531 47.3718 136.372 47.042 136.152 46.7824C136.176 46.5012 136.198 46.2172 136.215 45.9333C136.704 44.7909 136.686 43.4335 136.165 42.3086C136.101 41.7327 136.005 41.1621 135.87 40.601C135.932 40.1048 135.846 39.5586 135.686 39.1246C135.405 38.361 135.058 37.6085 134.682 36.8684C134.726 36.666 134.706 36.4521 134.594 36.2619C134.391 35.9162 134.122 35.6123 133.848 35.3153C133.653 34.9687 133.458 34.6251 133.264 34.2858C133.174 34.13 133.074 33.957 132.965 33.7738C133.263 33.2214 133.422 32.683 133.107 32.0334C132.989 31.7894 132.663 31.6094 132.395 31.6254C132.101 31.6428 131.806 31.6559 131.508 31.6672C130.952 30.9968 130.322 30.3951 129.647 30.0487C128.963 29.47 128.27 28.9022 127.596 28.3222C127.405 28.1572 127.213 27.9923 127.022 27.8273C127.02 27.8233 127.019 27.8179 127.018 27.8138C126.877 27.3014 126.718 26.7958 126.56 26.2874C126.461 25.9724 126.431 25.6425 126.124 25.4708C125.482 25.1125 124.495 25.0557 123.759 24.9949C123.686 24.93 123.612 24.8665 123.539 24.8016C123.874 23.9119 123.814 22.9669 123.393 22.0759C123.25 21.7731 122.751 21.6365 122.478 21.8366C121.847 22.299 121.098 22.4626 120.357 22.395C119.269 21.5595 114.878 17.7812 114.199 17.3823C114.191 17.368 114.184 17.3537 114.175 17.3395C113.794 16.7313 113.331 16.243 112.81 15.8515C112.736 15.774 112.661 15.6964 112.587 15.6188C112.652 15.1552 112.824 14.7075 113.101 14.333C113.131 14.2898 113.165 14.2478 113.199 14.2073C113.684 13.6313 113.092 12.8904 112.415 13.1919C112.366 13.2136 112.318 13.2352 112.269 13.2582C111.748 13.4899 111.172 13.7418 110.573 13.9543C110.353 13.8723 110.13 13.7979 109.926 13.716L107.741 12.8389C107.381 12.6945 107.001 12.5722 106.653 12.4025C106.532 11.5968 105.723 11.0685 104.883 11.0961C104.932 10.9414 105.004 10.7912 105.106 10.6488C105.136 10.6069 105.169 10.5663 105.202 10.5271C105.634 10.0255 105.057 9.09537 104.44 9.54153C104.397 9.57263 104.352 9.60373 104.309 9.63482C104.137 9.75501 103.962 9.86777 103.784 9.97701C103.5 9.85317 103.18 9.82491 102.845 9.95592C102.103 10.2459 101.419 10.5408 100.766 10.9953C100.74 11.0139 100.712 11.0294 100.686 11.0469C100.361 10.6559 99.8467 10.3944 99.3832 10.3972C99.3738 10.3972 99.3665 10.3971 99.3581 10.3969C99.0116 9.8698 98.3764 9.56344 97.7631 9.63793C97.8045 8.88149 97.0461 8.20643 96.3558 8.12437C95.549 8.02865 94.822 8.4963 94.5799 9.28208C94.5124 9.50084 94.4452 9.71973 94.3777 9.93862C93.7514 9.62292 93.0904 9.38105 92.3998 9.26032C90.8275 8.98532 89.29 9.27816 87.7748 9.71405C87.6234 9.75758 87.4722 9.80233 87.3209 9.84695C87.1048 9.59697 86.9021 9.34103 86.7084 9.10213C86.374 8.68977 85.5711 9.01966 85.6252 9.54965C85.6629 9.91536 85.5141 10.1785 85.2745 10.3654C85.0115 10.4038 84.7572 10.4155 84.3737 10.4078C83.8669 10.3975 83.6364 10.3817 83.1064 10.1754C82.8594 10.0794 82.552 9.82694 82.408 9.60035C81.8563 8.73142 80.4548 8.49738 79.7873 9.32589C79.0848 9.01885 78.198 9.4423 77.808 10.0393C77.604 10.3515 77.1783 10.5261 76.6424 10.6761C76.2401 10.7886 75.8288 10.8738 75.4156 10.9483C75.2314 10.6988 74.8436 10.5316 74.5592 10.7408C74.3665 10.8829 74.1794 11.0287 73.9948 11.1783C72.5718 11.374 71.1562 11.3811 69.7994 10.827C68.6507 10.3579 67.5959 11.6392 67.7855 12.7148C67.4528 12.8877 67.0918 13.0028 66.7632 13.184C66.0463 13.5796 65.4576 14.2049 65.0988 14.9395C65.0345 15.0711 64.9764 15.2047 64.921 15.3389C64.6531 15.5567 64.3881 15.7803 64.1295 16.0163C63.6989 15.7959 63.2697 15.5755 62.8391 15.3551C62.5169 15.1902 61.9739 15.3051 61.9103 15.7323C61.8061 16.4354 61.5529 17.0181 61.1913 17.5062C60.0161 18.1227 58.8855 18.8149 57.8037 19.5842C56.5594 19.9736 55.2366 20.2007 54.1493 20.4562C53.777 20.5441 53.5739 21.0295 53.7837 21.3526C54.0058 21.6947 54.2278 22.0367 54.4485 22.3788C53.8298 22.9818 53.2489 23.6118 52.7006 24.2635C51.1746 26.0751 49.8978 28.0612 48.7551 30.1649C48.3028 30.3475 47.8506 30.5286 47.3984 30.7112C46.9624 30.8869 46.7661 31.3926 47.1195 31.7644C47.2874 31.9415 47.4376 32.128 47.5663 32.3241C46.9258 33.3827 46.1717 34.348 45.1169 34.9808C44.796 35.1728 44.555 35.4742 44.4264 35.8163C44.3167 35.8893 44.2084 35.9677 44.1015 36.0475C43.8036 36.2719 43.6235 36.7614 43.9728 37.052C44.2179 37.2575 44.4481 37.5009 44.643 37.7699C44.685 37.9227 44.7283 38.0768 44.7717 38.2296C43.7914 39.1301 42.9763 40.1765 42.3643 41.35C42.2194 41.3271 42.0705 41.3419 41.95 41.4312C40.856 42.2383 40.8235 43.5241 41.2635 44.6733C40.9981 46.4052 41.1687 48.1803 41.6805 49.8582C41.0076 50.5288 40.6028 51.4968 40.4376 52.4297C40.1465 54.0683 40.1262 56.5884 40.0504 58.2609C39.3165 58.968 38.7939 59.8833 38.5028 60.8675C38.2577 60.9892 38.0126 61.1109 37.7675 61.2326C37.5496 61.3407 37.3898 61.626 37.4033 61.8666C37.4656 63.0307 37.9463 63.9501 38.584 64.7829C38.8101 65.4251 39.1445 66.0173 39.5832 66.5851C39.8865 66.9745 40.183 67.3477 40.4444 67.7681C40.4714 67.81 40.4877 67.8492 40.4999 67.8763C40.397 67.9871 40.3117 68.171 40.2372 68.3022C39.6117 69.4027 39.6022 70.6925 40.4904 71.6511C40.156 71.9242 40.1451 72.4758 40.4403 72.8138C42.3616 75.0054 43.9633 77.6702 46.6293 78.8342C46.6415 78.8545 46.6523 78.8748 46.6618 78.8951C46.1216 80.193 46.0485 80.8676 46.4899 82.2088C46.4926 82.221 46.4966 82.2318 46.5007 82.244C46.7363 82.947 47.1696 84.0732 47.9508 84.2923C48.1972 84.3612 48.4396 84.3923 48.6792 84.391C49.2994 84.9872 49.9181 85.5848 50.5369 86.1824C50.5911 86.4784 50.6249 86.7772 50.6357 87.0787C50.6533 87.583 51.1286 87.9913 51.6404 87.8426C51.8205 87.7899 52.817 86.8232 52.9998 86.8286C53.0919 86.9206 53.1812 87.0125 53.2706 87.1058C53.5996 87.4505 54.0559 87.994 54.0938 88.355C54.1669 89.0351 54.6137 89.8138 55.3354 89.9517C55.6062 90.2262 56.0395 90.3087 56.3712 89.9504C56.3929 89.9274 56.4145 89.9044 56.4375 89.8841C56.4727 89.8801 56.5066 89.876 56.5418 89.872C56.7016 90.3479 56.8613 90.8238 57.0225 91.2983C57.3379 92.2339 58.543 92.8355 59.3987 92.2893C59.5368 92.3718 59.6722 92.4597 59.8076 92.5476C60.0134 92.6787 60.2219 92.8126 60.4358 92.9383C60.448 92.9735 60.4602 93.0086 60.471 93.0424C60.6091 93.4629 61.1832 93.6887 61.5366 93.4467C61.6463 93.4818 61.7587 93.5102 61.8724 93.5332C62.4695 93.6508 63.0707 93.6184 63.6475 93.4196C64.0604 93.279 64.4544 93.01 64.8985 92.9735C64.9263 92.9712 64.9549 92.9731 64.983 92.9722C65.3453 93.7134 66.1733 94.3521 66.8258 94.5691C67.6804 94.8534 68.5551 94.7517 69.3334 94.4036C69.5434 94.8229 69.8071 95.2198 70.1222 95.5869C70.2968 95.7897 70.6123 95.7464 70.7924 95.5869C71.1344 95.2842 71.4743 94.98 71.8136 94.6754C72.0592 94.5808 72.3071 94.4674 72.5657 94.362C73.3746 94.0321 74.2613 93.8954 75.0094 93.4187C75.3645 93.1924 75.6985 92.9036 75.9737 92.5689C76.492 92.2701 76.9682 91.8979 77.3971 91.4714C77.611 91.4727 77.8344 91.4227 78.0511 91.3132C78.9569 90.8535 79.4335 89.9179 79.4754 88.9607C80.2093 87.2369 80.6426 85.3982 80.7617 83.5162C80.7996 82.8984 80.8064 82.2751 80.759 81.6572C80.7265 81.2219 80.6169 80.9312 80.4517 80.5378C80.3962 80.4093 80.3461 80.2917 80.3068 80.1619C80.3163 79.7455 80.3217 79.3291 80.3271 78.914C80.4395 78.5638 80.6399 78.238 80.9188 77.9636C81.3507 77.539 81.5484 76.6575 81.1557 76.1329C80.8998 75.7936 80.6453 75.4542 80.3894 75.1149C80.4611 73.6588 80.8105 71.3415 80.036 71.0981C80.0671 70.8818 80.1335 70.6682 80.1714 70.4532C80.3528 69.4203 80.2445 68.4968 79.6948 67.5937C79.5797 67.4058 79.4822 67.2395 79.4023 67.0772C79.3522 66.7798 79.3021 66.4824 79.252 66.1849C79.1749 65.7266 79.099 65.2642 79.0341 64.7991C79.0002 64.207 78.9691 63.6148 78.9352 63.0212C78.9041 62.475 78.8689 61.9288 78.8323 61.3813C78.8472 61.1366 78.8689 60.8918 78.9 60.6471C79.0855 59.1883 79.6826 58.6489 80.717 57.6349C80.8795 57.6092 81.0406 57.5808 81.1991 57.5484C81.937 57.3956 82.7087 57.159 83.4683 57.2442C84.2929 57.3361 85.0308 57.6917 85.8324 57.2374C86.068 57.1022 86.5865 56.729 86.6312 56.4329C86.6339 56.414 86.638 56.3978 86.6434 56.3856C86.6989 56.3775 86.7707 56.3708 86.8154 56.3694C87.4517 56.3478 88.0597 56.5979 88.7015 56.5289C89.461 56.4478 90.1407 56.1112 90.5875 55.6123C91.1603 55.7529 91.7452 55.8164 92.3396 55.738C92.8378 55.6731 93.2847 55.5109 93.7261 55.2702C94.0469 55.0972 93.9454 55.0472 94.2947 55.1878C95.0895 55.5095 95.8085 55.9341 96.7035 55.7137C97.1679 55.6001 97.5686 55.35 97.9058 55.0134C97.9857 54.9349 98.1211 54.8173 98.2118 54.7064C98.6369 54.9214 99.7066 55.4068 99.8826 55.45C100.381 55.5717 100.909 55.5528 101.394 55.3906C101.75 55.2716 102.186 54.9471 102.498 54.8809C102.903 54.7943 103.802 55.3568 104.286 55.5501C105.133 55.8894 106.031 55.9733 106.889 55.6231C107.185 55.5028 107.759 55.0228 107.979 55.0269C108.338 55.469 109.34 57.8877 109.641 58.7706C110.858 62.3398 111.173 73.4844 110.612 76.3276C110.59 76.4115 110.567 76.4939 110.544 76.5778C109.853 79.0506 109.134 81.5653 107.979 83.8691C106.889 86.0404 105.382 87.9954 103.22 89.1811C100.978 90.4114 98.3458 90.7345 95.8247 90.5683C94.2013 90.4628 92.605 90.137 91.0343 89.7287C90.2138 89.5164 89.4001 89.2798 88.5904 89.0337C88.237 88.9269 87.8782 88.8269 87.5316 88.7025C86.9196 88.4821 86.5987 88.4645 86.0125 88.7471C85.479 89.004 85.3422 89.7625 85.6198 90.2397C86.072 91.0185 86.9007 91.0725 87.7009 91.2997C88.516 91.5309 89.3338 91.7526 90.157 91.9513C91.7344 92.3299 93.3375 92.6206 94.9541 92.7544C97.8489 92.9964 100.832 92.6233 103.467 91.3619C103.764 91.2186 104.051 91.0658 104.329 90.9008C104.226 91.0442 104.122 91.1875 104.016 91.3294C103.724 91.7229 103.94 92.3921 104.351 92.6071C104.481 92.6747 104.611 92.7396 104.742 92.8031C104.76 92.845 104.779 92.8869 104.8 92.9288C105.175 93.6806 105.961 94.124 106.761 94.316C107.711 94.5431 108.776 94.3822 109.742 94.3539C110.639 94.3268 111.535 94.2998 112.43 94.2727C112.641 94.2673 112.852 94.2606 113.064 94.2538C114.128 94.2214 115.191 94.1903 116.254 94.1578C117.201 94.1294 117.157 94.2024 118.046 93.8239C118.443 93.6535 118.768 93.4129 119.041 93.0924C119.212 93.0167 119.377 92.9302 119.536 92.8315C120.045 92.5151 120.497 92.0906 120.914 91.6228C121.622 91.8459 122.615 91.639 122.753 90.7508C122.975 89.3298 124.824 88.7228 125.688 87.6953C126.385 86.8665 126.884 85.7808 126.858 84.7384C128.615 83.8894 129.571 81.6518 129.795 79.7536C129.899 78.8735 129.883 77.9311 130.033 77.0361C130.099 76.9644 130.159 76.8887 130.209 76.8076C130.65 76.0951 131.035 75.361 131.373 74.6092C131.834 74.278 132.388 74.0739 132.967 74.04C134.391 73.9576 134.659 72.0391 133.301 71.5767C133.295 71.574 133.289 71.5727 133.282 71.5699C133.651 70.6506 133.62 69.5622 133.173 68.6915C133.192 68.5969 133.209 68.5036 133.227 68.409C133.989 67.591 134.427 66.454 134.378 65.3467C134.726 65.102 135.116 64.9127 135.542 64.7951C136.202 64.6139 136.206 63.8108 135.718 63.4512C135.522 63.3065 135.359 63.1375 135.224 62.9509C135.561 61.9397 135.429 60.7702 134.739 59.94C135.177 59.3803 135.614 58.8206 136.051 58.2609C136.341 57.8904 136.494 57.2617 136.051 56.9102C135.768 56.6844 135.485 56.46 135.201 56.2356Z" fill="black"/>
<path fill-rule="evenodd" clip-rule="evenodd" d="M100.613 84.7825L100.902 84.7058C101.937 84.4244 103.01 83.9777 103.998 84.5899C104.354 84.811 104.408 85.2811 104.126 85.5853C103.326 86.4484 102.145 86.2809 101.063 86.2896L101.01 86.2902C99.9215 86.3052 98.841 86.251 97.7636 86.0951C97.6216 86.0745 97.5936 85.8389 97.7226 85.7824C98.6606 85.3717 99.6254 85.0479 100.613 84.7825ZM102.368 69.0016C103.391 69.6222 104.949 71.0693 103.849 72.6078C102.554 73.9643 100.69 72.4089 99.7714 71.7055C98.9196 71.1603 97.9627 72.5624 98.7529 73.199C105.391 78.1061 108.084 69.1639 102.885 68.272C102.313 68.1737 102.1 68.8097 102.368 69.0016ZM109.477 60.8407C111.126 60.7903 111.128 63.4068 109.477 63.3998C108.984 63.3976 108.491 63.3975 107.998 63.3964C108.285 64.4389 108.121 65.6821 107.604 66.5578C107.263 67.1358 106.446 67.2408 105.969 66.7682C105.146 65.9521 104.983 64.7587 105.274 63.6765L105.215 63.535C105.195 63.4886 105.181 63.4417 105.17 63.3945C103.577 63.3959 101.984 63.3997 100.391 63.4023L98.0012 63.4048C96.4498 63.4053 94.8978 63.4179 93.3463 63.4034C93.3653 63.4322 93.3844 63.4609 93.4 63.4937C93.4968 63.6972 93.5378 63.9541 93.5683 64.1741C93.6203 64.5516 93.6141 64.9581 93.5545 65.3341C93.511 65.6088 93.4311 65.936 93.278 66.1949L93.2771 66.2003C93.2049 66.5075 93.1138 66.8015 92.8759 67.0231C92.8044 67.0895 92.7347 67.1368 92.661 67.1704C92.522 67.3157 92.343 67.4118 92.1078 67.4149C91.9829 67.4163 91.846 67.3799 91.7134 67.3283C91.5093 67.3453 91.2986 67.2531 91.1181 67.1715C90.9734 67.1059 90.8406 67.0188 90.7335 66.9052C90.6833 66.8934 90.6326 66.8737 90.582 66.8425C90.2716 66.6519 90.153 66.2698 90.1369 65.9248C90.1358 65.9038 90.1367 65.8818 90.136 65.8606C90.1245 65.8138 90.1142 65.7667 90.1063 65.7194C90.0031 65.1063 90.1285 64.4158 90.2599 63.82C90.2929 63.6709 90.3201 63.4977 90.3606 63.3302C90.0509 63.3181 89.7416 63.3062 89.4319 63.2935C88.6563 63.2619 87.7098 63.3656 86.9923 63.0383C86.94 63.0146 86.9541 62.9451 86.9923 62.9179C87.6547 62.4451 88.6839 62.3686 89.4816 62.2129L89.5494 62.1993C90.5007 62.0045 91.4515 61.8407 92.4124 61.7007C94.2621 61.4314 96.1354 61.2865 98.0012 61.1821C101.821 60.9685 105.653 60.9574 109.477 60.8407Z" fill="black"/>
</svg>
