<svg width="443" height="645" viewBox="0 0 443 645" fill="none" xmlns="http://www.w3.org/2000/svg">
<path fill-rule="evenodd" clip-rule="evenodd" d="M227.29 380.182C226.704 386.297 227.903 392.137 230.761 397.074L231.691 398.681L229.921 399.299C226.7 400.424 223.119 400.971 218.971 400.971C214.703 400.971 210.264 400.378 206.698 399.9L204.414 399.595L205.536 397.613C206.438 396.021 206.605 394.091 206.782 392.048C206.829 391.5 206.878 390.932 206.943 390.371C210.322 360.196 214.594 329.628 218.725 300.066C219.812 292.288 220.936 284.244 222.027 276.331L225.155 276.452C225.996 291.097 226.813 305.991 227.603 320.394C227.95 326.727 228.297 333.061 228.648 339.393C229.896 355.404 229.465 368.368 227.29 380.182M226.014 561.126C230.608 561.126 235.21 560.648 239.693 559.706C253.723 556.764 266.469 549.823 277.314 543.548C277.868 543.235 278.43 542.921 279.007 542.599C283.253 540.225 288.537 537.273 291.848 533.671C295.481 529.719 296.106 525.782 293.816 521.279L293.453 520.567L293.832 519.863C296.204 515.452 296.027 509.996 293.403 506.594L291.197 503.735L294.824 504.12C298.48 504.507 302.165 505.032 305.73 505.54C309.684 506.104 313.773 506.686 317.801 507.076L318.92 507.185L319.178 508.262C319.321 508.862 319.498 509.226 320.74 509.226C321.818 509.226 323.266 508.911 324.798 508.577C326.7 508.164 328.856 507.695 330.934 507.695C331.849 507.695 332.671 507.781 333.449 507.961L333.901 508.065L334.224 508.395C334.43 508.605 334.78 508.736 335.138 508.736C335.409 508.736 335.661 508.661 335.829 508.529L336.337 508.132L336.981 508.203C348.209 509.435 357.89 511.596 366.578 514.81L366.617 514.825L366.806 514.906C369.947 516.26 373.195 517.661 376.153 517.661C378.315 517.661 380.071 516.926 381.679 515.348L382.134 514.903L382.775 514.897C389.279 514.837 392.251 507.26 392.662 502.183L392.713 501.543L393.209 501.127C404.544 491.625 411.236 478.575 413.667 461.23C415.882 445.431 414.181 428.774 412.226 414.563C407.703 377.735 402.986 344.72 390.994 313.408L390.433 311.944L391.927 311.408C397.106 309.549 401.064 307.331 404.028 304.627L404.233 304.439L404.491 304.333C408.739 302.59 410.819 296.155 411.356 294.224L411.399 294.068L411.474 293.925C412.34 292.264 412.54 289.954 412.022 287.587L411.966 287.331L411.999 287.072C412.279 284.825 411.35 282.475 410.366 279.986C409.917 278.85 409.452 277.675 409.113 276.505C407.946 273.161 406.781 269.757 405.653 266.466C403.124 259.08 400.508 251.444 397.722 244.015L397.341 242.999L398.181 242.299C399.614 241.103 399.135 239.696 397.069 236.33C396.581 235.535 396.119 234.783 395.768 234.042C393.119 229.47 390.28 225.081 387.329 220.996L387.268 220.912L387.219 220.821C372.075 192.566 345.211 177.006 311.577 177.006L310.891 177.007L310.512 176.779C304.208 172.992 299.708 166.495 296.755 156.916L296.661 156.611L296.697 156.293C296.798 155.41 296.909 154.253 296.871 153.13C296.775 150.285 295.659 147.747 293.809 146.165C290.3 143.164 284.972 142.913 279.816 142.913L279.075 142.915C272.483 142.933 267.829 144.077 264.428 146.513C260.477 149.344 258.294 153.914 257.753 160.484C257.591 162.45 257.597 164.486 257.601 166.456L257.603 167.005L257.536 167.223C257.063 168.785 256.508 170.285 255.887 171.683L255.249 173.121L253.797 172.473C252.858 172.054 251.667 171.838 250.157 171.814C249.721 171.804 249.297 171.799 248.868 171.799C245.361 171.799 241.609 172.119 237.98 172.428C235.246 172.661 232.419 172.902 229.683 173.009L229.645 173.011C229.645 173.011 229.267 173.009 229.098 173.009C222.447 173.009 217.625 174.054 213.924 176.297C209.94 178.713 207.074 182.589 204.908 188.497C193.287 222.363 188.51 258.841 184.296 291.023C181.905 307.852 181.178 325.106 180.475 341.791C179.733 359.402 178.965 377.613 176.248 395.414L176.033 396.821L174.59 396.728C168.24 396.319 161.378 395.437 154.113 394.503C143.075 393.085 131.66 391.618 120.626 391.618C105.198 391.618 93.5004 394.651 84.8702 400.888C78.8536 406.552 75.741 414.22 75.8689 423.069C76.0497 435.573 82.6704 449.397 92.7357 458.287L92.7737 458.322C105.496 470.329 128.72 480.743 161.799 489.274C192.218 497.12 223.682 501.383 239.73 503.226L243.702 503.683L240.478 506.011C239.173 506.954 237.982 507.783 236.838 508.548L236.1 509.041L235.291 508.671C232.985 507.614 231.52 507.392 230.697 507.392C229.967 507.392 229.085 507.551 229.037 508.306C229.005 508.8 229.357 509.534 230.101 509.627L234.049 510.119L230.825 512.416C228.672 513.95 225.46 515.799 221.74 517.94C209.569 524.945 191.177 535.531 194.341 544.827L194.548 545.438L194.254 546.013C193.404 547.678 193.332 549.222 194.033 550.736C195.535 553.98 200.232 556.443 204.222 557.445L204.29 557.462L204.357 557.485C211.299 559.901 218.585 561.126 226.014 561.126" fill="white"/>
<path fill-rule="evenodd" clip-rule="evenodd" d="M239.368 501.406C238.889 500.918 238.687 500.279 239.135 499.528C240.867 497.318 244.461 498.829 246.696 499.34C247.54 498.639 248.378 497.935 249.185 497.192C248.905 495.454 250.996 494.298 251.856 492.957C252.7 491.97 253.494 490.848 254.506 490.02C256.972 488.099 260.389 489.399 263.251 489.311C265.455 486.511 267.724 483.798 269.821 480.905C267.405 476.848 267.234 472.095 268.036 467.575C230.972 453.526 198.889 426.926 158.803 420.778C157.424 420.549 156.651 418.875 156.995 417.648C159.791 410.981 199.974 428.182 205.981 431.297C223.697 439.771 240.291 450.333 257.509 459.653C261.099 461.558 265.049 462.582 268.974 463.573C275.007 443.794 285.212 425.662 293.038 406.592C292.529 405.713 292.097 404.79 291.73 403.841C291.989 414.329 281.779 414.182 280.369 404.233C280.951 409.419 277.025 420.525 271.359 413.238C270.03 411.407 269.559 409.063 269.334 406.698C269.042 408.333 268.712 409.96 268.345 411.582C266.891 414.795 262.921 410.889 261.998 409.212C261.466 409.117 260.968 408.875 260.604 408.578C250.585 409.968 238.784 409.888 231.433 401.987C218.964 406.765 205.163 402.484 192.552 400.576C166.89 397.629 141.126 393.136 115.234 393.479C103.674 394.15 90.0362 396.014 82.7242 405.868C73.3447 420.072 78.6464 439.255 88.9929 451.551C113.882 483.029 199.314 496.717 239.368 501.406M238.669 512.744C238.216 512.623 237.759 512.512 237.306 512.407C230.041 518.449 195.828 534.138 198.431 543.509C199.35 544.675 201.552 544.94 202.944 545.317C205.368 545.972 207.815 546.539 210.287 546.988C218.275 548.44 226.548 548.692 234.526 547.037C237.461 546.591 240.11 545.34 242.783 544.131C251.421 540.335 260.934 536.141 269.53 532.377C280.451 528.052 299.605 519.529 291.727 505.147C284.263 513.533 274.79 512.801 270.017 502.378C268.372 499.214 266.935 494.948 263.07 493.669C261.031 492.292 258.423 492.006 256.72 493.54C256.597 493.35 256.487 493.081 256.427 492.844C254.506 495.575 252.849 498.45 250.598 500.947C251.371 500.988 259.417 506.937 257.042 506.94C254.186 505.47 251.348 504.245 248.263 503.453C246.028 505.699 243.569 507.788 241.022 509.719C243.496 511.352 245.718 513.35 247.506 515.519C247.66 515.71 247.472 515.958 247.241 515.854C244.466 514.619 241.612 513.533 238.669 512.744M201.843 553.267C229.63 565.735 259.047 551.851 282.744 537.049C288.213 533.999 295.407 529.674 294.301 522.492C290.273 528.38 283.632 531.732 277.258 534.638C266.55 539.473 255.772 544.154 245.037 548.93C244.023 552.29 239.175 552.418 236.244 553.164C223.201 555.691 209.181 554.435 196.905 549.396C197.616 551.498 199.94 552.462 201.843 553.267M312.709 504.717C313.395 504.805 314.082 504.884 314.768 504.962C314.698 504.054 315.245 503.146 316.126 502.865C315.73 500.941 315.583 498.953 315.796 497.001C314.648 499.964 310.942 499.064 308.589 498.21C305.226 497.297 301.885 496.315 298.562 495.268C297.252 497.7 295.863 500.096 294.157 502.298C300.368 502.85 306.521 503.946 312.709 504.717M315.442 495.397C315.607 495.745 315.843 496.114 315.848 496.532C316.016 495.09 316.343 493.667 316.841 492.302C316.375 493.334 315.908 494.365 315.442 495.397M319.362 487.668C322.418 483.69 328.066 480.438 333.286 481.546C333.622 481.619 333.63 482.158 333.286 482.225C326.273 483.176 320.115 488.733 319.871 495.918C319.318 499.17 321.582 502.362 320.82 505.483C320.972 505.493 321.124 505.501 321.273 505.511C321.328 505.72 321.378 505.905 321.444 506.068C320.686 506.194 320.463 507.412 321.357 507.628C321.886 507.757 322.439 507.824 323.003 507.853C325.862 507.082 328.878 506.903 331.612 505.764C334.316 504.57 333.64 501.215 334.594 498.891C335.294 496.212 336.098 493.543 337.112 490.972C337.186 490.765 337.466 490.812 337.49 491.021C338.205 496.15 338.182 501.367 338.009 506.537C338.947 506.633 339.88 506.739 340.816 506.855C340.755 505.41 345.092 487.816 347.378 492.331C346.227 497.295 346.088 502.481 345.965 507.589C352.75 508.706 359.435 510.369 365.94 512.634C370.524 514.021 375.975 518.126 380.425 514.415C383.871 511.569 385.032 506.602 384.707 502.375C380.225 477.369 344.83 474.447 323.936 476.296C321.962 480.845 319.952 485.379 317.916 489.902C318.338 489.123 318.82 488.375 319.362 487.668M390.627 501.888C391.01 496.209 390.053 489.141 385.842 484.909C376.203 476.768 362.706 474.207 350.661 471.26C345.051 470.154 339.364 469.419 333.653 469.053C331.627 468.893 329.054 469.351 327.623 467.696C326.886 469.439 326.14 471.18 325.393 472.921C349.372 469.782 399.401 480.685 385.391 513.5C388.358 510.289 390.323 506.38 390.627 501.888M271.493 483.117C270.39 485.871 269.04 488.494 267.276 490.892C269.281 492.202 270.916 494.138 272.069 496.22C279.46 515.535 287.364 505.189 297.184 494.824C288.873 491.692 277.866 489.345 271.493 483.117M394.506 497.958C413.723 478.994 417.452 447.401 410.353 422.568C409.721 413.359 406.498 404.584 403.61 395.865C394.414 369.417 382.319 343.972 367.814 319.949C349.818 324.887 331.853 329.957 313.814 334.733C311.33 335.272 308.843 336.337 306.293 336.491C305.381 337.072 304.466 337.711 303.518 338.273C304.899 345.032 303.625 351.933 303.303 358.733C303.01 364.087 303.588 369.329 304.299 374.626C305.093 382.331 308.361 407.394 301.812 411.982C299.592 413.052 297.608 409.883 296.652 410.755C295.789 410.154 294.985 409.372 294.33 408.511C291.801 416.681 287.668 424.259 285.115 432.437C281.719 444.454 270.565 463.905 273.042 475.368C274.957 482.446 283.338 483.973 289.387 486.286C296.376 488.716 303.444 490.946 310.628 492.757C314.134 485.322 317.486 477.818 320.775 470.285C335.807 435.531 349.12 400.053 361.018 364.151C361.241 363.354 363.977 354.721 364.478 357.129C364.52 356.882 364.832 356.242 364.949 356.789C362.932 365.219 360.885 373.646 358.67 382.03C364.111 381.269 369.96 380.972 374.94 383.636C375.196 383.773 375.008 384.111 374.754 384.07C368.857 383.048 363.17 384.977 357.507 386.362C349.553 413.408 339.29 439.768 328.427 465.798C331.787 464.728 335.687 465.912 339.193 465.996C350.237 467.137 361.155 469.55 371.588 473.305C384.702 477.552 393.974 483.091 394.506 497.958M405.086 300.593C408.314 297.119 410.851 292.683 410.361 287.977C408.422 285.393 407.779 282.023 406.65 279.036C402.234 266.54 398.135 253.948 393.329 241.585C383.106 244.726 373.048 248.494 363.56 253.442C361.815 254.332 360.088 255.255 358.382 256.212C356.595 257.213 354.645 258.951 352.501 258.453C354.844 261.767 359.669 265.215 360.484 269.044C360.659 270.256 359.8 271.38 358.479 271.11C337.804 285.78 316.453 300.141 296.911 316.483C282.277 328.056 271.042 337.443 266.023 356.222C262.64 368.386 262.63 381.099 263.128 393.606C263.225 396.037 263.227 398.526 263.424 400.973C263.13 402.804 263.688 406.531 265.748 406.598C265.701 407.041 265.554 407.451 265.321 407.812C265.387 407.9 265.455 407.982 265.526 408.067C265.628 407.567 265.727 407.069 265.822 406.569C267.426 399.472 267.64 391.238 267.373 383.683C267.261 381.517 270.586 381.568 270.772 383.683C271.273 389.395 271.773 395.107 272.274 400.816C272.874 404.517 271.928 409.357 274.889 412.17C277.9 409.39 276.905 403.908 276.758 400.321C276.522 394.47 276.268 388.621 276.05 382.77C275.982 380.916 279.056 380.439 279.405 382.324C280.393 387.698 281.462 393.057 282.613 398.4C283.307 400.465 283.784 409.733 287.254 408.124C289.321 406.714 287.83 398.444 288.103 395.705C287.974 390.284 287.899 384.872 287.5 379.464C287.338 377.282 290.894 376.818 291.381 378.948C292.173 382.396 292.93 385.844 293.617 389.315C295.124 395.166 294.576 403.098 300.016 406.987C302.147 391.788 299.081 376.694 298.651 361.549C298.908 356.642 299.752 351.783 300.496 346.935C301.319 341.574 301.799 335.738 299.872 330.568C300.399 328.252 302.469 334.516 302.663 335.037C304.223 331.968 308.02 331.731 311.023 330.774C317.698 328.616 324.536 326.989 331.289 325.07C349.199 320.101 367.13 315.209 385.066 310.327C392.231 308.347 399.773 306.003 405.086 300.593M225.738 381.439C228.209 368.058 228.141 354.499 227.085 340.971C225.924 319.99 224.797 299.004 223.592 278.026C218.358 315.995 212.779 353.921 208.513 392.012C208.209 394.663 208.255 397.469 206.916 399.834C214.317 400.824 222.206 401.822 229.402 399.307C226.244 393.853 225.13 387.644 225.738 381.439M188.343 287.188C182.748 323.175 185.94 359.793 180.513 395.738C188.042 396.582 195.514 397.83 202.965 399.202C202.149 394.761 203.695 390.176 203.963 385.704C208.009 353.81 212.477 321.937 218.398 290.321C219.85 282.755 221.317 275.22 223 267.695C222.745 263.139 222.523 258.582 222.376 254.022C214.16 248.863 204.896 245.523 195.314 243.839C192.726 258.249 190.139 272.649 188.343 287.188M253.114 174.104C253.442 173.545 253.753 172.972 254.052 172.392C253.041 172.431 252.055 172.467 251.059 172.632C251.104 174.233 251.015 175.848 250.996 177.462C251.495 176.281 252.469 175.203 253.114 174.104M84.1263 399.619C108.024 382.259 147.277 393.32 174.962 395.104C180.24 360.53 178.086 325.392 183.005 290.762C187.536 256.166 192.314 221.087 203.693 187.939C208.389 175.123 216.513 171.317 229.889 171.42C236.677 171.154 243.855 170.069 250.451 170.223C251.898 170.247 253.41 170.437 254.715 171.02C256.55 166.889 257.546 162.454 258.049 157.985C258.08 157.701 258.442 157.649 258.549 157.92C260.101 161.811 260.266 166.059 259.422 170.133C258.811 173.052 255.176 184.541 250.954 180.046C250.619 189.471 252.692 200.727 261.935 205.619C278.087 212.654 300.412 206.249 309.768 191.318C311.576 188.334 313.136 185.159 315.138 182.294C301.188 178.349 293.358 161.652 296.644 148.936C298.675 158.825 302.378 169.875 311.6 175.414C345.182 175.34 373.102 190.619 388.879 220.047C391.966 224.321 394.82 228.761 397.436 233.279C398.843 236.301 402.965 240.505 399.467 243.424C403.508 254.198 407.093 265.121 410.882 275.981C411.923 279.599 414.303 283.395 413.828 287.198C414.342 289.543 414.318 292.315 413.141 294.569C412.025 298.586 409.52 303.991 405.366 305.696C401.841 308.912 397.383 311.127 392.734 312.795C405.133 345.164 409.852 380.072 414.053 414.272C418.171 444.191 420.296 480.585 394.498 502.207C393.997 508.394 390.323 516.277 383.058 516.344C378.027 521.28 371.894 518.572 366.294 516.159C356.841 512.662 346.927 510.723 337.076 509.642C336.02 510.467 334.3 510.331 333.36 509.369C327.392 507.994 319.121 513.559 317.916 508.518C310.221 507.772 302.611 506.375 294.924 505.56C298.164 509.758 297.93 515.95 295.491 520.486C301.704 532.696 287.23 539.767 278.38 544.778C266.433 551.689 253.955 558.247 240.291 561.111C228.278 563.636 215.693 562.87 204.102 558.837C198.011 557.308 189.504 552.287 193.119 545.214C188.537 531.753 220.709 517.804 230.172 511.063C226.304 510.581 226.163 502.561 236.224 507.169C237.44 506.357 238.635 505.519 239.817 504.665C199.123 499.993 121.406 487.137 91.9543 459.349C75.7744 445.06 66.4392 416.157 84.1263 399.619" fill="black"/>
<path fill-rule="evenodd" clip-rule="evenodd" d="M226.353 118.577C226.455 112.842 226.568 106.993 227.421 101.314C228.255 95.7614 230.55 90.7428 234.494 86.7111C242.871 78.1471 255.013 76.0553 266.316 74.1384L285.64 70.8608C291.535 69.8612 297.825 68.2632 303.781 69.6809C306.716 70.3796 309.209 72.0026 311.487 73.9228C313.683 75.7737 316.043 77.7613 317.531 80.2514C319.022 82.7451 319.535 85.6602 320.019 88.4805C320.566 91.6603 320.99 94.8649 321.292 98.0772C321.896 104.513 321.979 110.997 321.54 117.446C321.328 120.574 320.99 123.694 320.558 126.799C320.344 128.339 320.103 129.875 319.829 131.405C319.749 131.857 319.688 132.356 319.605 132.861C320.215 134.593 320.561 136.387 320.533 138.173C320.451 143.435 316.006 146.747 311.525 148.525C308.927 149.557 306.211 150.257 303.658 151.409C300.973 152.621 299.145 154.585 297.309 156.826C293.807 161.1 289.855 164.941 285.343 168.145C275.776 174.94 263.659 178.153 252.051 175.714C249.266 175.129 246.456 174.22 243.952 172.851C241.309 171.405 239.322 169.31 237.653 166.833C234.554 162.235 232.331 157.058 230.65 151.789C228.935 146.415 227.718 141.03 227.054 135.426C226.392 129.84 226.253 124.198 226.353 118.577V118.577Z" fill="white"/>
<path fill-rule="evenodd" clip-rule="evenodd" d="M288.018 50.8835C280.021 49.7845 268.984 53.3565 265.001 60.5588C245.988 56.0803 222.007 55.9336 206.336 70.8423C189.984 88.5273 210.523 111.845 224.142 117.102C223.151 121.917 224.697 152.761 235.636 166.519C244.318 178.176 264.536 183.556 273.892 169.633L273.964 169.518C274.967 167.91 274.104 167.961 273.075 169.158C263.914 177.207 251.458 177.344 241.859 168.85C223.871 153.323 225.725 115.253 234.285 93.2295C258.66 90.5548 284.757 97.9361 301.592 116.268L300.454 123.115C300.26 124.282 300.04 125.448 299.872 126.618C299.764 127.368 299.752 128.114 300.272 128.722C301.989 130.726 304.884 127.714 307.266 126.516C307.969 126.417 308.673 126.379 309.364 126.428C320.806 127.9 318.552 150.077 305.976 146.19C304.919 145.532 304.011 145.733 303.601 146.687C300.604 149.431 298.627 154.323 293.647 159.036C291.89 160.804 290.291 162.282 288.314 163.7C287.153 164.873 283.65 166.069 284.761 168.077C286.861 172.644 299.244 158.297 301.434 154.329C308.294 157.035 315.896 156.116 323.005 155.455C360.508 153.506 355.501 114.008 324.761 89.071C318.974 84.8148 312.59 81.3427 305.954 78.6708C305.048 78.306 305.443 76.8197 306.362 77.1896C310.753 78.9578 315.034 81.0623 319.115 83.4982L319.121 82.0419C319.127 79.5891 319.088 77.0355 318.662 74.7944C318.449 73.2415 318.09 71.5829 317.538 70.3352C316.856 66.5098 306.168 53.379 288.018 50.8835ZM309.864 131.519C309.285 130.969 308.204 131.625 307.689 131.608C306.37 131.789 305.118 132.345 304.141 133.032C303.496 133.392 303.044 133.731 302.667 134.043L302.657 134.04C302.659 134.04 302.663 134.043 302.666 134.044L302.63 134.068C302.081 134.458 300.067 136.657 301.339 136.066C301.434 135.943 301.531 135.824 301.629 135.709C301.64 135.724 301.654 135.74 301.672 135.755L301.6 135.861C300.519 137.486 302.386 135.774 302.673 135.319C302.686 135.33 302.702 135.338 302.717 135.346L302.343 135.8C302.291 135.865 302.249 135.917 302.215 135.96L302.136 136.036C300.887 137.264 300.848 138.368 302.3 136.554C302.242 136.639 302.197 136.73 302.19 136.81L302.104 136.92C300.964 138.388 301.891 137.866 302.458 137.239L302.505 137.185L302.496 137.2C301.969 138.011 303.014 137.442 303.199 137.008L303.207 136.989C303.408 136.824 303.532 136.64 303.575 136.594L303.583 136.586C304.563 135.582 305.984 134.733 307.191 134.347C307.366 134.314 307.543 134.287 307.722 134.269C308.448 134.107 309.182 133.996 309.923 133.936C310.014 133.925 310.106 133.859 310.174 133.773C311.296 133.735 310.95 133.276 310.484 133.19L310.476 133.189L310.568 133.181C311.288 133.111 311.78 132.853 311.052 132.695L310.96 132.676C310.971 132.659 310.981 132.641 310.991 132.623C311.614 132.555 311.207 131.95 310.861 132.096C311.007 131.621 310.342 131.858 310.259 131.788C310.195 131.717 310.117 131.656 310.071 131.652C309.871 131.511 309.968 131.524 309.864 131.519ZM306.052 123.822L306.198 123.908C306.316 123.976 306.437 124.022 306.559 124.049C306.387 124.122 306.217 124.201 306.049 124.286C306.051 124.183 306.053 124.079 306.053 123.977L306.052 123.822Z" fill="black"/>
<path fill-rule="evenodd" clip-rule="evenodd" d="M255.304 155.373C257.027 154.671 258.563 153.5 259.687 152.004C260.078 151.484 260.179 150.935 260.097 150.433C260.005 149.868 259.67 149.356 259.214 149.013C258.757 148.668 258.184 148.498 257.631 148.585C257.15 148.66 256.672 148.923 256.293 149.469L256.214 149.578C255.546 150.481 254.676 151.221 253.684 151.699C252.728 152.159 251.659 152.374 250.552 152.249C248.445 152.011 246.993 150.873 245.449 149.327C245.258 149.131 245.066 148.93 244.874 148.725C244.753 148.54 244.584 148.421 244.397 148.358C244.189 148.289 243.954 148.293 243.738 148.368C243.531 148.44 243.345 148.578 243.22 148.76C243.102 148.934 243.035 149.148 243.057 149.395C243.198 150.997 244.036 152.427 245.227 153.55C246.55 154.797 248.304 155.66 249.954 155.963C251.773 156.296 253.626 156.057 255.304 155.373V155.373ZM249.096 130.654C247.162 131.829 244.213 134.569 246.295 137.482C248.745 140.051 252.273 137.106 254.011 135.774C255.623 134.741 257.434 137.396 255.938 138.602C243.377 147.893 238.28 130.961 248.118 129.272C249.201 129.086 249.603 130.29 249.096 130.654ZM271.606 119.845C271.392 117.194 267.351 116.592 266.949 119.216C266.589 121.566 267.013 123.725 268.072 125.84C269.084 127.862 271.629 126.919 271.821 125.078C272.079 122.611 271.739 121.495 271.606 119.845ZM240.843 118.672C240.279 117.934 239.466 117.431 238.491 117.716C235.446 118.605 236.344 122.924 237.413 125.027C237.994 126.168 239.872 126.458 240.721 125.453C242.105 123.813 242.768 120.539 241.009 118.924C240.961 118.841 240.908 118.757 240.843 118.672ZM268.115 108.245L267.634 108.16C266.146 107.903 264.296 107.656 263.243 108.852C262.685 109.485 262.492 110.664 263.243 111.27C264.563 112.338 266.022 111.924 267.604 112.014C268.908 112.089 270.161 112.305 271.417 112.663C274.172 113.45 276.416 114.886 278.769 116.463C279.078 116.67 279.393 116.276 279.246 115.987C277.888 113.329 275.255 111.146 272.619 109.815C271.212 109.104 269.672 108.515 268.115 108.245ZM243.619 107.054L243.251 107.129C239.244 107.966 234.038 109.637 232.141 113.569C232.069 114.125 232.145 114.245 232.207 114.323L232.228 114.348C232.279 114.415 232.32 114.507 232.561 114.582C232.628 114.566 232.696 114.549 232.764 114.532C233.634 114.304 234.322 113.99 234.988 113.665L235.71 113.309C236.548 112.899 237.394 112.503 238.29 112.211C240.202 111.588 242.168 111.149 244.165 110.915C244.598 110.864 245.015 110.718 245.344 110.468C245.656 110.23 245.894 109.901 246.003 109.464C246.144 108.899 246.103 108.471 245.8 107.961C245.571 107.577 245.245 107.312 244.87 107.159C244.487 107.004 244.052 106.967 243.619 107.054Z" fill="black"/>
</svg>
