<svg width="436" height="647" viewBox="0 0 436 647" fill="none" xmlns="http://www.w3.org/2000/svg">
<path fill-rule="evenodd" clip-rule="evenodd" d="M147 642C216.588 642 273 585.588 273 516C273 446.412 216.588 390 147 390C77.4121 390 21 446.412 21 516C21 585.588 77.4121 642 147 642Z" fill="white" stroke="#22252B" stroke-width="8.5"/>
<path fill-rule="evenodd" clip-rule="evenodd" d="M431.048 345.997C429.09 345.435 426.644 345.291 424.502 345.188C416.931 344.744 409.212 348.348 401.788 349.972C398.539 350.774 395.098 351.718 391.621 352.422C388.534 352.84 385.342 353.154 382.134 353.354C379.54 353.431 376.522 353.233 375.636 355.955C370.423 356.965 365.808 357.384 360.839 356.526C361.304 354.945 361.57 353.293 361.088 351.59C361.331 351.187 361.662 350.641 361.838 350.273H361.241C352.519 346.787 343.086 344.406 334.318 340.794C322.873 336.676 306.018 328.719 292.794 323.286C293.691 318.384 294.023 313.404 293.643 308.562L294.174 308.133C294.349 307.182 294.62 306.043 295.112 305.181C295.736 303.528 295.75 301.273 295.998 299.405C296.514 295.751 296.859 290.251 295.919 285.913C295.509 280.03 291.537 275.496 287.255 271.858C281.997 266.666 276.732 261.601 271.599 256.209C243.191 227.294 240.944 190.875 196.473 179.807L196.451 179.635C196.101 179.245 195.957 178.935 195.558 179.552C194.09 178.99 192.259 179.037 191.029 178.088C188.846 176.099 187.297 173.804 186.285 171.081C185.504 165.932 186.056 157.997 181.539 154.702C176.521 151.701 149.859 149.564 147.56 156.126C146.134 157.464 145.485 159.163 145.039 161.244C143.553 164.049 142.616 167.16 141.12 170.008C137.938 176.397 135.876 174.982 130.259 176.442C129.649 175.085 127.799 175.358 126.45 175.555C110.115 177.847 90.1999 184.102 83.2061 199.431L83.8013 199.355C71.7292 222.001 79.5582 250.8 81.7174 274.797C83.4638 296.129 81.4665 317.562 76.7201 337.46C70.8942 358.568 70.5599 382.179 82.1189 401.286C83.2938 403.473 84.7242 406.564 87.2553 405.192C88.6423 406.239 90.2004 406.962 92.3524 407.592C92.9458 408.021 93.5601 408.743 94.1813 409.052C94.2104 409.093 95.2104 408.518 95.2629 408.502C97.1529 411.196 200.914 420.194 211.682 421.591C221.169 422.733 233.704 425.649 241.435 418.817C247.824 416.994 254.509 412.249 259.615 407.538C262.713 452.4 264.426 544.275 267.191 544.915C268.4 545.325 270.033 545.815 271.403 546.207C271.411 549.43 271.651 553.092 271.397 556.261C270.973 559.839 269.898 564.065 269.411 567.827C267.32 567.687 266.705 569.781 266.461 571.204C264.656 582.957 264.709 592.433 264.839 605.351C286.068 617.835 310.948 624.701 334.835 632.77C337.123 634.486 342.081 632.63 344.722 632.166C353.894 630.362 364.316 625.029 362.001 615.251C360.306 607.888 353.189 603.652 347.197 599.32C340.643 594.579 333.733 589.841 327.705 584.196C322.869 579.647 319.257 576.119 315.224 570.986C313.435 568.599 311.528 564.677 309.122 562.917C311.664 559.906 306.527 562.728 304.583 562.902C303.439 557.526 302.022 552.364 300.324 547.206L301.975 547.281C307.396 542.227 310.434 517.961 310.812 510.762C313.529 463.834 313.465 409.745 302.564 370.223C310.844 375.314 319.924 379.566 328.158 384.6C333.35 387.637 338.618 391.854 344.439 393.327C344.818 394.414 346.206 394.836 346.963 393.772C348.005 393.9 349.347 393.469 349.462 392.995C350.527 390.819 352.071 388.475 351.885 386.111C351.885 386.111 350.456 382.8 350.456 382.8C353.658 384.1 357.14 386.835 360.559 387.086C367.464 410.108 381.07 397.211 394.162 388.252C402.063 382.739 410.706 376.652 419.021 370.775C426.075 365.172 439.848 359.855 433.097 348.757" fill="white"/>
<path fill-rule="evenodd" clip-rule="evenodd" d="M134.272 175.035C140.941 173.417 142.08 157.452 146.107 159.726C148.435 161.747 144.627 165.561 143.953 167.843L143.658 168.422C142.291 171.08 140.746 173.728 138.054 175.261C136.323 177.08 131.15 175.294 131.91 178.192C134.567 186.925 148.664 192.973 156.972 195.692C169.886 200.536 190.777 198.897 193.811 182.66C186.727 181.365 181.491 168.603 185.856 163.289C186.005 168.451 187.417 173.777 191.474 177.274L191.698 177.48C192.412 178.13 193.337 178.907 194.258 178.762C195.157 177.513 196.901 178.224 197.415 179.543C237.745 186.504 246.729 229.94 272.127 255.507C277.2 260.841 282.504 265.948 287.739 271.119C293.086 275.356 296.87 281.261 297.133 288.196C297.611 292.052 297.374 295.913 296.863 299.776L296.828 300.125C296.591 302.519 296.45 305.09 295.309 307.215C295.112 307.936 295.192 308.846 294.568 309.354C294.84 313.762 294.581 318.248 293.834 322.642L295.78 323.509C317.192 333.032 338.851 342.008 361.177 349.147C363.086 348.801 362.93 351.016 362.006 352.023C362.25 353.208 362.276 354.44 361.99 355.611C366.079 356.198 370.231 355.71 374.267 354.966C375.544 352.158 378.936 352.308 381.558 352.23C384.817 352.025 388.069 351.708 391.304 351.257C399.274 349.479 407.101 347.139 414.994 345.083C420.276 343.599 425.973 343.67 431.271 345.036C432.172 346.043 433.003 347.119 433.705 348.261C438.548 355.761 433.775 362.633 427.014 366.572C416.167 374.25 405.316 381.919 394.42 389.526L393.629 390.09C380.665 399.355 366.081 411.083 359.157 388.532C356.83 388.26 354.791 386.7 352.623 385.78C353.206 388.486 351.465 391.22 350.264 393.54C349.747 394.861 348.334 395.297 347.029 395.285C345.912 396.379 343.815 395.948 343.084 394.65C337.158 392.956 332.262 389.001 327.016 385.928C319.558 381.405 311.734 377.549 304.168 373.216C316.736 425.179 313.662 479.305 310.318 532.199L310.294 532.677C309.88 540.399 308.106 544.052 301.692 548.785C302.809 552.189 303.809 555.606 304.571 559.107C304.84 559.92 306.079 559.155 306.089 560.27C308.368 559.738 312.999 560.308 311.383 563.456C315.959 567.289 319.056 572.483 323.067 576.854C330.13 585.308 339.363 591.6 348.416 597.8C369.228 608.389 370.42 626.739 346.071 633.008L345.827 633.065C342.474 633.871 338.436 635.713 335.185 634.162C330.323 633.227 325.497 631.335 320.74 629.893C301.584 623.564 282.848 616.152 264.694 607.634C264.036 607.325 263.664 606.618 263.646 605.91C263.849 600.066 262.26 568.039 268.329 567.349C269.684 560.806 269.897 554.052 269.651 547.374C267.682 546.755 265.691 546.159 263.652 545.772C261.672 545.15 258.576 545.01 257.25 543.409C256.774 543.237 256.424 542.811 256.496 542.14C257.568 532.104 258.381 522.041 258.974 511.965C261.005 478.175 260.316 444.279 258.002 410.526C253.236 414.642 247.804 418.246 241.757 420.163C238.419 423.503 233.067 424.219 228.511 424.623C222.652 424.986 216.896 423.817 211.114 423.09C201.296 421.856 191.545 422.948 181.798 424.159L178.467 424.574C154.604 427.187 128.814 427.727 106.573 417.543C102.385 417.915 97.1866 413.395 94.5743 410.376C93.4207 411.087 92.2873 409.697 91.3681 408.966C89.8511 408.506 88.1301 407.845 86.7534 406.88C83.2608 408.022 81.3768 403.494 80.0501 401.032C58.9933 365.027 82.4435 329.187 80.6797 291.006C81.7477 261.072 68.0739 229.887 81.2894 201.177C83.9629 189.028 99.5991 180.632 111.369 177.544C115.161 176.919 129.519 171.736 131.1 176.095C131.848 175.113 133.126 175.04 134.272 175.035ZM308.937 564.858C306.964 565.069 305.04 565.191 303.089 565.548C295.97 566.714 289.179 569.466 283.062 573.29C281.08 574.524 279.312 576.078 277.038 576.765C272.366 578.459 267.774 574.253 268.117 569.706C266.814 581.134 267.038 592.893 267.714 604.379C285.989 612.634 304.673 619.994 323.697 626.388C327.981 628.181 333.054 628.755 336.988 631.179C343.697 630.756 350.45 628.404 356.085 624.727C365.432 618.251 359.227 607.98 351.479 603.46C334.422 595.775 319.903 580.221 308.937 564.858ZM271.566 547.957C271.209 551.345 273.787 556.622 273.423 563.374C273.143 565.482 272.485 567.691 272.714 569.808C273.763 577.659 282.277 567.682 285.796 566.588C290.79 563.845 296.218 561.978 301.797 560.956C301.763 559.146 300.562 558.423 300.404 556.634C300.178 553.998 300.189 551.465 300.07 548.804C292.815 552.098 279.262 549.769 271.566 547.957ZM310.657 564.346C310.531 564.43 310.397 564.502 310.26 564.566C311.269 565.785 312.142 567.138 313.338 568.187L312.829 567.397C312.148 566.344 311.451 565.295 310.657 564.346ZM85.3211 283.441C84.9555 284.924 84.2897 286.319 83.2923 287.506C88.4429 329.204 61.9435 363.966 86.3073 402.736C86.6153 402.879 86.8962 403.057 87.1667 403.28C87.31 403.185 87.4532 403.084 87.5938 402.984C99.0133 382.807 115.269 365.402 128.221 346.094C130.707 341.248 134.8 336.369 136.367 330.77C110.338 320.507 99.9407 305.534 85.3211 283.441ZM427.867 346.689C426.763 347.084 425.535 346.758 424.357 346.737C420.176 346.648 416.09 347.737 412.09 348.838C400.458 352.015 388.765 354.827 376.848 356.708C376.607 356.957 376.376 357.211 376.167 357.478C376.374 357.828 376.406 358.264 376.106 358.698C374.308 362.127 375.761 366.326 374.455 369.996C372.563 377.427 367.529 385.809 360.018 388.446C362.523 390.83 364.318 393.898 366.899 396.198C373.241 400.539 380.226 394.069 385.404 390.6C395.262 383.646 405.146 376.741 415.058 369.864C419.498 366.189 429.32 361.558 431.445 356.69C432.806 352.957 430.329 349.321 427.867 346.689ZM359.928 356.164C355.684 364.805 353.235 373.992 350.784 383.27C353.333 383.97 355.681 385.066 358.186 385.804C361.715 386.596 366.697 379.787 368.466 377.084C370.29 374.062 371.567 370.741 372.159 367.261C372.659 363.853 372.126 360.314 373.611 357.157C369.014 357.626 364.351 357.724 359.928 356.164ZM107.658 338.334C111.642 337.22 102.577 346.221 102.055 347.182C96.1612 354.13 90.7609 361.47 85.402 368.831L83.7774 371.066C83.6213 371.292 82.5455 372.88 83.3234 372.678C83.3946 372.659 83.4279 372.753 83.3713 372.792C78.4153 373.667 105.268 338.946 107.658 338.334ZM204.803 334.086C205.125 333.116 203.595 332.702 203.273 333.666L202.257 336.72C198.424 348.261 194.614 359.818 190.032 371.09C189.649 372.035 191.181 372.447 191.562 371.512C196.545 359.246 200.617 346.642 204.803 334.086ZM249.362 330.045C247.964 336.666 244.433 342.636 242.293 348.965C246.313 348.08 249.41 344.339 251.753 341.122L251.823 341.015C252.929 339.316 254.214 336.662 256.724 337.861C260.535 340.071 257.805 347.911 257.734 351.627C257.251 356.72 255.592 361.485 254.462 366.433C257.367 364.451 258.202 360.542 259.618 357.496L265.067 344.442V344.442C269.073 338.961 267.213 355.374 267.006 356.923C266.68 360.325 265.244 363.748 265.808 367.175C268.067 364.747 269.49 361.697 270.686 358.601C272.345 354.296 273.859 349.936 275.437 345.603C275.983 344.215 278.052 344.702 277.752 346.231C277.65 351.149 277.569 356.067 277.491 360.985L277.432 364.673C277.421 365.372 277.075 367.415 278.284 366.85C284.637 360.192 286.266 346.879 285.439 337.935C272.952 338.236 260.211 336.619 249.362 330.045ZM360.487 354.883C360.436 355.046 360.377 355.208 360.318 355.371C360.354 355.378 360.392 355.386 360.428 355.395C360.451 355.223 360.472 355.053 360.487 354.883ZM83.3348 354.883C81.9496 353.862 105.232 324.012 103.723 332.629C97.228 340.303 89.6534 347.028 83.3348 354.883ZM288.948 288.924C267.175 283.816 248.001 302.896 226.135 300.014C226.388 306.847 226.74 313.727 226.601 320.564C255.639 322.956 252.335 335.297 285.762 334.054C290.082 331.165 291.856 313.46 291.491 308.115C291.77 301.795 286.324 298.958 280.899 297.85C278.938 299.031 275.421 295.505 278.332 294.265C282.164 293.114 285.748 291.305 288.948 288.924ZM128.318 176.917C120.572 177.68 112.9 179.788 105.78 183.046C79.4629 190.632 75.6681 221.395 78.8327 244.707C80.1439 262.434 85.2067 279.773 95.8511 294.189C124.189 337.344 171.126 330.511 215.585 324.803C217.187 323.689 219.903 324.48 221.447 323.009C221.286 322.954 221.14 322.877 221.016 322.782C221.758 322.204 222.332 321.189 222.503 320.111L222.824 320.143V320.143C223.138 313.45 222.887 306.888 222.988 300.248C208.38 296.247 192.713 294.203 177.907 290.218C176.224 291.39 174.284 290.041 172.64 289.404C168.379 287.594 164.079 285.875 159.748 284.238L158.665 283.83C155.842 282.774 153.021 281.69 150.224 280.56L149.176 280.135C147.574 279.48 143.528 277.058 141.78 278.57L141.921 278.874C142.958 281.132 146.528 289.487 142.139 287.834C138.575 285.335 136.728 267.91 133.198 267.756C131.984 271 131.114 274.367 130.916 277.835C130.844 278.616 129.817 279.274 129.2 278.544C125.013 273.039 131.337 267.042 131.506 261.231C131.905 254.474 128.911 248.151 127.419 241.684L127.328 241.238C126.453 237.042 125.092 231.955 125.453 228.191L126.322 231.458C127.193 234.727 128.086 237.996 129.11 241.219C131.651 249.268 136.24 257.561 133.69 266.173C138.806 266.343 139.671 274.407 141.592 278.089C144.701 274.06 166.579 283.72 171.571 285.27L172.534 284.179C188.169 266.475 199.456 254.493 223.689 268.498C219.502 255.012 219.098 240.688 218.384 226.684C218.629 224.019 217.087 216.992 219.261 215.538C219.639 215.592 220.006 215.706 220.352 215.858L220.352 217.238C220.362 219.912 220.487 224.346 221.61 225.354L222.125 230.648C223.474 244.416 225.005 258.173 229.122 271.44C239.004 276.958 248.021 283.866 256.504 291.319L257.471 290.967C267.952 287.135 280.564 282.223 291.281 287.006C291.102 284.305 290.058 281.721 288.602 279.437C286.174 278.836 284.585 276.279 282.848 274.576C277.34 268.667 271.685 262.893 266.303 256.864C243.339 232.193 233.569 191.682 197.507 182.112C195.123 202.048 169.584 205.229 154.194 198.407L153.61 198.183C144.043 194.496 133.232 188.93 129.872 178.791L129.732 178.498C129.387 177.782 128.975 177.054 128.318 176.917ZM133.994 290.365C134.022 290.335 134.076 290.376 134.052 290.41C129.569 296.029 125.92 303.694 130.376 310.406C131.2 311.917 129.275 313.369 128.043 312.217C121.858 305.202 128.72 295.695 133.994 290.365ZM289.992 291.635C287.526 293.393 284.882 294.853 282.082 296.005C282.09 296.327 281.933 296.672 281.791 296.925C285.478 297.217 289.317 298.168 291.905 300.853C292.031 299.871 292.154 298.886 292.248 297.902C292.486 295.368 292.052 293.1 289.992 291.635ZM120.446 266.795L120.475 266.66C120.495 266.506 120.728 266.495 120.721 266.66C120.636 268.668 119.172 270.097 117.933 271.528C116.093 273.65 114.254 275.771 112.413 277.892C109.337 281.589 104.804 285.305 105.824 290.661C105.843 292.563 103.456 292.971 102.487 291.572C98.6358 284.236 110.76 277.995 114.847 273.262C116.766 271.214 119.79 269.707 120.446 266.795V266.795ZM178.173 288.818C178.23 288.91 178.271 289.008 178.293 289.11C178.939 289.178 179.582 289.252 180.225 289.33L178.173 288.818V288.818ZM81.7364 271.662C81.8515 272.428 81.9592 273.197 82.0623 273.966L82.1639 274.735L82.1798 274.668C82.2324 274.468 82.3317 274.294 82.4615 274.156L82.5058 274.111C82.2385 273.299 81.9821 272.482 81.7364 271.662ZM258.742 263.728C260.287 263.563 253.287 268.59 252.9 269.212C252.336 269.702 251.676 268.831 252.278 268.407C254.453 266.874 256.597 265.301 258.742 263.728ZM245.123 248.941C246.198 248.501 246.928 250.289 245.908 250.787C242.194 252.602 238.267 253.885 234.845 256.272C234.695 256.377 234.507 256.133 234.649 256.021L235.06 255.696C238.212 253.196 241.361 250.479 245.123 248.941ZM83.0188 226.338C84.0568 231.22 89.6728 232.823 94.0312 234.123L95.3931 234.641C99.2419 236.112 103.229 237.767 105.998 240.876C107.083 244.382 99.3393 238.274 98.2582 237.965C92.97 234.69 83.4149 234.134 83.0188 226.338ZM197.666 180.758C197.695 181.006 197.709 181.26 197.717 181.513C198.042 181.513 198.366 181.516 198.691 181.526C198.312 181.304 197.965 181.051 197.666 180.758Z" fill="black"/>
<path fill-rule="evenodd" clip-rule="evenodd" d="M209.95 113.918C208.229 92.9658 202.988 74.4087 178.362 73.6174C167.249 73.7166 155.905 76.0741 145.686 80.4361C120.846 92.8724 112.965 138.315 134.849 156.608C134.719 156.682 134.688 156.895 134.842 156.999C139.363 160.036 144.388 162.535 149.421 164.635C162.828 170.295 178.611 172.753 192.285 166.614C213.151 157.748 213.464 133.077 209.95 113.918V113.918Z" fill="white"/>
<path fill-rule="evenodd" clip-rule="evenodd" d="M251.023 104.152C251.88 103.381 252.52 102.369 252.843 101.235C253.139 100.201 253.159 99.0717 252.846 98.04C252.51 96.9332 251.785 96.0518 251.948 94.9C251.965 94.7873 251.988 94.6696 252.023 94.5519C252.65 92.3835 254.192 90.8185 253.641 88.4146C253.485 87.736 253.192 87.1251 252.783 86.6443C252.828 86.1235 252.868 85.5976 252.901 85.0718C253.806 82.9559 253.773 80.4419 252.808 78.3586C252.69 77.2919 252.512 76.2352 252.261 75.196C252.377 74.277 252.216 73.2654 251.92 72.4616C251.401 71.0474 250.758 69.6537 250.061 68.283C250.143 67.9081 250.106 67.512 249.899 67.1597C249.522 66.5194 249.025 65.9565 248.516 65.4064C248.156 64.7646 247.794 64.1281 247.434 63.4998C247.268 63.2111 247.084 62.8909 246.881 62.5516C247.434 61.5284 247.728 60.5313 247.144 59.3282C246.925 58.8762 246.322 58.5429 245.825 58.5725C245.282 58.6048 244.734 58.629 244.183 58.6498C243.154 57.4083 241.987 56.2938 240.736 55.6523C239.47 54.5806 238.186 53.5289 236.937 52.4547C236.584 52.1492 236.228 51.8437 235.874 51.5382C235.872 51.5307 235.869 51.5207 235.867 51.5132C235.606 50.5642 235.313 49.6277 235.019 48.6862C234.836 48.1027 234.781 47.4918 234.212 47.1737C233.023 46.5102 231.195 46.405 229.831 46.2923C229.696 46.1721 229.56 46.0545 229.425 45.9343C230.044 44.2866 229.934 42.5363 229.154 40.8862C228.888 40.3253 227.965 40.0724 227.459 40.443C226.29 41.2994 224.904 41.6023 223.532 41.4771C221.516 39.9297 213.384 32.932 212.127 32.1933C212.112 32.1668 212.099 32.1402 212.083 32.1139C211.376 30.9876 210.518 30.0832 209.554 29.358C209.416 29.2146 209.279 29.0708 209.141 28.9271C209.262 28.0685 209.581 27.2394 210.094 26.5458C210.149 26.4657 210.212 26.388 210.274 26.3129C211.172 25.2462 210.076 23.874 208.822 24.4324C208.732 24.4725 208.642 24.5125 208.552 24.5551C207.588 24.9843 206.521 25.4508 205.411 25.8444C205.004 25.6924 204.59 25.5547 204.212 25.403L200.166 23.7786C199.5 23.5112 198.796 23.2846 198.151 22.9703C197.927 21.4782 196.429 20.4996 194.874 20.5507C194.964 20.2643 195.098 19.9861 195.286 19.7224C195.342 19.6448 195.402 19.5697 195.464 19.497C196.264 18.5681 195.196 16.8453 194.053 17.6716C193.972 17.7292 193.89 17.7868 193.809 17.8444C193.492 18.067 193.167 18.2758 192.838 18.4782C192.311 18.2488 191.719 18.1965 191.098 18.4391C189.725 18.9762 188.458 19.5223 187.249 20.3642C187.2 20.3985 187.149 20.4273 187.099 20.4596C186.499 19.7354 185.546 19.2511 184.687 19.2564C184.67 19.2564 184.656 19.2561 184.641 19.2559C183.999 18.2796 182.823 17.7122 181.687 17.8502C181.763 16.4492 180.359 15.1989 179.08 15.0469C177.586 14.8696 176.24 15.7358 175.791 17.1911C175.667 17.5962 175.542 18.0016 175.417 18.407C174.257 17.8224 173.033 17.3744 171.754 17.1508C168.842 16.6415 165.995 17.1838 163.188 17.9911C162.908 18.0718 162.628 18.1546 162.348 18.2373C161.948 17.7743 161.572 17.3003 161.213 16.8578C160.594 16.0941 159.107 16.7051 159.207 17.6866C159.277 18.364 159.001 18.8513 158.558 19.1976C158.071 19.2687 157.6 19.2902 156.889 19.2759C155.951 19.2569 155.524 19.2276 154.542 18.8455C154.085 18.6677 153.516 18.2002 153.249 17.7805C152.227 16.1712 149.631 15.7378 148.395 17.2722C147.094 16.7036 145.452 17.4878 144.73 18.5936C144.352 19.1718 143.563 19.495 142.571 19.773C141.826 19.9813 141.064 20.1391 140.299 20.277C139.958 19.815 139.24 19.5053 138.713 19.8927C138.356 20.1558 138.009 20.426 137.668 20.703C135.032 21.0655 132.41 21.0786 129.898 20.0524C127.77 19.1835 125.817 21.5566 126.168 23.5488C125.552 23.869 124.883 24.0821 124.275 24.4176C122.947 25.1503 121.856 26.3084 121.192 27.6691C121.073 27.9127 120.965 28.1601 120.863 28.4088C120.366 28.8122 119.876 29.2263 119.397 29.6633C118.599 29.2551 117.804 28.847 117.007 28.4388C116.41 28.1333 115.405 28.3462 115.287 29.1374C115.094 30.4395 114.625 31.5187 113.955 32.4227C111.779 33.5645 109.685 34.8466 107.681 36.2713C105.377 36.9925 102.927 37.4132 100.913 37.8864C100.224 38.0492 99.8476 38.9481 100.236 39.5466C100.647 40.1801 101.059 40.8136 101.467 41.4471C100.322 42.5639 99.2458 43.7307 98.2302 44.9377C95.4041 48.293 93.0395 51.9714 90.9231 55.8676C90.0855 56.2057 89.248 56.5412 88.4105 56.8793C87.603 57.2048 87.2394 58.1413 87.8939 58.8299C88.2048 59.1579 88.4832 59.5034 88.7214 59.8665C87.5353 61.8272 86.1386 63.615 84.1852 64.7869C83.5909 65.1425 83.1445 65.7008 82.9063 66.3344C82.7032 66.4696 82.5026 66.6148 82.3045 66.7625C81.7528 67.1782 81.4193 68.0847 82.0663 68.623C82.5201 69.0036 82.9464 69.4543 83.3075 69.9526C83.3852 70.2356 83.4655 70.521 83.5457 70.804C81.7302 72.4717 80.2207 74.4098 79.0872 76.5832C78.8189 76.5407 78.5431 76.5682 78.3199 76.7335C76.2938 78.2284 76.2336 80.6097 77.0486 82.7381C76.5571 85.9457 76.873 89.2334 77.8209 92.3409C76.5746 93.5829 75.8249 95.3757 75.5189 97.1035C74.9798 100.138 74.9422 104.806 74.8018 107.903C73.4427 109.213 72.4747 110.908 71.9356 112.731C71.4817 112.956 71.0278 113.182 70.574 113.407C70.1703 113.607 69.8744 114.136 69.8994 114.581C70.0148 116.737 70.905 118.44 72.086 119.983C72.5048 121.172 73.1242 122.269 73.9367 123.32C74.4984 124.042 75.0475 124.733 75.5315 125.511C75.5816 125.589 75.6117 125.662 75.6343 125.712C75.4437 125.917 75.2857 126.258 75.1478 126.5C73.9893 128.539 73.9718 130.928 75.6167 132.703C74.9974 133.209 74.9773 134.23 75.524 134.856C79.0822 138.915 82.0487 143.851 86.9861 146.007C87.0087 146.044 87.0288 146.082 87.0463 146.119C86.0458 148.523 85.9104 149.773 86.7279 152.257C86.7329 152.279 86.7404 152.299 86.7479 152.322C87.1842 153.624 87.9867 155.71 89.4336 156.115C89.8899 156.243 90.3388 156.301 90.7826 156.298C91.9311 157.402 93.0771 158.509 94.223 159.616C94.3234 160.164 94.386 160.718 94.4061 161.276C94.4387 162.21 95.3189 162.966 96.2667 162.691C96.6002 162.593 98.4458 160.803 98.7844 160.813C98.9549 160.983 99.1204 161.153 99.2859 161.326C99.8952 161.965 100.74 162.971 100.81 163.64C100.946 164.899 101.773 166.342 103.11 166.597C103.611 167.105 104.414 167.258 105.028 166.595C105.068 166.552 105.108 166.509 105.151 166.472C105.216 166.464 105.279 166.457 105.344 166.449C105.64 167.331 105.936 168.212 106.234 169.091C106.819 170.824 109.05 171.938 110.635 170.926C110.891 171.079 111.142 171.242 111.393 171.405C111.774 171.648 112.16 171.895 112.556 172.128C112.579 172.193 112.601 172.259 112.621 172.321C112.877 173.1 113.94 173.518 114.595 173.07C114.798 173.135 115.006 173.188 115.217 173.23C116.322 173.448 117.436 173.388 118.504 173.02C119.269 172.759 119.999 172.261 120.821 172.193C120.872 172.189 120.925 172.193 120.978 172.191C121.649 173.564 123.182 174.747 124.39 175.149C125.973 175.675 127.593 175.487 129.034 174.842C129.423 175.619 129.912 176.354 130.495 177.034C130.819 177.409 131.403 177.329 131.737 177.034C132.37 176.473 132.999 175.91 133.628 175.345C134.083 175.17 134.542 174.96 135.021 174.765C136.519 174.154 138.161 173.901 139.546 173.018C140.204 172.599 140.823 172.064 141.332 171.444C142.292 170.891 143.174 170.202 143.969 169.412C144.365 169.414 144.779 169.321 145.18 169.119C146.857 168.267 147.74 166.534 147.818 164.762C149.177 161.569 149.979 158.164 150.2 154.678C150.27 153.534 150.283 152.379 150.195 151.235C150.135 150.429 149.932 149.89 149.626 149.162C149.523 148.924 149.43 148.706 149.357 148.466C149.375 147.694 149.385 146.923 149.395 146.154C149.603 145.506 149.974 144.902 150.491 144.394C151.291 143.608 151.657 141.975 150.93 141.004C150.456 140.375 149.984 139.747 149.51 139.118C149.643 136.421 150.29 132.129 148.856 131.679C148.914 131.278 149.036 130.882 149.107 130.484C149.443 128.571 149.242 126.861 148.224 125.188C148.011 124.84 147.83 124.532 147.682 124.232C147.59 123.681 147.497 123.13 147.404 122.579C147.261 121.73 147.121 120.874 147 120.013C146.938 118.916 146.88 117.819 146.817 116.72C146.76 115.708 146.694 114.697 146.627 113.682C146.654 113.229 146.694 112.776 146.752 112.323C147.096 109.621 148.201 108.622 150.117 106.744C150.418 106.696 150.717 106.644 151.01 106.584C152.377 106.301 153.806 105.862 155.213 106.02C156.74 106.191 158.106 106.849 159.591 106.008C160.027 105.757 160.988 105.066 161.07 104.518C161.075 104.483 161.083 104.453 161.093 104.43C161.196 104.415 161.329 104.403 161.411 104.4C162.59 104.36 163.716 104.823 164.904 104.696C166.311 104.545 167.57 103.922 168.398 102.998C169.458 103.258 170.542 103.376 171.642 103.231C172.565 103.111 173.393 102.81 174.21 102.364C174.804 102.044 174.616 101.951 175.263 102.212C176.735 102.808 178.067 103.594 179.724 103.186C180.584 102.975 181.327 102.512 181.951 101.889C182.099 101.743 182.35 101.526 182.518 101.32C183.305 101.718 185.286 102.617 185.612 102.697C186.535 102.923 187.513 102.888 188.411 102.587C189.07 102.367 189.878 101.766 190.457 101.643C191.207 101.483 192.872 102.525 193.767 102.883C195.337 103.511 196.999 103.666 198.589 103.018C199.136 102.795 200.199 101.906 200.608 101.914C201.272 102.732 203.128 107.212 203.684 108.847C205.939 115.458 206.523 136.098 205.482 141.364C205.442 141.519 205.4 141.672 205.357 141.827C204.078 146.407 202.747 151.065 200.608 155.332C198.589 159.353 195.798 162.974 191.793 165.17C187.641 167.448 182.766 168.047 178.097 167.739C175.09 167.544 172.134 166.94 169.225 166.184C167.705 165.791 166.198 165.353 164.699 164.897C164.044 164.699 163.38 164.514 162.738 164.283C161.604 163.875 161.01 163.843 159.924 164.366C158.936 164.842 158.683 166.246 159.197 167.13C160.035 168.573 161.569 168.673 163.051 169.094C164.561 169.522 166.076 169.932 167.6 170.3C170.521 171.002 173.49 171.54 176.485 171.788C181.846 172.236 187.37 171.545 192.25 169.209C192.801 168.943 193.333 168.66 193.847 168.355C193.656 168.62 193.463 168.886 193.268 169.149C192.726 169.877 193.127 171.117 193.887 171.515C194.128 171.64 194.369 171.76 194.612 171.878C194.644 171.956 194.68 172.033 194.72 172.111C195.414 173.503 196.869 174.324 198.351 174.68C200.111 175.101 202.082 174.803 203.872 174.75C205.532 174.7 207.192 174.65 208.85 174.6C209.241 174.59 209.632 174.577 210.024 174.565C211.994 174.505 213.963 174.447 215.931 174.387C217.687 174.334 217.604 174.47 219.251 173.768C219.986 173.453 220.588 173.007 221.095 172.414C221.41 172.274 221.716 172.113 222.01 171.931C222.953 171.345 223.79 170.558 224.563 169.692C225.874 170.105 227.712 169.722 227.968 168.077C228.379 165.445 231.804 164.321 233.404 162.418C234.696 160.883 235.618 158.872 235.571 156.942C238.826 155.369 240.596 151.225 241.01 147.709C241.203 146.079 241.173 144.334 241.451 142.676C241.574 142.544 241.684 142.403 241.777 142.253C242.595 140.934 243.307 139.574 243.934 138.182C244.786 137.568 245.812 137.19 246.885 137.127C249.523 136.975 250.02 133.422 247.504 132.565C247.492 132.56 247.482 132.558 247.469 132.553C248.151 130.85 248.094 128.834 247.266 127.222C247.301 127.046 247.334 126.874 247.367 126.698C248.778 125.183 249.588 123.078 249.498 121.027C250.142 120.574 250.865 120.223 251.655 120.005C252.876 119.67 252.883 118.182 251.981 117.516C251.617 117.248 251.316 116.935 251.065 116.59C251.69 114.717 251.444 112.551 250.168 111.013C250.977 109.977 251.787 108.94 252.597 107.903C253.134 107.217 253.417 106.053 252.597 105.402C252.073 104.984 251.549 104.568 251.023 104.152Z" fill="black"/>
<path fill-rule="evenodd" clip-rule="evenodd" d="M170.79 138.34C175.088 137.819 179.255 139.133 183.457 139.796C185.676 140.145 187.897 140.406 190.143 140.503C190.594 140.523 191.046 140.534 191.498 140.544C191.54 140.146 191.763 139.782 192.245 139.563C193.234 139.116 194.026 138.914 195.111 138.957C196.105 138.996 197.103 139.098 198.081 139.277C199.858 139.602 201.643 140.341 202.943 141.623C205.952 144.591 205.494 149.359 203.169 152.591C198.367 159.271 189.601 159.581 182.094 159.494L181.401 159.485C174.566 159.388 164.786 160.405 161.681 152.64C160.539 149.784 160.697 146.474 162.096 143.735C163.763 140.468 167.274 138.766 170.79 138.34ZM192.142 149.462L192.08 149.465C188.929 149.586 185.778 149.672 182.625 149.727C182.719 150.536 182.815 151.345 182.925 152.152C183.012 152.787 183.104 153.421 183.201 154.054C183.241 154.322 183.391 154.739 183.349 155.005L183.333 155.11V155.11C183.495 155.183 183.642 155.3 183.752 155.471C183.79 155.531 183.817 155.59 183.845 155.65C186.293 155.669 188.927 155.621 191.423 155.177L191.428 155.123V155.123C191.473 154.804 191.606 154.59 191.782 154.443C191.958 153.428 191.942 152.346 192.009 151.339C192.052 150.713 192.097 150.088 192.142 149.462ZM180.216 149.77C177.945 149.809 175.672 149.838 173.401 149.811L172.37 149.795V149.795C172.588 150.961 172.825 152.124 173.022 153.298C173.227 154.522 172.148 155.299 171.215 155.268C171.32 155.285 171.424 155.303 171.529 155.318C174.446 155.73 177.475 155.62 180.435 155.617C180.275 154.689 180.34 153.642 180.316 152.867L180.312 152.747C180.266 151.754 180.234 150.762 180.216 149.77ZM164.787 149.556C164.865 150.163 165.019 150.756 165.248 151.309C166.218 153.644 168.441 154.733 170.793 155.192C170.385 155.051 170.061 154.713 169.979 154.134C169.775 152.694 169.702 151.23 169.696 149.768C168.057 149.753 166.407 149.718 164.787 149.556ZM200.69 149.058C199.523 149.332 198.167 149.206 197.022 149.258C195.949 149.307 194.876 149.349 193.803 149.393C193.854 150.124 193.903 150.855 193.957 151.586C194.026 152.531 194.032 153.529 194.213 154.469C196.372 153.734 198.307 152.554 199.758 150.667C200.119 150.197 200.443 149.645 200.69 149.058ZM170.297 142.171C168.354 142.63 166.515 143.6 165.527 145.376C164.941 146.429 164.683 147.678 164.732 148.908C166.374 148.717 168.045 148.645 169.707 148.585C169.712 148.286 169.719 147.987 169.728 147.689L169.754 146.926C169.799 145.469 169.822 143.64 170.297 142.171ZM180.352 142.349L179.497 142.253C177.121 141.982 174.747 141.699 172.372 141.861C172.028 141.885 171.679 141.922 171.329 141.974C171.749 143.486 171.714 145.263 171.889 146.761C171.957 147.34 172.043 147.915 172.137 148.487L172.549 148.467V148.467C175.098 148.329 177.65 148.245 180.201 148.144C180.201 147.665 180.203 147.187 180.211 146.708L180.22 146.229C180.25 145.006 180.17 143.629 180.352 142.349ZM192.281 142.154C189.793 142.555 187.221 142.641 184.777 142.644C183.801 142.645 182.826 142.585 181.851 142.499C181.914 143.017 181.947 143.542 181.995 144.053C182.091 145.086 182.201 146.117 182.321 147.148L182.428 148.05V148.05C185.563 147.908 188.698 147.754 191.833 147.595L192.276 147.572V147.572L192.4 145.839C192.484 144.683 192.577 143.528 192.708 142.377L192.61 142.342V142.342C192.494 142.295 192.384 142.229 192.281 142.154ZM193.361 142.585C193.498 144.219 193.574 145.859 193.675 147.496L195.741 147.386C196.086 147.367 196.43 147.348 196.775 147.328C198.114 147.251 199.834 146.846 201.158 147.224C201.259 146.022 200.915 144.851 199.829 144.044C197.922 142.625 195.494 143.13 193.361 142.585ZM186.3 127.978C189.378 126.218 197.099 124.419 197.588 129.949C197.813 132.494 195.918 134.603 193.706 135.544L193.623 135.578C191.548 136.43 187.87 137.392 186.074 135.545C184.579 134.008 186.562 131.251 188.419 132.511C189.373 133.158 191.382 132.681 192.447 132.373L192.514 132.354C193.663 132.016 195.195 130.937 194.72 129.524C194.299 128.274 192.51 128.045 191.389 128.005C189.717 127.945 188.089 128.333 186.431 128.459C186.169 128.479 186.088 128.1 186.3 127.978ZM199.048 119.085C203.224 118.89 205.823 123.444 204.862 127.175C204.696 127.819 203.975 128.451 203.279 128.379L203.103 128.362C203.014 128.354 202.925 128.343 202.842 128.32C202.181 128.137 201.589 127.451 201.637 126.739L201.65 126.532C201.747 124.769 201.556 122.738 199.458 122.311C197.679 121.949 196.686 123.659 196.665 125.233C196.661 125.513 196.346 125.708 196.099 125.558C194.813 124.776 194.59 123.221 195.081 121.882C195.704 120.186 197.262 119.169 199.048 119.085ZM168.053 120.062C171.093 119.049 174.372 120.667 175.844 123.351C176.36 123.5 176.875 123.897 176.804 124.506C176.7 125.381 176.544 125.933 175.936 126.597C174.986 127.635 173.205 127.104 172.81 125.826L172.793 125.768C172.344 124.116 170.523 123.026 168.863 123.604C166.925 124.28 166.981 126.324 165.622 127.515C165.462 127.655 165.27 127.677 165.079 127.585C163.635 126.888 163.894 124.79 164.409 123.59C165.084 122.015 166.397 120.614 168.053 120.062ZM163.914 110.846C166.377 108.336 172.799 105.908 174.484 110.542C174.805 111.424 174.122 112.615 173.201 112.798C171.694 113.097 170.357 112.444 168.86 112.561C167.648 112.656 166.384 113.061 165.415 113.811C162.732 115.887 162.141 119.399 160.272 122.041C160.18 122.17 160.004 122.116 159.987 121.964C159.561 118.117 161.216 113.594 163.914 110.846ZM196.035 108.375C197.669 107.799 199.52 107.848 201.163 108.359C202.818 108.875 204.337 109.853 205.508 111.132C206.039 111.712 206.531 112.353 206.925 113.035C207.134 113.396 207.354 114.142 207.592 114.587C208.88 115.329 209.43 117.021 208.277 118.224L208.225 118.277L208.071 118.429C207.452 119.042 206.517 119.307 205.671 119.063C203.779 118.516 203.549 117.027 202.894 115.447C202.461 114.404 201.719 113.48 200.82 112.802C198.696 111.199 195.212 110.689 192.654 111.444C192.518 111.484 192.358 111.311 192.455 111.185C192.939 110.558 193.219 110.044 193.868 109.538C194.527 109.024 195.245 108.654 196.035 108.375Z" fill="black"/>
</svg>
