<svg width="422" height="842" viewBox="0 0 422 842" fill="none" xmlns="http://www.w3.org/2000/svg">
<path fill-rule="evenodd" clip-rule="evenodd" d="M331.07 393.474C331.027 396.414 330.732 403.166 329.993 406.012C338.22 392.836 350.548 378.435 352.423 362.297C351.839 362.137 349.246 361.898 348.794 361.559C344.537 363.534 345.342 357.454 344.713 354.641C343.015 348.687 339.445 342.829 337.894 336.836C333.818 335.074 342.004 334.328 343.194 334.293C338.249 328.792 335.975 321.231 332.454 314.814C327.281 303.909 322.648 292.761 318.511 281.438C317.607 288.532 317.444 295.704 317.995 302.838C319.696 333.395 331.185 362.776 331.07 393.474ZM45.5277 339.195C48.0872 339.625 52.3526 340.032 54.907 340.241C51.5542 338.243 41.6447 334.439 47.8895 331.019C49.8151 330.317 51.8813 331.319 53.823 331.629C61.8869 332.955 71.8439 332.885 80.0017 332.217C77.028 329.778 73.1126 326.266 70.2103 323.742C68.668 322.401 67.1726 321.892 68.9075 319.89C71.9655 317.044 77.4343 319.14 80.97 320.391C90.7235 325.85 101.736 331.773 112.204 335.973C112.314 334.508 112.246 332.613 113.66 331.629C117.808 329.676 120.862 330.247 125.276 329.727C130.42 328.956 134.992 328.08 140.087 326.721C143.419 324.182 145.451 316.693 150.779 317.53C146.06 305.665 153.252 293.285 155.954 281.924C159.326 270.296 161.098 258.221 161.146 246.131C161.179 226.774 172.4 211.923 188.613 201.99C195.005 197.677 199.297 187.187 207.21 185.086C208.216 181.228 208.277 179.533 209.161 175.645C209.605 174.528 209.935 168.469 211.05 168.675C212.281 162.672 218.551 160.265 223.977 159.008C231.032 157.547 240.877 155.777 247.219 159.899C249.056 161.427 249.863 163.984 249.998 166.268C250.702 169.311 252.168 172.462 253.877 175.101C256.793 174.117 255.142 172.283 258.026 171.855C284.359 167.956 313.589 187.258 330.674 206.089C361.644 237.866 386.384 281.246 382.335 326.535C383.424 326.374 388.251 325.618 388.182 327.142C387.945 333.77 386.725 339.298 386.388 345.921C386.723 354.694 377.601 355.751 371.011 357.914C371.417 383.368 362.162 408.829 347.677 429.752C344.158 433.869 338.877 448.156 332.454 442.465C331.697 441.58 337.567 435.452 338.612 433.938C342.178 429.452 351.624 407.241 344.948 402.805C343.464 407.6 329.093 430.654 326.531 417.569C323.128 419.542 317.506 420.889 313.438 420.685C305.791 424.824 298.351 429.293 291.008 433.938C287.587 440.65 282.57 447.097 278.367 453.542C307.456 520.682 335.85 631.187 373.285 694.425C376.548 698.555 358.593 705.574 355.421 707.089C361.486 716.93 362.246 728.333 366.86 738.929C367.739 738.787 368.625 738.973 369.418 739.397C375.11 743.249 377.258 757.037 377.582 763.836C377.32 766.869 378.445 771.455 375.989 773.688C376.332 774.059 376.588 774.513 376.771 774.976C378.499 776.32 378.286 779.29 377.362 781.132C374.112 787.872 350.356 787.247 342.646 788.689C315.339 791 292.418 791.364 265.114 788.838C261.763 788.136 264.297 782.912 265.952 781.494C265.187 781.03 264.699 780.181 265.033 779.091C271.24 761.353 293.675 762.553 307.251 753.081C303.681 751.018 305.985 751.676 308.228 752.478C310.608 750.984 312.923 749.302 315.068 747.444C313.421 746.427 314.233 745.756 316.015 746.607C318.824 744.356 321.012 740.877 324.59 739.786C328.094 738.929 328.094 737.431 328.094 736.487C326.009 728.107 323.73 719.514 322.559 711.016C321.31 712.856 310.534 698.108 308.228 694.425C299.268 680.246 299.292 666.274 293.022 650.855C280.147 617.276 253.773 546.898 237.689 514.783C200.055 576.06 218.385 658.935 195.17 724.277C194.138 726.24 192.198 733.602 189.511 731.478C188.466 731.722 187.356 731.854 186.361 731.994C186.648 739.138 187.184 746.262 188.372 753.33C189.478 753.622 190.418 754.202 190.905 755.217C192.769 753.85 196.336 774.02 196.642 776.074C196.646 778.725 198.933 784.626 196.844 786.201C199.853 787.431 200.345 791.978 198.229 794.316C191.946 802.754 161.319 800.435 150.02 801.85C135.733 801.496 75.96 806.841 71.81 793.297C70.9849 790.205 72.3991 786.302 75.2758 785.112C74.1246 782.427 76.8814 779.835 78.5676 777.951C88.5122 767.615 103.803 765.987 117.044 761.488C116.55 760.983 134.327 751.881 138.181 749.631C137.926 746.575 144.282 749.639 144.3 749.631C147.33 744.28 149.477 735.953 151.509 730.18C147.759 729.019 138.724 727.987 137.049 724.277C131.667 722.473 137.066 714.674 138.181 711.016C169.728 632.142 139.798 532.655 186.361 458.211C177.826 453.327 168.034 442.638 176.465 433.671C178.152 431.515 182.279 424.804 182.212 425.975C183.779 419.585 187.281 408.578 188.372 402.117C192.377 378.393 189.752 356.176 186.361 332.217C181.654 350.245 165.429 365.265 148.924 373.502C142.482 376.157 133.976 381.639 126.904 379.91C120.521 378.023 108.929 364.93 107.563 358.642C88.9568 360.853 69.6376 359.078 51.8559 353.234C49.5733 352.371 46.8721 352.444 47.5778 349.207C48.2817 346.46 53.3009 347.161 55.4591 347.671C52.1602 345.844 43.5965 345.365 43.6621 340.588C43.7735 339.592 44.5092 339.024 45.5277 339.195Z" fill="white"/>
<path fill-rule="evenodd" clip-rule="evenodd" d="M249.933 162.464C249.65 162.578 249.457 163.009 249.342 163.655C249.027 163.753 248.757 163.986 248.676 164.336C248.437 165.366 248.717 166.44 248.932 167.467L248.956 167.585C249.16 168.579 249.409 169.567 249.713 170.535L249.758 170.781C250.498 174.784 251.926 178.591 253.603 177.944L253.216 178.649C246.636 190.582 227.841 222.621 213.167 218.055C204.622 214.632 204.744 203.507 205.369 195.764C211.714 199.653 212.901 169.883 211.6 166.594C210.564 165.832 210.065 172.68 209.68 173.625C208.839 177.381 207.808 181.089 206.84 184.814C204.794 185.219 202.859 186.034 201.148 187.202C201.067 187.249 200.983 187.291 200.903 187.34C199.876 187.964 199.075 188.76 198.361 189.642C197.554 190.544 196.864 191.532 196.212 192.548C194.779 194.175 193.413 195.862 192.001 197.506C191.331 198.287 190.646 199.043 189.945 199.781L189.404 200.235C189.314 200.31 189.223 200.385 189.132 200.459C172.921 210.574 161.697 225.708 161.666 245.42C161.618 257.734 159.846 270.034 156.475 281.878C153.773 293.451 145.044 305.279 149.763 317.365C144.435 316.512 143.94 323.357 140.608 325.944L139.561 326.227C134.88 327.486 130.587 328.536 125.797 329.266C121.383 329.796 116.281 329.214 112.133 331.204C110.719 332.207 111.225 334.016 111.115 335.508C100.647 331.229 91.2461 325.318 81.4927 319.757L81.1661 319.64C77.556 318.359 71.1161 316.435 68.1499 319.247C66.415 321.286 68.1666 323.107 69.7089 324.473C72.611 327.044 75.6897 329.402 78.6631 331.886C70.6509 332.554 62.6138 332.021 54.69 330.722L54.2579 330.651C52.3166 330.335 50.0274 329.58 48.1016 330.295C41.8572 333.778 49.0827 337.844 52.4354 339.878C49.8808 339.665 47.3306 339.348 44.7709 338.91C43.7527 338.736 43.0171 339.315 42.9049 340.33C42.8401 345.196 49.2541 345.458 52.5525 347.319L52.2881 347.256C50.1316 346.757 47.031 346.319 46.3552 349.005C45.6493 352.302 50.0973 353.634 52.3798 354.513C70.1609 360.466 89.4795 362.273 108.085 360.022C109.451 366.427 121.043 379.763 127.425 381.685C134.497 383.447 143.003 377.863 149.444 375.158C165.949 366.768 181.242 352.928 185.949 334.565C189.904 363.037 188.305 391.741 182.367 419.755C181.406 421.939 180.391 424.089 179.25 426.184C178.906 426.239 178.614 426.469 178.546 426.936C178.511 427.191 178.46 427.439 178.402 427.684C177.265 429.613 176.02 431.466 174.864 433.384C174.625 433.781 174.389 434.192 174.173 434.613C166.476 443.686 175.858 455.376 184.249 460.267C137.687 536.094 167.76 631.652 136.213 711.991L136.143 712.22C134.946 716.041 131.299 723.906 136.573 725.706C138.248 729.485 146.686 729.931 150.435 731.114C148.404 736.994 146.145 742.81 143.115 748.262L143.06 748.286V748.286C141.853 747.399 139.265 746.482 138.195 747.449C137.935 747.481 137.675 747.555 137.422 747.68C135.767 748.503 134.435 750.074 132.852 751.064C131.995 751.599 131.105 752.085 130.189 752.51C129.335 752.905 128.429 753.165 127.732 753.817C127.512 754.022 127.457 754.283 127.511 754.524C126.961 754.809 126.412 755.095 125.865 755.382L125.567 755.196C120.729 752.184 116.838 750.552 123.876 756.339C121.354 757.505 118.768 758.524 116.165 759.479C114.188 758.528 112.077 757.835 109.902 757.74C109.511 758.224 112.501 760.092 112.994 760.606C99.7549 765.188 85.1926 768.776 75.2486 779.304L75.0254 779.556C73.3322 781.45 70.8554 783.982 71.9566 786.598C69.0803 787.811 67.6656 791.786 68.4911 794.935C72.6407 808.731 136.254 803.287 150.541 803.647C161.839 802.206 192.465 804.568 198.748 795.973C200.863 793.592 200.372 788.96 197.363 787.707C199.451 786.103 197.165 780.092 197.16 777.393L197.112 777.081C196.792 775.065 195.406 767.177 193.967 761.665C193.937 761.231 193.88 760.786 193.81 760.338L193.765 760.053C193.479 758.296 193.04 756.509 191.904 755.096C191.089 754.082 189.958 753.455 188.732 753.229C188.404 751.13 188.134 749.026 187.902 746.919C187.739 744.442 187.677 741.96 187.705 739.477C187.72 738.223 187.753 736.97 187.814 735.718C187.859 734.796 187.806 733.701 188.04 732.76C188.196 732.919 188.418 733.005 188.667 732.92C189.196 732.739 189.682 732.405 190.167 732.132C190.185 732.122 190.2 732.11 190.216 732.098C192.806 733.779 194.681 726.585 195.689 724.632C218.903 658.076 200.574 581.48 238.206 519.065C243.401 530.208 247.866 540.431 252.866 551.653C268.483 586.697 287.762 648.426 300.691 685.533C304.209 693.118 308.344 700.45 313.259 707.223C314.83 709.004 315.884 711.624 318.159 712.581L318.358 712.611V712.611C318.965 713.745 319.808 714.7 321.061 714.668C321.368 714.66 321.682 714.625 321.998 714.571C323.109 722.292 324.506 730.062 326.362 737.66L326.112 737.556C324.897 737.054 323.619 736.626 322.371 736.738C319.345 737.503 320.465 740.149 322.858 741.021C319.88 741.946 317.865 744.554 315.653 746.725C313.785 745.718 311.69 745.196 309.451 745.416C309.109 745.449 308.847 745.599 308.666 745.804C308.537 745.805 308.413 745.813 308.294 745.832L308.538 745.979V745.979C308.14 746.647 308.424 747.665 309.451 747.67C310.258 747.675 311.034 747.748 311.785 747.887C312.306 748.191 312.825 748.499 313.336 748.821C311.611 750.344 309.773 751.749 307.881 753.033C306.882 752.523 305.825 752.095 304.726 751.752C303.308 751.309 302.688 753.563 304.113 753.972C304.416 754.059 304.716 754.155 305.013 754.258L305.306 754.435C305.374 754.476 305.445 754.519 305.519 754.562C291.944 764.211 268.998 762.989 262.791 781.056C262.585 781.738 262.691 782.326 262.98 782.789C261.635 784.022 261.014 786.24 261.317 787.941L261.291 788.084C261.06 789.461 261.392 790.669 262.872 790.983C272.744 791.903 282.592 792.487 292.507 792.667L293.308 792.674C307.513 792.769 376.61 792.253 379.727 783.135C380.558 781.447 380.814 778.827 379.598 777.322C379.457 776.512 379.179 775.774 378.685 775.197C380.686 773.176 379.702 768.083 379.947 765.518C379.507 756.953 377.769 747.77 372.532 740.762C372.447 740.651 372.343 740.583 372.237 740.549C371.322 739.631 370.12 739.05 368.746 738.972C368.704 738.866 368.66 738.759 368.618 738.653C367.55 736.135 366.536 733.571 365.528 730.995C364.78 728.067 364 725.148 363.218 722.244C362.437 719.343 361.673 716.438 360.925 713.528C360.33 711.208 359.818 708.594 358.788 706.378C358.816 706.283 358.843 706.189 358.873 706.094L359.946 705.66C366.968 702.807 378.094 697.995 375.649 694.817C349.599 640.708 324.1 563.675 300.194 507.58C299.82 506.48 299.425 505.387 298.992 504.303C297.936 501.666 296.866 499.033 295.782 496.407L295.129 494.832L284.714 469.783V469.783C283.624 467.161 282.395 464.553 281.536 461.843C280.708 459.234 280.486 456.638 282.059 454.263C283.466 452.138 285.449 450.379 287.036 448.383C288.235 446.873 289.405 445.261 290.453 443.567C291.405 442.312 292.201 440.876 292.91 439.719C294.048 437.865 295.494 435.812 296.32 433.669C297.385 432.998 298.452 432.33 299.522 431.67C301.372 430.634 303.191 429.549 304.962 428.375C307.199 427.046 309.45 425.74 311.718 424.463C312.537 424.056 313.357 423.652 314.177 423.248C316.635 423.461 323.426 420.433 325.739 418.384C326.003 418.33 326.266 418.27 326.528 418.205C326.632 419.513 327.06 420.698 328.057 421.577C334.685 424.865 343.134 409.974 345.462 405.006C350.089 409.524 339.049 431.875 335.482 436.445L335.292 436.728C334.338 438.157 333.338 439.761 331.985 440.817L331.848 440.92C330.921 441.606 330.749 442.678 331.505 443.579C337.929 449.376 344.672 436.647 348.191 432.453C362.675 411.141 371.93 385.207 371.524 359.281C378.113 357.077 387.235 356 386.901 347.064C387.237 340.319 388.458 333.645 388.695 326.895C388.764 325.342 383.936 326.112 382.847 326.276C384.451 310.765 382.027 295.018 377.702 280.111C366.349 241.967 319.596 173.219 273.578 170.737C273.618 170.662 273.599 170.561 273.496 170.534C271.413 169.994 269.112 170.08 266.971 170.148C264.743 170.219 262.479 170.234 260.263 170.486C257.967 170.746 255.535 171.59 253.992 173.259L253.457 172.296C252.837 171.17 252.239 170.034 251.788 168.792C251.559 168.165 251.38 167.514 251.217 166.857C251.032 165.92 250.986 164.944 250.542 164.092C250.53 164.07 250.515 164.052 250.503 164.031C250.343 163.494 250.16 162.969 249.933 162.464ZM193.455 787.675C194.112 788.343 195.252 788.634 196.262 788.315C199.618 797.844 181.412 797.247 175.568 797.783C169.338 798.446 55.8389 804.347 75.0334 790.374C97.5525 798.953 172.871 799.899 193.455 787.675ZM138.181 749.887C139.696 751.449 141.981 752.144 143.606 753.634C148.2 757.518 151.896 762.983 158.246 764.013C166.589 765.569 174.109 761.454 181.571 758.195C182.5 758.151 183.47 757.758 184.422 757.468C184.456 757.537 184.489 757.606 184.528 757.67C184.574 757.652 184.624 757.636 184.679 757.627C184.762 757.613 184.841 757.605 184.922 757.593C185.113 757.44 185.315 757.311 185.524 757.203C185.65 757.183 185.776 757.168 185.901 757.16C187.439 757.066 189.108 757.424 190.095 758.698C190.179 758.806 190.256 758.921 190.33 759.037C190.808 760.731 190.869 762.781 190.639 764.214C190.564 764.682 190.759 765.142 191.09 765.408C191.384 772.498 192.183 779.617 192.741 786.613C189.95 787.616 187.054 788.379 184.155 788.862C164.153 791.32 143.938 792.461 123.782 791.844C111.783 791.41 99.8018 790.339 87.9277 788.557C84.0893 788.196 80.1605 786.712 76.3247 787.311C76.1613 787.003 75.9064 786.739 75.5524 786.559C85.3844 773.103 102.19 769.465 116.841 763.565C119.261 765.112 120.75 768.331 123.446 769.291C124.492 769.447 125.947 768.831 125.794 767.504C125.359 764.788 122.423 763.549 120.446 761.973C122.568 760.983 124.648 759.907 126.678 758.71C128.672 760.506 131.031 761.873 132.898 763.789C131.837 766.378 136.261 766.154 136.31 763.398C136.004 760.349 131.172 759.059 129.013 757.281C132.384 755.23 135.396 752.644 138.181 749.887ZM375.721 776.529C375.839 776.761 376.031 776.972 376.315 777.136C376.807 777.421 376.57 778.924 376.546 779.43L376.544 779.467C376.517 780.377 376.46 781.285 376.382 782.19C375.552 782.939 374.49 783.507 373.311 783.849C337.403 789.576 300.806 790.04 264.551 787.962C264.718 786.999 265.422 786.206 266.046 785.402C288.966 787.349 312.437 785.312 335.395 783.415C348.817 781.652 362.879 780.922 375.721 776.529ZM323.443 741.291C329.361 743.327 334.868 746.152 340.113 749.536C342.063 750.803 343.923 752.256 346.164 752.983C353.923 755.317 365.555 744.107 365.742 743.981C368.436 742.168 371.293 743.858 372.759 746.371C372.895 746.603 375.142 759.454 375.074 765.749C375.477 767.889 374.401 771.387 374.974 773.72C374.524 774.262 373.882 774.517 373.45 775.083C373.293 775.288 373.338 775.52 373.473 775.695C352.521 777.418 331.691 780.688 310.639 781.378C296.231 782.14 281.796 781.964 267.386 781.79C270.664 772.17 281.831 769.629 290.361 766.462C296.806 764.149 302.739 760.701 307.96 756.27C310.224 757.858 312.01 760.084 313.614 762.32C314.342 763.229 315.839 763.915 316.62 762.656C317.423 761.349 315.854 759.698 313.917 758.251C312.898 756.742 311.613 755.458 310.133 754.399C311.769 752.942 313.344 751.423 314.82 749.809C317.88 751.881 320.128 754.862 322.33 757.755C323.388 758.908 325.366 757.383 324.498 756.083C323.803 755.187 323.02 754.36 322.182 753.586C320.919 751.204 319.1 749.005 316.893 747.482L317.061 747.268C318.904 744.904 320.498 742.068 323.443 741.291ZM375.586 775.02C375.637 775.082 375.69 775.143 375.747 775.201C375.696 775.304 375.657 775.413 375.628 775.523L375.091 775.566V775.566C375.278 775.411 375.442 775.223 375.586 775.02ZM152.404 731.504C163.381 733.575 174.721 734.372 185.801 732.661C184.518 739.812 183.714 747.008 184.135 754.27C167.569 759.05 160.685 767.019 146.902 751.092C147.568 750.079 147.952 748.835 148.399 747.635C150.304 742.427 151.878 737.041 152.404 731.504ZM354.027 708.049C354.183 708.395 354.465 708.679 354.872 708.805C355.017 709.445 355.167 710.085 355.327 710.724C355.596 714.018 356.84 717.285 358.127 720.324L358.39 720.954V720.954C359.238 723.482 360.128 726.005 361.006 728.531C361.671 731.155 362.257 733.8 362.869 736.437C362.987 738.226 363.241 739.999 363.632 741.751C363.65 741.833 363.674 741.909 363.701 741.981C363.088 742.254 362.496 742.571 361.937 742.891C345.13 755.51 348.032 747.073 331.895 740.008C331.988 739.329 331.648 738.717 331.37 738.014L331.334 737.922C331.317 737.878 331.301 737.833 331.284 737.789C331.311 737.521 331.295 737.233 331.224 736.927C329.589 730.246 327.314 723.682 325.183 717.145C324.842 716.161 324.448 715.199 324.044 714.238C334.276 714.107 344.397 711.384 354.027 708.049ZM358.453 711.294C358.651 712.167 358.867 713.028 359.063 713.86L359.353 715.101V715.101C358.941 713.847 358.616 712.574 358.453 711.294ZM261.117 172.367C264.678 173.233 268.327 173.586 271.909 174.305C296.594 177.246 315.519 194.737 331.822 212.104C362.703 244.514 380.67 284.393 379.344 329.466C368.316 331.473 357.401 334.411 346.165 335.053C347.798 332.582 345.064 329.49 344.122 327.124C327.87 295.749 315.322 261.114 305.132 228.083L305.409 229.524C308.609 246.102 312.335 262.61 318.024 278.535C316.376 276.916 289.307 255.404 291.423 262.517C299.693 268.976 309.034 274.094 317.7 280.022C307.396 314.413 322.292 349.259 325.122 383.665C325.833 391.315 325.772 399.019 326.727 406.64C327.091 407.501 326.708 409.255 327.243 410.075C326.847 412.097 326.013 413.94 324.293 415.519C323.569 416.184 322.779 416.76 321.948 417.273C319.873 417.586 317.789 418.385 316.1 419.124C312.34 420.769 309.032 423.194 305.671 425.511L305.581 425.572V425.572C300.163 428.354 294.75 431.514 289.318 434.81L289.075 434.936C287.054 435.996 284.988 436.952 283.227 438.421C283.147 438.489 283.094 438.565 283.059 438.646L279.759 440.682C253.328 456.981 226.075 473.099 195.086 461.465C186.38 457.961 173.722 450.861 175.348 439.883C175.668 438.83 176.156 437.841 176.707 436.878C176.86 436.671 177.017 436.468 177.176 436.268C178.377 434.752 179.721 433.36 180.764 431.722C181.188 431.056 181.568 430.37 181.901 429.664C182.136 429.592 182.345 429.427 182.477 429.139C183.968 425.889 185.429 422.633 186.79 419.325C203.287 361.862 183.263 300.121 177.598 242.163C177.206 238.844 176.628 235.492 176.629 232.149C176.629 231.992 176.402 231.997 176.389 232.149C174.391 246.941 175.907 261.872 177.806 276.598C180.239 295.02 183.434 313.366 185.629 331.821C179.793 350.424 163.448 363.866 146.285 371.926C143.365 373.313 140.38 374.548 137.335 375.636L137.131 375.706C133.786 376.876 130.011 378.684 126.783 376.314C120.59 372.115 116.218 365.706 112.205 359.535C113.828 359.359 115.454 359.207 117.081 359.095C121.076 363.661 125.971 367.537 131.136 370.704C133.241 371.91 135.633 371.4 136.606 369.04C137.524 366.814 136.4 364.213 135.585 362.066L135.468 361.753C131.345 350.645 124.187 340.466 114.522 333.51C121.814 332.053 129.388 332.097 136.383 329.219C136.002 329.619 136.501 330.067 136.744 330.406C136.658 331.065 137.137 331.546 137.725 331.722C143.432 339.173 147.758 347.997 148.661 357.446C148.421 360.665 151.303 364.382 154.079 361.003C156.25 351.596 147.71 336.894 140.201 331.09C147.731 325.926 145.536 318.473 150.264 318.439C151.486 320.782 153.08 323.025 155.088 324.765C155.997 325.503 157.099 326.059 158.074 326.713C159.099 327.402 160.166 325.887 159.354 325.056L159.14 324.799C156.057 321.114 152.396 317.492 151.759 312.507C150.838 306.367 153.6 300.148 155.717 294.54C159.775 283.789 162.466 272.603 163.778 261.187C165.263 250.96 163.457 240.351 166.961 230.453C167.657 227.697 168.659 225.187 169.887 222.857C169.916 222.833 169.945 222.808 169.972 222.777C171.43 221.093 172.594 219.218 173.953 217.454C175.375 215.608 176.915 213.851 178.548 212.189C181.275 209.411 184.287 207.094 187.426 204.862C187.484 204.841 187.543 204.814 187.602 204.78C188.19 204.432 188.755 204.011 189.3 203.547L189.353 203.511C191.179 202.243 193.042 200.867 194.467 199.146C195.865 197.456 196.861 195.485 198.002 193.624C199.563 191.722 201.051 189.683 202.934 188.098C203.999 187.491 205.107 186.918 206.057 186.159C206.213 186.094 206.371 186.032 206.531 185.974C206.127 187.623 205.514 189.141 204.962 190.817C204.162 190.48 203.068 190.854 202.933 192.085L202.883 192.544C202.08 200.082 201.674 209.204 206.111 215.73C215.881 229.883 230.474 217.8 237.854 207.848C244.478 199.91 250.046 191.082 254.158 181.593L254.226 181.468C254.992 180.016 256.651 175.588 257.12 173.46C258.306 172.837 259.748 172.534 261.117 172.367ZM292.397 436.159C292.426 436.197 292.46 436.229 292.497 436.257C291.111 438.224 289.791 440.257 288.43 442.23C289.546 440.409 290.595 438.573 291.523 436.717C291.814 436.53 292.106 436.345 292.397 436.159ZM369.946 359.77C364.651 388.493 357.083 418.713 335.995 440.188C342.558 430.953 347.662 420.172 349.147 408.879C349.208 405.849 348.103 402.648 344.747 402.199C344.174 402.122 343.739 402.635 343.534 403.091L343.514 403.136C342.194 406.285 340.477 409.28 338.444 412.024L338.245 412.283C336.71 414.265 330.199 422.344 329.29 418.483C329.955 398.96 350.151 390.912 353.458 364.025C359.117 363.426 364.487 361.279 369.946 359.77ZM326.531 416.744C326.509 417.051 326.498 417.354 326.503 417.653C326.203 417.529 325.895 417.43 325.579 417.353C325.9 417.155 326.216 416.951 326.531 416.744ZM326.83 414.64C326.719 415.202 326.626 415.767 326.568 416.328C325.992 416.511 325.421 416.711 324.854 416.92C325.198 416.611 325.525 416.285 325.832 415.937C326.189 415.531 326.524 415.096 326.83 414.64ZM319.026 281.383C323.162 292.916 327.795 304.271 332.968 315.379C336.442 321.879 338.759 329.454 343.565 335.094C343.612 335.14 343.659 335.181 343.708 335.22L343.628 335.223C342.196 335.287 334.414 336.052 338.408 337.81C339.959 343.916 341.991 349.881 343.69 355.947L343.728 356.122C344.35 359.056 345.136 364.965 349.308 362.993C349.76 363.338 350.303 363.582 350.888 363.744C349.013 380.182 338.605 390.884 330.378 404.305C332.217 397.222 331.68 389.825 331.039 382.593L330.88 380.813C327.481 347.653 315.006 315.046 319.026 281.383ZM284.476 386.787C291.182 378.437 324.162 295.77 300.855 345.853C292.571 363.288 285.753 381.953 272.087 396.08C271.142 397.094 272.387 398.877 273.615 398.058C278.026 395.116 281.596 391.213 284.476 386.787ZM308.346 286.871C308.373 286.737 308.202 286.664 308.126 286.778C299.165 304.45 292.767 323.441 282.642 340.577C276.53 351.188 269.197 361.08 260.799 369.999C260.168 370.669 261.117 371.595 261.8 371C285.774 348.907 297.429 316.791 308.346 286.871ZM131.651 359.625L131.665 359.628V359.628L131.886 360.197C131.961 360.389 132.037 360.583 132.114 360.779C132.077 360.762 132.04 360.748 132.003 360.732C131.925 360.653 131.846 360.573 131.767 360.489C131.785 360.198 131.749 359.907 131.651 359.625ZM382.752 326.97C383.969 327.447 385.464 327.537 386.81 327.653C385.303 334.743 384.003 341.886 382.639 348.994C382.009 351.176 380.527 351.942 378.476 352.634L376.827 353.161C369.131 355.624 361.391 358.154 353.455 359.665C352.897 359.302 352.104 359.32 351.734 359.901C351.348 359.937 350.952 359.959 350.56 359.996C348.44 352.174 344.811 344.595 339.956 338.107C353.527 338.544 367.196 334.969 380.107 330.972C380.629 331.225 381.318 331.067 381.539 330.467L381.737 330.41C383.905 329.767 386.779 328.19 382.224 328.991C382.499 328.35 382.652 327.662 382.752 326.97ZM70.6971 321.182C79.6928 319.697 86.5673 326.977 94.2446 330.319C98.8412 332.288 111.091 338.397 115.544 336.365C121.649 342.235 126.804 349.094 130.408 356.789C129.426 356.731 128.443 356.687 127.46 356.656C125.68 356.085 123.78 356.056 121.932 356.605C103.42 356.809 84.8952 360.402 66.4576 355.848L66.0333 355.769C62.2458 355.051 49.3148 352.321 48.5783 349.646C48.7717 348.481 52.2487 349.712 52.917 349.843C58.2311 350.889 63.6304 351.388 69.0152 351.911C70.5129 352.056 70.494 349.729 69.0152 349.581C62.5336 348.937 56.3924 346.506 50.4449 343.978C49.8127 343.698 48.1378 343.118 46.9789 342.365C52.4741 343.299 58.1365 343.461 63.6968 343.263C65.611 343.015 65.746 340.111 63.6968 340.168C59.9432 340.583 56.3571 338.732 53.2928 336.778L52.6259 336.346C47.5181 333.02 47.875 332.876 54.3299 334.112C63.8154 335.837 73.4151 335.773 82.994 335.115C84.3611 335.092 85.305 333.254 84.1739 332.27C79.7632 328.466 75.0347 325.073 70.6971 321.182ZM114.179 335.037L114.283 335.136C114.503 335.347 114.684 335.534 114.785 335.633L114.826 335.673C114.961 335.8 115.093 335.931 115.227 336.06C114.639 336.257 113.99 336.268 113.321 336.165C113.725 335.912 114.025 335.5 114.179 335.037ZM283.204 304.586L283.153 304.64C277.367 310.895 271.501 321.038 266.707 329.037C266.075 335.593 280.25 308.391 283.182 304.613L283.204 304.586ZM137.57 328.785C137.514 328.854 137.46 328.925 137.408 328.998L137.33 329.109L137.206 329.032C137.16 329.005 137.112 328.988 137.063 328.975C137.232 328.913 137.401 328.848 137.57 328.785ZM164.045 307.433C158.838 308.25 169.485 314.711 170.89 315.637C171.79 315.978 180.346 323.034 179.827 320.744L179.585 320.434C175.6 315.369 170.169 309.577 164.045 307.433ZM367.716 293.893C365.791 290.795 355.31 294.873 351.998 295.362C350.135 295.853 348.293 296.434 346.411 296.846C344.94 297.379 338.082 296.862 340.599 299.767C343.225 301.177 346.654 300.087 349.344 299.338C354.695 297.878 360.065 296.174 365.545 295.364C365.709 295.282 365.719 295.338 365.575 295.531C364.396 298.148 361.917 300.602 359.125 301.446C358.932 301.501 359.013 301.796 359.208 301.746C362.256 301.142 369.354 297.764 367.716 293.893Z" fill="black"/>
<path fill-rule="evenodd" clip-rule="evenodd" d="M224.81 61.0728C213.342 61.0728 199.582 66.6259 198.412 66.7369L198.381 66.7386C197.765 66.7386 195.36 68.5687 191.166 72.229L195.709 81.0799L195.341 81.4306C193.582 83.1154 192.08 84.6511 190.894 85.8617C181.214 95.7463 179.474 134.556 181.755 148.09C184.037 161.624 188.262 174.868 207.934 174.868C227.606 174.868 249.491 163.053 252.863 159.374C255.11 156.921 257.635 155.746 260.436 155.849C260.551 155.704 260.666 155.559 260.779 155.415L261.191 155.357C265.068 154.796 267.847 154.041 269.526 153.092C272.805 151.239 276.41 141.496 276.41 139.35C276.41 137.225 281.792 121.769 281.9 120.133L281.901 120.088C281.901 118.721 288.933 112.435 288.933 110.439C288.933 108.443 290.35 108.564 288.933 101.529L288.521 99.463C287.013 91.9736 284.061 79.5723 272.805 74.1835C260.436 68.2618 236.394 61.0728 224.81 61.0728Z" fill="white"/>
<path fill-rule="evenodd" clip-rule="evenodd" d="M274.714 73.9054C268.546 67.3654 233.524 57.2497 215.806 59.394L215.275 59.4627C213.861 59.6418 212.467 59.913 211.092 60.2814C206.647 61.3184 202.055 62.8885 198.382 65.5112C195.316 67.6568 185.643 71.1606 188.494 76.7735C187.437 78.774 187.042 81.2455 187.757 83.2158C187.846 83.8963 188.057 84.5231 188.325 85.173C186.067 88.5019 184.279 92.2664 182.831 95.847C180.302 104.858 178.728 114.236 178.497 123.43C177.73 140.897 179.648 161.762 194.879 173.057C204.08 180.215 218.493 180.455 228.833 171.581C229.42 170.887 232.179 169.016 231.258 168.687C230.984 168.976 230.703 169.258 230.416 169.534C230.429 169.503 230.431 169.473 230.426 169.44L230.696 169.195C231.204 168.726 231.862 168.045 231.112 168.178C231.079 168.217 231.043 168.25 231.008 168.288C230.849 168.383 230.729 168.466 230.636 168.539L230.588 168.577L230.602 168.562C231.034 168.102 231.293 167.632 230.647 167.932L230.562 167.974C230.275 168.275 229.983 168.565 229.686 168.846C229.691 168.813 229.686 168.779 229.668 168.744L229.945 168.476C230.215 168.212 230.174 168.21 230.042 167.997C230.617 167.192 229.543 167.67 229.468 167.984C228.797 167.825 228.207 169.084 227.775 169.237C208.82 183.793 181.313 170.878 181.759 130.319L181.765 129.526C181.896 116.557 182.988 103.227 188.359 91.4874C188.881 90.3565 189.465 89.2564 190.108 88.192C190.551 87.3938 191.025 86.616 191.535 85.8587C192.962 85.7435 194.371 85.4826 195.759 85.0783C196.235 84.9581 196.707 84.825 197.178 84.669C204.063 85.0441 210.795 85.4521 217.699 85.839L219.856 85.9731C225.705 86.3487 231.754 86.9503 236.474 90.5637C241.105 93.8535 241.126 100.341 245.09 103.952C250.744 107.785 250.785 111.24 251.874 116.888C251.793 121.145 248.837 127.331 254.261 129.123C253.346 130.426 254.621 129.8 254.722 129.343C254.732 129.345 254.742 129.348 254.75 129.348C253.935 130.862 255.133 129.909 255.239 129.422C255.303 129.404 255.367 129.358 255.431 129.294C254.61 130.621 255.938 129.692 255.859 129.45C257.446 127.013 260.713 126.635 263.016 127.281C263.044 127.368 263.146 127.375 263.21 127.329C273.002 129.449 270.476 149.696 260.441 147.738C260.012 147.651 260.022 147.857 259.937 147.877C260.169 147.269 259.515 147.516 259.522 147.644L259.482 147.642C259.451 147.639 259.464 147.636 259.44 147.644C259.664 146.401 258.403 148.202 258.503 148.276C258.464 148.253 258.42 148.24 258.382 148.235L258.425 148.117C258.635 147.56 258.617 147.791 258.615 147.472C258.773 147.078 258.784 147.25 258.747 146.994C258.195 146.566 258.031 147.863 257.847 147.958C258.163 147.518 257.912 147.159 257.614 147.398C255.354 152.146 252.434 156.607 248.661 160.121C248.249 160.446 247.831 160.766 247.399 161.068C245.794 162.464 243.332 163.362 241.83 164.599C241.83 164.619 241.84 164.645 241.855 164.67L241.821 164.702V164.702L241.786 164.734L241.264 164.985C241.11 165.116 240.972 165.262 240.849 165.423C240.718 165.574 240.603 165.74 240.505 165.916C240.457 166.131 240.564 166.221 240.769 166.129C240.859 166.098 240.949 166.062 241.038 166.029C241.033 166.037 241.031 166.042 241.025 166.047C240.996 166.091 240.797 166.552 241.026 166.477L241.054 166.467C241.179 166.42 241.305 166.369 241.428 166.321C241.282 166.502 241.149 166.699 241.031 166.866C240.905 166.996 240.828 167.15 240.797 167.324C240.803 167.421 240.856 167.462 240.954 167.449C241.102 167.4 241.248 167.349 241.394 167.295L241.353 167.375C241.25 167.578 241.103 167.918 241.364 167.805C241.587 167.736 241.802 167.656 242.017 167.569C242.035 167.605 242.07 167.618 242.142 167.585C242.826 167.342 243.487 167.045 244.12 166.694C244.676 166.29 245.237 165.893 245.795 165.492C246.32 165.177 246.827 164.827 247.311 164.433C250.551 162.343 253.386 159.688 255.636 156.731C259.399 159.986 266.922 156.877 271.575 154.329C275.691 152.052 277.309 147.842 277.727 143.302C278.597 137.191 283.597 135.099 283.249 121.69C283.257 121.693 283.265 121.693 283.275 121.693C283.457 121.639 283.633 121.568 283.8 121.475C283.971 121.394 284.133 121.296 284.284 121.179L284.471 120.92V120.92C284.568 120.867 284.655 120.81 284.722 120.754L284.756 120.798C284.866 120.93 284.792 120.732 284.786 120.693L285.111 120.251C285.881 119.201 286.726 118.022 287.414 117.08L287.436 117.118C287.452 117.147 287.46 117.168 287.452 117.177C289.091 114.826 290.631 111.987 291.059 109.238C291.564 107.121 291.367 104.939 290.926 102.978C289.036 96.1093 282.844 80.5669 274.714 73.9054ZM230.26 168.89L230.363 168.799L230.273 168.912C230.225 168.97 230.177 169.023 230.098 169.076C230.103 169.058 230.103 169.04 230.101 169.02C230.153 168.98 230.207 168.936 230.26 168.89ZM215.885 62.845C227.9 61.8132 239.718 64.4571 251.184 67.6576L251.975 67.8846C258.494 69.7428 265.388 71.4148 270.898 75.3919C278.595 81.2808 282.57 90.6489 286.039 99.2984C289.068 105.725 287.519 112.971 282.955 117.459C282.48 112.999 281.67 108.671 280.405 104.377C280.141 103.706 280.34 103.486 279.771 103.399C278.912 114.97 283.146 123.52 274.767 137.234C271.131 143.705 275.34 148.439 265.073 151.845L264.796 151.951C262.657 152.757 260.321 153.393 258.226 152.942L258.414 152.637C258.605 152.323 258.663 152.171 258.385 152.037C258.392 152.021 258.403 152.006 258.413 151.988C258.638 151.563 258.856 151.134 259.064 150.699C259.148 150.727 259.232 150.747 259.32 150.77C259.263 150.875 259.256 150.98 259.414 151.016C259.979 151.209 260.558 151.287 261.152 151.25L261.279 151.241C261.949 151.2 262.372 151.078 262.75 150.965C262.875 150.944 263 150.924 263.124 150.898C264.339 150.629 265.626 149.944 266.458 149.266C275.951 143.881 274.97 125.549 263.269 123.816C263.029 112.275 257.533 92.8024 248.412 81.8042C240.167 71.6877 217.658 67.303 201.998 68.8491C201.77 68.9245 201.542 69.0008 201.313 69.0778C198.897 69.2922 196.595 70.3673 194.177 70.8667C195.913 69.5672 197.882 68.7017 199.911 67.9661C203.952 65.4969 208.585 64.1609 213.062 63.2186C213.989 62.9909 214.929 62.8655 215.885 62.845ZM263.805 133.088C263.176 132.747 263.248 133.077 263.103 132.981C258.578 132.612 253.699 136.57 251.169 139.868C251.369 140.076 251.909 139.462 252.004 139.364C252.017 139.377 252.032 139.387 252.048 139.393L251.977 139.492C250.952 140.961 252.984 139.232 253.175 138.876C253.208 138.894 253.241 138.904 253.28 138.896C253.119 139.054 252.627 139.466 252.542 139.758L252.412 139.867C251.181 140.919 251.284 141.711 252.68 140.216C252.647 140.285 252.634 140.349 252.657 140.401L252.609 140.433C251.922 140.912 251.358 142.248 252.793 140.876C252.644 141.878 254.215 139.942 254.266 139.955C256.986 137.823 260.99 135.749 264.402 135.47L264.519 135.457C265.145 135.377 265.441 135.191 265.221 134.782C265.992 134.599 265.812 134.22 265.447 134.232C265.991 133.875 265.501 133.533 265.186 133.667C265.403 133.067 264.532 133.466 264.453 133.383C264.001 132.687 263.88 133.267 263.805 133.088ZM273.29 95.9007C271.117 95.1056 264.697 97.486 265.21 100.639C265.516 101.362 266.524 101.777 267.232 101.368L268.157 100.748C269.765 99.6723 271.216 98.7287 272.943 97.7902C273.883 97.3243 274.288 96.3352 273.29 95.9007ZM260.925 91.2158L261.764 90.6702C266.294 87.7091 272.697 83.2224 261.341 87.8645C260.046 88.4189 258.327 88.7469 257.62 89.978C256.511 92.2472 259.431 92.3996 260.925 91.2158ZM260.415 77.9298C260.779 76.5521 256.256 78.1688 254.94 78.595L254.739 78.6707C253.458 79.1474 251.99 79.5896 251.224 80.6935C250.327 82.2189 252.143 82.5349 253.268 81.8459C255.576 80.3399 258.105 79.2037 260.415 77.9298ZM248.914 71.5119C251.46 68.7351 244.647 71.3952 243.626 72.1336L243.597 72.1553C242.836 72.6908 242.99 73.8442 243.706 74.1829C245.741 74.2216 247.239 72.5268 248.914 71.5119ZM237.33 68.4695C241.377 65.5644 236.046 66.9462 234.194 68.0847C232.932 69.1964 234.232 71.073 237.33 68.4695Z" fill="black"/>
<path fill-rule="evenodd" clip-rule="evenodd" d="M222.877 141.351C218.486 140.819 214.23 142.161 209.938 142.838C207.671 143.195 205.402 143.462 203.109 143.561C202.647 143.581 202.186 143.593 201.724 143.602C201.681 143.196 201.454 142.824 200.961 142.6C199.951 142.143 199.142 141.937 198.033 141.981C197.018 142.021 195.999 142.125 194.999 142.308C193.184 142.64 191.361 143.395 190.033 144.705C186.96 147.738 187.428 152.609 189.802 155.912C194.708 162.738 203.662 163.054 211.33 162.965L212.038 162.956C219.02 162.857 229.01 163.896 232.182 155.961C233.349 153.044 233.187 149.661 231.759 146.863C230.055 143.525 226.469 141.786 222.877 141.351ZM201.067 152.715L201.129 152.718C204.348 152.842 207.567 152.929 210.788 152.986C210.692 153.812 210.593 154.638 210.481 155.463C210.393 156.112 210.298 156.76 210.2 157.407C210.158 157.681 210.005 158.106 210.049 158.378L210.064 158.485V158.485C209.899 158.56 209.749 158.68 209.637 158.855C209.598 158.915 209.57 158.976 209.542 159.037C207.041 159.057 204.35 159.008 201.801 158.554L201.796 158.499V158.499C201.749 158.173 201.614 157.954 201.434 157.804C201.255 156.767 201.271 155.662 201.202 154.633C201.159 153.993 201.112 153.354 201.067 152.715ZM213.248 153.03C215.569 153.069 217.89 153.099 220.21 153.071L221.263 153.055V153.055C221.041 154.247 220.799 155.434 220.598 156.634C220.388 157.884 221.49 158.679 222.443 158.647C222.336 158.665 222.229 158.683 222.122 158.698C219.143 159.119 216.049 159.007 213.025 159.004C213.188 158.055 213.122 156.985 213.146 156.194L213.151 156.071C213.197 155.057 213.23 154.043 213.248 153.03ZM229.01 152.811C228.929 153.431 228.772 154.037 228.538 154.602C227.548 156.987 225.277 158.101 222.874 158.569C223.291 158.426 223.622 158.08 223.706 157.488C223.914 156.017 223.989 154.522 223.995 153.028C225.669 153.012 227.355 152.977 229.01 152.811ZM192.335 152.301C193.527 152.582 194.912 152.454 196.082 152.507C197.177 152.556 198.274 152.6 199.369 152.644C199.318 153.391 199.267 154.138 199.213 154.885C199.142 155.85 199.135 156.87 198.95 157.831C196.745 157.079 194.769 155.874 193.287 153.946C192.917 153.466 192.587 152.902 192.335 152.301ZM223.381 145.265C225.366 145.734 227.244 146.726 228.253 148.54C228.852 149.616 229.116 150.891 229.065 152.149C227.388 151.954 225.682 151.88 223.984 151.818C223.978 151.513 223.971 151.208 223.962 150.904L223.936 150.123C223.889 148.635 223.866 146.766 223.381 145.265ZM213.11 145.446L213.983 145.348C216.41 145.072 218.835 144.782 221.261 144.949C221.613 144.973 221.969 145.011 222.326 145.063C221.898 146.609 221.934 148.425 221.754 149.955C221.685 150.547 221.598 151.134 221.501 151.718L221.08 151.699V151.699C218.476 151.558 215.87 151.471 213.264 151.368C213.264 150.879 213.261 150.39 213.254 149.901L213.244 149.412C213.214 148.162 213.295 146.755 213.11 145.446ZM200.925 145.248C203.466 145.658 206.093 145.745 208.589 145.748C209.586 145.749 210.583 145.688 211.579 145.6C211.514 146.13 211.48 146.666 211.431 147.188C211.333 148.243 211.221 149.297 211.098 150.35L210.989 151.272V151.272C207.786 151.127 204.584 150.97 201.382 150.808L200.93 150.783V150.783L200.803 149.013C200.717 147.832 200.622 146.651 200.488 145.476L200.589 145.44V145.44C200.707 145.391 200.819 145.325 200.925 145.248ZM199.821 145.688C199.681 147.357 199.603 149.034 199.5 150.706L197.39 150.593C197.038 150.574 196.686 150.555 196.334 150.534C194.966 150.456 193.208 150.042 191.856 150.428C191.753 149.2 192.104 148.003 193.214 147.178C195.162 145.729 197.642 146.245 199.821 145.688ZM207.033 130.763C203.89 128.965 196.003 127.127 195.503 132.778C195.274 135.378 197.209 137.532 199.469 138.494L199.554 138.529C201.673 139.399 205.43 140.382 207.265 138.495C208.791 136.924 206.766 134.108 204.869 135.394C203.895 136.056 201.842 135.568 200.755 135.254L200.687 135.234C199.513 134.889 197.948 133.786 198.433 132.343C198.862 131.065 200.69 130.832 201.835 130.791C203.544 130.73 205.207 131.126 206.9 131.255C207.168 131.275 207.251 130.887 207.033 130.763ZM194.012 121.677C189.746 121.478 187.092 126.13 188.073 129.943C188.242 130.601 188.979 131.246 189.69 131.172L189.869 131.156C189.96 131.147 190.052 131.136 190.136 131.113C190.811 130.926 191.416 130.224 191.367 129.497L191.354 129.285C191.254 127.484 191.45 125.409 193.593 124.973C195.41 124.603 196.425 126.35 196.446 127.959C196.45 128.244 196.772 128.444 197.024 128.29C198.338 127.492 198.566 125.903 198.064 124.535C197.428 122.802 195.836 121.762 194.012 121.677ZM225.673 122.675C222.568 121.64 219.218 123.293 217.715 126.035C217.188 126.188 216.661 126.594 216.734 127.215C216.84 128.11 216.999 128.674 217.62 129.352C218.591 130.413 220.41 129.87 220.814 128.564L220.831 128.505C221.29 126.817 223.15 125.703 224.845 126.294C226.825 126.984 226.768 129.073 228.157 130.29C228.32 130.433 228.516 130.456 228.711 130.361C230.186 129.649 229.921 127.506 229.395 126.28C228.706 124.67 227.365 123.239 225.673 122.675ZM229.901 113.258C227.385 110.694 220.825 108.213 219.104 112.948C218.776 113.849 219.474 115.066 220.414 115.253C221.953 115.559 223.319 114.891 224.848 115.011C226.086 115.108 227.378 115.521 228.367 116.287C231.109 118.409 231.712 121.997 233.622 124.697C233.715 124.829 233.895 124.774 233.913 124.619C234.347 120.688 232.657 116.066 229.901 113.258ZM197.09 110.734C195.42 110.145 193.53 110.195 191.851 110.718C190.161 111.244 188.609 112.244 187.413 113.55C186.87 114.143 186.368 114.798 185.966 115.495C185.752 115.864 185.527 116.626 185.284 117.081C183.969 117.839 183.406 119.567 184.584 120.797L184.637 120.851L184.795 121.007C185.428 121.633 186.382 121.904 187.246 121.654C189.179 121.095 189.414 119.574 190.084 117.96C190.526 116.893 191.283 115.95 192.201 115.257C194.372 113.619 197.93 113.098 200.543 113.869C200.682 113.91 200.846 113.733 200.747 113.605C200.252 112.964 199.966 112.438 199.303 111.922C198.63 111.397 197.896 111.018 197.09 110.734Z" fill="black"/>
<path fill-rule="evenodd" clip-rule="evenodd" d="M225.854 156.885C223.78 152.032 219.254 148.466 214.043 147.162C210.216 146.207 206.2 146.237 202.298 146.616C200.255 146.813 198.062 146.975 196.136 147.733C194.491 148.381 193.151 149.605 192.143 151.042C190.943 152.745 190.127 154.694 189.554 156.692C189.473 156.976 189.396 157.262 189.325 157.55C189.574 159.057 190.103 160.34 191.501 161.288C192.865 162.213 194.492 162.592 196.115 162.726C196.274 162.65 196.427 162.571 196.568 162.491C199.097 161.045 200.876 157.629 204.067 158.092C206.915 158.504 208.789 162.083 210.483 164.182C215.919 164.815 221.35 163.183 225.773 160.078C225.998 159.016 226.011 157.944 225.854 156.885M185.63 153.204C186.065 151.985 186.613 150.804 187.262 149.692C189.408 146.015 192.703 143.084 196.614 141.409C205.867 137.452 217.839 140.242 225.311 146.731C227.864 148.95 230.444 152.21 231.225 155.717C231.458 155.763 231.678 155.884 231.859 156.055C237.258 152.66 242.817 149.394 247.167 144.688C250.327 141.268 252.524 137.222 253.87 132.775C253.98 132.409 254.571 132.463 254.553 132.868C254.548 132.963 254.542 133.057 254.537 133.152C254.594 132.978 254.86 133.067 254.88 133.236C255.604 138.638 256.51 144.365 255.676 149.795C255.177 153.035 253.703 155.407 251.734 157.968C249.623 160.713 247.234 163.267 244.791 165.716C243.241 167.27 241.621 169.063 239.723 170.203C237.516 171.527 235.011 172.534 232.655 173.555C230.258 174.598 227.826 175.561 225.347 176.396C220.392 178.071 215.271 179.228 210.06 179.735C205.887 180.14 201.119 180.581 197.121 179.013C194.056 177.812 191.583 175.64 189.621 173.028C187.485 170.182 185.796 166.941 184.863 163.523C183.892 159.973 185.426 153.776 185.63 153.204" fill="black"/>
<path fill-rule="evenodd" clip-rule="evenodd" d="M175.811 123.903C178.254 140.403 195.301 142.227 198.33 125.847C197.844 125.635 197.494 125.216 197.567 124.404C197.585 120.834 196.475 117.061 193.251 115.076C189.92 113.028 186.021 112.825 182.166 112.876C174.809 112.701 174.963 118.844 175.811 123.903M200.999 116.727C203.308 116.63 206.229 116.712 208.298 118.117C208.866 116.587 210.344 114.954 211.837 114.081C206.288 114.243 200.576 113.698 194.986 113.274C196.324 114.185 197.569 115.554 198.378 117.137C199.129 116.737 200.204 116.774 200.999 116.727M211.176 125.652C217.579 147.665 233.56 138.07 235.303 135.249C238.445 130.581 239.037 119.233 236.299 116.199C232.38 113.455 226.833 114.162 222.204 114.094C213.7 114.209 207.66 116.75 211.176 125.652M168.252 115.528C169.991 115.301 171.85 115.255 173.467 116.02C173.965 113.906 175.529 112.139 177.294 111.361C177.507 111.093 177.475 110.95 178.205 110.99C182.686 109.644 187.701 110.356 192.008 111.736C198.809 112.308 205.944 112.759 212.803 113.547C219.227 110.665 238.616 110.243 239.821 117.346C241.337 117.12 243.918 115.928 245.192 117.544C254.534 115.962 264.187 118.161 273.569 119.14C275.931 119.575 277.147 124.256 274.466 124.192C272.959 123.783 274.513 121.277 272.483 121.088C263.431 120.101 254.576 118.7 245.431 118.536C245.749 120.113 239.382 120.216 239.288 119.295C239.274 119.302 239.26 119.306 239.246 119.312C240.82 125.169 239.399 133.597 236.556 137.228C232.573 141.984 222.571 143.348 218.137 140.288C212.416 137.465 206.465 123.29 208.136 118.581C205.103 117.62 202.103 117.909 198.955 118.398C199.676 120.432 200.92 125.438 199.13 125.872C199.458 135.812 190.402 142.014 182.053 137.937C174.827 134.548 172.299 123.824 173.184 117.314C172.284 119.05 164.731 117.16 168.252 115.528" fill="black"/>
</svg>
