<svg width="36" height="28" viewBox="0 0 36 28" fill="none" xmlns="http://www.w3.org/2000/svg">
<g opacity="0.5" clip-path="url(#clip0_12_508)">
<path d="M2.41412 27.9415L33.7282 27.9415C34.9423 27.9415 35.9647 26.9248 35.9647 25.6457L35.9647 2.42682C35.9648 1.18053 34.9744 0.131104 33.7282 0.131104L2.41412 0.131104C1.19998 0.131104 0.177364 1.14776 0.177364 2.42682L0.177364 25.6457C0.177364 26.9248 1.16792 27.9415 2.41412 27.9415Z" fill="white"/>
<path opacity="0.1" d="M2.41409 27.9415L33.7282 27.9415C34.9423 27.9415 35.9647 26.9248 35.9647 25.6457L35.9647 2.42682C35.9648 1.18053 34.9744 0.131104 33.7282 0.131104L2.41409 0.131104C1.19995 0.131104 0.177334 1.14776 0.177334 2.42682L0.177334 25.6457C0.177334 26.9248 1.16789 27.9415 2.41409 27.9415Z" fill="#272727"/>
<path opacity="0.1" d="M31.4914 27.9414L18.1031 16.8894L18.0072 16.2991L31.8109 6.09985L31.843 27.4496L31.4914 27.9414Z" fill="#272727"/>
<path d="M33.7282 27.9416C34.9744 27.9416 35.9648 26.9249 35.9648 25.6459L35.9648 2.39403C35.9648 1.11513 34.9744 0.885498 33.7282 0.885498C32.482 0.885498 31.4914 1.14789 31.4914 2.39403L31.4914 27.9416H33.7282Z" fill="#272727"/>
<path d="M33.7282 1.21342C32.1306 1.21342 31.8109 1.70544 31.8109 2.39403L31.8109 27.6137H33.7282C34.7826 27.6137 35.6453 26.7282 35.6453 25.6459L35.6453 2.39403C35.6453 1.67253 35.3258 1.21342 33.7282 1.21342ZM33.7282 0.885498C34.9744 0.885498 35.9647 1.14789 35.9647 2.39403L35.9647 25.646C35.9647 26.9251 34.9743 27.9417 33.7281 27.9417H31.4914L31.4914 2.39403C31.4914 1.11513 32.482 0.885498 33.7282 0.885498Z" fill="#272727"/>
<path d="M2.41413 27.9416H4.65089L4.65089 2.32851C4.65089 1.04946 3.66034 0.885498 2.41413 0.885498C1.16792 0.885498 0.177368 1.04946 0.177368 2.32851L0.177368 25.6788C0.177368 26.9249 1.16792 27.9416 2.41413 27.9416Z" fill="#272727"/>
<path d="M2.41413 1.21342C0.976252 1.21342 0.497007 1.50857 0.497007 2.32851L0.497007 25.6788C0.497007 26.761 1.35973 27.6464 2.41413 27.6464H4.3314L4.3314 2.32851C4.3314 1.47581 3.85201 1.21342 2.41413 1.21342ZM2.41413 0.885498C3.66034 0.885498 4.65089 1.04946 4.65089 2.32851L4.65089 27.9745H2.41413C1.16792 27.9745 0.177368 26.9577 0.177368 25.6788L0.177368 2.32851C0.177368 1.04946 1.16792 0.885498 2.41413 0.885498Z" fill="#272727"/>
<path opacity="0.1" d="M12 27.9414L35.7776 3.34762L34.5269 3.86966L17.9753 16.1023L0.177357 2.70752L0.177357 25.6786C0.177357 26.9248 1.16791 27.9414 2.41412 27.9414L12 27.9414Z" fill="#272727"/>
<path d="M18.1031 16.8895L35.0063 4.29617C35.9969 3.5419 36.2844 2.09889 35.5495 1.08223C34.8144 0.0655709 33.3766 -0.163914 32.3542 0.590354L18.071 11.2488L3.69237 0.459014C2.70182 -0.295254 1.29586 -0.065625 0.560963 0.983798C-0.173935 2.00046 0.0496559 3.44347 1.07227 4.19774L18.1032 16.8894L18.1031 16.8895Z" fill="#272727"/>
<path d="M2.41412 0.327918C1.80705 0.327918 1.2319 0.623072 0.848415 1.14771C0.241344 2.03332 0.433014 3.2467 1.26382 3.90268L18.1031 16.496L34.8145 4.03388C35.6772 3.3779 35.901 2.13161 35.2939 1.27905C34.9423 0.787031 34.3353 0.459258 33.6963 0.459258C33.2809 0.459258 32.8655 0.590309 32.546 0.852701L18.2948 11.4783L18.1031 11.6096L17.9114 11.4783L3.56442 0.688742C3.21286 0.459258 2.82952 0.327918 2.41412 0.327918ZM2.41412 0C2.86144 0 3.34083 0.131196 3.72417 0.426351L18.1031 11.2159L32.3862 0.557546C32.7694 0.262392 33.2487 0.131196 33.7281 0.131196C34.431 0.131196 35.134 0.459113 35.5813 1.08233C36.2843 2.09885 35.9967 3.54186 35.0062 4.29612L18.1029 16.9224L1.10407 4.19783C0.113518 3.44357 -0.110214 2.03332 0.592762 0.983897C1.04008 0.327917 1.71114 0 2.41412 0Z" fill="#272727"/>
</g>
<defs>
<clipPath id="clip0_12_508">
<rect width="36" height="28" fill="white" transform="matrix(-1 0 0 1 36 0)"/>
</clipPath>
</defs>
</svg>
