<svg width="36" height="37" viewBox="0 0 36 37" fill="none" xmlns="http://www.w3.org/2000/svg">
<g opacity="0.5" clip-path="url(#clip0_12_482)">
<path d="M33.3425 0H2.6575C1.95269 0 1.27674 0.287764 0.778364 0.799985C0.279986 1.31221 0 2.00693 0 2.73132V34.2687C0 34.9931 0.279986 35.6878 0.778364 36.2C1.27674 36.7122 1.95269 37 2.6575 37H33.3425C34.0473 37 34.7233 36.7122 35.2216 36.2C35.72 35.6878 36 34.9931 36 34.2687V2.73132C36 2.00693 35.72 1.31221 35.2216 0.799985C34.7233 0.287764 34.0473 0 33.3425 0ZM10.73 31.5194H5.3175V13.8493H10.73V31.5194ZM8.02 11.4006C7.40605 11.3971 6.80687 11.2067 6.2981 10.8535C5.78933 10.5003 5.39376 10.0001 5.16132 9.41602C4.92887 8.83197 4.86997 8.19025 4.99205 7.57183C5.11412 6.95341 5.4117 6.38601 5.84723 5.94125C6.28276 5.49648 6.83672 5.19429 7.4392 5.07279C8.04168 4.9513 8.66567 5.01596 9.23243 5.2586C9.79919 5.50125 10.2833 5.91101 10.6237 6.43617C10.9641 6.96133 11.1455 7.57836 11.145 8.20938C11.1508 8.63184 11.0738 9.05119 10.9185 9.44241C10.7633 9.83363 10.533 10.1887 10.2414 10.4865C9.94974 10.7843 9.60277 11.0187 9.22114 11.1758C8.8395 11.3328 8.431 11.4093 8.02 11.4006ZM30.68 31.5348H25.27V21.8814C25.27 19.0344 24.0925 18.1557 22.5725 18.1557C20.9675 18.1557 19.3925 19.3993 19.3925 21.9533V31.5348H13.98V13.8622H19.185V16.3108H19.255C19.7775 15.224 21.6075 13.3663 24.4 13.3663C27.42 13.3663 30.6825 15.2085 30.6825 20.6044L30.68 31.5348Z" fill="black"/>
</g>
<defs>
<clipPath id="clip0_12_482">
<rect width="36" height="37" fill="white"/>
</clipPath>
</defs>
</svg>
